<?xml version="1.0" encoding="UTF-8"?>
<!-- Generator: Adobe Illustrator 25.2.3, SVG Export Plug-In . SVG Version: 6.00 Build 0)  -->
<svg xmlns="http://www.w3.org/2000/svg" xmlns:xlink="http://www.w3.org/1999/xlink" version="1.1" id="Capa_1" x="0px" y="0px" viewBox="0 0 512 512" style="enable-background:new 0 0 512 512;" xml:space="preserve" width="512" height="512">
<g>
	<g>
		<path style="fill:#FFFFFF;" d="M18.112,465.832c-7.336,0-13.433-5.657-13.979-12.973c-0.219-2.939-0.416-5.854-0.611-8.792    c-0.279-3.814-0.519-7.742-0.757-11.649l-0.605-10.6c-0.132-2.336-0.243-4.658-0.352-6.983l-0.525-11.299    c-0.073-1.662-0.274-7.076-0.3-8.06c-0.373-10.151-0.637-20.232-0.777-29.816c0-0.042-0.001-0.16-0.001-0.259    c-0.222-12.272-0.264-24.427-0.12-36.13c0,0,0.072-6.45,0.072-6.466c0.05-3.346,0.122-6.714,0.196-10.06    c0.551-24.565,1.767-53.573,6.618-82.496c1.493-9.032,3.215-17.388,5.258-25.512c1.719-6.821,3.523-13.039,5.517-19.02    c9.68-29.533,23.714-54.727,41.746-74.945c-2.062-4.8-3.145-10.003-3.145-15.339c0-21.511,17.5-39.011,39.011-39.011    c9.699,0,18.844,3.581,25.863,9.801c29.766-13.352,64.365-20.369,100.816-20.369c8.923,0,17.978,0.428,26.913,1.272    c22.262,2.116,40.146,6.175,55.894,12.715c1.512-0.553,3.136-0.852,4.814-0.852c0.121,0,0.241,0.001,0.362,0.005    c6.146,0.157,11.433,4.292,13.113,10.134c9.348,5.631,18.154,12.427,26.289,20.285c19.285,19.951,35.975,46.368,46.157,71.461    c0.882,2.202,1.743,4.441,2.583,6.716c1.095-0.056,2.192-0.084,3.287-0.084c6.586,0,13.037,0.978,19.186,2.906    c0.597,0.157,1.181,0.344,1.75,0.561c5.138,1.75,9.995,4.118,14.447,7.046c0.517,0.306,1.014,0.637,1.491,0.992    c4.086,2.818,7.862,6.123,11.234,9.831c0.171,0.183,0.619,0.69,0.678,0.757c5.492,6.276,9.664,13.382,12.399,21.122    c0.147,0.399,0.276,0.791,0.391,1.178c0.658,1.878,1.231,3.909,1.743,6.183c0,0,0.159,0.685,0.185,0.81    c0.94,4.442,1.416,8.996,1.416,13.535c0,13.645-4.268,26.729-12.029,37.608c0.796,0.681,1.59,1.374,2.378,2.075    c0.097,0.087,1.52,1.4,1.52,1.4c10.204,9.407,19.185,20.863,26.59,33.948c0.607,1.072,1.059,2.194,1.36,3.338    c3.856,7.068,7.339,14.737,10.373,22.847c0.06,0.159,0.116,0.318,0.17,0.479c2.928,7.896,5.39,16.12,7.318,24.452    c3.258,13.979,5.416,29.16,6.591,46.39c1.044,15.246,1.238,30.697,1.287,45.141l0.056,1.092c0.012,0.239,0.018,0.477,0.018,0.717    c0,7.741-6.277,14.235-14.018,14.235L18.112,465.832z"/>
	</g>
	<g>
		<g>
			<path style="fill:#3C1C87;" d="M493.273,444.443c-0.097-29.681,2.083-54.093-4.66-83c-1.74-7.469-3.915-14.865-6.574-22.091     c-0.121-0.363-0.266-0.701-0.387-1.063v-0.024c-2.973-7.976-6.502-15.735-10.683-23.058c-0.048-0.072-0.073-0.145-0.121-0.218     c-6.429-11.36-14.381-21.777-24.001-30.647c-0.121-0.121-0.266-0.242-0.387-0.338c-0.29-0.29-0.556-0.532-0.846-0.798     c-7.517-6.695-15.88-12.568-23.348-19.288c-0.048-0.048-0.121-0.097-0.169-0.169c-4.399-3.964-8.508-8.242-11.916-13.173     c-9.378-13.608-12.327-30.478-16.17-46.575c-3.48-14.599-8.194-29.246-14.212-43.264c-0.048-0.097-0.072-0.193-0.121-0.29     c-9.015-20.979-20.98-40.557-36.231-56.581c-0.193-0.218-0.387-0.435-0.604-0.653c-11.65-12.109-25.209-22.116-40.799-29.076     c-17.282-7.735-36.134-11.263-54.962-13.052c-62.407-5.898-129.889,9.329-173.419,54.431     c-20.133,20.859-34.104,46.986-43.168,74.637c-1.982,5.946-3.698,11.964-5.221,18.006c-2.03,8.073-3.674,16.218-5.027,24.412     c-4.447,26.514-5.825,53.561-6.429,80.486c-0.073,3.311-0.145,6.647-0.193,9.958v0.193c-0.024,2.043,5.922,116.234,6.339,122.965     l237.182,3.821h11.508L493.273,444.443z"/>
		</g>
		<g>
			<g style="opacity:0.07;">
				<path style="fill:#FFBCC9;" d="M381.033,160.107c-14.381,3.166-24.17,16.532-36.835,24.194      c-11.36,6.889-25.475,9.088-38.382,5.97c-16.121-3.867-29.197-15.179-43.24-23.977c-14.043-8.798-31.759-15.324-46.914-8.629      c-18.321,8.073-23.928,30.575-32.412,48.702c-8.725,18.684-22.937,35.167-41.258,44.666      c-18.321,9.523-40.847,11.529-59.845,3.456c-10.586-4.496-19.699-11.819-29.874-17.185c-9.451-4.979-20.665-8.266-30.792-5.366      c1.354-8.193,2.997-16.339,5.027-24.412c1.523-6.042,3.239-12.061,5.221-18.006c7.952,2.49,15.831,5.607,23.711,8.266      c22.043,7.42,47.035,11.118,68.038,1.088c22.792-10.876,35.529-34.925,49.5-55.953c13.994-21.004,34.538-42.08,59.748-40.654      c15.348,0.87,28.762,10.031,42.128,17.62c13.366,7.589,29.221,14.042,43.772,9.087c11.94-4.084,19.844-14.719,25.451-26.393      C359.691,118.801,371.896,138.741,381.033,160.107z"/>
			</g>
			<g style="opacity:0.07;">
				<path style="fill:#FFBCC9;" d="M472.081,314.36c-5.801,4.423-11.577,8.943-17.934,12.399      c-14.308,7.831-32.049,10.345-48.291,6.792c-20.254-4.399-36.714-17.257-54.382-27.263      c-17.644-10.006-39.953-17.451-59.023-9.837c-23.01,9.185-30.091,34.78-40.75,55.422c-10.997,21.27-28.859,40.001-51.917,50.829      c-23.034,10.828-51.361,13.1-75.265,3.916c-13.317-5.1-24.798-13.438-37.584-19.554c-12.786-6.091-28.158-9.934-41.669-5.22      c-7.082,2.49-13.027,7.13-17.91,12.423c-4.52,4.907-8.097,10.248-11.021,15.928c-0.725-15.179-1.209-30.358-1.426-45.56      c-0.218-11.94-0.266-23.88-0.121-35.819c3.287-0.653,6.622-1.064,10.03-1.233c22.792-1.208,44.449,7.928,66.105,14.526      c27.747,8.435,59.168,12.641,85.586,1.232c28.665-12.375,44.666-39.735,62.286-63.663      c17.596-23.904,43.433-47.856,75.144-46.237c19.312,0.991,36.182,11.384,52.98,20.037c16.798,8.629,36.738,15.952,55.059,10.32      c0.508-0.169,1.015-0.338,1.522-0.508c7.469,6.719,15.831,12.593,23.348,19.288c0.411,0.387,0.822,0.749,1.233,1.136      C457.7,292.583,465.651,303,472.081,314.36z"/>
			</g>
		</g>
		<g>
			<g>
				<path style="fill:#924CA5;" d="M99.34,444.811l144.684,5.181c-3.245-8.594-8.222-16.448-14.996-22.517      c-0.629-0.556-1.257-1.087-1.909-1.619c-13.197-10.659-32.944-13.656-47.518-5.027c0.218-3.698,0.024-7.396-0.556-11.046      c-2.296-14.55-10.731-28.158-22.792-36.69c-2.635-1.861-5.462-3.505-8.435-4.834c-4.447-2.006-9.184-3.311-13.994-3.964      c-7.614-1.088-15.469-0.508-22.913,1.571c-8.822,2.465-17.016,7.034-23.493,13.511c-0.169-17.62-9.16-34.611-22.816-45.633      c-6.164-4.979-13.269-8.725-20.956-10.78c-9.209-2.441-19.868-2.296-30.019,0.242c-0.024,2.078-0.048,4.157-0.073,6.236      c-0.145,11.94,0.121,36.013,0.121,36.013C13.735,369.561,99.34,444.811,99.34,444.811z"/>
			</g>
			<g>
				<path style="fill:#924CA5;" d="M486.6,441.106c-0.051-14.678-0.887-94.963-3.715-102.528v-0.024      c-3.094-8.266-6.792-16.339-11.166-23.928c-6.381-11.118-14.521-20.831-23.947-29.533c-0.411-0.387-1.148-0.98-1.311-1.09      c-0.266,0.338-0.507,0.652-0.749,0.991c-7.88,10.828-12.714,23.541-16.46,36.4c-14.551-12.423-37.342-10.997-53.415-0.435      c-1.063,0.701-2.103,1.426-3.094,2.199c-10.828,8.411-18.2,20.303-22.913,33.306c-0.145,0.314-0.266,0.653-0.387,0.991      c-1.112,3.094-2.055,6.26-2.852,9.475c-0.798,2.973-1.426,5.994-1.958,9.015c-6.042-1.015-12.133-0.749-18.031,0.531      c-5.028,1.112-9.934,2.973-14.574,5.439c-8.242,4.326-15.638,10.562-21.439,17.789c-11.545,14.384-17.776,32.209-21.934,50.288      h17.204L486.6,441.106z"/>
			</g>
			<g>
				<path style="fill:#FFBCC9;" d="M497.36,449.992c-0.051-14.678-0.251-29.425-1.254-44.077c-1.039-14.792-2.9-29.511-6.26-43.965      c-1.812-7.831-4.133-15.59-6.961-23.155c-0.29,0.169-0.556,0.338-0.846,0.556c-1.305,0.798-2.562,1.668-3.746,2.61      c-10.9,8.532-18.272,20.81-24.001,33.403c-8.774-10.949-24.242-15.082-38.019-12.471c-13.753,2.61-25.838,11.142-35.216,21.559      c-3.746,4.157-7.106,8.604-10.248,13.245c-4.689,6.961-8.87,14.309-13.028,21.632c-5.075-8.508-16.363-11.795-26.079-9.861      c-9.716,1.934-18.055,8.097-25.234,14.937c-7.95,7.584-14.891,16.215-20.609,25.587H497.36z"/>
			</g>
			<g>
				<path style="fill:#FFBCC9;" d="M14.545,397.866c0.048,1.692,0.121,3.36,0.193,5.027c0.121,2.635,0.242,5.293,0.363,7.928      c0.169,3.408,0.314,6.792,0.507,10.199c0.193,3.408,0.387,6.816,0.58,10.2c0.242,3.964,0.484,7.952,0.773,11.915      c0.153,2.292,0.313,4.57,0.477,6.855h239.709c-0.323-0.683-0.661-1.36-1.025-2.021c-5.632-10.224-15.783-17.789-27.094-20.496      c-1.692-0.411-3.432-0.701-5.172-0.894c-13.366-1.378-27.24,4.133-36.013,14.309c-10.127-15.88-27.216-28.085-46.02-28.787      c-18.828-0.677-38.261,12.278-41.669,30.792c-2.489-8.097-5.124-16.339-8.29-24.291c-5.317-13.318-12.158-25.837-22.526-35.578      c-0.967-0.919-1.958-1.789-2.973-2.611c-14.115-11.722-33.21-17.112-51.434-15.106c-0.411,0.048-0.846,0.096-1.257,0.145      c0.145,9.886,0.411,19.771,0.774,29.656C14.472,396.03,14.497,396.948,14.545,397.866z"/>
			</g>
		</g>
		<g>
			<path style="fill:#FFBCC9;" d="M296.806,358.152c0,0,59.799,10.667,60.914,10.566c1.115-0.1,8.946-16.413,9.102-17.342     c0.155-0.929-9.905,8.422-9.905,8.422s-25.651-8.244-35.74-9.593c-10.089-1.349-20.131-3.837-34.239-3.422     c-14.108,0.415-53.201,29.799-53.201,29.799l-17.589-14.491c0,0,24.617-7.877,26.484-11.338     c1.347-2.496,3.56-20.491,4.689-30.325l0.118,0.103l1.451-6.364c0,0,4.555-13.166,3.767-13.689     c-0.788-0.522-3.192,5.431-3.192,5.431s2.163-9.28,1.144-9.719c-0.884-0.381-2.363,5.491-2.74,7.054     c0.373-1.594,1.738-7.709,0.852-8.09c-1.019-0.439-3.2,8.144-3.2,8.144s1.098-8.478,0.085-8.684     c-1.013-0.206-3.59,11.023-3.59,11.023s-0.633-6.495-1.718-6.467c-0.992,0.026-0.764,12.11-0.717,14.182l-10.05,31.776     l-32.929,3.407l-0.452,0.047l-2.779-4.236c0,0,5.506-0.943,7.411-3.204c1.905-2.261-5.185-14.713-5.185-14.713     s-0.023,0.019-0.063,0.053c-0.641-0.951-1.456-1.81-2.437-2.524c-4.515-3.285-10.838-2.288-14.124,2.227     c-3.285,4.515-2.288,10.839,2.227,14.124c0.098,0.071,0.198,0.138,0.297,0.205c0.005,0.075,0.027,0.139,0.067,0.19     c0.989,1.246,2.401,7.052,2.906,9.233l-36.978,8.223l-0.217-0.291l-10.495-38.591c0.17-0.835,3.32-16.394,2.12-16.64     c-1.233-0.252-3.274,7.037-3.274,7.037s-0.664-13.347-1.863-13.317c-1.199,0.03-1.665,9.934-1.665,9.934     s-0.748-10.245-2.001-9.951c-1.09,0.256-0.77,7.534-0.668,9.42c-0.112-1.851-0.609-8.875-1.697-8.62     c-1.253,0.294-0.667,11.331-0.667,11.331s-1.537-7.286-2.544-6.85c-1.006,0.436,1.524,16.397,1.524,16.397l-0.023,3.175     l0.128-0.022c0.43,10.158,6.213,43.257,12.001,48.766c8.338,5.546,36.895,2.099,36.895,2.099s47.186,36.286,60.101,36.436     c12.915,0.15,48.333-38.682,48.333-38.682s54.026,22.768,55.644,23.946c1.618,1.177,3.29,4.608,3.29,4.608l15.634-13.535     l-13.521,1.789L296.806,358.152z"/>
		</g>
		<g>
			<g>
				<path style="fill:#7F6EEC;" d="M54.842,163.497c0,0-0.797-19.618,53.023-28.443c53.82-8.825,246.965-30.279,258.486,6.219      c5.562,17.62-44.146,59.041-148.185,63.155c-104.039,4.114-164.879-16.185-163.772-39.127L54.842,163.497z"/>
			</g>
			<g>
				<path style="fill:#3C1C87;" d="M261.838,183.481c0.499,5.356-18.749,11.529-42.992,13.787      c-24.243,2.258-44.3-0.253-44.799-5.609c-0.499-5.356,18.749-11.529,42.992-13.787      C241.282,175.614,261.339,178.125,261.838,183.481z"/>
			</g>
			<g>
				<path style="fill:#7F6EEC;" d="M296.742,124.334c-5.82-16.1-17.47-30.02-32.293-38.584      c-13.064-7.548-28.298-10.912-43.385-10.988c-15.087-0.075-30.774,1.043-45.106,5.758      c-13.564,4.463-26.169,12.515-36.751,22.103c-10.148,9.195-17.297,21.174-23.927,33.156      C175.998,135.621,236.411,131.178,296.742,124.334z"/>
			</g>
			<g>
				<g>
					
						<rect x="190.147" y="114.79" transform="matrix(0.9989 -0.0468 0.0468 0.9989 -5.4459 9.3153)" style="fill:#FFBCC9;" width="12.064" height="12.301"/>
				</g>
				<g>
					
						<rect x="159.513" y="117.47" transform="matrix(0.9959 -0.0901 0.0901 0.9959 -10.4622 15.4139)" style="fill:#FFBCC9;" width="12.064" height="12.301"/>
				</g>
				<g>
					
						<rect x="131.757" y="120.625" transform="matrix(0.9931 -0.1173 0.1173 0.9931 -13.9191 17.0374)" style="fill:#FFBCC9;" width="12.064" height="12.301"/>
				</g>
				<g>
					
						<rect x="220.466" y="112.424" transform="matrix(0.9991 -0.0429 0.0429 0.9991 -4.8733 9.8152)" style="fill:#FFBCC9;" width="12.064" height="12.301"/>
				</g>
				<g>
					<rect x="247.985" y="111.478" style="fill:#FFBCC9;" width="12.065" height="12.301"/>
				</g>
				<g>
					<rect x="270.695" y="111.951" style="fill:#FFBCC9;" width="12.064" height="12.301"/>
				</g>
			</g>
			<g>
				<path style="fill:#CD7CB5;" d="M366.115,148.146c-8.985,18.481-55.387,50.037-147.557,53.687      c-97.173,3.836-157.063-11.012-163.567-32.025c-0.463-1.482-0.667-2.983-0.593-4.503l-0.015-1.357      c0,0-0.337-20.064,53.475-28.885c53.83-8.839,246.972-30.297,258.498,6.208C366.986,143.272,366.911,145.607,366.115,148.146z"/>
			</g>
			<g>
				<path style="fill:#7F6EEC;" d="M366.115,148.146c-6.245,19.717-55.776,52.626-147.946,56.277      c-97.173,3.836-156.674-13.601-163.178-34.615c0.167-0.871,0.556-2.168,1.408-3.743c0.278-0.537,0.63-1.093,1.038-1.705      c4.522-6.523,16.844-16.232,50.421-21.736c20.828-3.41,62.54-8.728,106.512-11.822c0.611-0.056,1.241-0.093,1.853-0.13      c65.875-4.558,136.235-4.058,148.724,15.214c0.352,0.538,0.649,1.075,0.908,1.649      C365.948,147.738,366.041,147.942,366.115,148.146z"/>
			</g>
			<g>
				<g>
					<g>
						<path style="fill:#FFBCC9;" d="M218.558,179.796l-1.853,0.093l-2.335-49.087c0.611-0.056,1.241-0.093,1.853-0.13        L218.558,179.796z"/>
					</g>
				</g>
				<g>
					<g>
						<path style="fill:#FFBCC9;" d="M187.835,188.394l-0.333,1.816L56.399,166.065c0.278-0.537,0.63-1.093,1.038-1.705        L187.835,188.394z"/>
					</g>
				</g>
				<g>
					<g>
						<path style="fill:#FFBCC9;" d="M365.855,147.535l-117.352,37.598l-0.556-1.761l117-37.487        C365.299,146.423,365.596,146.96,365.855,147.535z"/>
					</g>
				</g>
			</g>
			<g>
				<g>
					<path style="fill:#FFBCC9;" d="M261.845,183.483c0.5,5.355-18.753,11.526-42.99,13.787c-24.257,2.261-44.306-0.26-44.806-5.615       c-0.019-0.204-0.019-0.408,0.018-0.611c2.569-5.322,19.917-9.562,43.228-11.729c21.773-2.039,37.921-1.192,43.809,2.631       C261.548,182.427,261.789,182.946,261.845,183.483z"/>
				</g>
				<g>
					<path style="fill:#3C1C87;" d="M261.104,181.945c-0.89,5.207-19.605,11.025-42.972,13.194       c-21.81,2.038-40.21,0.204-44.065-4.095c0.945-5.207,19.661-11.007,42.972-13.175       C238.811,175.83,257.212,177.665,261.104,181.945z"/>
				</g>
			</g>
			<g style="opacity:0.17;">
				<path style="fill:#FFBCC9;" d="M397.413,449.992l-26.604-52.295l-14.864-29.222l-5.438-10.683l-0.677-1.329l-31.807-62.503      l-28.786-56.606h-0.024l-19.602-38.527l-7.759-15.251l-0.024-0.048l-0.749-1.475l-0.121-0.217l-0.024-0.048l-0.121-0.266      c0,0-0.121-0.073-0.387-0.217c-0.048-0.049-0.096-0.072-0.145-0.097c-0.049-0.024-0.097-0.048-0.145-0.073      c-0.024-0.024-0.073-0.024-0.097-0.048c-0.459-0.242-1.136-0.556-2.079-0.918c-1.837-0.677-4.641-1.547-8.653-2.2      c-0.024-0.024-0.072-0.024-0.121-0.024c-6.647-1.112-16.556-1.716-30.744-0.435c-0.604,0.073-1.209,0.145-1.837,0.193      c-2.683,0.29-5.487,0.628-8.46,1.039c-5.463,0.773-10.055,1.619-13.898,2.49c-8,1.812-12.81,3.771-15.735,5.438      c-0.798,0.459-1.45,0.894-1.982,1.305c-0.049,0.048-0.097,0.072-0.145,0.096c-0.024,0.024-0.048,0.048-0.048,0.073      c-0.024,0-0.024,0-0.024,0c-0.097,0.097-0.193,0.169-0.29,0.242c-0.024,0.024-0.048,0.048-0.073,0.048      c-0.121,0.121-0.242,0.242-0.362,0.339c-0.653,0.604-1.015,1.136-1.233,1.523c0,0,0,0-0.024,0.024      c-0.024,0.073-0.073,0.145-0.097,0.218c0,0,0,0-0.024,0.024c-0.072,0.193-0.121,0.338-0.121,0.411      c-0.024,0.048-0.024,0.072-0.024,0.072l-4.858,13.463l-0.024,0.024l-13.56,37.56L134.79,299.81l-8.532,23.59l-9.015,24.943      l-6.333,17.523l-10.296,28.545l-8.75,24.194l-11.328,31.388H397.413z"/>
			</g>
			<g>
				<g>
					<path style="fill:#FFBCC9;" d="M240.03,85.092c-0.374,1.588,0.124,3.282,0.992,4.663c1.878,2.987,5.243,4.636,8.436,6.137       c1.506,0.707,3.011,1.415,4.517,2.123c1.548,0.728,3.122,1.464,4.812,1.726c1.69,0.262,3.542-0.009,4.848-1.114       c1.876-1.586,2.125-4.528,1.14-6.778c-0.985-2.25-2.946-3.92-4.984-5.292c-3.562-2.398-7.562-4.144-11.744-5.123       C245.186,80.764,240.825,81.717,240.03,85.092z"/>
				</g>
				<g>
					<path style="fill:#FFBCC9;" d="M278.585,102.901c0.192,2.671-1.819,4.992-4.49,5.184c-2.671,0.191-4.992-1.819-5.184-4.49       c-0.192-2.671,1.819-4.992,4.49-5.184C276.072,98.219,278.393,100.229,278.585,102.901z"/>
				</g>
			</g>
		</g>
		<g>
			<g>
				
					<ellipse transform="matrix(0.8801 -0.4748 0.4748 0.8801 -33.9435 56.4575)" style="fill:#924CA5;" cx="94.809" cy="95.434" rx="24.993" ry="24.993"/>
			</g>
			<g>
				
					<ellipse transform="matrix(0.1784 -0.984 0.984 0.1784 -266.7313 330.5442)" style="fill:#FFD461;" cx="64.571" cy="324.997" rx="33.015" ry="33.015"/>
			</g>
			<g>
				<g>
					<path style="fill:#FF85CA;" d="M451.802,232.424c0,26.998-21.004,49.089-47.566,50.805c-0.411,0.049-0.822,0.073-1.233,0.073       c-0.701,0.024-1.402,0.048-2.103,0.048c-3.65,0-7.227-0.387-10.659-1.136c-0.29-0.048-0.604-0.121-0.894-0.193       c-3.674-0.846-7.203-2.103-10.538-3.698c0,0,0,0-0.024,0c-0.218-0.121-0.411-0.218-0.629-0.339       c-7.275-3.601-13.559-8.943-18.321-15.445c-0.121-0.145-0.242-0.314-0.338-0.483c-1.474-2.03-2.78-4.157-3.916-6.405       c-0.097-0.169-0.193-0.363-0.29-0.532c-3.287-6.622-5.197-14.067-5.293-21.946c-0.024-0.242-0.024-0.483-0.024-0.725v-0.024       c0-3.601,0.363-7.106,1.088-10.514c0.048-0.266,0.121-0.531,0.193-0.822c5.124-22.647,25.402-39.566,49.645-39.566       c5.366,0,10.538,0.822,15.396,2.393c0.242,0.048,0.484,0.121,0.701,0.217c4.278,1.426,8.29,3.384,11.964,5.849       c0.194,0.097,0.387,0.218,0.556,0.363c3.384,2.296,6.478,5.003,9.209,8.024c0.145,0.145,0.266,0.314,0.411,0.459       c4.23,4.834,7.589,10.465,9.765,16.653c0.072,0.193,0.145,0.411,0.193,0.629c0.604,1.643,1.063,3.336,1.45,5.051       c0.048,0.218,0.097,0.435,0.145,0.629C451.415,225.221,451.802,228.774,451.802,232.424z"/>
				</g>
				<g>
					<g>
						<path style="fill:#FFBCC9;" d="M352.295,221.112c-0.387,0.29-0.798,0.556-1.233,0.797c0.048-0.266,0.121-0.531,0.193-0.822        c0.218-0.145,0.459-0.29,0.677-0.459c4.326-3.07,8.242-6.985,12.037-10.78c6.695-6.671,13.608-13.559,22.792-15.904        c2.514-0.653,5.148-0.919,7.71-1.184c2.755-0.29,5.632-0.58,8.315-1.353c4.979-1.45,9.329-4.471,13.511-7.493        c0.242,0.048,0.484,0.121,0.701,0.217c-4.326,3.166-8.822,6.357-14.043,7.855c-2.755,0.774-5.632,1.088-8.435,1.378        c-2.514,0.266-5.124,0.532-7.614,1.16c-9.039,2.32-15.565,8.846-22.502,15.759        C360.585,214.079,356.645,218.019,352.295,221.112z"/>
					</g>
					<g>
						<path style="fill:#FFBCC9;" d="M429.517,190.344c-5.172,3.287-10.949,5.656-16.58,7.976c-0.918,0.387-1.861,0.774-2.78,1.16        c-19.892,8.315-38.913,18.78-56.582,31.131c-1.16,0.822-2.369,1.668-3.577,2.562c-0.024-0.242-0.024-0.483-0.024-0.725        c1.112-0.822,2.199-1.595,3.263-2.345c17.693-12.375,36.763-22.865,56.679-31.179c0.918-0.387,1.861-0.773,2.804-1.16        c5.511-2.272,11.167-4.617,16.242-7.783C429.155,190.078,429.348,190.199,429.517,190.344z"/>
					</g>
					<g>
						<path style="fill:#FFBCC9;" d="M373.008,242.551c-5.559,4.568-11.239,9.233-17.426,13.1c-0.097-0.169-0.193-0.363-0.29-0.532        c6.139-3.818,11.795-8.483,17.354-13.027c7.976-6.55,16.218-13.318,25.741-17.572c2.804-1.257,5.728-2.296,8.556-3.287        c4.181-1.499,8.508-3.046,12.399-5.245c7.396-4.181,13.197-10.683,18.804-16.967c0.193-0.217,0.387-0.435,0.58-0.653        c0.145,0.145,0.266,0.314,0.411,0.459c-0.193,0.193-0.387,0.411-0.556,0.604c-5.631,6.308-11.481,12.858-18.925,17.064        c-3.964,2.248-8.315,3.794-12.52,5.293c-2.828,1.015-5.728,2.054-8.508,3.287C389.178,229.282,380.96,236.025,373.008,242.551        z"/>
					</g>
					<g>
						<path style="fill:#FFBCC9;" d="M449.095,216.109c-0.943,0.894-1.885,1.716-2.78,2.514        c-13.584,12.012-26.369,20.472-39.083,25.934c-6.333,2.707-13.028,4.834-19.505,6.888c-8.556,2.707-17.402,5.511-25.475,9.716        c-0.798,0.411-1.595,0.87-2.417,1.378c-0.121-0.145-0.242-0.314-0.338-0.483c0.773-0.483,1.595-0.967,2.489-1.426        c8.097-4.23,16.992-7.033,25.572-9.764c6.453-2.055,13.124-4.157,19.433-6.864c12.641-5.414,25.378-13.874,38.914-25.814        c0.967-0.87,1.982-1.764,2.997-2.707C448.974,215.674,449.047,215.891,449.095,216.109z"/>
					</g>
					<g>
						<path style="fill:#FFBCC9;" d="M396.284,280.522c2.828,0.242,5.438,1.451,7.952,2.707c-0.411,0.049-0.822,0.073-1.233,0.073        c-2.175-1.064-4.399-1.982-6.768-2.175c-2.054-0.193-4.133,0.218-5.994,1.088c-0.29-0.048-0.604-0.121-0.894-0.193        C391.45,280.86,393.867,280.305,396.284,280.522z"/>
					</g>
					<g>
						<path style="fill:#FFBCC9;" d="M450.69,221.789c-3.65,2.175-6.816,5.269-9.741,8.387c-0.58,0.604-1.136,1.232-1.716,1.837        c-3.432,3.722-6.985,7.565-11.336,10.248c-4.254,2.611-9.16,4.061-14.139,4.157c-0.604,0-1.184,0-1.789-0.024        c-1.475,0-3.021-0.024-4.471,0.266c-4.423,0.87-7.565,4.423-9.451,7.227c-1.281,1.958-2.369,4.109-3.408,6.163        c-0.797,1.595-1.619,3.215-2.538,4.762c-3.263,5.487-7.88,10.151-13.293,13.511c0,0,0,0-0.024,0        c-0.218-0.121-0.411-0.218-0.629-0.339c5.487-3.287,10.151-7.976,13.414-13.487c0.918-1.523,1.74-3.142,2.514-4.713        c1.064-2.079,2.151-4.23,3.481-6.236c1.933-2.9,5.196-6.55,9.813-7.493c1.523-0.29,3.094-0.266,4.592-0.266        c0.58,0.024,1.184,0.024,1.764,0.024c4.906-0.096,9.668-1.498,13.825-4.061c4.302-2.634,7.831-6.453,11.239-10.151        c0.556-0.604,1.136-1.233,1.716-1.861c2.997-3.19,6.26-6.357,10.031-8.58C450.594,221.378,450.642,221.596,450.69,221.789z"/>
					</g>
				</g>
			</g>
		</g>
		<g>
			<polygon style="fill:#FFFFFF;" points="71.08,235.652 84.541,239.212 71.859,242.994 67.965,258.555 63.293,242.994      49.401,239.991 63.96,236.097 67.965,221.426    "/>
		</g>
		<g>
			<polygon style="fill:#FFFFFF;" points="312.516,88.546 327.219,92.434 313.367,96.566 309.114,113.562 304.01,96.566      288.836,93.284 304.74,89.032 309.114,73.007    "/>
		</g>
		<g>
			<polygon style="fill:#FFFFFF;" points="294.415,257.22 309.117,261.109 295.265,265.24 291.012,282.237 285.909,265.24      270.734,261.96 286.638,257.707 291.012,241.682    "/>
		</g>
		<g>
			<polygon style="fill:#FFFFFF;" points="412.076,331.273 426.779,335.161 412.926,339.293 408.673,356.29 403.57,339.293      388.395,336.012 404.299,331.759 408.673,315.734    "/>
		</g>
		<g>
			<g>
				<path style="fill:#FFFFFF;" d="M146.337,236.391c0,2.386-1.934,4.32-4.32,4.32c-2.386,0-4.319-1.934-4.319-4.32      c0-2.386,1.934-4.32,4.319-4.32C144.404,232.071,146.337,234.005,146.337,236.391z"/>
			</g>
			<g>
				<path style="fill:#FFFFFF;" d="M339.491,206.153c0,2.386-1.934,4.32-4.32,4.32c-2.386,0-4.32-1.934-4.32-4.32      s1.934-4.32,4.32-4.32C337.557,201.833,339.491,203.767,339.491,206.153z"/>
			</g>
			<g>
				<path style="fill:#FFFFFF;" d="M422.8,407.945c0,2.386-1.934,4.32-4.32,4.32c-2.386,0-4.32-1.934-4.32-4.32      c0-2.386,1.934-4.32,4.32-4.32C420.866,403.626,422.8,405.56,422.8,407.945z"/>
			</g>
			<g>
				<path style="fill:#FFFFFF;" d="M200.642,68.539c0,2.386-1.934,4.32-4.319,4.32c-2.386,0-4.32-1.934-4.32-4.32      c0-2.386,1.934-4.32,4.32-4.32C198.709,64.219,200.642,66.153,200.642,68.539z"/>
			</g>
			<g>
				<path style="fill:#FFFFFF;" d="M87.713,386.964c0,2.386-1.934,4.32-4.32,4.32c-2.386,0-4.319-1.934-4.319-4.32      c0-2.386,1.934-4.32,4.319-4.32C85.779,382.644,87.713,384.578,87.713,386.964z"/>
			</g>
		</g>
	</g>
</g>















</svg>
