<?xml version="1.0" encoding="UTF-8"?>
<!-- Generator: Adobe Illustrator 25.2.3, SVG Export Plug-In . SVG Version: 6.00 Build 0)  -->
<svg xmlns="http://www.w3.org/2000/svg" xmlns:xlink="http://www.w3.org/1999/xlink" version="1.1" id="Capa_1" x="0px" y="0px" viewBox="0 0 512 512" style="enable-background:new 0 0 512 512;" xml:space="preserve" width="512" height="512">
<g>
	<g>
		<circle style="fill:#FFFFFF;" cx="256" cy="256" r="256"/>
	</g>
	<g>
		<g>
			<path style="fill:#FF85CA;" d="M256.107,481.962c-44.382,0-174.241-88.223-190.666-115.318     c-0.117-0.163-49.587-135.293-47.77-147.221c0.466-3.099,1.002-6.15,1.584-9.202c0.07-0.396,0.14-0.769,0.21-1.141     c0.373-1.911,0.769-3.821,1.188-5.708c3.261-14.724,7.875-28.935,13.676-42.518c0.932-2.167,1.887-4.31,2.889-6.453     c5.219-11.346,11.323-22.226,18.196-32.546c0.303-0.443,0.606-0.909,0.909-1.351c0.349-0.513,0.699-1.025,1.048-1.538     c2.586-3.774,5.288-7.455,8.084-11.066c8.667-11.206,18.288-21.643,28.749-31.149c43.03-39.186,100.226-63.043,163.012-63.043     c1.281,0,2.586,0,3.867,0.047c0.303,0,0.605,0,0.932,0.023c12.674,0.233,25.091,1.468,37.229,3.588     c0.163,0.023,0.303,0.047,0.466,0.07l47.795,46.253c0,0,70.51,11.081,71.255,11.78c14.794,13.21,27.98,28.26,39.186,44.778     c5.172,7.618,9.901,15.563,14.188,23.787c1.188,2.26-17.326,151.552-16.231,153.858     C455.996,298.077,344.847,481.962,256.107,481.962z"/>
		</g>
		<g>
			<g>
				<path style="fill:#FFDFE5;" d="M106.015,96.552c-18.848,3.984-35.319,14.584-50.602,25.301c0.303-0.443,0.606-0.909,0.909-1.351      c14.957-10.437,31.125-20.642,49.577-24.509c7.222-1.514,14.724-2.027,21.97-2.493c6.267-0.419,12.744-0.839,19.034-1.933      c34.923-6.057,62.344-31.312,88.833-55.751l3.541-3.238c7.082-6.5,14.328-12.907,21.806-18.824c0.303,0,0.605,0,0.932,0.023      c-7.665,6.011-15.097,12.558-22.342,19.22l-3.541,3.262c-26.559,24.486-54.027,49.786-89.136,55.891      c-6.313,1.095-12.814,1.514-19.081,1.934C120.692,94.549,113.214,95.061,106.015,96.552z"/>
			</g>
			<g>
				<path style="fill:#FFDFE5;" d="M354.785,34.162c-0.256,0.326-0.512,0.652-0.769,0.955      c-34.34,41.772-81.984,72.618-134.146,86.876c-15.516,4.24-31.638,7.105-47.224,9.854c-22.062,3.914-44.847,7.968-66.118,15.959      c-31.918,11.975-61.086,32.873-87.272,62.414c0.07-0.396,0.14-0.769,0.21-1.141c26.116-29.239,55.121-49.903,86.853-61.831      c21.317-7.991,44.148-12.045,66.211-15.959c15.586-2.772,31.708-5.638,47.177-9.855c52.046-14.211,99.596-45.01,133.844-86.69      c0.233-0.28,0.443-0.559,0.676-0.839C354.412,33.975,354.598,34.069,354.785,34.162z"/>
			</g>
			<g>
				<path style="fill:#FFDFE5;" d="M53.875,291.482c-3.728,6.779-7.618,13.815-11.765,20.246      c-4.496,6.943-9.599,13.513-15.236,19.64c-0.07-0.21-0.14-0.419-0.21-0.629c5.521-6.034,10.53-12.511,14.957-19.337      c4.147-6.407,8.014-13.419,11.742-20.199c11.393-20.618,23.158-41.959,44.661-50.625c11.392-4.613,23.95-4.799,36.088-4.986      c8.969-0.14,18.219-0.28,27.002-2.167c14.025-3.005,27.002-10.6,36.507-21.387c9.202-10.437,15.353-23.833,21.294-36.81      c9.133-19.919,17.753-38.744,36.554-47.807c11.043-5.312,23.624-5.824,35.762-6.337c4.846-0.187,9.855-0.396,14.677-0.909      c20.502-2.143,39.955-9.901,56.31-22.459c8.76-6.733,16.611-14.864,24.183-22.715c4.613-4.799,9.319-9.668,14.281-14.281      c0.163,0.14,0.326,0.256,0.466,0.373c-4.986,4.613-9.692,9.506-14.328,14.305c-7.595,7.875-15.446,16.006-24.253,22.762      c-16.425,12.627-35.995,20.432-56.59,22.599c-4.869,0.513-9.878,0.722-14.724,0.909c-12.091,0.512-24.602,1.025-35.529,6.29      c-18.615,8.946-27.188,27.677-36.274,47.527c-5.964,13-12.138,26.443-21.387,36.95c-9.599,10.856-22.668,18.521-36.833,21.573      c-8.83,1.887-18.125,2.027-27.095,2.167c-12.091,0.186-24.602,0.373-35.901,4.939C76.916,249.71,65.198,270.957,53.875,291.482z      "/>
			</g>
			<g>
				<path style="fill:#FFDFE5;" d="M475.815,151.394c-3.098,5.219-6.617,10.274-10.507,15.143      c-19.104,23.88-44.987,39.862-72.898,44.987c-17.776,3.285-36.251,2.609-54.12,1.934c-19.313-0.699-39.279-1.445-58.337,2.842      c-37.416,8.434-69.636,37.323-82.053,73.597c-2.703,7.828-4.566,16.145-6.384,24.159c-3.215,14.258-6.546,29.005-14.514,41.446      c-10.274,16.052-27.724,26.885-46.641,29.005c-11.835,1.328-23.833-0.722-35.412-2.703c-8.177-1.398-16.634-2.842-24.998-3.098      c-6.71-0.21-13.629,0.769-19.989,2.842c-0.117-0.163-0.21-0.326-0.303-0.513c6.453-2.12,13.489-3.122,20.315-2.912      c8.41,0.256,16.891,1.701,25.091,3.098c11.532,1.98,23.46,4.007,35.226,2.703c18.755-2.097,36.041-12.837,46.222-28.726      c7.921-12.371,11.229-27.072,14.444-41.26c1.817-8.061,3.681-16.378,6.383-24.229c12.488-36.461,44.871-65.512,82.473-73.969      c19.127-4.31,39.14-3.588,58.5-2.866c17.846,0.676,36.274,1.351,54.004-1.91c34.969-6.453,65.303-29.727,83.242-60.107      C475.652,151.045,475.745,151.208,475.815,151.394z"/>
			</g>
		</g>
		<g>
			<path style="fill:#3C1C87;" d="M242.588,469.492c-44.382,0-203.263-221.776-189.212-230.981c4.802-3.146,9.809-5.968,15.06-8.371     c21.783-9.971,48.691-11.602,68.914,1.258c20.944-42.844,71.873-68.727,118.84-60.41c41.283,7.316,75.181,37.509,99.41,71.733     c12.511-16.075,29.308-33.968,46.991-44.079c24.323-13.908,53.84-21.107,80.725-13.186     C485.483,186.084,331.328,469.492,242.588,469.492z"/>
		</g>
		<g>
			<path style="fill:#FFBCC9;" d="M499.509,256c0,36.647-8.131,71.383-22.715,102.509c-3.355,7.176-7.036,14.165-11.066,20.921     c-27.001,45.547-68.494,81.471-118.141,101.437c-0.909,0.373-1.817,0.722-2.726,1.095c-27.188,10.53-56.729,16.331-87.645,16.331     c-29.961,0-58.64-5.452-85.129-15.376c-0.955-0.373-1.91-0.722-2.865-1.095c-11.742-4.59-23.018-10.041-33.781-16.308     c-7.618-4.45-14.98-9.273-22.039-14.491c-32.71-24.159-59.129-56.38-76.322-93.702c-12.231-26.489-19.803-55.564-21.667-86.2     c-0.326-4.986-0.489-10.041-0.489-15.12c0-12.441,0.932-24.649,2.749-36.577c18.941,2.423,36.74,11.392,49.507,23.95     c15.633,15.306,24.183,35.482,26.559,55.867c14.351-6.593,30.986-8.969,47.084-7.339c4.939,0.512,9.808,1.374,14.561,2.633     c4.729,1.235,9.296,2.819,13.676,4.799h0.046c3.891,1.747,7.595,3.774,11.09,6.081c2.237,1.468,4.333,3.029,6.36,4.729     l0.023,0.023c0.489,0.373,0.955,0.769,1.398,1.188c5.731,4.962,10.53,10.694,14.328,16.937     c3.308,5.429,5.824,11.229,7.502,17.194c2.213,7.968,2.912,16.285,1.864,24.439c-0.256,2.143-0.652,4.264-1.165,6.383     c3.075-0.745,6.22-1.328,9.366-1.701c0.186-0.023,0.349-0.047,0.536-0.047c12.744-1.491,25.837-0.047,37.951,3.797     c0.21,0.07,0.396,0.117,0.582,0.186c14.91,4.823,28.307,13.28,37.695,24.369c0.187,0.186,0.35,0.396,0.49,0.582     c1.095,1.305,2.143,2.656,3.098,4.054c1.212,1.701,2.33,3.448,3.332,5.265c0.256-1.887,0.536-3.797,0.839-5.684     c2.586-15.936,7.269-32.197,17.613-45.314c1.235-1.561,2.539-3.075,3.961-4.52c2.889-3.029,6.127-5.801,9.622-8.271     c0.21-0.14,0.396-0.28,0.606-0.419c9.715-6.686,21.433-10.95,33.571-11.02c1.258,0,2.516,0.023,3.798,0.116     c-0.14-0.722-0.256-1.468-0.373-2.213c0,0,0-0.023,0-0.047c-0.419-2.539-0.792-5.102-1.095-7.688     c-1.025-8.597-1.375-17.287-0.629-25.86c0.023-0.373,0.046-0.769,0.093-1.141v-0.023c0.978-10.414,3.564-20.618,8.434-30.17     c1.142-2.236,2.423-4.426,3.867-6.546c11.812-17.706,32.989-31.219,56.287-30.962c-0.815-21.108,0.047-42.844,9.505-62.274     c4.962-10.181,12.743-19.663,22.482-26.746c2.237,4.263,4.333,8.62,6.314,13.023c13.373,29.867,20.898,62.95,21.038,97.756     C499.509,255.208,499.509,255.604,499.509,256z"/>
		</g>
		<g>
			<g>
				<g>
					<path style="fill:#FFD461;" d="M418.76,75.468c-2.866,36.787-33.595,65.745-71.127,65.745       c-13.815,0-26.699-3.914-37.625-10.717c-0.117-0.07-0.233-0.14-0.35-0.21c-0.373-0.256-0.769-0.489-1.142-0.746       c-0.116-0.07-0.233-0.163-0.35-0.233c-6.873-4.566-12.907-10.298-17.846-16.914c-0.07-0.093-0.14-0.187-0.21-0.279       c-0.303-0.396-0.582-0.816-0.885-1.235c-8.177-11.602-12.977-25.767-12.977-41.05c0-20.758,8.853-39.443,22.995-52.466       c0.163,0.023,0.303,0.047,0.466,0.07c19.034,3.355,37.299,8.946,54.516,16.471c0.186,0.07,0.373,0.163,0.559,0.256       c9.622,4.217,18.917,9.063,27.817,14.491c0.512,0.279,1.002,0.582,1.491,0.909c2.19,1.328,4.38,2.726,6.523,4.147       c3.425,2.26,6.78,4.613,10.064,7.012c0.163,0.14,0.326,0.256,0.466,0.373c5.288,3.891,10.414,8.014,15.353,12.348       C417.245,74.093,418.014,74.769,418.76,75.468z"/>
				</g>
				<g>
					<g>
						<path style="fill:#FFDFE5;" d="M384.093,49.561c-8.387,11.462-17.892,22.785-28.353,35.039        c-15.143,17.706-30.263,32.896-45.733,45.896c-0.373,0.35-0.769,0.652-1.142,0.979c-6.686,5.615-13.466,10.81-20.339,15.633        c-2.167,1.538-4.357,2.959-6.919,3.495c-0.722,0.14-1.421,0.233-2.074,0.233c-1.817,0-3.332-0.582-4.38-1.677        c-1.328-1.421-1.701-3.541-1.072-5.988c2.889-10.787,7.711-21.247,14.351-31.102c0.163-0.256,0.349-0.489,0.513-0.745        l1.165,0.792l0.28,0.186c-0.023,0.023-0.047,0.07-0.07,0.093c-0.28,0.396-0.536,0.792-0.792,1.188        c-6.36,9.552-10.973,19.64-13.745,30.054c-0.489,1.817-0.256,3.355,0.629,4.31c1.002,1.049,2.702,1.375,4.846,0.932        c2.237-0.443,4.24-1.77,6.267-3.192c6.71-4.706,13.303-9.762,19.849-15.19c0.373-0.326,0.769-0.629,1.142-0.955        c15.516-13.07,30.683-28.306,45.896-46.082c10.391-12.185,19.849-23.437,28.19-34.806        C383.114,48.932,383.604,49.235,384.093,49.561z"/>
					</g>
				</g>
			</g>
			<g>
				<g>
					<g>
						<path style="fill:#FFDFE5;" d="M129.03,172.258c-4.487,11.414-17.378,17.029-28.792,12.542        c-11.414-4.487-17.029-17.378-12.542-28.792c4.488-11.414,17.378-17.029,28.792-12.542        C127.903,147.954,133.518,160.844,129.03,172.258z"/>
					</g>
					<g style="opacity:0.26;">
						<path style="fill:#FFDFE5;" d="M115.613,168.471l-24.882,9.156l-70.079,25.744c3.261-14.724,7.875-28.935,13.676-42.518        c0.932-2.167,1.887-4.31,2.889-6.453l51.022,0.396l17.356,0.14L115.613,168.471z"/>
					</g>
				</g>
				<g>
					<g>
						<path style="fill:#FFDFE5;" d="M170.53,111.716c-6.83,10.187-20.625,12.907-30.812,6.076        c-10.186-6.83-12.907-20.625-6.077-30.812c6.831-10.187,20.625-12.907,30.812-6.077        C174.64,87.735,177.361,101.53,170.53,111.716z"/>
					</g>
					<g style="opacity:0.26;">
						<path style="fill:#FFDFE5;" d="M158.225,105.149l-26.28,3.588L57.37,118.964c2.586-3.774,5.288-7.455,8.084-11.066        c8.667-11.206,18.288-21.643,28.749-31.149l40.212,9.156l16.937,3.867L158.225,105.149z"/>
					</g>
				</g>
			</g>
		</g>
		<g>
			<g>
				<g>
					<g>
						<g>
							<g>
								<path style="fill:#924CA5;" d="M378.135,327.73c-0.31,1.659-0.686,3.384-1.128,5.175          c-6.657,26.496-27.492,64.847-27.492,64.847s-6.193,3.097-22.56,6.149c-0.199,0.044-0.398,0.088-0.597,0.111          c-7.586,1.394-17.274,2.787-29.482,3.848c-0.177,0.022-0.354,0.044-0.553,0.044c-7.21,0.641-15.305,1.15-24.351,1.504          c-2.875,0.111-5.706,0.199-8.449,0.243c-0.177,0.022-0.354,0.022-0.531,0.022c-12.828,0.309-24.196,0.11-34.038-0.354          c-0.199-0.022-0.398-0.022-0.597-0.022c-13.248-0.664-23.732-1.792-31.362-2.853c-0.221-0.022-0.442-0.066-0.664-0.111          c-9.488-1.327-14.332-2.565-14.332-2.565c-10.042-10.837-18.446-26.253-24.794-40.32          c-8.449-18.667-13.226-34.967-13.226-34.967L378.135,327.73z"/>
							</g>
						</g>
						<g style="opacity:0.45;">
							<g>
								<path style="fill:#3C1C87;" d="M378.135,327.73c-0.31,1.659-0.686,3.384-1.128,5.175          c-20.923,14.376-45.186,23.908-70.045,29.526c-30.765,6.945-62.548,8.161-94.087,7.52          c-18.711-0.376-37.599-1.747-55.669-6.503c-8.449-18.667-13.226-34.967-13.226-34.967L378.135,327.73z"/>
							</g>
						</g>
					</g>
					<g>
						<g>
							<g>
								<g>
									<path style="fill:#FFDFE5;" d="M196.995,406.445c-0.221-0.022-0.442-0.066-0.664-0.111           c-6.48-12.452-12.01-25.346-16.588-38.595c-3.893-11.213-7.1-22.67-9.621-34.326c-0.022-0.155,0.066-0.288,0.221-0.332           c0.133-0.022,0.287,0.066,0.31,0.221c2.544,11.722,5.773,23.245,9.687,34.503           C184.941,381.054,190.492,393.971,196.995,406.445z"/>
								</g>
							</g>
						</g>
						<g>
							<g>
								<g>
									<path style="fill:#FFDFE5;" d="M228.954,409.32c-0.199-0.022-0.398-0.022-0.597-0.022           c-3.583-12.961-6.746-26.054-9.466-39.258c-2.256-10.815-4.224-21.675-5.861-32.556c-0.022-0.155,0.066-0.288,0.221-0.31           c0.155-0.022,0.287,0.089,0.332,0.243c1.659,10.904,3.605,21.785,5.861,32.645           C222.186,383.244,225.349,396.359,228.954,409.32z"/>
								</g>
							</g>
						</g>
						<g>
							<g>
								<g>
									<path style="fill:#FFDFE5;" d="M263.523,409.652c-0.177,0.022-0.354,0.022-0.531,0.022           c-2.189-13.403-4.114-26.917-5.817-40.431c-1.438-11.457-2.676-22.913-3.76-34.348c0-0.155,0.111-0.288,0.266-0.31           c0.133-0.022,0.288,0.089,0.288,0.243c1.084,11.435,2.322,22.913,3.76,34.37           C259.409,382.713,261.356,396.227,263.523,409.652z"/>
								</g>
							</g>
						</g>
						<g>
							<g>
								<g>
									<path style="fill:#FFDFE5;" d="M296.876,407.86c-0.177,0.022-0.354,0.044-0.553,0.044           c0.884-14.398,1.504-28.951,1.061-43.483c-0.31-9.864-1.084-19.728-2.588-29.526c-0.022-0.155,0.088-0.31,0.243-0.332           c0.155,0,0.288,0.089,0.31,0.243c1.504,9.776,2.278,19.64,2.588,29.505C298.38,378.865,297.761,393.44,296.876,407.86z"/>
								</g>
							</g>
						</g>
						<g>
							<g>
								<g>
									<path style="fill:#FFDFE5;" d="M337.948,330.03c-0.619,8.006-1.416,16.013-2.389,23.997           c-2.079,16.743-4.954,33.397-8.604,49.874c-0.199,0.044-0.398,0.088-0.597,0.111c3.65-16.433,6.525-33.043,8.604-49.764           c0.995-8.073,1.814-16.168,2.433-24.263c0-0.155,0.111-0.288,0.288-0.266C337.837,329.742,337.948,329.875,337.948,330.03z           "/>
								</g>
							</g>
						</g>
					</g>
				</g>
				<g>
					<g>
						<path style="fill:#924CA5;" d="M138.702,305.891c0,0,10.165-125.927,121.409-128.75        c111.245-2.823,134.209,119.339,134.209,119.339s22.776,24.094,22.211,26.353c-0.565,2.259-43.67,19.953-152.468,22.588        c-110.648,2.68-147.385-10.164-147.385-10.164L138.702,305.891z"/>
					</g>
				</g>
				<g>
					<g>
						<path style="fill:#FFDFE5;" d="M242.795,313.143c-60.273,0-103.433-6.589-104.179-6.706c-0.3-0.047-0.507-0.33-0.46-0.631        c0.048-0.301,0.312-0.513,0.633-0.461c1.294,0.202,130.846,19.97,255.402-9.403c0.305-0.072,0.594,0.115,0.667,0.411        c0.068,0.298-0.116,0.595-0.412,0.665C341.379,309.532,287.399,313.143,242.795,313.143z"/>
					</g>
				</g>
				<g>
					<g>
						<g>
							<polygon style="fill:#FFDFE5;" points="154.89,297.985 158.655,272.009 174.843,272.009 170.702,299.491        "/>
						</g>
					</g>
					<g>
						<g>
							<polygon style="fill:#FFDFE5;" points="369.823,292.422 365.311,266.565 349.13,267.032 354.061,294.383        "/>
						</g>
					</g>
					<g>
						<g>
							<polygon style="fill:#FFDFE5;" points="206.466,272.386 204.583,301.374 220.395,302.126 222.277,273.515        "/>
						</g>
					</g>
					<g>
						<g>
							<polygon style="fill:#FFDFE5;" points="302.211,271.462 303.871,300.463 319.657,299.286 318.043,270.658        "/>
						</g>
					</g>
					<g>
						<g>
							<polygon style="fill:#FFDFE5;" points="255.384,272.981 255.794,302.027 271.615,301.531 271.236,272.861        "/>
						</g>
					</g>
				</g>
				<g>
					<g>
						<path style="fill:#924CA5;" d="M353.69,463.673l-2.027,5.708l-4.077,11.486c-0.909,0.373-1.817,0.722-2.726,1.095l4.45-12.557        l2.073-5.824l-2.097-8.294l-13.536-53.235l-1.98-7.805l2.143-0.536l1.98,7.805l13.676,53.794L353.69,463.673z"/>
					</g>
				</g>
				<g>
					<g>
						<g>
							<path style="fill:#924CA5;" d="M167.893,459.829l-3.099,5.032l2.679,6.616l4.613,11.439c-0.955-0.373-1.91-0.722-2.865-1.095         l-3.797-9.412l-3.122-7.758l0.303-0.466l3.332-5.405l32.081-52.186l4.869-7.921l1.887,1.165l-4.357,7.059L167.893,459.829z"/>
						</g>
					</g>
					<g>
						<g>
							<circle style="fill:#924CA5;" cx="163.549" cy="465.511" r="7.153"/>
						</g>
					</g>
					<g>
						<g>
							<circle style="fill:#924CA5;" cx="350.325" cy="462.339" r="7.153"/>
						</g>
					</g>
				</g>
			</g>
			<g>
				<g>
					<g>
						<path style="fill:#FFDFE5;" d="M310.552,207.064c2.091,2.379,4.689,4.25,7.291,6.055c4.671,3.241,9.589,6.405,15.156,7.554        c3.348,0.691,7.044-0.388,7.748-4.208c0.513-2.782-0.762-5.587-2.351-7.927c-4.763-7.01-17.476-18.368-26.83-16.248        C303.832,194.043,306.931,202.945,310.552,207.064z"/>
					</g>
				</g>
				<g>
					<g>
						<path style="fill:#FFDFE5;" d="M353.176,227.207c0,2.546-2.064,4.61-4.61,4.61c-2.546,0-4.61-2.064-4.61-4.61        c0-2.546,2.064-4.61,4.61-4.61C351.112,222.597,353.176,224.661,353.176,227.207z"/>
					</g>
				</g>
			</g>
		</g>
		<g>
			<g>
				<polygon style="fill:#FFDFE5;" points="414.887,179.634 421.217,159.466 425.556,180.771 446.698,185.035 428.107,189.732       430.784,209.391 419.685,192.15 405.142,208.178 413.032,187.854 392.895,180.26     "/>
			</g>
			<g>
				<polygon style="fill:#FFDFE5;" points="403.303,381.317 399.655,360.496 413.301,377.424 434.037,371.492 419.685,384.209       431.099,400.439 413.317,390.228 407.768,411.147 405.434,389.47 384.06,391.982     "/>
			</g>
			<g>
				<polygon style="fill:#FFDFE5;" points="113.58,377.739 125.115,360.026 123.546,381.712 142.755,391.52 123.586,391.028       120.86,410.682 114.823,391.085 96.496,402.596 109.576,385.154 92.234,372.41     "/>
			</g>
			<g>
				<polygon style="fill:#FFDFE5;" points="68.674,255.01 67.738,233.893 79.09,252.436 100.418,249.225 84.547,259.987       93.777,277.551 77.457,265.136 69.261,285.166 69.737,263.369 48.218,263.108     "/>
			</g>
		</g>
	</g>
</g>















</svg>
