<?xml version="1.0" encoding="UTF-8"?>
<!-- Generator: Adobe Illustrator 25.2.3, SVG Export Plug-In . SVG Version: 6.00 Build 0)  -->
<svg xmlns="http://www.w3.org/2000/svg" xmlns:xlink="http://www.w3.org/1999/xlink" version="1.1" id="Capa_1" x="0px" y="0px" viewBox="0 0 512 512" style="enable-background:new 0 0 512 512;" xml:space="preserve" width="512" height="512">
<g>
	<g>
		<path style="fill:#FFFFFF;" d="M257.295,510.705c-45.025,0-89.29-11.92-128.01-34.469c-8.07-4.712-15.859-9.829-23.165-15.22    c-24.865-18.354-45.903-40.72-62.597-66.538c-9.703-3.469-19.339-7.336-29.318-11.758c-8.943-3.94-14.651-13.167-14.178-22.949    l2.297-47.705c0.202-4.191,1.769-8.002,4.262-11.014c-1.647-9.3-2.785-18.736-3.398-28.165l-0.05-0.704    c-0.369-5.34-0.547-10.719-0.547-16.181c0-12.925,0.978-25.863,2.908-38.456c0.453-3.081,0.985-6.073,1.642-9.596l0.211-1.167    c0.433-2.144,0.831-4.093,1.255-6.042c3.392-15.278,8.232-30.316,14.399-44.762c1.016-2.355,2.012-4.632,3.08-6.888    c5.383-11.687,11.826-23.206,19.092-34.116l0.275-0.413c0.246-0.375,0.499-0.752,0.759-1.121c0,0,0.954-1.441,1.027-1.545    c2.654-3.842,5.505-7.74,8.471-11.582c9.182-11.84,19.35-22.847,30.242-32.742C132.845,24.839,193.701,1.295,257.295,1.295    c1.356,0,2.758,0.002,4.12,0.047c0.381,0.002,0.764,0.011,1.162,0.029c12.916,0.248,25.949,1.507,38.744,3.74    c0,0,0.509,0.08,0.59,0.093c9.335,1.625,18.819,3.869,28.201,6.675c0.273,0.069,0.544,0.144,0.812,0.229    c7.945,2.382,15.902,5.221,23.654,8.439c1.456,0.593,2.982,1.239,4.487,1.889c0.346,0.142,0.695,0.297,1.039,0.462    c1.448,0.637,2.877,1.292,4.305,1.971c8.276,3.813,16.559,8.22,24.483,13.036c0.664,0.371,1.324,0.768,1.963,1.185    c2.246,1.38,4.491,2.81,6.69,4.262c3.441,2.269,6.994,4.748,10.561,7.365c0.123,0.091,0.56,0.424,0.654,0.495    c5.686,4.213,11.08,8.561,16.036,12.92c0.761,0.666,1.598,1.405,2.41,2.144c15.531,13.897,29.384,29.739,41.099,47.012    c4.719,6.936,9.186,14.326,13.268,21.95c0.563,1.008,1.104,2.013,1.644,3.045c1.304,2.482,2.475,4.81,3.561,7.092    c0.155,0.304,0.302,0.608,0.439,0.919c0.918,1.911,1.793,3.8,2.645,5.711c4.67,10.399,8.66,21.246,11.845,32.205    c6.69,22.698,10.149,46.355,10.269,70.274c0.019,0.506,0.023,1.023,0.023,1.516c0,24.967-3.612,49.622-10.739,73.28    c-3.083,10.357-6.888,20.59-11.297,30.383c-0.022,0.053-0.044,0.107-0.066,0.158c-0.569,1.347-1.164,2.646-1.787,3.971    c-3.57,7.622-7.482,15.027-11.62,21.986c-14.563,24.536-32.982,46.315-54.737,64.721c-1.557,1.307-3.104,2.588-4.649,3.82    c-15.182,12.275-31.854,22.829-49.479,31.31c0,0-0.343,0.171-0.422,0.209c-15.659,7.514-32.163,13.416-49.053,17.544    c-2.177,0.553-4.56,1.101-6.976,1.605c-6.412,1.376-12.981,2.526-19.45,3.396c-1.172,0.18-2.345,0.313-3.519,0.444    C278.114,510.065,267.659,510.705,257.295,510.705z"/>
	</g>
	<g>
		<g>
			<path style="fill:#7F6EEC;" d="M498.363,256.001c0,24.116-3.546,47.391-10.16,69.347l-8.789,13.116l-2.076,16.023v0.023     c-0.5,1.182-1.023,2.318-1.568,3.478c-3.341,7.137-7.001,14.092-11.001,20.82c-13.774,23.207-31.321,43.936-51.823,61.278     l-2.233,0.274l-2.108,3.294c-14.365,11.615-30.071,21.593-46.891,29.685c-0.136,0.068-0.273,0.136-0.409,0.205     c-14.683,7.046-30.207,12.637-46.39,16.592l-4.404-0.572l-2.119,2.072c-6.137,1.318-12.342,2.409-18.615,3.25l-2.13-0.671     l-0.939,1.057c-9.637,1.182-19.456,1.796-29.412,1.796c-44.14,0-85.553-11.888-121.147-32.616     c-7.592-4.432-14.91-9.228-21.934-14.41c-24.57-18.138-45.572-40.845-61.71-66.869c-0.5-0.75-0.955-1.5-1.409-2.25     c-0.114-0.159-0.205-0.341-0.296-0.523c-4.591-7.592-8.796-15.479-12.524-23.593c-3.341-7.228-6.341-14.66-8.932-22.275     c-0.432-1.182-0.841-2.364-1.227-3.546c-0.068-0.204-0.136-0.409-0.205-0.614c-2.227-6.91-4.182-13.979-5.796-21.184     c-0.091-0.409-0.182-0.841-0.273-1.25c-2.546-11.683-4.25-23.684-5.046-35.935c-0.022-0.341-0.045-0.637-0.068-0.955     c-0.341-4.955-0.5-10.001-0.5-15.047c0-12.387,0.932-24.525,2.75-36.39c0.455-3.091,1-6.114,1.568-9.16     c0.068-0.387,0.136-0.773,0.205-1.137c0.386-1.909,0.773-3.796,1.182-5.682c3.25-14.638,7.842-28.775,13.615-42.299     c0.932-2.159,1.864-4.296,2.864-6.41c5.205-11.296,11.274-22.116,18.115-32.389c0.295-0.432,0.591-0.909,0.909-1.341     c0.341-0.523,0.682-1.023,1.023-1.545c2.591-3.751,5.273-7.41,8.046-11.001c8.637-11.137,18.206-21.525,28.616-30.98     c42.799-39.004,99.714-62.733,162.173-62.733c1.273,0,2.591,0,3.864,0.046c0.296,0,0.591,0,0.909,0.023     c12.615,0.227,24.979,1.455,37.049,3.569c0.159,0.023,0.296,0.045,0.455,0.068c9.273,1.614,18.32,3.796,27.207,6.478     c0.023-0.023,0.046,0,0.046,0l6.056,5.351l16.469,2.672c1.5,0.614,3,1.25,4.478,1.887c0.182,0.068,0.363,0.159,0.545,0.25     c1.409,0.614,2.796,1.25,4.182,1.909c0,0,36.677,68.93,41.586,73.248c0.727,0.636,65.628,24.169,69.469,31.352     c0.522,0.932,1.023,1.864,1.523,2.819c1.182,2.25,2.318,4.5,3.409,6.796c0.091,0.182,0.182,0.341,0.25,0.523     c0.909,1.886,1.773,3.75,2.614,5.637c4.409,9.819,8.16,19.979,11.206,30.458c6.25,21.206,9.637,43.617,9.728,66.801     C498.363,255.205,498.363,255.615,498.363,256.001z"/>
		</g>
		<g>
			<g>
				<path style="fill:#FFDFE5;" d="M408.605,443.654c0.614-5.091-0.023-10.296-2.227-14.842      c-2.773-5.796-8.114-10.115-14.047-13.069c-6-2.978-12.637-4.841-19.297-6.114c-13.388-2.432-27.366-1.705-40.367,2.341      c-13.001,3.978-24.866,11.547-34.162,21.502c-4.659,4.955-8.614,10.592-11.797,16.592c-3.136,6.023-5.546,12.501-6.114,19.161      c-0.636,6.637,1.069,13.365,4.432,19.184c1.341,2.296,2.909,4.5,4.75,6.478c-1.023,0.159-2.046,0.273-3.069,0.386      c-1.5-1.727-2.818-3.569-3.977-5.523c-3.705-6.137-5.705-13.501-5.091-20.752c0.546-7.251,3.091-14.069,6.296-20.366      c3.296-6.296,7.364-12.16,12.183-17.365c9.615-10.41,21.934-18.388,35.503-22.638c13.524-4.296,28.094-5.16,42.072-2.705      c6.978,1.296,13.865,3.16,20.366,6.319c6.432,3.159,12.592,7.955,15.933,14.797c2,4.091,2.932,8.569,2.955,13.047      C411.514,441.29,410.059,442.495,408.605,443.654z"/>
			</g>
			<g>
				<path style="fill:#FFDFE5;" d="M383.989,439.54c1.523,3.682,1.5,7.796,0.568,11.478c-0.932,3.705-2.864,7.091-5.273,9.91      c-4.91,5.66-11.251,9.251-17.57,12.41c-0.136,0.068-0.273,0.136-0.409,0.205c-6.273,2.977-12.933,5.16-19.752,6.523      c-3.477,0.682-7,1.159-10.546,1.387c-1.773,0.114-3.66,0.182-5.66-0.204c-1.954-0.341-4.046-1.387-5.432-3.091      c-2.705-3.409-2.796-7.978-1.228-11.615c1.591-3.614,4.319-6.296,7.069-8.546c11.024-9.137,25.593-13.865,39.708-12.524      c0.432,0.045,0.75,0.432,0.704,0.864c-0.023,0.432-0.387,0.727-0.795,0.727c-13.683-0.136-27.275,4.614-37.549,13.41      c-2.569,2.159-4.887,4.569-6.069,7.364c-1.205,2.705-0.932,6.091,0.795,8.137c1.637,2.068,4.887,2.296,8.205,2      c3.387-0.25,6.773-0.727,10.092-1.409c6.66-1.387,13.16-3.592,19.229-6.592c6.046-3.046,12.024-6.614,16.229-11.569      c2.091-2.477,3.637-5.296,4.387-8.364c0.75-3.023,0.704-6.228-0.477-8.978c-2.25-5.682-8.546-9.001-14.865-10.273      c-3.205-0.705-6.5-0.818-9.865-0.705c-3.341,0.114-6.682,0.523-9.978,1.205c-6.592,1.364-12.978,3.705-18.979,6.819      c-6.023,3.114-11.706,6.887-16.251,11.683c-4.569,4.773-7.819,10.66-8.683,17.069c-0.932,6.364,0.727,12.956,5.091,17.525      c2.273,2.432,5.091,4.364,8.228,5.75c-2.159,0.546-4.341,1.046-6.523,1.5c-1.818-1.204-3.478-2.614-5-4.228      c-2.591-2.75-4.546-6.228-5.546-9.91c-1.046-3.682-1.159-7.546-0.659-11.251c1-7.432,4.841-14.274,9.865-19.502      c5.046-5.296,11.138-9.296,17.456-12.546c12.615-6.478,27.184-10.228,41.708-7.546c3.591,0.773,7.137,2.046,10.342,4.137      C379.739,432.812,382.557,435.835,383.989,439.54z"/>
			</g>
		</g>
		<g>
			<g>
				<path style="fill:#FFBCC9;" d="M264.66,232.112L29.344,334.53c-0.432-1.182-0.841-2.364-1.227-3.546      c-0.068-0.204-0.136-0.409-0.205-0.614c-2.227-6.91-4.182-13.979-5.796-21.184c8.183-6.319,18.934-9.524,28.775-6.614      c6.046,1.818,12.228,5.796,18.138,3.614c4.637-1.682,7.16-6.569,9.41-10.956c5.841-11.455,12.66-22.434,20.365-32.73      c7.023-9.365,15.547-18.684,26.934-21.366c12.138-2.864,24.707,2.5,35.185,9.228c3.841,2.455,7.705,5.182,12.183,6.023      c5.205,1,10.615-0.705,15.183-3.364c10.364-6.001,17.342-16.592,27.434-23.047c14.751-9.433,49.436,1.614,49.709,1.364      C265.683,231.59,264.387,231.862,264.66,232.112z"/>
			</g>
			<g>
				<path style="fill:#FFBCC9;" d="M488.203,325.348c-2.978,10.001-6.614,19.752-10.865,29.139v0.023l-150.786,65.619      c0-0.5,7.773-24.661,16.07-33.389c8.432-8.887,21.502-14.138,33.23-10.66c6.046,1.818,12.228,5.796,18.161,3.614      c4.637-1.682,7.16-6.568,9.41-10.955c5.842-11.456,12.66-22.434,20.366-32.73c7.001-9.365,15.547-18.684,26.934-21.366      c12.137-2.841,24.684,2.523,35.185,9.228C486.68,324.371,487.43,324.871,488.203,325.348z"/>
			</g>
			<g>
				<path style="fill:#FFBCC9;" d="M349.349,33.14L91.327,145.445c0-0.522,7.773-24.661,16.07-33.389      c8.432-8.887,21.502-14.138,33.23-10.66c6.046,1.796,12.251,5.796,18.161,3.614c4.637-1.682,7.16-6.569,9.41-10.956      c5.841-11.478,12.66-22.434,20.365-32.73c7.023-9.364,15.547-18.684,26.935-21.366c12.137-2.864,24.684,2.5,35.185,9.228      c3.841,2.455,7.705,5.182,12.183,6.023c5.205,1,10.592-0.704,15.183-3.364c10.365-6,17.343-16.592,27.434-23.048      c5.341-3.409,13.297-4.137,21.297-3.682c0.023-0.023,0.046,0,0.046,0C334.507,27.412,342.008,30.094,349.349,33.14z"/>
			</g>
		</g>
		<g>
			<g>
				<path style="fill:#FF85CA;" d="M469.61,141.786c-4.046,7.955-9.387,15.138-15.751,21.252c-2.159,2.091-4.41,4.046-6.796,5.841      c-2.5,1.955-5.137,3.728-7.864,5.364c-2.75,1.614-5.569,3.068-8.523,4.364c-3.319,1.455-6.751,2.705-10.297,3.682      c-2.364,0.682-4.773,1.25-7.228,1.682c-4.682,0.864-9.501,1.318-14.433,1.318c-5.614,0-11.092-0.591-16.388-1.682      c-5.614-1.182-11.001-2.955-16.092-5.25c-2.205-0.977-4.341-2.046-6.41-3.228c-7.387-4.137-14.047-9.432-19.752-15.638      c-12.933-14.138-20.866-33.003-20.866-53.709c0-29.253,15.797-54.8,39.344-68.597c8.092,3.728,15.933,7.91,23.502,12.524      c0.5,0.273,1,0.568,1.477,0.887c2.182,1.341,4.364,2.727,6.501,4.137c3.409,2.25,6.751,4.591,10.001,6.978      c0.159,0.136,0.341,0.25,0.477,0.363c5.251,3.887,10.365,7.978,15.274,12.297c0.727,0.636,1.5,1.318,2.25,2      c14.706,13.16,27.821,28.116,38.981,44.572C461.564,127.626,465.769,134.604,469.61,141.786z"/>
			</g>
			<g>
				<g>
					<path style="fill:#FFDFE5;" d="M342.317,116.197c-4.637,0-9.383-3.438-11.573-8.849c-2.73-6.752-0.466-14.057,5.047-16.29       c2.69-1.082,5.726-0.819,8.557,0.741c2.808,1.551,5.079,4.199,6.396,7.456l0,0c2.73,6.752,0.465,14.057-5.047,16.29       C344.603,115.986,343.463,116.197,342.317,116.197z M339.192,91.128c-1.075,0-2.128,0.201-3.127,0.606       c-5.141,2.079-7.225,8.961-4.647,15.338c2.581,6.379,8.868,9.874,14.004,7.795c5.141-2.079,7.225-8.961,4.647-15.338l0,0       c-1.256-3.104-3.413-5.622-6.075-7.093C342.421,91.568,340.784,91.128,339.192,91.128z"/>
				</g>
				<g>
					<path style="fill:#FFDFE5;" d="M356.558,151.393c-4.64,0.002-9.387-3.435-11.576-8.849c-1.319-3.257-1.527-6.741-0.587-9.805       c0.949-3.095,2.949-5.396,5.635-6.482c2.685-1.084,5.725-0.819,8.554,0.741c2.808,1.551,5.08,4.199,6.396,7.457       c1.319,3.257,1.527,6.74,0.587,9.805c-0.948,3.095-2.948,5.398-5.632,6.484C358.843,151.185,357.702,151.393,356.558,151.393z        M353.43,126.327c-1.075,0-2.128,0.201-3.127,0.606c-2.477,1-4.327,3.138-5.21,6.018c-0.892,2.907-0.691,6.217,0.564,9.318       c2.58,6.377,8.859,9.876,14.005,7.797c2.476-1.002,4.326-3.14,5.209-6.02c0.891-2.907,0.69-6.217-0.565-9.318l0,0       c-1.256-3.104-3.411-5.622-6.074-7.093C356.659,126.766,355.022,126.327,353.43,126.327z"/>
				</g>
				<g>
					<path style="fill:#FFDFE5;" d="M369.135,121.675c-1.713,0-3.47-0.471-5.153-1.4c-2.808-1.551-5.08-4.199-6.396-7.457       c-2.731-6.752-0.468-14.057,5.046-16.29c5.521-2.228,12.222,1.45,14.953,8.198l0,0c1.319,3.257,1.527,6.741,0.587,9.808       c-0.949,3.095-2.949,5.396-5.635,6.482C371.449,121.455,370.302,121.675,369.135,121.675z M366.019,96.604       c-1.058,0-2.108,0.194-3.113,0.602c-5.142,2.079-7.226,8.961-4.646,15.338c1.256,3.104,3.411,5.622,6.074,7.093       c2.636,1.457,5.454,1.706,7.929,0.702c2.477-0.999,4.328-3.138,5.21-6.018c0.891-2.907,0.691-6.219-0.564-9.321l0,0       C374.834,99.87,370.363,96.604,366.019,96.604z"/>
				</g>
			</g>
		</g>
		<g>
			<g>
				<g>
					<g>
						<g>
							<g>
								<path style="fill:#FFDFE5;" d="M127.656,334.435c0,0,33.785-161.125,144.666-181.049          c110.882-19.924,174.985,109.149,174.985,109.149L127.656,334.435z"/>
							</g>
							<g>
								<path style="fill:#924CA5;" d="M473.976,272.18c-2.748,11.196-8.169,26.185-18.932,41.91c0,0-0.32-0.08-0.466,0.125          c-0.116,0.163-0.323,0.969-0.323,0.969c-20.077,28.704-58.094,59.519-130.083,73.871c-0.356,0.076-0.738,0.153-1.12,0.203          c-1.018,0.229-2.036,0.407-3.079,0.611c-11.095,2.061-21.807,3.893-32.164,5.445c-4.361,0.675-8.348-0.778-12.586-0.193          c-5.505,0.76-11.219,3.53-16.524,4.163c-24.454,2.825-46.796,4.275-67.408,4.529c-2.938,0.037-4.241-2.712-7.108-2.722          c-3.093-0.011-7.744,2.712-10.755,2.646c-66.39-1.425-113.491-15.675-153.697-33.488c-3.868-1.705-6.285-5.598-6.082-9.822          l2.298-47.706c0.244-5.07,6.945-6.697,9.488-2.305l19.92,34.412l84.101-17.914l316.3-67.331l13.181-2.799          C468.072,254.851,476.19,263.096,473.976,272.18z"/>
							</g>
							<g>
								<path style="fill:#3C1C87;" d="M350.713,345.695l-62.904,49.621c-10.026,1.552-19.721,2.85-29.111,3.97L350.713,345.695z"/>
							</g>
						</g>
						<g>
							<path style="fill:#3C1C87;" d="M239.792,347.832l-48.501,55.982c-6.107,0.076-12.062,0.051-17.863-0.076L239.792,347.832z"/>
						</g>
						<g>
							<path style="fill:#924CA5;" d="M240.27,345.263c0,0,69.951-17.325,115.43,0.866c0,0-137.539,81.82-180.975,92.799         c-4.755,1.202-8.255-4.409-5.133-8.191L240.27,345.263z"/>
						</g>
						<g>
							<g>
								<path style="fill:#FFDFE5;" d="M455.044,314.09c-0.254,0.356-0.509,0.738-0.789,1.094c0.585-4.021,0.738-8.092,0.458-12.138          c-0.433-6.183-1.934-10.382-4.708-13.258c-6.871-7.074-19.085-3.257-22.647-1.934          c-16.031,6.005-28.984,18.169-38.501,28.118c-9.746,10.204-18.932,21.299-27.787,32.037          c-11.553,13.97-23.462,28.373-36.897,41.045c-0.356,0.076-0.738,0.153-1.12,0.203          c13.665-12.825,25.752-27.457,37.534-41.681c8.855-10.713,18.042-21.807,27.813-32.037c9.542-10,22.597-22.24,38.73-28.271          c9.797-3.664,18.499-2.876,23.334,2.087c2.901,2.977,4.453,7.328,4.886,13.639          C455.604,306.685,455.502,310.426,455.044,314.09z"/>
							</g>
						</g>
					</g>
					<g>
						<path style="fill:#FFFFFF;" d="M371.804,219.989c5.159,0.936,11.099,0.59,14.767-3.157c3.234-3.304,3.83-8.54,2.56-12.986        c-1.269-4.446-4.118-8.258-7.093-11.797c-7.736-9.204-31.584-29.778-40.661-10.053        C333.559,198.984,357.707,217.432,371.804,219.989z"/>
					</g>
				</g>
				<g>
					<g>
						<path style="fill:#FFDFE5;" d="M262.792,169.716c-0.435,0-0.827-0.297-0.929-0.739l-17.541-76.015        c-0.119-0.515,0.201-1.027,0.715-1.146c0.51-0.112,1.026,0.201,1.145,0.716l17.541,76.014        c0.119,0.515-0.201,1.027-0.715,1.146C262.936,169.709,262.863,169.716,262.792,169.716z"/>
					</g>
					<g>
						<circle style="fill:#FFDFE5;" cx="246.551" cy="95.346" r="8.446"/>
					</g>
				</g>
			</g>
			<g>
				<g>
					<path style="fill:#FFDFE5;" d="M247.525,122.301c-16.117,0-29.23-13.113-29.23-29.229c0-16.118,13.113-29.231,29.23-29.231       c16.117,0,29.229,13.113,29.229,29.231C276.754,109.188,263.643,122.301,247.525,122.301z M247.525,64.477       c-15.767,0-28.594,12.827-28.594,28.595c0,15.766,12.827,28.593,28.594,28.593c15.766,0,28.593-12.827,28.593-28.593       C276.118,77.304,263.292,64.477,247.525,64.477z"/>
				</g>
				<g>
					<path style="fill:#FFDFE5;" d="M247.525,133.468c-22.274,0-40.396-18.122-40.396-40.395s18.122-40.395,40.396-40.395       s40.395,18.122,40.395,40.395S269.8,133.468,247.525,133.468z M247.525,53.556c-21.79,0-39.518,17.729-39.518,39.517       s17.729,39.517,39.518,39.517s39.517-17.728,39.517-39.517S269.315,53.556,247.525,53.556z"/>
				</g>
				<g>
					<path style="fill:#FFDFE5;" d="M247.525,148.902c-30.784,0-55.828-25.045-55.828-55.83s25.044-55.829,55.828-55.829       c30.784,0,55.828,25.045,55.828,55.829S278.31,148.902,247.525,148.902z M247.525,38.46c-30.114,0-54.614,24.499-54.614,54.613       s24.5,54.613,54.614,54.613c30.114,0,54.614-24.499,54.614-54.613S277.639,38.46,247.525,38.46z"/>
				</g>
			</g>
		</g>
		<g>
			<polygon style="fill:#FFD461;" points="421.554,157.846 429.789,131.61 435.432,159.326 462.936,164.873 438.751,170.983      442.234,196.558 427.794,174.129 408.876,194.979 419.14,168.54 392.944,158.661    "/>
		</g>
		<g>
			<polygon style="fill:#FFD461;" points="224.561,445.742 217.915,419.058 237.177,439.771 263.541,430.171 246.084,447.99      262.385,468.002 238.373,456.385 233.093,484.039 228.074,456.125 200.568,461.347    "/>
		</g>
		<g>
			<polygon style="fill:#FFD461;" points="116.684,188.744 99.163,167.55 125.483,177.909 145.112,157.861 137.067,181.473      160.414,192.479 133.739,192.376 140.925,219.597 124.339,196.591 101.789,213.183    "/>
		</g>
	</g>
</g>















</svg>
