<?xml version="1.0" encoding="UTF-8"?>
<!-- Generator: Adobe Illustrator 25.2.3, SVG Export Plug-In . SVG Version: 6.00 Build 0)  -->
<svg xmlns="http://www.w3.org/2000/svg" xmlns:xlink="http://www.w3.org/1999/xlink" version="1.1" id="Capa_1" x="0px" y="0px" viewBox="0 0 512 512" style="enable-background:new 0 0 512 512;" xml:space="preserve" width="512" height="512">
<g>
	<g>
		<circle style="fill:#FFFFFF;" cx="256" cy="256" r="256"/>
	</g>
	<g>
		<g>
			<path style="fill:#924CA5;" d="M453.788,376.274c-13.844,23.325-184.556,109.523-194.563,109.523     c-17.111,0-127.135-37.965-134.194-43.174c-24.695-18.23-107.733-151.58-108.647-160.375c-0.389-3.358-0.663-6.762-0.891-10.166     c-0.023-0.342-0.046-0.64-0.069-0.96c-0.343-4.98-0.502-10.052-0.502-15.123c0-6.191,0.228-12.336,0.685-18.413     c0.48-6.122,1.165-12.176,2.079-18.162c0.457-3.107,1.005-6.145,1.576-9.206c0.069-0.388,0.137-0.777,0.205-1.143     c0.389-1.919,0.777-3.815,1.188-5.711c3.267-14.712,7.881-28.922,13.684-42.514c0.936-2.17,1.873-4.318,2.878-6.442     c5.231-11.354,11.331-22.228,18.207-32.554c0.297-0.434,0.594-0.914,0.914-1.348c0.342-0.525,0.685-1.028,1.028-1.553     c2.604-3.769,5.3-7.447,8.087-11.057c8.681-11.194,18.299-21.634,28.762-31.138c43.017-39.202,100.22-63.052,162.998-63.052     c1.279,0,2.604,0,3.884,0.046c0.297,0,0.594,0,0.914,0.023c12.679,0.229,25.107,1.462,37.237,3.587     c0.16,0.023,0.297,0.046,0.457,0.068c9.321,1.622,18.413,3.815,27.345,6.511c0.023-0.023,0.046,0,0.046,0     c7.721,2.307,15.26,5.003,22.639,8.064c1.508,0.617,3.016,1.256,4.5,1.896c0.183,0.069,0.366,0.16,0.548,0.251     c1.416,0.617,2.81,1.257,4.203,1.919c8.133,3.746,16.014,7.95,23.622,12.587c0.502,0.274,1.005,0.571,1.485,0.891     c2.193,1.348,4.386,2.742,6.534,4.158c3.427,2.262,6.785,4.615,10.052,7.013c0.16,0.137,0.343,0.252,0.48,0.366     c5.277,3.907,10.417,8.019,15.352,12.359c0.731,0.64,1.508,1.325,2.262,2.01c14.781,13.227,27.962,28.259,39.179,44.799     c4.569,6.716,8.795,13.73,12.656,20.949c0.526,0.936,1.028,1.873,1.531,2.833c0.708,1.325,1.394,2.673,2.033,4.021     c0.48,0.937,0.937,1.873,1.394,2.81c0.091,0.183,0.183,0.342,0.251,0.525c0.914,1.896,1.782,3.77,2.627,5.666     c4.432,9.869,8.201,20.081,11.263,30.612c2.924,9.915,5.231,20.104,6.853,30.498c1.211,7.63,2.033,15.397,2.49,23.256     C499.052,241.425,457.809,369.512,453.788,376.274z"/>
		</g>
		<g>
			<g style="opacity:0.08;">
				<path style="fill:#FFDFE5;" d="M452.396,112.401c-26.569,14.621-61.751,22.065-91.107,14.138      c-18.139-4.889-34.838-14.049-52.657-20.081c-17.796-6.008-37.991-8.704-54.965-0.64c-32.988,15.626-37.42,61.019-61.658,88.295      c-20.812,23.393-57.5,30.886-85.805,17.499c-21.566-10.166-36.666-30.018-54.942-45.301      c-5.277-4.409-11.217-8.453-17.499-11.719c7.973-18.664,18.253-36.095,30.521-51.926c24.056,11.011,47.677,23.827,73.583,22.342      c17.933-1.028,35.318-9.389,47.335-22.753c10.623-11.788,16.905-26.911,27.094-39.088      c16.037-19.121,41.806-29.653,66.639-27.208c3.747,0.366,7.447,1.005,11.103,1.85c23.873,5.369,46.421,18.71,70.842,17.408      c7.676-0.434,15.777-2.657,22.744-5.969c8.63,5.288,18.067,11.745,26.574,18.853C424.452,79.906,436.827,91.577,452.396,112.401      z"/>
			</g>
			<g style="opacity:0.07;">
				<path style="fill:#FFDFE5;" d="M474.173,148.058c-4.889,13.798-10.052,27.46-16.791,40.07      c-10.623,19.829-26.706,38.197-48.294,44.593c-30.589,9.069-63.326-8.43-85.165-31.709      c-14.964-15.991-29.516-36.438-51.355-38.334c-25.061-2.193-44.616,21.794-53.503,45.324      c-8.932,23.484-12.77,49.962-29.333,68.9c-10.417,11.925-25.426,19.692-41.167,21.451      c-26.157,2.901-51.332-10.303-73.127-25.061c-19.304-13.067-38.105-27.916-59.831-35.706      c-0.457,6.077-0.685,12.222-0.685,18.413c0,5.072,0.16,10.143,0.503,15.123c0.023,0.32,0.046,0.617,0.069,0.96      c0.228,3.404,0.503,6.808,0.891,10.166c0.914,8.795,2.33,17.453,4.181,25.952c0.091,0.411,0.183,0.845,0.274,1.256      c0.777,3.473,1.645,6.945,2.559,10.349c10.097-1.645,20.88,1.713,30.11,6.556c26.728,14.164,45.233,39.704,68.283,59.282      c23.051,19.578,56.678,33.308,83.064,18.596c16.859-9.435,26.34-28.282,31.001-46.992c4.66-18.756,5.483-38.288,10.303-56.975      c2.924-11.262,9.001-23.736,20.423-25.997c7.699-1.531,15.512,2.239,21.794,6.968c16.677,12.496,26.889,31.549,39.339,48.271      c12.473,16.745,29.721,32.508,50.556,32.988c18.185,0.411,34.61-11.034,46.992-24.353c15.306-16.517,26.706-36.62,32.92-58.254      c4.409-15.26,6.465-31.732,15.74-44.616c5.643-7.859,13.638-13.593,22.639-17.111L474.173,148.058z"/>
			</g>
		</g>
		<g style="opacity:0.08;">
			<path style="fill:#FFDFE5;" d="M471.132,343.742c-3.289,7.036-6.899,13.89-10.851,20.515     c-41.372,69.791-117.446,116.555-204.462,116.555c-43.52,0-84.321-11.72-119.41-32.143c-7.47-4.363-14.689-9.092-21.611-14.21     c8.338,1.051,16.677,2.97,24.764,5.483c3.815,1.165,7.585,2.467,11.262,3.861c26.271,9.914,51.173,24.078,78.701,29.584     c17.294,3.472,38.197,1.965,48.363-12.451c9.641-13.638,5.323-32.348,8.772-48.705c1.508-7.105,5.049-14.415,11.605-17.591     c7.31-3.541,16.311-0.868,22.799,4.044c6.488,4.912,11.194,11.719,16.608,17.773c14.346,15.991,38.059,26.934,57.363,17.522     c14.53-7.082,22.046-23.325,26.546-38.836c4.523-15.535,7.379-32.097,16.951-45.119c1.394-1.896,2.97-3.724,4.706-5.323     c3.724-3.472,8.201-6.031,13.227-6.397C462.062,337.894,466.951,340.133,471.132,343.742z"/>
		</g>
		<g>
			<path style="fill:#FFDFE5;" d="M410.126,432.949c-1.439,1.211-142.905,58.607-152.911,58.607     c-17.111,0-196.929-106.66-197.386-107.414c-0.114-0.16-33.644-54.901-33.644-54.901c-2.033-6.465-3.838-13.067-5.346-19.784     c-0.091-0.411-0.183-0.845-0.274-1.256c-1.85-8.498-3.267-17.157-4.18-25.952c15.375-4.569,31.594-6.991,46.878-7.722     c33.559-1.576,66.844,5.711,100.198,9.778c33.376,4.089,68.535,4.683,99.101-9.321c19.144-8.796,35.433-22.868,54.257-32.326     c23.759-11.902,51.31-16.014,77.49-11.605c17.339,2.947,33.879,9.458,51.195,12.45c17.727,3.061,36.118,2.353,53.548-2.079     c0.228,3.701,0.366,7.425,0.411,11.171C499.486,253.327,430.733,415.518,410.126,432.949z"/>
		</g>
		<g>
			<g>
				<g>
					<g>
						<path style="fill:#FF85CA;" d="M206.612,310.04l-15.491,22.709c-19.235,15.877-47.426,37.945-50.853,33.788        c-4.341-5.3,33.491-133.871,46.786-178.533c2.833-9.435,4.546-15.124,4.546-15.124L206.612,310.04z"/>
					</g>
					<g>
						<path style="fill:#3C1C87;" d="M209.101,317.534c0,0-7.722,6.717-17.979,15.215c-3.724-25.541-5.62-51.47-6.031-77.376        c-0.365-22.479,0.388-44.982,1.965-67.37c2.833-9.435,4.546-15.124,4.546-15.124L209.101,317.534z"/>
					</g>
				</g>
				<g>
					<g>
						<path style="fill:#FF85CA;" d="M311.906,305.351l17.104,22.073c20.399,14.352,50.202,34.188,53.299,29.78        c3.921-5.618-43.679-130.902-60.368-174.409c-3.549-9.189-5.695-14.729-5.695-14.729L311.906,305.351z"/>
					</g>
					<g>
						<path style="fill:#3C1C87;" d="M309.915,313.636c0,0,8.215,6.103,19.095,13.788c1.75-25.751,1.648-51.749,0.067-77.611        c-1.363-22.441-3.844-44.819-7.136-67.019c-3.549-9.189-5.695-14.729-5.695-14.729L309.915,313.636z"/>
					</g>
				</g>
				<g>
					<g>
						<g>
							<g>
								<polygon style="fill:#FF85CA;" points="300.48,417.458 228.153,417.458 234.893,399.091 250.465,383.707 243.711,375.081           282.981,373.139 284.26,376.36 287.55,384.721         "/>
							</g>
							<g>
								<path style="fill:#3C1C87;" d="M287.55,384.721c-17.545,4.432-35.364,9.321-52.657,14.37l8.498-23.119          c13.57-1.942,27.437-1.965,40.869,0.388L287.55,384.721z"/>
							</g>
						</g>
						<g>
							<path style="fill:#FF85CA;" d="M300.48,384.812l-12.793,0.251l-1.599,0.023l-46.398,0.937l-17.773,0.343         c0,0-34.998-91.768-35.775-166.425c-0.251-23.896,6.122-53.046,14.895-81.648l54.706-69.366l48.599,57.875         c9.503,27.254,16.723,57.775,17.91,89.232C326.135,319.476,300.48,384.812,300.48,384.812z"/>
						</g>
					</g>
					<g>
						<path style="fill:#FFDFE5;" d="M304.341,126.802c-33.925,7.356-68.603,11.217-103.305,11.491        C217.005,86.23,240.924,36.04,247.457,22.721c0.754-1.576,2.901-1.759,3.907-0.32        C259.177,33.618,285.997,74.076,304.341,126.802z"/>
					</g>
					<g>
						<g>
							<path style="fill:#FFDFE5;" d="M253.305,214.292c-7.057,0-13.73-2.667-18.86-7.547c-5.3-5.044-8.318-11.848-8.5-19.163         c-0.182-7.313,2.495-14.26,7.538-19.561c5.043-5.299,11.848-8.317,19.161-8.499c7.367-0.152,14.261,2.497,19.561,7.538         c5.3,5.044,8.319,11.848,8.5,19.163c0.182,7.313-2.496,14.26-7.538,19.561c-5.044,5.299-11.848,8.317-19.162,8.499         C253.771,214.287,253.538,214.292,253.305,214.292z M253.343,161.797c-0.214,0-0.428,0.002-0.641,0.009         c-6.704,0.165-12.942,2.931-17.563,7.791c-4.622,4.858-7.076,11.223-6.91,17.929c0.167,6.704,2.933,12.941,7.792,17.564         c4.858,4.623,11.237,7.136,17.928,6.908c6.705-0.166,12.942-2.931,17.565-7.791c4.622-4.857,7.076-11.223,6.91-17.929         c-0.167-6.704-2.935-12.94-7.792-17.563C265.929,164.24,259.81,161.797,253.343,161.797z"/>
						</g>
						<g>
							<path style="fill:#FFDFE5;" d="M259.616,267.892c-3.92,0-7.628-1.48-10.478-4.193c-2.945-2.802-4.622-6.584-4.723-10.646         c-0.207-8.386,6.447-15.38,14.834-15.589c8.424-0.177,15.382,6.444,15.591,14.832c0.101,4.064-1.386,7.922-4.189,10.867         c-2.802,2.945-6.583,4.623-10.646,4.724C259.875,267.89,259.745,267.892,259.616,267.892z M259.631,238.729         c-0.117,0-0.233,0.002-0.35,0.005c-7.688,0.191-13.786,6.6-13.597,14.288c0.092,3.724,1.63,7.191,4.329,9.759         c2.698,2.568,6.243,3.899,9.96,3.839c3.725-0.092,7.191-1.63,9.759-4.329c2.568-2.699,3.932-6.237,3.839-9.961         C273.382,244.759,267.162,238.729,259.631,238.729z"/>
						</g>
						<g>
							<path style="fill:#FFDFE5;" d="M260.761,313.955c-3.92,0-7.628-1.48-10.478-4.193c-2.945-2.8-4.622-6.582-4.723-10.644         c-0.101-4.064,1.386-7.922,4.188-10.867c2.801-2.945,6.582-4.623,10.645-4.724c4.082-0.101,7.922,1.386,10.867,4.189         c2.945,2.802,4.622,6.584,4.723,10.646c0.101,4.065-1.386,7.922-4.189,10.867c-2.801,2.945-6.582,4.621-10.645,4.722         C261.019,313.953,260.891,313.955,260.761,313.955z M260.78,284.792c-0.118,0-0.237,0.002-0.355,0.005         c-3.724,0.092-7.19,1.63-9.758,4.329c-2.568,2.699-3.932,6.237-3.839,9.961c0.092,3.724,1.63,7.189,4.329,9.757         c2.698,2.568,6.215,3.887,9.96,3.839c3.724-0.092,7.19-1.63,9.758-4.329c2.568-2.699,3.932-6.235,3.839-9.959         c-0.092-3.724-1.63-7.191-4.329-9.759C267.772,286.148,264.373,284.792,260.78,284.792z"/>
						</g>
						<g>
							<path style="fill:#FFDFE5;" d="M261.963,362.354c-3.92,0-7.628-1.48-10.478-4.193c-2.945-2.802-4.622-6.584-4.723-10.646         c-0.101-4.064,1.386-7.922,4.188-10.867c2.801-2.945,6.582-4.621,10.645-4.722c4.031-0.064,7.921,1.386,10.867,4.189         c2.945,2.8,4.622,6.582,4.723,10.644c0.101,4.064-1.386,7.922-4.189,10.867c-2.801,2.945-6.582,4.623-10.645,4.724         C262.222,362.351,262.092,362.354,261.963,362.354z M261.983,333.19c-0.118,0-0.237,0.002-0.355,0.005         c-3.724,0.092-7.19,1.63-9.758,4.329c-2.568,2.699-3.932,6.235-3.839,9.959c0.092,3.724,1.63,7.191,4.329,9.759         c2.698,2.568,6.238,3.885,9.96,3.839c3.724-0.092,7.19-1.63,9.758-4.329c2.568-2.699,3.932-6.237,3.839-9.961         c-0.092-3.724-1.63-7.189-4.329-9.756C268.975,334.546,265.576,333.19,261.983,333.19z"/>
						</g>
					</g>
				</g>
			</g>
			<g>
				<g>
					<path style="fill:#3C1C87;" d="M166.223,422.216c-0.113,0-0.225-0.032-0.324-0.099c-0.26-0.179-0.325-0.536-0.146-0.795       l54.245-78.741c0.179-0.26,0.536-0.322,0.794-0.147c0.26,0.179,0.325,0.536,0.146,0.795l-54.244,78.741       C166.582,422.132,166.404,422.216,166.223,422.216z"/>
				</g>
				<g>
					<path style="fill:#3C1C87;" d="M371.535,416.966c-0.167,0-0.332-0.071-0.445-0.212l-62.993-78.158       c-0.198-0.246-0.159-0.605,0.086-0.802c0.245-0.198,0.603-0.163,0.803,0.085l62.993,78.157       c0.198,0.246,0.159,0.605-0.086,0.802C371.788,416.924,371.661,416.966,371.535,416.966z"/>
				</g>
			</g>
		</g>
		<g>
			<g>
				<path style="fill:#FFBCC9;" d="M299.935,494.523c-3.335,0.594-6.693,1.12-10.075,1.577c-1.028,0.16-2.056,0.274-3.084,0.388      c-9.686,1.188-19.555,1.805-29.561,1.805c-44.365,0-85.988-11.948-121.763-32.783c-7.63-4.455-14.986-9.275-22.046-14.484      c-24.695-18.23-45.804-41.052-62.024-67.21c-0.503-0.754-0.959-1.508-1.417-2.262c-0.114-0.16-0.205-0.342-0.297-0.525      c-4.614-7.63-8.841-15.557-12.587-23.713c-3.358-7.265-6.374-14.735-8.978-22.388c-0.434-1.188-0.846-2.376-1.234-3.564      c-0.069-0.206-0.137-0.411-0.205-0.617c-0.16-0.503-0.32-1.005-0.48-1.508c15.329-3.267,31.549-2.399,46.284,2.924      c25.975,9.389,46.581,32.371,53.137,59.191c19.692-9.481,46.01-6.762,65.062,3.906c19.075,10.691,32.394,31.001,34.587,52.726      c16.562-5.551,35.501-0.571,49.231,10.212C286.274,467.452,294.521,480.497,299.935,494.523z"/>
			</g>
			<g>
				<path style="fill:#FFBCC9;" d="M499.509,256c0,24.238-3.564,47.632-10.212,69.7c-2.993,10.052-6.648,19.852-10.92,29.287v0.023      c-0.503,1.188-1.028,2.33-1.576,3.495c-3.358,7.173-7.036,14.164-11.057,20.926c-13.844,23.325-31.48,44.159-52.086,61.59      c-1.439,1.211-2.901,2.422-4.363,3.587c-14.438,11.674-30.224,21.703-47.129,29.835c-0.137,0.069-0.274,0.137-0.411,0.206      c-14.758,7.082-30.361,12.702-46.627,16.677c-2.17,0.548-4.363,1.051-6.556,1.508c-2.855,0.617-5.734,1.188-8.635,1.69      c-3.335,0.594-6.693,1.12-10.075,1.577c-1.028,0.16-2.056,0.274-3.084,0.388c-9.686,1.188-19.555,1.805-29.561,1.805      c-17.111,0-33.833-1.782-49.939-5.163c6.739-15.946,18.413-30.018,33.673-38.197c16.334-8.75,36.826-10.143,53.503-2.033      c4.775-27.323,22.457-51.881,45.621-67.141c23.164-15.238,52.68-20.447,79.66-14.05c2.764-40.07,21.657-78.084,51.698-104.744      c6.465-5.734,13.661-11.057,22.022-13.318c1.987-0.525,3.998-0.891,6.008-1.051c0.023,0.731,0.023,1.485,0.023,2.216      C499.509,255.2,499.509,255.612,499.509,256z"/>
			</g>
		</g>
		<g>
			<g>
				<path style="fill:#7F6EEC;" d="M187.451,141.242c-13.184,19.362-26.402,38.765-41.689,56.501      c-8.31,9.655-17.481,19.009-29.012,24.401c-13.695,6.433-30.453,6.533-43.711-0.72c-13.281-7.258-22.397-22.047-21.841-37.141      c0.223-6.363,2.041-12.585,4.098-18.607c10.483-30.731,27.718-59.159,50.081-82.679l-2.421,26.739l35.923-39.536l-7.984,43.752      l46.45-42.726l-21.341,53.593l22.404-8.523l-13.404,30.634L187.451,141.242z"/>
			</g>
			<g>
				<path style="fill:#FFD461;" d="M132.996,191.458c-4.947,20.764-25.79,33.585-46.554,28.638      c-20.764-4.948-33.585-25.791-28.638-46.555c4.948-20.764,25.791-33.585,46.554-28.638      C125.122,149.851,137.944,170.694,132.996,191.458z"/>
			</g>
		</g>
		<g>
			<g>
				<path style="fill:#FFBCC9;" d="M461.211,139.54c-7.63-4.478-27.505-15.398-49.322-21.634      c-0.937-3.312-5.483-16.243-19.464-17.75c-13.158-1.416-19.509,9.641-21.383,13.661c-20.857,2.01-39.111,9.275-46.558,12.587      c-0.571,0.251-0.982,0.663-1.234,1.165c-0.571,1.051-0.366,2.467,0.685,3.29c6.465,5.072,24.695,15.557,67.621,19.236      c34.222,2.284,62.435-1.348,69.723-6.1c0.868-0.548,1.257-1.462,1.211-2.353C462.444,140.82,462.01,140.02,461.211,139.54z       M378.238,113.977l-5.049-0.297c0,0,0,0,0-0.023c0.183-0.297,2.878-5.186,4.752-6.785l4.295,0.297      C382.236,107.169,379.015,111.532,378.238,113.977z M387.856,114.365l-5.231-0.297l2.422-6.991l4.272,0.388L387.856,114.365z       M392.722,114.639l0.777-7.082l3.404,0.091l0.891,7.379L392.722,114.639z M401.974,115.142l-1.188-7.105l3.792,0.092      c0,0-0.023-0.046-0.023-0.092c0.046,0.092,0.114,0.251,0.229,0.48c0.48,1.074,1.759,6.922,1.759,6.922L401.974,115.142z"/>
			</g>
		</g>
		<g>
			<g>
				<polygon style="fill:#FFD461;" points="402.367,232.476 398.719,211.655 412.364,228.583 433.101,222.651 418.749,235.368       430.163,251.597 412.38,241.387 406.832,262.306 404.497,240.629 383.123,243.141     "/>
			</g>
			<g>
				<polygon style="fill:#FFD461;" points="312.419,61.706 323.217,43.534 322.54,65.266 342.136,74.277 322.962,74.573       321.047,94.322 314.21,74.99 296.371,87.244 308.723,69.279 290.872,57.258     "/>
			</g>
			<g>
				<polygon style="fill:#FFD461;" points="95.441,278.684 106.24,260.512 105.562,282.244 125.158,291.255 105.985,291.551       104.069,311.3 97.232,291.968 79.393,304.222 91.745,286.257 73.894,274.236     "/>
			</g>
		</g>
	</g>
</g>















</svg>
