<?xml version="1.0" encoding="UTF-8"?>
<!-- Generator: Adobe Illustrator 25.2.3, SVG Export Plug-In . SVG Version: 6.00 Build 0)  -->
<svg xmlns="http://www.w3.org/2000/svg" xmlns:xlink="http://www.w3.org/1999/xlink" version="1.1" id="Capa_1" x="0px" y="0px" viewBox="0 0 512 512" style="enable-background:new 0 0 512 512;" xml:space="preserve" width="512" height="512">
<g>
	<g>
		<path style="fill:#FFFFFF;" d="M257.224,512c-54.978,0-82.103-13.357-90.651-16.633c-30.547-11.626-58.178-28.787-82.216-51.055    c-3.846,0.626-7.736,0.941-11.632,0.941c-39.989,0-72.523-32.534-72.523-72.523c0-15.051,4.656-29.607,13.247-41.779    c-7.184-23.823-10.823-48.518-10.823-73.525C2.626,117.04,116.838,2.828,257.224,2.828c20.95,0,41.74,2.551,61.909,7.592    C329.066,3.657,340.801,0,352.904,0c31.785,0,57.896,24.771,60.041,56.023c62.03,48.067,98.853,122.806,98.853,201.403    c0,107.043-67.618,203.307-168.26,239.542C315.961,506.94,286.915,512,257.224,512z"/>
	</g>
	<g>
		<g>
			<path style="fill:#924CA5;" d="M496.322,257.426c0,104.112-66.198,192.773-158.829,226.122l-91.087-2.908l-75.943,1.41     C79.972,447.608,15.675,360.017,15.675,257.426c0-132.73,107.605-240.336,240.336-240.336     C388.74,17.09,496.322,124.696,496.322,257.426z"/>
		</g>
		<g>
			
				<ellipse transform="matrix(0.1439 -0.9896 0.9896 0.1439 -307.6299 389.8589)" style="fill:#FFD461;" cx="71.511" cy="372.73" rx="58.261" ry="58.261"/>
		</g>
		<g>
			
				<ellipse transform="matrix(0.8153 -0.5791 0.5791 0.8153 30.1161 214.7731)" style="fill:#7F6EEC;" cx="351.691" cy="60.183" rx="45.921" ry="45.921"/>
		</g>
		<g>
			
				<ellipse transform="matrix(0.7071 -0.7071 0.7071 0.7071 -116.0932 398.4282)" style="fill:#3C1C87;" cx="422.899" cy="339.351" rx="41.875" ry="41.875"/>
		</g>
		<g>
			<g>
				<g>
					<path style="fill:#FFDFE5;" d="M410.832,173.915c-7.097,0-14.202-2.3-19.753-6.82c-10.161-8.268-14.107-23.141-9.381-35.362       c2.625-6.79,7.625-12.275,13.721-15.044l3.018,6.639c-4.371,1.987-7.992,6.01-9.935,11.038       c-3.56,9.204-0.471,20.843,7.182,27.07c7.656,6.233,19.678,6.892,27.969,1.539c8.292-5.353,12.636-16.583,10.107-26.121       c-2.528-9.54-11.865-17.145-21.719-17.688l0.402-7.284c13.083,0.722,25.013,10.436,28.369,23.103       c3.358,12.663-2.195,27.013-13.201,34.118C422.617,172.327,416.727,173.915,410.832,173.915z"/>
				</g>
				<g>
					<g>
						<path style="fill:#FFDFE5;" d="M451.363,244.273c-0.743-27.344-8.256-52.832-21.731-73.667l-7.338,4.739        c12.602,19.503,19.634,43.418,20.333,69.168c0.612,22.867-3.691,47.153-12.82,72.182        c-11.029,30.249-26.536,54.513-46.105,72.16c-10.462,9.435-22.168,16.861-34.398,21.993l-2.435,5.622l3.505,3.354        c13.956-5.525,27.322-13.803,39.181-24.483c20.639-18.608,36.932-44.051,48.463-75.654        C447.52,293.61,451.997,268.253,451.363,244.273z"/>
					</g>
				</g>
				<g>
					<path style="fill:#3C1C87;" d="M350.374,419.824c-10.986,4.346-22.343,6.967-33.612,7.709       c-0.612-2.839-0.852-5.766-0.764-8.692c11.16-0.721,22.43-3.451,33.306-7.993C349.654,413.643,350.047,416.701,350.374,419.824       z"/>
				</g>
				<g>
					<path style="fill:#3C1C87;" d="M414.213,183.23l2.635,5.879c2.013,4.49,7.335,6.433,11.767,4.295l14.798-7.138       c4.66-2.248,6.357-8.031,3.649-12.44l-2.604-4.241c-3.009-4.901-9.303-6.628-14.392-3.949l-11.951,6.29       C414.035,174.073,412.327,179.022,414.213,183.23z"/>
				</g>
			</g>
			<g>
				<g>
					<g>
						<path style="fill:#FFDFE5;" d="M266.355,370.829l-2.882,0.728c-2.14,15.397-7.841,30.293-16.751,43.025        c-2.14,3.058-4.434,5.962-6.858,9.064c-5.329,6.792-10.855,13.825-14.436,22.211c-5.569,13.039-4.849,31.013,7.317,40.186        l6.574-8.714c-7.6-5.722-7.644-18.28-3.844-27.191c3.014-7.054,7.862-13.213,12.995-19.765        c2.403-3.058,4.893-6.225,7.207-9.522c9.653-13.781,15.9-29.834,18.433-46.454L266.355,370.829z"/>
					</g>
				</g>
				<g>
					<path style="fill:#3C1C87;" d="M274.108,374.397c-3.691,0.24-7.469-0.808-10.636-2.839c1.551-10.942,1.31-22.146-0.852-32.979       c1.092-0.852,2.293-1.616,3.604-2.25c2.119-1.048,4.434-1.529,6.771-1.507C275.79,347.795,276.118,361.271,274.108,374.397z"/>
				</g>
			</g>
			<g>
				<g>
					<path style="fill:#FF85CA;" d="M330.003,353.813H186.879c-24.124,0-43.68-19.556-43.68-43.68l5.205-138.848l220.261-3.346       l5.019,142.194C373.683,334.257,354.127,353.813,330.003,353.813z"/>
				</g>
				<g>
					<path style="fill:#3C1C87;" d="M148.404,171.285c0,0,30.669-19.517,108.736-19.517c78.067,0,111.524,16.171,111.524,16.171       s-45.63,18.762-107.631,20.905C226.834,190.026,187.654,186.152,148.404,171.285z"/>
				</g>
				<g>
					<g>
						<path style="fill:#FFDFE5;" d="M245.255,189.764c-62.246,0-96.738-17.802-97.107-17.997c-0.174-0.093-0.284-0.269-0.29-0.467        c-0.007-0.244-0.569-24.533,10.924-49.248c10.619-22.839,33.975-50.731,84.941-53.916c39.85-2.486,71.627,7.314,94.479,29.139        c23.376,22.324,31.314,52.024,31.007,70.673c-0.004,0.202-0.118,0.388-0.301,0.478c-0.348,0.176-35.696,17.565-107.85,20.961        C255.608,189.646,250.339,189.764,245.255,189.764z M148.945,170.946c3.73,1.852,43.386,20.573,112.062,17.351        c68.409-3.22,103.569-19.027,107.116-20.703c0.202-18.447-7.693-47.581-30.674-69.529        c-22.625-21.606-54.137-31.305-93.658-28.837c-50.41,3.15-73.504,30.696-84.002,53.25        C149.11,145.421,148.921,167.998,148.945,170.946z M368.664,167.94h0.014H368.664z"/>
					</g>
					<g>
						<g>
							
								<ellipse transform="matrix(0.2289 -0.9735 0.9735 0.2289 78.4914 344.6275)" style="fill:#FFDFE5;" cx="256.768" cy="122.771" rx="9.108" ry="9.108"/>
						</g>
						<g>
							<path style="fill:#FFDFE5;" d="M256.582,168.014c-0.453,0-0.819-0.367-0.819-0.819v-45.353c0-0.453,0.367-0.819,0.819-0.819         c0.453,0,0.819,0.367,0.819,0.819v45.353C257.401,167.647,257.035,168.014,256.582,168.014z"/>
						</g>
					</g>
					<g>
						<g>
							<path style="fill:#FFDFE5;" d="M254.965,123.03c-0.557-4.712-4.869-8.663-9.611-8.807c-3.399-0.104-6.421,1.439-9.639,3.069         c-2.709,1.372-5.51,2.79-8.559,3.161c-5.672,0.675-11.866-2.551-15.751-8.261c-0.528-0.773-1.018-1.585-1.508-2.398         c-1.296-2.152-2.52-4.181-4.43-5.557c-3.751-2.7-8.781-1.98-13.648-1.277c-0.666,0.095-1.327,0.19-1.978,0.274         c-5.605,0.734-12.841-0.367-14.756-5.87l1.04-0.362c1.698,4.877,8.37,5.822,13.574,5.142         c0.646-0.086,1.302-0.179,1.964-0.274c5.08-0.729,10.337-1.483,14.448,1.472c2.095,1.509,3.434,3.733,4.731,5.884         c0.479,0.794,0.958,1.59,1.474,2.347c3.656,5.371,9.41,8.445,14.709,7.785c2.856-0.346,5.57-1.72,8.193-3.05         c3.2-1.62,6.494-3.317,10.169-3.185c5.267,0.158,10.055,4.545,10.672,9.777L254.965,123.03z"/>
						</g>
						<g>
							<path style="fill:#FFDFE5;" d="M256.742,123.019c-0.85-2.131,0.689-3.809,2.177-5.432c1.115-1.214,2.268-2.472,2.391-3.881         c0.153-1.741-1.359-3.245-2.275-3.988c-0.384-0.311-0.787-0.606-1.19-0.901c-1.049-0.771-2.134-1.564-2.922-2.672         c-3.003-4.215-0.078-9.817,1.932-12.779l0.588-0.861c2.31-3.37,4.697-6.857,4.036-10.608         c-0.515-2.915-2.704-5.025-5.021-7.256c-1.969-1.899-4.004-3.86-5.022-6.414l1.024-0.409c0.93,2.333,2.878,4.211,4.763,6.028         c2.342,2.256,4.763,4.589,5.34,7.86c0.742,4.195-1.889,8.034-4.211,11.421l-0.585,0.856         c-1.489,2.196-4.661,7.711-1.946,11.521c0.685,0.963,1.652,1.674,2.675,2.423c0.417,0.306,0.835,0.61,1.233,0.935         c1.875,1.518,2.825,3.273,2.679,4.94c-0.157,1.78-1.438,3.178-2.676,4.529c-1.374,1.497-2.56,2.79-1.966,4.278         L256.742,123.019z"/>
						</g>
						<g>
							<path style="fill:#FFDFE5;" d="M282.026,123.833c-0.306,0-0.617-0.016-0.933-0.053c-2.56-0.299-4.668-1.811-6.706-3.273         c-1.717-1.23-3.49-2.502-5.478-2.976c-3.608-0.859-7.709,1.358-8.966,4.842l-1.035-0.371         c1.437-3.988,6.133-6.534,10.257-5.543c2.198,0.525,4.062,1.862,5.865,3.155c2.013,1.444,3.914,2.806,6.192,3.071         c2.834,0.343,6.02-1.261,8.521-4.255c1.227-1.469,2.255-3.15,3.251-4.775c0.796-1.3,1.62-2.646,2.552-3.9         c5.634-7.565,17.567-12.05,26.351-6.66c0.735,0.45,1.464,0.966,2.195,1.483c2.352,1.667,4.573,3.245,7.075,2.781         c3.335-0.613,4.915-5.564,5.92-9.81l1.072,0.255c-1.082,4.571-2.832,9.91-6.793,10.636c-2.962,0.552-5.479-1.237-7.912-2.962         c-0.711-0.506-1.419-1.007-2.133-1.446c-8.272-5.072-19.547-0.794-24.891,6.381c-0.903,1.212-1.713,2.537-2.498,3.816         c-1.016,1.66-2.066,3.375-3.345,4.905C289.362,120.602,286.19,123.833,282.026,123.833z"/>
						</g>
						<g>
							<path style="fill:#FFDFE5;" d="M336.921,179.258c-2.187-0.738-2.759-3.433-2.565-5.708l0.07-0.747         c0.168-1.715,0.342-3.489-0.594-4.726c-1.21-1.595-3.425-1.474-5.778-1.349c-1.035,0.056-2.104,0.116-3.111,0.019         c-3.871-0.362-7.293-3.668-7.792-7.526c-0.292-2.263,0.308-4.54,0.887-6.741c0.73-2.772,1.419-5.39,0.341-7.774         c-1.66-3.675-6.674-4.545-10.785-3.512c-1.859,0.471-3.686,1.233-5.453,1.968c-2.219,0.926-4.514,1.883-6.946,2.305         c-6.751,1.168-14.081-2.326-17.421-8.31c-0.616-1.103-1.106-2.277-1.581-3.414c-0.684-1.639-1.33-3.187-2.324-4.557         c-2.855-3.925-8.571-5.464-13.011-3.51l-0.443-1.007c4.899-2.161,11.198-0.457,14.345,3.87         c1.069,1.474,1.771,3.155,2.449,4.779c0.463,1.109,0.94,2.254,1.525,3.301c3.122,5.59,9.966,8.86,16.272,7.762         c2.311-0.399,4.547-1.332,6.71-2.235c1.804-0.752,3.67-1.53,5.608-2.02c4.54-1.151,10.147-0.104,12.058,4.125         c1.24,2.741,0.467,5.673-0.28,8.51c-0.552,2.098-1.125,4.269-0.859,6.321c0.434,3.366,3.423,6.251,6.802,6.569         c0.924,0.084,1.951,0.033,2.948-0.023c2.529-0.137,5.151-0.279,6.714,1.785c1.198,1.581,0.993,3.663,0.814,5.499         l-0.068,0.731c-0.151,1.776,0.234,4.037,1.82,4.57L336.921,179.258z"/>
						</g>
						<g>
							<path style="fill:#FFDFE5;" d="M222.774,188.936l-0.042-1.1c2.631-0.102,6.643-1.762,7.015-4.494         c0.279-2.047-0.498-4.007-1.32-6.084c-0.5-1.263-1.018-2.572-1.29-3.923c-1.128-5.604,2.73-11.797,8.257-13.254         c0.85-0.225,1.719-0.348,2.56-0.469c1.027-0.144,1.996-0.283,2.931-0.587c2.784-0.905,5.038-3.442,5.61-6.314         c0.507-2.56-0.198-5.239-0.882-7.83l-0.259-0.991c-1.025-3.999-2.124-9.919,0.159-15.104c2.08-4.724,7.747-8.403,12.86-6.36         l-0.409,1.021c-4.463-1.78-9.61,1.616-11.444,5.785c-1.633,3.707-1.664,8.28-0.099,14.385l0.257,0.984         c0.715,2.711,1.454,5.515,0.896,8.324c-0.656,3.303-3.149,6.107-6.349,7.15c-1.026,0.332-2.089,0.483-3.116,0.629         c-0.847,0.121-1.648,0.234-2.435,0.441c-4.992,1.318-8.476,6.913-7.458,11.973c0.253,1.256,0.752,2.516,1.235,3.737         c0.838,2.115,1.704,4.304,1.386,6.637C230.381,186.858,225.861,188.817,222.774,188.936z"/>
						</g>
						<g>
							<path style="fill:#FFDFE5;" d="M160.239,164.235c-0.911,0-1.82-0.149-2.682-0.455c-0.873-0.311-1.754-0.768-2.606-1.212         c-2.046-1.059-3.973-2.057-5.582-1.014l-0.604-0.919c2.143-1.404,4.455-0.204,6.692,0.956         c0.819,0.425,1.666,0.866,2.468,1.149c2.305,0.826,5.012,0.339,6.892-1.233c1.493-1.247,2.384-2.994,3.327-4.845         c0.544-1.068,1.106-2.17,1.797-3.175c3.253-4.735,9.792-7.426,16.647-6.836c6.162,0.52,11.95,3.294,17.288,6.214         c4.669,2.556,9.491,4.58,13.109,2.131c2.135-1.442,3.12-4.081,4.07-6.632l0.127-0.339c3.337-8.914,7.58-15.471,12.974-20.046         c6.683-5.669,15.376-7.939,22.68-5.933l-0.293,1.063c-6.958-1.922-15.263,0.272-21.675,5.71         c-5.246,4.45-9.385,10.859-12.654,19.591l-0.125,0.339c-0.965,2.588-2.058,5.52-4.486,7.161         c-4.112,2.772-9.28,0.641-14.256-2.08c-5.231-2.862-10.894-5.58-16.851-6.084c-6.472-0.529-12.614,1.95-15.646,6.363         c-0.65,0.947-1.195,2.017-1.722,3.052c-0.953,1.869-1.937,3.802-3.604,5.19C164.053,163.58,162.145,164.235,160.239,164.235z         "/>
						</g>
					</g>
					<g>
						<g>
							<path style="fill:#FFDFE5;" d="M281.972,84.33c2.184,4.419,6.52,7.371,10.96,9.514c2.802,1.353,5.772,2.478,8.875,2.71         c2.351,0.176,5.087-0.401,6.2-2.48c0.45-0.84,0.567-1.825,0.513-2.777c-0.248-4.374-3.805-7.828-7.509-10.168         C296.879,78.52,275.829,71.899,281.972,84.33z"/>
						</g>
						<g>
							<path style="fill:#FFDFE5;" d="M327.4,103.255c0,3.234-2.621,5.855-5.855,5.855c-3.234,0-5.855-2.621-5.855-5.855         c0-3.234,2.621-5.855,5.855-5.855C324.779,97.4,327.4,100.021,327.4,103.255z"/>
						</g>
					</g>
				</g>
				<g>
					<path style="fill:#FFDFE5;" d="M203.794,354.358c-0.009,0-0.02,0-0.03,0c-0.302-0.016-0.532-0.274-0.515-0.576       c1.836-33.057,1.49-166.653,1.487-167.997c-0.001-0.302,0.243-0.548,0.544-0.548h0.001c0.301,0,0.546,0.244,0.546,0.543       c0.005,1.346,0.35,134.972-1.487,168.062C204.323,354.133,204.082,354.358,203.794,354.358z"/>
				</g>
				<g>
					<g>
						
							<ellipse transform="matrix(0.2314 -0.9729 0.9729 0.2314 -25.9819 440.3054)" style="fill:#FFDFE5;" cx="265.67" cy="236.596" rx="16.709" ry="16.709"/>
					</g>
					<g>
						<circle style="fill:#FFDFE5;" cx="339.13" cy="235.623" r="16.709"/>
					</g>
					<g>
						<path style="fill:#FFDFE5;" d="M279.465,259.47h50.278c0,0-1.127,13.302-26.379,13.302        C282.396,272.772,279.465,259.47,279.465,259.47z"/>
					</g>
				</g>
				<g>
					<g>
						<g>
							<ellipse style="fill:#7F6EEC;" cx="162.856" cy="252.511" rx="32.787" ry="49.628"/>
						</g>
						<g>
							<ellipse style="fill:#3C1C87;" cx="155.54" cy="252.511" rx="32.787" ry="49.628"/>
						</g>
					</g>
					<g>
						<g>
							<path style="fill:#FFDFE5;" d="M153.423,253.789h-49.629c-0.604,0-1.092-0.487-1.092-1.091c0-0.604,0.489-1.091,1.092-1.091         h49.629c0.604,0,1.092,0.488,1.092,1.091C154.515,253.302,154.026,253.789,153.423,253.789z"/>
						</g>
						<g>
							<circle style="fill:#FFDFE5;" cx="107.14" cy="252.697" r="9.48"/>
						</g>
					</g>
				</g>
			</g>
			<g>
				<g>
					<path style="fill:#FF85CA;" d="M337.493,394.53v89.018c-25.433,9.199-52.864,14.19-81.482,14.19       c-1.922,0-3.839-0.023-5.751-0.069l-17.98-15.689l-21.432,11.503c-5.063-0.951-10.078-2.068-15.023-3.328       c-8.652-2.258-19.005-13.237-19.005-13.237l-2.189-76.614l21.194-5.774H337.493z"/>
				</g>
				<g>
					<path style="fill:#3C1C87;" d="M195.825,394.53v95.626c-8.652-2.258-17.114-4.944-25.362-8.105v-87.52H195.825z"/>
				</g>
			</g>
			<path style="fill:#FFDFE5;" d="M210.848,493.484l21.369,3.09c5.948,0.579,11.966,0.948,18.042,1.093v-89.588h-39.41V493.484z"/>
			<g>
				<rect x="280.002" y="437.084" style="fill:#FFDFE5;" width="39.405" height="18.587"/>
			</g>
			<g>
				<g>
					<rect x="280.002" y="408.088" style="fill:#FFDFE5;" width="39.405" height="18.587"/>
				</g>
				<g>
					<rect x="280.002" y="437.084" style="fill:#FFDFE5;" width="39.405" height="18.587"/>
				</g>
				<g>
					<rect x="280.002" y="466.081" style="fill:#FFDFE5;" width="39.405" height="18.587"/>
				</g>
			</g>
			<g>
				<g>
					<path style="fill:#FFDFE5;" d="M115.905,169.096c-6.829,0-13.66-2.129-19.106-6.342c-10.362-8.018-14.674-22.788-10.251-35.118       c4.423-12.333,17.123-20.952,30.232-20.606l-0.218,7.293c-9.892-0.35-19.814,6.486-23.148,15.775       c-3.331,9.287,0.043,20.845,7.848,26.885c7.804,6.04,19.84,6.404,27.998,0.85c8.156-5.555,12.224-16.889,9.46-26.365       c-1.509-5.174-4.774-9.489-8.959-11.838l3.57-6.36c5.837,3.275,10.353,9.164,12.392,16.156       c3.668,12.579-1.528,27.061-12.357,34.438C128.231,167.362,122.068,169.096,115.905,169.096z"/>
				</g>
				<g>
					<g>
						<path style="fill:#FFDFE5;" d="M159.444,416.983l-7.023,2.162c-13.432-6.705-26.055-16.074-36.954-27.737        c-18.979-20.29-33.066-47.044-41.846-79.498c-7.251-26.798-9.566-52.438-6.88-76.288c2.228-19.875,8.015-38.482,16.904-54.71        c3.254-5.941,6.923-11.575,11.007-16.839l6.901,5.351c-3.844,4.979-7.316,10.309-10.374,15.944        c-8.277,15.157-13.672,32.564-15.769,51.237c-2.555,22.736-0.328,47.306,6.639,73.012        c8.409,31.079,21.797,56.588,39.793,75.829c9.61,10.287,20.661,18.695,32.411,24.832L159.444,416.983z"/>
					</g>
				</g>
				<g>
					<path style="fill:#3C1C87;" d="M186.753,421.089c-0.175,2.926-0.655,5.809-1.507,8.583       c-11.16-1.682-22.255-5.264-32.826-10.527c0.59-3.079,1.245-6.093,1.834-8.867       C164.694,415.738,175.702,419.407,186.753,421.089z"/>
				</g>
				<g>
					<path style="fill:#3C1C87;" d="M108.944,177.97l-3.126,5.633c-2.388,4.303-7.856,5.785-12.09,3.278l-14.137-8.371       c-4.452-2.636-5.65-8.543-2.577-12.705l2.955-4.004c3.415-4.627,9.833-5.812,14.676-2.71l11.372,7.284       C109.9,168.861,111.182,173.938,108.944,177.97z"/>
				</g>
			</g>
		</g>
		<g>
			<g>
				<g>
					<path style="fill:#FFDFE5;" d="M152.429,100.386c-0.418,0-0.758-0.339-0.758-0.757V52.698c0-0.418,0.34-0.757,0.758-0.757       s0.758,0.339,0.758,0.757V99.63C153.187,100.047,152.847,100.386,152.429,100.386z"/>
				</g>
				<g>
					<path style="fill:#FFDFE5;" d="M175.896,76.921h-46.932c-0.418,0-0.758-0.339-0.758-0.757s0.34-0.757,0.758-0.757h46.932       c0.418,0,0.758,0.339,0.758,0.757S176.314,76.921,175.896,76.921z"/>
				</g>
				<g>
					<path style="fill:#FFDFE5;" d="M160.939,87.494c-0.217,0-0.434-0.093-0.584-0.274l-17.277-20.887       c-0.267-0.323-0.222-0.801,0.101-1.065c0.32-0.269,0.799-0.225,1.067,0.1l17.277,20.887c0.267,0.323,0.222,0.801-0.101,1.065       C161.28,87.438,161.11,87.494,160.939,87.494z"/>
				</g>
				<g>
					<path style="fill:#FFDFE5;" d="M141.857,85.688c-0.217,0-0.434-0.093-0.584-0.274c-0.267-0.323-0.222-0.801,0.101-1.065       l20.887-17.277c0.32-0.269,0.798-0.225,1.067,0.1c0.267,0.323,0.222,0.801-0.101,1.065L142.34,85.514       C142.198,85.632,142.028,85.688,141.857,85.688z"/>
				</g>
			</g>
			<g>
				<g>
					<path style="fill:#FFDFE5;" d="M399.433,268.738c-0.328,0-0.594-0.267-0.594-0.594v-36.82c0-0.327,0.266-0.594,0.594-0.594       c0.328,0,0.594,0.267,0.594,0.594v36.82C400.027,268.471,399.761,268.738,399.433,268.738z"/>
				</g>
				<g>
					<path style="fill:#FFDFE5;" d="M417.841,250.328h-36.818c-0.328,0-0.594-0.267-0.594-0.594s0.266-0.594,0.594-0.594h36.818       c0.328,0,0.594,0.267,0.594,0.594S418.17,250.328,417.841,250.328z"/>
				</g>
				<g>
					<path style="fill:#FFDFE5;" d="M406.108,258.622c-0.171,0-0.34-0.074-0.458-0.216l-13.554-16.386       c-0.209-0.253-0.173-0.627,0.08-0.836c0.251-0.214,0.627-0.174,0.837,0.079l13.554,16.386c0.209,0.253,0.173,0.627-0.08,0.836       C406.377,258.578,406.242,258.622,406.108,258.622z"/>
				</g>
				<g>
					<path style="fill:#FFDFE5;" d="M391.139,257.206c-0.171,0-0.34-0.074-0.458-0.216c-0.209-0.253-0.173-0.627,0.08-0.836       l16.386-13.554c0.25-0.211,0.624-0.174,0.837,0.079c0.209,0.253,0.173,0.627-0.08,0.836l-16.386,13.554       C391.407,257.162,391.272,257.206,391.139,257.206z"/>
				</g>
			</g>
			<g>
				<g>
					<path style="fill:#FFDFE5;" d="M373.134,458.49c-0.328,0-0.594-0.267-0.594-0.594v-36.818c0-0.327,0.266-0.594,0.594-0.594       c0.328,0,0.594,0.267,0.594,0.594v36.818C373.728,458.223,373.462,458.49,373.134,458.49z"/>
				</g>
				<g>
					<path style="fill:#FFDFE5;" d="M391.543,440.082h-36.818c-0.328,0-0.594-0.267-0.594-0.594s0.266-0.594,0.594-0.594h36.818       c0.329,0,0.594,0.267,0.594,0.594S391.871,440.082,391.543,440.082z"/>
				</g>
				<g>
					<path style="fill:#FFDFE5;" d="M379.81,448.376c-0.171,0-0.34-0.074-0.458-0.216l-13.554-16.386       c-0.209-0.253-0.173-0.627,0.08-0.836c0.25-0.214,0.625-0.174,0.837,0.079l13.554,16.386c0.209,0.253,0.173,0.627-0.08,0.836       C380.078,448.332,379.943,448.376,379.81,448.376z"/>
				</g>
				<g>
					<path style="fill:#FFDFE5;" d="M364.84,446.96c-0.171,0-0.34-0.074-0.458-0.216c-0.209-0.253-0.173-0.627,0.08-0.836       l16.386-13.554c0.25-0.214,0.623-0.174,0.837,0.079c0.209,0.253,0.173,0.627-0.08,0.836l-16.386,13.554       C365.108,446.916,364.973,446.96,364.84,446.96z"/>
				</g>
			</g>
			<g>
				<g>
					<path style="fill:#FFDFE5;" d="M42.582,268.738c-0.328,0-0.594-0.267-0.594-0.594v-36.82c0-0.327,0.266-0.594,0.594-0.594       c0.328,0,0.594,0.267,0.594,0.594v36.82C43.177,268.471,42.911,268.738,42.582,268.738z"/>
				</g>
				<g>
					<path style="fill:#FFDFE5;" d="M60.992,250.328H24.174c-0.329,0-0.594-0.267-0.594-0.594s0.266-0.594,0.594-0.594h36.819       c0.329,0,0.594,0.267,0.594,0.594S61.321,250.328,60.992,250.328z"/>
				</g>
				<g>
					<path style="fill:#FFDFE5;" d="M49.258,258.622c-0.171,0-0.34-0.074-0.458-0.216L35.246,242.02       c-0.209-0.253-0.173-0.627,0.08-0.836c0.25-0.214,0.624-0.174,0.837,0.079l13.554,16.386c0.209,0.253,0.173,0.627-0.08,0.836       C49.526,258.578,49.392,258.622,49.258,258.622z"/>
				</g>
				<g>
					<path style="fill:#FFDFE5;" d="M34.288,257.206c-0.171,0-0.34-0.074-0.458-0.216c-0.209-0.253-0.173-0.627,0.08-0.836       l16.386-13.554c0.251-0.211,0.624-0.174,0.837,0.079c0.209,0.253,0.173,0.627-0.08,0.836l-16.386,13.554       C34.557,257.162,34.422,257.206,34.288,257.206z"/>
				</g>
			</g>
		</g>
	</g>
</g>















</svg>
