<?xml version="1.0" encoding="UTF-8"?>
<!-- Generator: Adobe Illustrator 25.2.3, SVG Export Plug-In . SVG Version: 6.00 Build 0)  -->
<svg xmlns="http://www.w3.org/2000/svg" xmlns:xlink="http://www.w3.org/1999/xlink" version="1.1" id="Capa_1" x="0px" y="0px" viewBox="0 0 512 512" style="enable-background:new 0 0 512 512;" xml:space="preserve" width="512" height="512">
<g>
	<g>
		<circle style="fill:#FFFFFF;" cx="256" cy="256" r="256"/>
	</g>
	<g>
		<g>
			<path style="fill:#3C1C87;" d="M429.916,413.173c-25.784,34.243-173.925,84.51-173.925,84.51     c-3.498-0.003-6.989-0.082-10.47-0.237c-65.192-12.867-123.566-57.788-124.211-58.552     c-17.181-19.834-57.594-48.753-67.846-74.537c-2.963-7.527-39.015-110.072-38.969-112.618     c0.297-16.489,2.285-32.799,5.886-48.696c8.077-35.892,24.279-69.634,47.386-98.429l25.403-14.338l7.55-19.332     c19.308-16.249,41.508-29.679,66.241-39.5c122.421-48.581,260.804,9.845,311.727,130.593c0.669,1.601,1.338,3.226,1.983,4.851     c6.355,15.98,10.855,32.215,13.66,48.5c0.043,0.25,0.086,0.5,0.128,0.75C494.46,216.138,466.334,364.831,429.916,413.173z"/>
		</g>
		<g style="opacity:0.38;">
			<path style="fill:#7F6EEC;" d="M441.744,394.536l-95.306,76.938l-90.447,26.21c-3.498-0.003-6.989-0.082-10.47-0.237     c-62.633-2.784-161.903-80.326-163.576-82.19c-0.645-0.741-67.496-160.971-67.451-163.517     c0.297-16.489,2.285-32.799,5.886-48.696c24.948-4.421,53.265,4.875,71.713,23.227c26.573,26.477,35.749,66.121,35.558,103.614     c24.565-15.915,60.936-9.63,78.714,13.645c20.981,27.481,14.051,66.336,6.141,100.006c28.819-11.231,65.38,9.845,70.088,40.409     c4.827-29.106,10.012-59.119,25.999-83.948c15.987-24.804,45.809-43.181,74.58-36.585c-6.356-20.551-11.207-41.938-10.108-63.421     c1.099-21.507,8.698-43.3,24.207-58.235c15.509-14.911,39.644-21.602,59.526-13.406c-0.263-19.906,3.393-40.456,14.409-57.064     c2.175-3.298,4.684-6.404,7.48-9.248c0.669,1.601,1.338,3.226,1.983,4.851c6.34,15.972,10.857,32.216,13.651,48.502     C505.745,281.975,441.744,394.536,441.744,394.536z"/>
		</g>
		<g>
			<g>
				<path style="fill:#FF85CA;" d="M245.523,497.411c-26.224-1.097-52.709-6.591-78.497-16.822      c-7.508-2.979-14.777-6.299-21.803-9.909c-6.488-3.345-12.773-6.944-18.823-10.809c-4.379-2.766-8.651-5.669-12.805-8.679      c-7.248-5.318-14.16-10.965-20.696-16.977C41.963,387.58,13.277,320.824,14.487,251.739      c14.684,4.72,28.091,13.175,38.162,24.986c17.671,20.713,24.145,50.403,16.716,76.583c25.513-3.787,52.947,1.39,73.271,17.294      c20.293,15.917,32.121,43.258,26.415,68.4c16.307-1.706,33.095,1.663,47.45,9.543c15.76,8.617,29.089,24.137,29.5,42.09      C246.061,492.945,245.889,495.191,245.523,497.411z"/>
			</g>
			<g>
				<path style="fill:#FF85CA;" d="M480.679,345.112c-37.609,94.802-128.533,152.591-224.688,152.544      c5.261-19.353,13.164-38.173,27.035-52.465c16.49-17.007,43.258-25.9,64.711-15.821c-0.986-17.41,0.535-35.239,7.1-51.401      c6.579-16.131,18.609-30.512,34.604-37.457c15.982-6.977,35.963-5.502,49.356,5.646c-8.346-23.158-8.163-49.281,0.505-72.296      c8.676-23.037,25.775-42.81,47.308-54.706c2.499-1.374,5.051-2.624,7.688-3.763c0.043,0.25,0.085,0.5,0.127,0.75l-0.602,8.825      l2.572,5.484C500.442,268.178,495.641,307.4,480.679,345.112z"/>
			</g>
		</g>
		<g>
			<g>
				
					<rect x="403.564" y="167.748" transform="matrix(0.9822 -0.1877 0.1877 0.9822 -24.2254 80.9673)" style="fill:#7F6EEC;" width="23.795" height="1.33"/>
			</g>
			<g>
				
					<rect x="76.321" y="230.075" transform="matrix(0.9822 -0.1877 0.1877 0.9822 -41.7381 20.6574)" style="fill:#7F6EEC;" width="23.795" height="1.33"/>
			</g>
		</g>
		<g>
			<g>
				
					<rect x="415.678" y="213.796" transform="matrix(0.1568 -0.9876 0.9876 0.1568 128.1511 601.4919)" style="fill:#7F6EEC;" width="1.328" height="23.795"/>
			</g>
			<g>
				
					<rect x="86.675" y="161.563" transform="matrix(0.1568 -0.9876 0.9876 0.1568 -97.672 232.5157)" style="fill:#7F6EEC;" width="1.328" height="23.794"/>
			</g>
		</g>
		<g>
			<g>
				
					<ellipse transform="matrix(0.7071 -0.7071 0.7071 0.7071 -57.7804 234.3487)" style="fill:#7F6EEC;" cx="253.994" cy="186.921" rx="108.651" ry="108.651"/>
			</g>
			<g>
				<path style="fill:#7F6EEC;" d="M253.994,307.323c-66.389,0-120.401-54.012-120.401-120.401      c0-66.389,54.012-120.401,120.401-120.401s120.401,54.012,120.401,120.401C374.395,253.311,320.383,307.323,253.994,307.323z       M253.994,67.618c-65.785,0-119.304,53.519-119.304,119.304c0,65.785,53.519,119.304,119.304,119.304      s119.304-53.519,119.304-119.304C373.298,121.137,319.779,67.618,253.994,67.618z"/>
			</g>
			<g>
				<path style="fill:#7F6EEC;" d="M253.994,320.825c-73.835,0-133.904-60.067-133.904-133.903      c0-73.836,60.07-133.903,133.904-133.903s133.903,60.067,133.903,133.903C387.897,260.757,327.829,320.825,253.994,320.825z       M253.994,54.237c-73.163,0-132.684,59.524-132.684,132.685c0,73.161,59.521,132.685,132.684,132.685      c73.161,0,132.683-59.524,132.683-132.685C386.677,113.76,327.155,54.237,253.994,54.237z"/>
			</g>
			<g>
				<g>
					<path style="fill:#FFDFE5;" d="M183.81,184.841c0,0,17.512-44.031,69.549-44.031c52.037,0,71.389,41.444,71.389,41.444       S265.367,255.891,183.81,184.841z"/>
				</g>
				<g>
					
						<ellipse transform="matrix(0.2056 -0.9786 0.9786 0.2056 28.384 390.5153)" style="fill:#3C1C87;" cx="254.741" cy="177.774" rx="23.523" ry="23.522"/>
				</g>
			</g>
			<g>
				<g>
					<rect x="252.45" y="25.997" style="fill:#7F6EEC;" width="1.22" height="21.843"/>
				</g>
				<g>
					<rect x="252.45" y="331.79" style="fill:#7F6EEC;" width="1.22" height="21.84"/>
				</g>
			</g>
			<g>
				<g>
					<polygon style="fill:#7F6EEC;" points="301.736,56.444 300.588,56.029 307.988,35.479 309.136,35.894      "/>
				</g>
				<g>
					<polygon style="fill:#7F6EEC;" points="198.132,344.152 196.984,343.736 204.385,323.184 205.533,323.599      "/>
				</g>
			</g>
			<g>
				<g>
					
						<rect x="339.615" y="71.412" transform="matrix(0.6381 -0.77 0.77 0.6381 71.411 295.9688)" style="fill:#7F6EEC;" width="21.843" height="1.222"/>
				</g>
				<g>
					
						<rect x="144.663" y="306.998" transform="matrix(0.6382 -0.7699 0.7699 0.6382 -180.5314 231.0858)" style="fill:#7F6EEC;" width="21.842" height="1.221"/>
				</g>
			</g>
			<g>
				<g>
					
						<rect x="373.76" y="111.404" transform="matrix(0.8608 -0.5089 0.5089 0.8608 -3.4698 211.3388)" style="fill:#7F6EEC;" width="21.843" height="1.22"/>
				</g>
				<g>
					
						<rect x="110.519" y="267.007" transform="matrix(0.8608 -0.5089 0.5089 0.8608 -119.2897 99.047)" style="fill:#7F6EEC;" width="21.842" height="1.22"/>
				</g>
			</g>
			<g>
				<g>
					
						<rect x="386.402" y="252.61" transform="matrix(0.4822 -0.8761 0.8761 0.4822 -30.4667 475.5178)" style="fill:#7F6EEC;" width="1.22" height="21.842"/>
				</g>
				<g>
					
						<rect x="118.5" y="105.178" transform="matrix(0.4821 -0.8761 0.8761 0.4821 -40.028 164.4844)" style="fill:#7F6EEC;" width="1.22" height="21.841"/>
				</g>
			</g>
			<g>
				<g>
					<polygon style="fill:#7F6EEC;" points="360.874,313.154 346.438,296.763 347.353,295.955 361.789,312.347      "/>
				</g>
				<g>
					<polygon style="fill:#7F6EEC;" points="158.768,83.675 144.332,67.282 145.247,66.474 159.683,82.868      "/>
				</g>
			</g>
			<g>
				<g>
					
						<rect x="308.652" y="321.085" transform="matrix(0.93 -0.3676 0.3676 0.93 -100.3847 136.9145)" style="fill:#7F6EEC;" width="1.219" height="21.843"/>
				</g>
				<g>
					
						<rect x="196.249" y="36.703" transform="matrix(0.93 -0.3676 0.3676 0.93 -3.7243 75.6906)" style="fill:#7F6EEC;" width="1.219" height="21.841"/>
				</g>
			</g>
		</g>
		<g>
			<g>
				<g>
					<path style="fill:#FFBCC9;" d="M419.709,391.009c-7.745-4.545-27.921-15.63-50.067-21.961       c-0.951-3.362-5.566-16.488-19.758-18.018c-13.357-1.438-19.804,9.786-21.706,13.868c-21.173,2.041-39.701,9.415-47.262,12.777       c-0.58,0.255-0.997,0.673-1.252,1.183c-0.58,1.067-0.371,2.504,0.696,3.34c6.563,5.148,25.069,15.792,68.643,19.526       c34.739,2.319,63.379-1.368,70.776-6.192c0.881-0.557,1.276-1.484,1.229-2.388       C420.961,392.307,420.521,391.496,419.709,391.009z"/>
				</g>
			</g>
			<g>
				<path style="fill:#FFFFFF;" d="M369.641,369.345c-0.028,0-0.057-0.005-0.085-0.012c-19.597-5.853-41.139-4.156-41.354-4.138      c-0.152,0.026-0.309-0.112-0.322-0.273c-0.014-0.166,0.108-0.31,0.273-0.324c0.215-0.014,21.866-1.725,41.573,4.161      c0.159,0.049,0.249,0.215,0.201,0.373C369.889,369.262,369.77,369.345,369.641,369.345z"/>
			</g>
			<g>
				<path style="fill:#FFFFFF;" d="M420.797,393.284c-0.029,0-0.058-0.005-0.087-0.014c-50.948-15.502-98.678-19.962-141.866-13.255      c-0.155,0.058-0.315-0.084-0.341-0.247c-0.026-0.163,0.086-0.317,0.25-0.341c43.276-6.725,91.095-2.257,142.131,13.274      c0.158,0.047,0.246,0.215,0.198,0.371C421.043,393.2,420.925,393.284,420.797,393.284z"/>
			</g>
		</g>
		<g>
			<g>
				<g>
					<path style="fill:#FFD461;" d="M180.637,269.449c-8.902-1.183-31.798-3.571-54.666-0.811       c-2.181-2.73-11.528-13.036-25.202-8.939c-12.869,3.858-14.455,16.704-14.623,21.204c-18.722,10.097-32.937,24.084-38.6,30.116       c-0.435,0.46-0.658,1.007-0.695,1.576c-0.12,1.208,0.63,2.452,1.937,2.808c8.046,2.198,29.232,4.827,70.841-8.641       c32.916-11.343,57.881-25.855,62.827-33.172c0.596-0.855,0.6-1.862,0.206-2.678       C182.296,270.16,181.575,269.583,180.637,269.449z"/>
				</g>
			</g>
			<g>
				<path style="fill:#FFFFFF;" d="M86.146,281.2c-0.107,0-0.211-0.058-0.265-0.161c-0.076-0.145-0.02-0.327,0.127-0.401      c0.192-0.103,19.483-10.074,39.931-12.296c0.176-0.033,0.31,0.1,0.33,0.264c0.018,0.163-0.101,0.313-0.265,0.329      c-20.333,2.21-39.528,12.133-39.721,12.23C86.24,281.188,86.193,281.2,86.146,281.2z"/>
			</g>
			<g>
				<path style="fill:#FFFFFF;" d="M46.389,314.025c-0.1,0-0.197-0.051-0.254-0.142c-0.086-0.14-0.043-0.324,0.098-0.411      c37.274-22.988,83.079-37.429,136.145-42.918c0.17-0.044,0.31,0.103,0.328,0.266c0.016,0.163-0.103,0.31-0.267,0.327      c-52.974,5.482-98.695,19.892-135.893,42.834C46.498,314.011,46.443,314.025,46.389,314.025z"/>
			</g>
		</g>
		<g>
			<g>
				<polygon style="fill:#FFDFE5;" points="419.155,133.084 425.581,112.611 429.985,134.238 451.447,138.567 432.575,143.334       435.292,163.291 424.025,145.789 409.262,162.059 417.272,141.428 396.831,133.719     "/>
			</g>
			<g>
				<polygon style="fill:#FFDFE5;" points="435.912,310.605 432.209,289.47 446.061,306.653 467.111,300.631 452.542,313.54       464.128,330.015 446.077,319.65 440.445,340.885 438.075,318.881 416.378,321.431     "/>
			</g>
			<g>
				<polygon style="fill:#FFDFE5;" points="158.85,389.5 170.561,371.519 168.967,393.533 188.467,403.489 169.008,402.99       166.241,422.94 160.113,403.048 141.509,414.733 154.786,397.027 137.182,384.09     "/>
			</g>
			<g>
				<polygon style="fill:#FFDFE5;" points="62.83,156.722 61.88,135.286 73.403,154.109 95.054,150.849 78.943,161.775       88.312,179.604 71.746,167.001 63.426,187.334 63.909,165.208 42.064,164.942     "/>
			</g>
		</g>
		<g>
			<path style="fill:#FFDFE5;" d="M496.395,230.452l-200.824,1.362c-1.625-0.55-3.059,0.478-4.684-0.048     c9.152-1.673,22.821-2.127,32.69-7.217c9.845-5.114,18.806-11.805,28.843-16.536c8.411-3.967,19.667-5.998,25.975,0.812     c3.608,3.871,5.377,10.347,10.61,11.255c2.987,0.502,5.902-1.195,8.364-2.963c10.156-7.217,18.687-16.727,29.679-22.582     c10.968-5.855,26.023-7.002,34.721,1.912c4.97,5.09,7.121,12.665,12.761,16.966c5.687,4.349,12.689,4.134,19.93,2.724     C495.248,220.917,495.917,225.697,496.395,230.452z"/>
		</g>
		<g>
			<path style="fill:#FFDFE5;" d="M187.034,103.802l-119.266,0.812c7.814-9.75,16.441-18.902,25.784-27.409     c2.342-2.127,4.732-4.23,7.169-6.261c4.445,5.066,6.643,12.091,12.02,16.178c9.989,7.599,23.968,1.219,36.298-1.147     C164.093,83.084,182.494,89.153,187.034,103.802z"/>
		</g>
	</g>
</g>















</svg>
