<?xml version="1.0" encoding="UTF-8"?>
<!-- Generator: Adobe Illustrator 25.2.3, SVG Export Plug-In . SVG Version: 6.00 Build 0)  -->
<svg xmlns="http://www.w3.org/2000/svg" xmlns:xlink="http://www.w3.org/1999/xlink" version="1.1" id="Capa_1" x="0px" y="0px" viewBox="0 0 512 512" style="enable-background:new 0 0 512 512;" xml:space="preserve" width="512" height="512">
<g>
	<g>
		<path style="fill:#FFFFFF;" d="M263.303,512c-5.482,0-10.273-3.018-12.797-7.481c-47.293-1.098-94.291-16.191-133.539-42.874    c-3.575,0.565-7.178,0.848-10.771,0.848c-40.61,0-73.649-35.238-73.649-78.553c0-5.937,0.621-11.82,1.849-17.557    c-2.909-5.917-5.536-11.82-7.836-17.602c-3.059-7.772-5.707-15.552-7.888-23.172c-2.026-6.986-3.764-14.262-5.153-21.577    c-0.977-4.951-1.826-10.22-2.507-15.561c-1.131-9.198-1.762-18.372-1.884-27.325c-0.266-19.362,1.763-38.738,6.034-57.584    c8.225-36.552,24.964-71.32,48.402-100.526c7.909-9.869,16.772-19.292,26.342-28.007c2.645-2.399,5.049-4.501,7.367-6.435    c19.666-16.549,41.897-29.911,66.057-39.692C169.774,11.757,186.24,0,205.148,0c11.348,0,21.972,4.189,30.142,11.705    c6.895-0.583,13.838-0.877,20.723-0.877c20.402,0,40.768,2.551,60.529,7.583c52.433,13.292,99.69,43.869,133.076,86.115    c0.368,0.443,0.715,0.889,1.056,1.357c13.276,17.024,24.285,35.8,32.719,55.815c0.693,1.659,1.37,3.302,2.022,4.945    c4.693,11.795,8.481,23.985,11.257,36.223c1.027,4.375,1.957,9.003,2.819,14.051c0.887,5.365,1.534,10.166,1.995,14.75    c6.673,62.308-10.525,124.387-48.438,174.715c-27.168,36.082-63.827,64.005-106.01,80.747    c-22.726,9.023-46.398,14.593-70.528,16.612C274.12,508.626,269.098,512,263.303,512z"/>
	</g>
	<g>
		<g>
			<path style="fill:#7F6EEC;" d="M442.005,398.062c-24.867,33.025-58.837,59.851-100.067,76.214     c-91.424,36.298-192.113,10.67-255.675-56.878c-1.659-1.751-3.296-3.572-4.909-5.37c-0.622-0.714-1.221-1.406-1.844-2.143     c-11.886-13.721-22.267-29.032-30.834-45.77c-3.376-6.596-6.471-13.413-9.266-20.442c-2.858-7.26-5.347-14.542-7.444-21.871     c-1.959-6.752-3.572-13.551-4.863-20.35c-0.968-4.909-1.752-9.841-2.374-14.727c-1.06-8.619-1.659-17.192-1.774-25.766     c-0.253-18.414,1.682-36.644,5.692-54.343c7.79-34.615,23.415-67.157,45.701-94.927c7.536-9.403,15.856-18.23,24.867-26.434     c2.259-2.051,4.563-4.079,6.914-6.038c18.621-15.671,40.031-28.623,63.884-38.095c47.383-18.806,97.232-20.995,143.117-9.311     l95.039,81.445c0,0,72.415,81.192,75.019,92.669c1.037,4.425,1.913,8.873,2.673,13.321c0.761,4.609,1.406,9.218,1.867,13.805     C494.089,292.441,477.127,351.44,442.005,398.062z"/>
		</g>
		<g>
			<path style="fill:#FFDFE5;" d="M263.303,498.171c-0.477,0-0.864-0.387-0.864-0.864V338.043c0-0.477,0.387-0.864,0.864-0.864     c0.477,0,0.864,0.387,0.864,0.864v159.264C264.167,497.784,263.78,498.171,263.303,498.171z"/>
		</g>
		<g>
			<ellipse style="fill:#FFD461;" cx="106.196" cy="383.94" rx="59.822" ry="64.726"/>
		</g>
		<g>
			<path style="fill:#FF85CA;" d="M483.189,205.926c-19.843,13.574-43.834,21.502-69.646,21.502     c-33.094,0-63.193-13.021-85.363-34.247c-0.277-0.253-0.553-0.53-0.83-0.807c-5.278-5.116-10.071-10.693-14.358-16.663     c-0.207-0.323-0.438-0.645-0.691-0.968c-14.058-20.073-22.332-44.525-22.332-70.89c0-26.872,8.573-51.762,23.161-72.043     c49.089,12.445,93.637,40.723,125.763,81.445c0.254,0.3,0.484,0.599,0.714,0.922c12.376,15.833,22.885,33.532,31.044,52.891     c0.645,1.544,1.291,3.111,1.913,4.678C477.058,183.041,480.584,194.449,483.189,205.926z"/>
		</g>
		<g>
			<path style="fill:#FF85CA;" d="M439.608,114.179l-102.625,72.803c-2.904,2.074-5.831,4.148-8.804,6.199     c-0.277-0.253-0.553-0.53-0.83-0.807c3.019-2.097,6.015-4.217,8.965-6.338l102.579-72.78     C439.147,113.557,439.378,113.856,439.608,114.179z"/>
		</g>
		<g>
			<g>
				<g>
					<path style="fill:#3C1C87;" d="M459.012,332.895l-6.043-1.226l-0.925,1.315c-21.8-4.891-92.311-3.351-175.991-3.351       c-84.002,0-154.735-1.512-176.242,3.408l-0.724-1.028l-6.044,1.226l-0.037,3.285l0.218,0.084       c3.531,6.247,84.008,11.243,182.828,11.243c101.066,0,182.997-5.225,182.997-11.67L459.012,332.895z"/>
				</g>
				<g>
					<path style="fill:#924CA5;" d="M459.049,333.042c0,4.712-81.931,8.532-182.997,8.532c-101.066,0-182.997-3.82-182.997-8.532       c0-4.712,81.93-8.532,182.997-8.532C377.118,324.51,459.049,328.33,459.049,333.042z"/>
				</g>
				<g>
					<path style="fill:#FFDFE5;" d="M263.303,330.278c-0.477,0-0.864-0.387-0.864-0.864V109.739c0-0.477,0.387-0.864,0.864-0.864       c0.477,0,0.864,0.387,0.864,0.864v219.675C264.167,329.891,263.78,330.278,263.303,330.278z"/>
				</g>
			</g>
			<g>
				<g>
					<path style="fill:#FFDFE5;" d="M262.616,121.109c-5.728,0-16.561-0.736-16.561-3.525c0-2.788,10.833-3.524,16.561-3.524       s16.561,0.736,16.561,3.524C279.177,120.373,268.344,121.109,262.616,121.109z M262.616,115.212       c-9.851,0-15.267,1.546-15.409,2.374c0.146,0.824,5.567,2.37,15.409,2.37c9.833,0,15.252-1.544,15.409-2.372       C277.873,116.754,272.458,115.212,262.616,115.212z"/>
				</g>
				<g>
					<path style="fill:#FFDFE5;" d="M261.636,139.899c-14.468,0-29.115-2.005-29.115-5.84c0-3.835,14.647-5.84,29.115-5.84       c14.468,0,29.114,2.005,29.114,5.84C290.75,137.894,276.104,139.899,261.636,139.899z M261.636,129.371       c-17.325,0-27.963,2.73-27.963,4.688c0,1.958,10.637,4.688,27.963,4.688c17.324,0,27.962-2.73,27.962-4.688       C289.598,132.101,278.96,129.371,261.636,129.371z"/>
				</g>
			</g>
		</g>
		<g>
			<g>
				<path style="fill:#FFDFE5;" d="M438.894,113.257c0.254,0.3,0.484,0.599,0.714,0.922l-102.625,72.803      c-2.904,2.074-5.831,4.148-8.804,6.199c-10.417,7.214-21.249,14.15-33.048,19.036c-2.258,0.945-4.24,1.429-5.9,1.429      c-1.82,0-3.272-0.553-4.356-1.637c-3.48-3.503-0.415-9.149,3.273-12.929c7.974-8.181,16.017-16.294,24.152-24.337      c0.254,0.323,0.484,0.645,0.691,0.968c-8.089,7.974-16.086,16.04-24.014,24.176c-3.319,3.388-6.176,8.389-3.273,11.293      c1.729,1.752,4.747,1.752,8.988-0.023c11.638-4.84,22.355-11.661,32.657-18.783c3.019-2.097,6.015-4.217,8.965-6.338      L438.894,113.257z"/>
			</g>
		</g>
		<g>
			<path style="fill:#FFDFE5;" d="M347.445,292.319c-8.387,0-16.702-1.137-24.73-3.38c-9.684-2.71-16.808-6.547-21.776-11.726     c-5.512-5.741-9.449-15.45-5.069-23.197c1.957-3.461,5.529-6.295,10.06-7.978c3.643-1.353,7.906-2.075,13.06-1.999     c14.503,0.023,29.197,5.228,39.308,13.927c3.905,3.358,6.241,7.405,6.578,11.393c0.18,2.145-0.238,4.105-1.212,5.672     c-2.452,3.95-7.713,4.722-9.86,4.87c-8.328,0.59-17.591-1.022-25.396-4.391c-12.014-5.188-17.71-11.143-16.93-17.697     c0.266-2.226,1.241-3.934,2.902-5.084c3.721-2.573,9.7-1.474,12.096-0.885c6.544,1.614,11.707,5.082,14.165,9.516     c1.048,1.888,1.581,4.677-0.37,6.322c-1.277,1.076-3.141,1.128-4.426,1.08c-4.919-0.203-9.841-1.913-13.86-4.814     c-0.327-0.236-0.401-0.695-0.164-1.022c0.236-0.326,0.691-0.401,1.022-0.167c3.789,2.737,8.429,4.348,13.063,4.54     c1.043,0.047,2.535,0.013,3.423-0.736c1.189-1.004,0.873-2.98,0.034-4.492c-2.262-4.08-7.086-7.29-13.237-8.804     c-4.589-1.134-8.671-0.885-10.912,0.666c-1.301,0.9-2.068,2.262-2.281,4.051c-0.695,5.838,4.707,11.28,16.057,16.18     c7.596,3.279,16.605,4.837,24.714,4.278c4.005-0.277,7.264-1.841,8.719-4.184c1.017-1.638,1.103-3.502,0.996-4.778     c-0.305-3.603-2.462-7.299-6.074-10.404c-9.854-8.476-24.193-13.551-38.356-13.573c-0.03,0-0.061,0-0.091,0     c-4.928,0-9.002,0.623-12.458,1.908c-4.206,1.562-7.508,4.164-9.295,7.326c-4.012,7.094-0.297,16.099,4.851,21.464     c4.783,4.985,11.69,8.692,21.114,11.329c8.182,2.287,16.64,3.385,25.221,3.322c5.948-0.059,10.534-0.747,14.431-2.163     c4.91-1.78,8.675-4.78,10.605-8.444c1.724-3.277,2.065-7.272,0.959-11.249c-4.053-14.582-22.667-24.502-39.316-27.867     c-10.843-2.197-22.814-1.4-34.617,2.296c-4.34,1.362-9.715,3.455-12.759,7.603c-0.237,0.324-0.697,0.398-1.023,0.158     c-0.325-0.238-0.396-0.698-0.156-1.022c3.296-4.492,8.946-6.707,13.501-8.134c12.034-3.77,24.256-4.578,35.344-2.336     c17.087,3.455,36.216,13.733,40.436,28.911c1.206,4.337,0.825,8.714-1.075,12.32c-2.099,3.99-6.148,7.236-11.399,9.142     c-4.057,1.474-8.798,2.188-14.917,2.248C348.045,292.317,347.744,292.319,347.445,292.319z"/>
		</g>
		<g>
			
				<ellipse transform="matrix(0.2298 -0.9732 0.9732 0.2298 114.4921 234.1044)" style="fill:#924CA5;" cx="205.148" cy="44.719" rx="30.892" ry="30.892"/>
		</g>
		<g>
			<g>
				<g>
					<path style="fill:#3C1C87;" d="M419.938,385.495c-10.153-1.35-36.264-4.072-62.344-0.926       c-2.487-3.114-13.147-14.867-28.742-10.195c-14.676,4.4-16.485,19.05-16.677,24.182       c-21.351,11.515-37.563,27.466-44.021,34.346c-0.496,0.525-0.751,1.148-0.793,1.797c-0.137,1.378,0.718,2.797,2.209,3.202       c9.177,2.507,33.338,5.505,80.79-9.854c37.539-12.936,66.01-29.487,71.651-37.83c0.68-0.975,0.684-2.124,0.235-3.054       C421.829,386.305,421.006,385.647,419.938,385.495z"/>
				</g>
			</g>
			<g>
				<path style="fill:#FFFFFF;" d="M312.176,398.897c-0.123,0-0.241-0.065-0.302-0.182c-0.088-0.167-0.022-0.371,0.144-0.459      c0.219-0.115,22.219-11.489,45.539-14.024c0.182-0.034,0.354,0.113,0.376,0.302c0.02,0.187-0.115,0.353-0.302,0.374      c-23.189,2.521-45.08,13.839-45.298,13.952C312.283,398.886,312.229,398.897,312.176,398.897z"/>
			</g>
			<g>
				<path style="fill:#FFFFFF;" d="M266.835,436.329c-0.114,0-0.225-0.056-0.29-0.162c-0.098-0.16-0.048-0.369,0.111-0.468      c42.508-26.217,94.747-42.685,155.265-48.946c0.189-0.007,0.354,0.119,0.374,0.304c0.019,0.189-0.117,0.356-0.304,0.376      c-60.415,6.25-112.557,22.684-154.977,48.847C266.958,436.313,266.897,436.329,266.835,436.329z"/>
			</g>
		</g>
		<g>
			<g style="opacity:0.46;">
				<g>
					<path style="fill:#3C1C87;" d="M151.745,193.373c-4.815-4.193-17.456-14.588-32.098-21.92       c-0.223-2.474-1.723-12.251-11.439-15.185c-9.144-2.759-15.123,4.237-16.987,6.839c-15.061-1.355-28.976,1.364-34.7,2.721       c-0.439,0.102-0.785,0.339-1.03,0.662c-0.545,0.669-0.588,1.701,0.047,2.425c3.909,4.459,15.442,14.326,45.397,22.658       c23.968,6.183,44.463,7.368,50.265,4.969c0.689-0.273,1.086-0.869,1.173-1.507C152.45,194.445,152.248,193.82,151.745,193.373z       "/>
				</g>
			</g>
			<g>
				<path style="fill:#FFFFFF;" d="M119.647,171.664c-0.033,0-0.066-0.007-0.097-0.023c-12.928-6.666-28.199-8.307-28.351-8.323      c-0.117-0.014-0.201-0.117-0.19-0.234c0.012-0.113,0.126-0.171,0.233-0.189c0.154,0.016,15.504,1.665,28.502,8.368      c0.105,0.054,0.145,0.182,0.092,0.286C119.798,171.624,119.724,171.664,119.647,171.664z"/>
			</g>
			<g>
				<path style="fill:#FFFFFF;" d="M152.245,195.109c-0.034,0-0.066-0.007-0.098-0.023c-33.562-17.525-66.326-26.911-97.382-27.894      c-0.117-0.002-0.209-0.101-0.206-0.218c0.005-0.115,0.098-0.205,0.213-0.205c0.002,0,0.005,0,0.007,0      c31.119,0.984,63.945,10.384,97.564,27.939c0.105,0.054,0.145,0.182,0.09,0.288      C152.396,195.068,152.322,195.109,152.245,195.109z"/>
			</g>
		</g>
		<g>
			<g>
				<g>
					<g>
						<path style="fill:#FF85CA;" d="M218.151,270.909l-7.919-0.128l-0.99-0.021l-28.719-0.448l-11.001-0.182        c0,0-19.615-57.536-18.442-103.73c0.374-14.786,4.961-32.675,11.021-50.172l31.091-27.196l33.06,22.376        c5.275,17.068,9.064,36.106,9.102,55.589C235.466,231.065,218.151,270.909,218.151,270.909z"/>
					</g>
				</g>
				<g>
					<path style="fill:#FFDFE5;" d="M226.252,111.408c-21.146,3.799-42.682,5.419-64.151,4.82       c11.03-31.849,26.936-62.364,31.272-70.457c0.501-0.958,1.833-1.024,2.423-0.111C200.38,52.771,216.073,78.39,226.252,111.408z       "/>
				</g>
				<g>
					<g>
						<g>
							
								<ellipse transform="matrix(0.9649 -0.2628 0.2628 0.9649 -33.5909 56.9209)" style="fill:#FFDFE5;" cx="196.001" cy="154.039" rx="24.952" ry="24.952"/>
						</g>
					</g>
				</g>
			</g>
			<g>
				<g>
					<path style="fill:#FFDFE5;" d="M171.28,269.014l-3.294-15.48c0,0-7.246-8.234-13.175-1.317       c-5.929,6.917,3.952,72.132,6.587,72.79C164.034,325.666,171.28,269.014,171.28,269.014z"/>
				</g>
				<g>
					<path style="fill:#FFDFE5;" d="M216.407,269.014l3.294-15.48c0,0,7.246-8.234,13.175-1.317       c5.929,6.917-3.952,72.132-6.587,72.79C223.653,325.666,216.407,269.014,216.407,269.014z"/>
				</g>
				<g>
					<path style="fill:#FFDFE5;" d="M186.274,253.851c-2.274,2.949-4.27,7.823-4.124,15.822c0,0,9.222,54.346,12.845,54.017       c3.623-0.33,7.576-53.358,7.576-53.358s0.401-9.854-3.473-16.07C196.203,249.618,189.615,249.518,186.274,253.851z"/>
				</g>
			</g>
		</g>
		<g>
			<g>
				<g>
					<path style="fill:#FFDFE5;" d="M439.14,301.849c-0.376,0-0.681-0.304-0.681-0.68v-42.17c0-0.376,0.305-0.68,0.681-0.68       c0.376,0,0.681,0.304,0.681,0.68v42.17C439.821,301.545,439.516,301.849,439.14,301.849z"/>
				</g>
				<g>
					<path style="fill:#FFDFE5;" d="M460.225,280.765h-42.17c-0.376,0-0.681-0.304-0.681-0.68c0-0.376,0.305-0.68,0.681-0.68h42.17       c0.376,0,0.681,0.304,0.681,0.68C460.906,280.461,460.601,280.765,460.225,280.765z"/>
				</g>
				<g>
					<path style="fill:#FFDFE5;" d="M446.787,290.265c-0.196,0-0.389-0.083-0.524-0.245l-15.523-18.768       c-0.24-0.29-0.199-0.72,0.09-0.959c0.289-0.243,0.718-0.198,0.959,0.09l15.524,18.768c0.24,0.29,0.199,0.72-0.09,0.959       C447.094,290.215,446.94,290.265,446.787,290.265z"/>
				</g>
				<g>
					<path style="fill:#FFDFE5;" d="M429.641,288.642c-0.196,0-0.389-0.083-0.524-0.245c-0.24-0.29-0.199-0.72,0.09-0.959       l18.768-15.525c0.289-0.241,0.718-0.198,0.959,0.09c0.24,0.29,0.199,0.72-0.09,0.959l-18.768,15.525       C429.948,288.592,429.794,288.642,429.641,288.642z"/>
				</g>
			</g>
			<g>
				<g>
					<path style="fill:#FFDFE5;" d="M301.06,87.667c-0.376,0-0.681-0.304-0.681-0.68v-42.17c0-0.376,0.305-0.68,0.681-0.68       c0.376,0,0.681,0.304,0.681,0.68v42.17C301.741,87.363,301.436,87.667,301.06,87.667z"/>
				</g>
				<g>
					<path style="fill:#FFDFE5;" d="M322.145,66.581h-42.17c-0.376,0-0.681-0.304-0.681-0.68c0-0.376,0.305-0.68,0.681-0.68h42.17       c0.376,0,0.681,0.304,0.681,0.68C322.826,66.277,322.521,66.581,322.145,66.581z"/>
				</g>
				<g>
					<path style="fill:#FFDFE5;" d="M308.705,76.081c-0.196,0-0.389-0.083-0.524-0.245l-15.524-18.768       c-0.24-0.29-0.199-0.72,0.09-0.959c0.289-0.241,0.719-0.198,0.959,0.09l15.524,18.768c0.24,0.29,0.199,0.72-0.09,0.959       C309.012,76.031,308.858,76.081,308.705,76.081z"/>
				</g>
				<g>
					<path style="fill:#FFDFE5;" d="M291.56,74.458c-0.196,0-0.389-0.083-0.524-0.245c-0.24-0.29-0.199-0.72,0.091-0.959       l18.768-15.523c0.288-0.241,0.717-0.198,0.958,0.09c0.24,0.29,0.199,0.72-0.091,0.959l-18.768,15.522       C291.867,74.409,291.713,74.458,291.56,74.458z"/>
				</g>
			</g>
			<g>
				<g>
					<path style="fill:#FFDFE5;" d="M206.914,439.93c-0.376,0-0.681-0.304-0.681-0.68v-42.17c0-0.376,0.305-0.68,0.681-0.68       c0.376,0,0.681,0.304,0.681,0.68v42.17C207.594,439.626,207.289,439.93,206.914,439.93z"/>
				</g>
				<g>
					<path style="fill:#FFDFE5;" d="M227.998,418.846h-42.17c-0.376,0-0.681-0.304-0.681-0.68c0-0.376,0.305-0.68,0.681-0.68h42.17       c0.376,0,0.681,0.304,0.681,0.68C228.679,418.543,228.374,418.846,227.998,418.846z"/>
				</g>
				<g>
					<path style="fill:#FFDFE5;" d="M214.559,428.346c-0.196,0-0.389-0.083-0.524-0.245l-15.524-18.768       c-0.24-0.29-0.199-0.72,0.09-0.959c0.29-0.241,0.719-0.198,0.959,0.09l15.524,18.768c0.24,0.29,0.199,0.72-0.09,0.959       C214.866,428.297,214.712,428.346,214.559,428.346z"/>
				</g>
				<g>
					<path style="fill:#FFDFE5;" d="M197.414,426.724c-0.196,0-0.389-0.083-0.524-0.245c-0.24-0.29-0.199-0.72,0.09-0.959       l18.768-15.525c0.289-0.241,0.718-0.198,0.959,0.09c0.24,0.29,0.199,0.72-0.09,0.959l-18.768,15.525       C197.721,426.674,197.567,426.724,197.414,426.724z"/>
				</g>
			</g>
			<g>
				<g>
					<path style="fill:#FFDFE5;" d="M79.032,286.157c-0.376,0-0.681-0.304-0.681-0.68v-42.17c0-0.376,0.305-0.68,0.681-0.68       s0.681,0.304,0.681,0.68v42.17C79.713,285.853,79.408,286.157,79.032,286.157z"/>
				</g>
				<g>
					<path style="fill:#FFDFE5;" d="M100.115,265.074h-42.17c-0.376,0-0.681-0.304-0.681-0.68c0-0.376,0.305-0.68,0.681-0.68h42.17       c0.376,0,0.681,0.304,0.681,0.68C100.796,264.77,100.491,265.074,100.115,265.074z"/>
				</g>
				<g>
					<path style="fill:#FFDFE5;" d="M86.677,274.573c-0.196,0-0.389-0.083-0.524-0.245L70.629,255.56       c-0.24-0.29-0.199-0.72,0.09-0.959c0.289-0.241,0.718-0.198,0.959,0.09l15.524,18.768c0.24,0.29,0.199,0.72-0.09,0.959       C86.984,274.524,86.83,274.573,86.677,274.573z"/>
				</g>
				<g>
					<path style="fill:#FFDFE5;" d="M69.531,272.951c-0.196,0-0.389-0.083-0.524-0.245c-0.24-0.29-0.199-0.72,0.09-0.959       l18.769-15.525c0.289-0.241,0.718-0.198,0.959,0.09c0.24,0.29,0.199,0.72-0.09,0.959l-18.769,15.525       C69.838,272.901,69.684,272.951,69.531,272.951z"/>
				</g>
			</g>
		</g>
	</g>
</g>















</svg>
