<?xml version="1.0" encoding="UTF-8"?>
<!-- Generator: Adobe Illustrator 25.2.3, SVG Export Plug-In . SVG Version: 6.00 Build 0)  -->
<svg xmlns="http://www.w3.org/2000/svg" xmlns:xlink="http://www.w3.org/1999/xlink" version="1.1" id="Capa_1" x="0px" y="0px" viewBox="0 0 512 512" style="enable-background:new 0 0 512 512;" xml:space="preserve" width="512" height="512">
<g>
	<g>
		<path style="fill:#FFFFFF;" d="M253.151,511.983c-45.253-0.502-89.799-13.122-128.807-36.497    c-0.464-0.273-1.001-0.602-1.536-0.933c-12.916-7.86-25.128-16.863-36.366-26.811c-0.532-0.446-1.041-0.896-1.55-1.37    c-5.159-4.606-10.317-9.635-15.327-14.956c-1.781-1.881-3.566-3.865-5.325-5.825c-0.051-0.058-0.219-0.25-0.271-0.31    c-0.649-0.744-1.277-1.47-1.925-2.238c-0.523-0.607-1.113-1.293-1.699-2.012c-0.425-0.476-0.835-0.966-1.242-1.463    c-6.683-8.002-13.04-16.688-18.804-25.695l-0.376-0.595c-0.245-0.385-0.493-0.775-0.731-1.171    c-8.207-13.084-15.304-27.102-21.095-41.668c-3.176-8.074-5.923-16.142-8.179-24.031c-1.244-4.238-2.38-8.648-3.36-13.031    c-0.201-0.747-0.362-1.465-0.488-2.172c-0.544-2.362-1.027-4.744-1.484-7.108c-1.022-5.176-1.902-10.637-2.611-16.186    c-0.261-2.093-0.478-4.158-0.693-6.203l-0.035-0.334c-0.068-0.688-0.121-1.288-0.159-1.89c-0.607-6.513-0.964-13.201-1.064-19.887    c-0.049-4.196-0.002-8.373,0.142-12.466c0.007-0.686,0.04-1.37,0.096-2.056c0.537-13.154,2.161-26.488,4.824-39.631    c0.121-0.602,0.229-1.127,0.343-1.622c0.257-1.321,0.551-2.637,0.85-3.956c8.527-37.9,25.884-73.951,50.186-104.234    c8.207-10.24,17.399-20.01,27.315-29.037c2.777-2.52,5.269-4.697,7.643-6.674c20.827-17.527,44.438-31.611,70.124-41.811    c9.995-3.967,20.251-7.316,30.488-9.951C212.857,2.749,234.326,0,255.812,0c7.479,0,15.052,0.337,22.507,1.002    c13.507,1.171,27.128,3.49,40.455,6.885c50.165,12.711,94.744,39.839,128.9,78.448c3.23,3.645,6.296,7.307,9.106,10.875    c0.369,0.446,0.716,0.894,1.059,1.363c8.763,11.25,16.627,23.296,23.378,35.811c1.958,3.689,3.615,6.935,5.106,10.008    c1.944,4.042,3.769,8.084,5.447,12.06c0.724,1.727,1.428,3.435,2.105,5.148c1.519,3.806,3.008,7.841,4.417,11.964    c2.856,8.387,5.293,16.984,7.248,25.567c1.069,4.548,2.03,9.346,2.926,14.578c0.917,5.549,1.589,10.527,2.068,15.297    c6.919,64.61-10.914,128.977-50.223,181.156c-28.171,37.414-66.18,66.367-109.919,83.724C320.139,505.905,288.421,512,256.127,512    C256.124,512,254.138,511.995,253.151,511.983z"/>
	</g>
	<g>
		<g>
			<path style="fill:#924CA5;" d="M441.507,396.011c-25.784,34.243-57.922,59.285-100.671,76.251     c-30.133,11.972-56.977,25.742-87.516,25.383c-43.156-0.478-85.117-12.593-121.606-34.458c-0.526-0.311-1.028-0.621-1.529-0.932     c-12.139-7.384-23.657-15.867-34.386-25.378c-0.43-0.358-0.836-0.717-1.243-1.099c-5.042-4.492-9.893-9.248-14.553-14.194     c-1.721-1.816-3.417-3.704-5.09-5.568c-0.645-0.741-1.267-1.457-1.912-2.222c-0.597-0.693-1.195-1.386-1.768-2.103     c-0.358-0.382-0.693-0.788-1.028-1.195c-6.404-7.671-12.354-15.795-17.826-24.35c-0.311-0.502-0.645-1.003-0.956-1.529     c-7.718-12.283-14.433-25.473-20.001-39.476c-2.963-7.527-5.544-15.078-7.718-22.677c-1.219-4.158-2.294-8.34-3.226-12.545     c-0.143-0.502-0.263-1.004-0.334-1.505c-0.55-2.342-1.028-4.708-1.482-7.049c-1.004-5.09-1.816-10.204-2.461-15.27     c-0.263-2.079-0.478-4.158-0.693-6.213c-0.048-0.502-0.096-0.98-0.12-1.482c-0.597-6.357-0.932-12.689-1.028-19.021     c-0.048-3.991,0-7.981,0.143-11.948c0-0.478,0.024-0.956,0.072-1.434c0.502-12.736,2.055-25.33,4.564-37.708     c0.096-0.478,0.191-0.98,0.311-1.458c0.239-1.266,0.526-2.533,0.812-3.799c8.077-35.892,24.278-69.633,47.385-98.427     c7.814-9.749,16.44-18.902,25.784-27.409c2.342-2.127,4.731-4.229,7.169-6.261c19.308-16.249,41.507-29.679,66.239-39.5     c9.511-3.776,19.117-6.906,28.771-9.391c27.122-7.049,54.626-9.152,81.437-6.763c12.928,1.123,25.712,3.322,38.186,6.5     c46.597,11.805,89.275,37.397,121.702,74.053l1.53,18.194c0,0,5.18,11.824,5.418,12.158     c8.244,10.562,14.537,18.767,14.537,18.767l15.003,5.699c1.792,3.728,3.513,7.527,5.138,11.374     c0.669,1.601,1.338,3.226,1.983,4.851c1.505,3.776,2.891,7.551,4.182,11.327c2.724,8.005-1.669,53.571-1.191,58.327     C490.132,298.111,477.924,347.67,441.507,396.011z"/>
		</g>
		<g>
			<g>
				<g>
					<g>
						<path style="fill:#FFDFE5;" d="M389.406,243.68c-21.458-75.846-153.268-105.214-293.872-65.451        c-27.17,7.671-52.714,17.396-76.085,28.603c-0.12,0.478-0.215,0.98-0.311,1.458c23.514-11.327,49.273-21.148,76.706-28.914        c42.511-12.02,84.185-17.731,122.228-17.731c87.244,0,155.371,29.989,170.187,82.369c10.275,36.37-6.404,78.02-46.955,117.329        c-40.671,39.404-100.435,71.664-168.299,90.852c-14.314,4.038-28.627,7.408-42.821,10.06c0.502,0.311,1.004,0.621,1.529,0.932        c13.788-2.628,27.695-5.926,41.603-9.845c68.055-19.236,128.01-51.615,168.801-91.139        C383.026,322.584,399.825,280.48,389.406,243.68z"/>
					</g>
				</g>
				<g>
					<g>
						<path style="fill:#FFDFE5;" d="M335.019,259.069c-16.894-59.716-120.603-82.847-231.217-51.567        c-33.43,9.463-63.706,22.821-89.227,38.496c-0.048,0.478-0.072,0.956-0.072,1.434c25.569-15.819,56.012-29.272,89.633-38.783        c33.407-9.439,66.168-13.907,96.062-13.907c68.533,0,122.036,23.513,133.674,64.638c8.077,28.556-5.042,61.269-36.895,92.143        c-31.949,30.945-78.928,56.299-132.264,71.377c-23.681,6.715-47.362,11.016-70.158,12.88c0.406,0.382,0.812,0.741,1.243,1.099        c22.534-1.912,45.88-6.213,69.25-12.832c53.527-15.126,100.674-40.575,132.766-71.664        C330.001,321.198,343.216,288.055,335.019,259.069z"/>
					</g>
				</g>
				<g>
					<g>
						<path style="fill:#FFDFE5;" d="M292.246,271.16c-13.286-47.003-94.891-65.236-181.919-40.623        c-37.086,10.49-70.302,27.265-94.938,47.864c0.024,0.502,0.072,0.98,0.12,1.482c24.589-20.742,57.9-37.66,95.13-48.198        c26.262-7.432,52.021-10.944,75.511-10.944c26.931,0,50.874,4.612,69.25,13.262c18.352,8.65,31.136,21.315,35.701,37.469        c13.119,46.382-46.501,103.971-132.885,128.416c-30.993,8.77-61.293,12.092-88.009,10.61c0.335,0.406,0.669,0.812,1.028,1.195        c3.799,0.215,7.671,0.311,11.613,0.311c23.561,0,49.393-3.537,75.678-10.968C245.553,376.422,305.556,318.163,292.246,271.16z        "/>
					</g>
				</g>
				<g>
					<g>
						<path style="fill:#FFDFE5;" d="M258.624,280.647c-5.09-17.994-22.821-31.232-49.966-37.254        c-27.002-5.974-60.098-4.134-93.218,5.233c-43.419,12.283-78.259,35.223-95.297,59.788c0.072,0.502,0.191,1.004,0.334,1.505        c16.632-24.637,51.615-47.792,95.297-60.146c20.264-5.711,40.504-8.626,59.357-8.626c11.757,0,22.964,1.123,33.287,3.417        c26.668,5.926,44.112,18.854,49.058,36.418c10.299,36.393-36.537,81.604-104.377,100.793        c-32.953,9.319-65.833,11.159-92.644,5.209c-3.13-0.693-6.165-1.482-9.033-2.366c0.311,0.526,0.645,1.027,0.956,1.529        c2.509,0.741,5.114,1.41,7.814,2.008c10.395,2.318,21.674,3.465,33.55,3.465c18.925,0,39.309-2.939,59.668-8.698        c62.082-17.54,106.671-56.896,106.671-91.689C260.082,287.648,259.604,284.112,258.624,280.647z"/>
					</g>
				</g>
			</g>
			<g>
				<g>
					<g>
						
							<ellipse transform="matrix(0.7071 -0.7071 0.7071 0.7071 -187.2536 179.4917)" style="fill:#FF85CA;" cx="123.039" cy="315.781" rx="47.995" ry="47.995"/>
					</g>
				</g>
				<g>
					<g>
						<g>
							<path style="fill:#FFDFE5;" d="M157.186,260.598c-2.868-1.936-9.152,2.509-16.823,10.443         c-7.001,7.216-15.126,17.348-22.844,28.125c-0.263,0.358-0.526,0.717-0.789,1.075c-1.649,2.342-3.298,4.731-4.899,7.097         c-2.175,3.202-4.254,6.404-6.261,9.558c-0.215,0.358-0.454,0.741-0.669,1.099c-6.476,10.299-11.9,20.12-15.652,28.388         c-0.382,0.812-0.717,1.625-1.051,2.39c-4.445,10.275-5.377,16.345-2.82,18.089c0.454,0.311,1.004,0.454,1.625,0.454         c2.987,0,7.79-3.489,13.501-9.152c7.36-7.288,16.201-18.185,24.565-29.87c0.263-0.358,0.502-0.693,0.765-1.051         c1.673-2.366,3.321-4.731,4.923-7.121c2.174-3.202,4.253-6.404,6.261-9.558c0.215-0.382,0.454-0.741,0.693-1.099         c6.452-10.299,11.852-20.097,15.604-28.388c0.287-0.621,0.55-1.219,0.812-1.816         C158.763,268.627,159.815,262.366,157.186,260.598z M153.076,278.377c-0.287,0.693-0.597,1.41-0.932,2.151         c-3.752,8.268-9.152,18.041-15.604,28.317c-0.215,0.382-0.454,0.741-0.693,1.099c-1.959,3.13-4.015,6.285-6.165,9.463         c-1.697,2.509-3.369,4.922-5.042,7.264c-0.239,0.359-0.502,0.717-0.741,1.075c-9.272,12.928-17.898,23.131-24.637,29.726         c-6.595,6.5-11.374,9.535-13.143,8.316c-1.458-0.956-1.314-5.711,3.059-15.986c0.382-0.908,0.812-1.864,1.266-2.867         c3.728-8.244,9.128-18.065,15.556-28.341c0.239-0.358,0.478-0.717,0.693-1.075c1.983-3.13,4.039-6.285,6.189-9.463         c1.697-2.509,3.369-4.922,5.018-7.264c0.263-0.359,0.526-0.717,0.789-1.075c8.555-11.948,16.56-21.554,23.036-28.149         c6.428-6.548,11.327-10.156,13.788-10.156c0.382,0,0.693,0.096,0.956,0.263C157.927,262.653,157.736,267.6,153.076,278.377z"/>
						</g>
					</g>
					<g>
						<g>
							<path style="fill:#FFDFE5;" d="M169.015,329.633c-1.171-0.956-2.461-1.935-3.847-2.963         c-7.312-5.4-16.823-11.35-27.456-17.205c-0.382-0.191-0.788-0.406-1.171-0.621c-3.274-1.792-6.643-3.56-10.084-5.305         c-2.605-1.314-5.209-2.581-7.766-3.823c-0.406-0.191-0.789-0.358-1.171-0.55c-11.805-5.568-22.988-10.084-32.236-12.999         c-0.143-0.048-0.263-0.072-0.406-0.12c-12.306-3.799-19.308-4.23-20.813-1.267c-1.506,2.963,2.987,8.34,13.358,16.01         c4.899,3.608,10.777,7.479,17.348,11.398c3.226,1.936,6.619,3.871,10.132,5.807c0.358,0.191,0.717,0.406,1.099,0.597         c3.274,1.792,6.667,3.56,10.132,5.329c2.605,1.314,5.209,2.605,7.766,3.823c0.406,0.191,0.789,0.382,1.171,0.55         c11.948,5.663,23.299,10.227,32.642,13.119c1.768,0.55,3.417,1.027,4.97,1.434c4.516,1.195,8.101,1.792,10.705,1.792         c2.748,0,4.469-0.645,5.114-1.959C179.816,340.124,176.614,335.727,169.015,329.633z M177.354,342.107         c-0.741,1.434-4.803,1.936-13.931-0.406c-1.601-0.406-3.393-0.932-5.329-1.529c-9.224-2.868-20.455-7.36-32.259-12.928         c-0.406-0.191-0.789-0.382-1.195-0.574c-2.629-1.243-5.281-2.557-7.933-3.895c-3.417-1.745-6.763-3.489-10.012-5.257         c-0.382-0.215-0.741-0.406-1.123-0.621c-10.61-5.831-20.096-11.757-27.385-17.157c-0.119-0.072-0.215-0.167-0.311-0.239         c-10.61-7.886-13.501-12.474-12.641-14.146c0.836-1.673,6.332-2.055,19.188,1.912c0.024,0,0.048,0.024,0.072,0.024         c9.224,2.868,20.431,7.36,32.235,12.952c0.382,0.167,0.765,0.358,1.171,0.55c2.629,1.243,5.281,2.533,7.957,3.895         c3.417,1.72,6.762,3.489,9.988,5.257c0.406,0.215,0.789,0.43,1.171,0.621c10.634,5.854,20.096,11.781,27.385,17.157         c1.553,1.147,2.939,2.222,4.182,3.25C176.016,337.017,178.095,340.649,177.354,342.107z"/>
						</g>
					</g>
				</g>
			</g>
		</g>
		<g>
			<g>
				<g style="opacity:0.32;">
					<path style="fill:#FFDFE5;" d="M277.048,15.283l-101.151,96.85l-23.681,22.653l12.235-31.782l31.16-80.959       C222.733,14.996,250.237,12.893,277.048,15.283z"/>
				</g>
				<g>
					
						<ellipse transform="matrix(0.9951 -0.0985 0.0985 0.9951 -11.4129 16.1122)" style="fill:#FFD461;" cx="157.408" cy="123.597" rx="21.761" ry="21.76"/>
				</g>
			</g>
			<g>
				<g>
					<circle style="fill:#7F6EEC;" cx="85.212" cy="176.066" r="20.133"/>
				</g>
				<g>
					
						<ellipse transform="matrix(0.9871 -0.1602 0.1602 0.9871 -39.792 56.5862)" style="fill:#3C1C87;" cx="331.086" cy="275.107" rx="20.134" ry="20.133"/>
				</g>
				<g>
					<path style="fill:#FFD461;" d="M209.064,437.193c0,11.119-9.014,20.133-20.134,20.133c-11.119,0-20.134-9.014-20.134-20.133       c0-11.12,9.014-20.134,20.134-20.134C200.05,417.059,209.064,426.073,209.064,437.193z"/>
				</g>
			</g>
		</g>
		<g>
			<path style="fill:#FFBCC9;" d="M448.859,401.536c-25.784,34.243-61.006,62.058-103.756,79.024     c-30.133,11.972-61.245,17.444-91.784,17.086c4.54-14.218,13.286-27.098,24.971-36.393     c16.154-12.808,37.708-18.567,58.091-15.508c-1.338-28.484,7.36-57.995,26.787-78.857c19.427-20.861,50.181-31.71,77.686-24.254     c-12.904-23.203-21.243-49.441-20.527-76.013c0.717-26.548,11.159-53.336,30.993-71.019c9.439-8.411,21.1-14.433,33.406-17.396     c2.724,8.005,4.994,16.034,6.834,24.111c1.075,4.588,1.983,9.2,2.772,13.812c0.789,4.779,1.458,9.558,1.936,14.314     C502.864,292.021,485.277,353.195,448.859,401.536z"/>
		</g>
		<g>
			<g>
				<g>
					<path style="fill:#3C1C87;" d="M467.833,148.529c-24.541,10.586-50.809,21.531-90.261,35.128       c-109.539,37.779-185.457,43.744-191.55,29.096c-0.884-2.127-4.295-3.508-1.26-6.973       c17.826-20.527,92.859-59.812,92.859-59.812s1.673-49.202,52.977-67.028c1.983-0.693,4.038-1.338,6.189-1.936       c57.35-15.843,82.966,21.984,82.966,21.984s6.739-1.338,17.181-3.154c2.987,3.369,5.902,6.834,8.698,10.395       c0.263,0.311,0.502,0.621,0.741,0.956c8.244,10.562,15.7,21.912,22.223,34.004C470.246,144.297,466.28,145.327,467.833,148.529       z"/>
				</g>
				<g>
					<path style="fill:#7F6EEC;" d="M473.424,150.653c-24.541,10.586-55.892,22.582-95.345,36.178       c-109.539,37.779-190.761,42.105-196.854,27.456c-0.884-2.127,0.502-5.042,3.537-8.507c1.458,2.103,3.513,3.871,5.783,4.994       c4.827,2.413,10.442,2.557,15.843,2.437c23.681-0.478,47.099-4.97,70.254-9.965c65.857-14.17,131.547-32.809,191.956-62.058       C470.246,144.297,471.871,147.451,473.424,150.653z"/>
				</g>
				<g>
					<path style="fill:#7F6EEC;" d="M277.61,146.575c-0.223,0-0.436-0.126-0.539-0.341c-0.142-0.296-0.016-0.653,0.281-0.796       c0.721-0.343,72.835-34.542,142.284-47.029c0.327-0.07,0.635,0.159,0.694,0.483c0.058,0.324-0.158,0.635-0.482,0.693       c-69.295,12.459-141.262,46.588-141.981,46.931C277.784,146.556,277.696,146.575,277.61,146.575z"/>
				</g>
			</g>
			<g>
				<path style="fill:#FFDFE5;" d="M364.151,82.092c-0.15,2.178,0.991,4.297,2.601,5.771c1.61,1.475,3.646,2.394,5.692,3.156      c4.656,1.733,9.604,2.78,14.571,2.698c1.222-0.02,2.482-0.119,3.57-0.674c2.552-1.301,3.316-4.839,2.244-7.495      c-1.071-2.656-3.505-4.524-6.045-5.849C382.088,77.251,364.791,72.81,364.151,82.092z"/>
			</g>
			<g>
				<g>
					<path style="fill:#7F6EEC;" d="M243.592,181.942c-0.659,1.551-1.22,3.373-0.436,4.866c0.756,1.439,2.587,2.051,4.196,1.817       c1.609-0.234,3.033-1.145,4.335-2.118c3.199-2.392,14.132-13.98,6.582-16.883C251.56,167.044,245.597,177.224,243.592,181.942z       "/>
				</g>
				<g>
					<path style="fill:#7F6EEC;" d="M301.967,170.697c0.113,1.682,0.437,3.561,1.81,4.537c1.325,0.942,3.235,0.66,4.564-0.276       c1.329-0.936,2.188-2.392,2.909-3.849c1.772-3.58,6.286-18.859-1.761-18.035C302.339,153.807,301.623,165.583,301.967,170.697z       "/>
				</g>
				<g>
					<path style="fill:#7F6EEC;" d="M367.178,157.015c0.971,1.378,2.224,2.814,3.905,2.935c1.621,0.116,3.107-1.119,3.755-2.609       c0.649-1.49,0.625-3.181,0.483-4.8c-0.348-3.979-4.437-19.377-10.883-14.49C358.713,142.394,364.224,152.825,367.178,157.015z"/>
				</g>
				<g>
					<path style="fill:#7F6EEC;" d="M423.167,136.919c1.593,0.55,3.45,0.984,4.884,0.099c1.384-0.854,1.867-2.723,1.523-4.312       c-0.345-1.589-1.352-2.946-2.413-4.178c-2.608-3.026-14.925-13.13-17.298-5.397       C407.753,130.002,418.321,135.245,423.167,136.919z"/>
				</g>
			</g>
			<g>
				<g>
					<path style="fill:#FFDFE5;" d="M331.594,82.808c-0.256,0-0.491-0.166-0.571-0.42l-11.592-37.519       c-0.098-0.317,0.079-0.651,0.394-0.749c0.319-0.084,0.65,0.082,0.747,0.394l11.592,37.519c0.098,0.317-0.079,0.651-0.394,0.749       C331.712,82.798,331.652,82.808,331.594,82.808z"/>
				</g>
				<g>
					<path style="fill:#FFDFE5;" d="M314.965,55.168c-1.782,0-3.072-0.394-3.365-1.33c-0.624-1.993,3.884-4.551,8.66-6.046       c4.777-1.493,9.938-1.965,10.561,0.03l0,0c0.624,1.998-3.884,4.553-8.659,6.046C319.626,54.662,316.981,55.168,314.965,55.168z        M327.478,47.423c-1.671,0-4.087,0.355-6.942,1.246c-5.33,1.671-8.331,4.014-8.056,4.894c0.275,0.877,4.074,1.09,9.407-0.572       c5.329-1.668,8.33-4.011,8.054-4.894C329.812,47.689,328.924,47.423,327.478,47.423z"/>
				</g>
				<g>
					<path style="fill:#FFDFE5;" d="M317.971,61.628c-1.929,0-3.089-0.455-3.36-1.326c-0.288-0.922,0.506-2.028,2.299-3.202       c1.614-1.055,3.873-2.065,6.361-2.842c4.777-1.493,9.939-1.963,10.562,0.03c0.288,0.922-0.506,2.028-2.299,3.202       c-1.614,1.055-3.873,2.065-6.361,2.842c-2.489,0.782-4.92,1.239-6.848,1.291C318.204,61.625,318.085,61.628,317.971,61.628z        M330.489,53.89c-1.671,0-4.087,0.355-6.944,1.246c-2.411,0.756-4.588,1.727-6.133,2.737c-1.591,1.041-2.03,1.811-1.923,2.154       c0.106,0.343,0.92,0.733,2.809,0.674c1.846-0.049,4.189-0.492,6.598-1.246c2.411-0.756,4.588-1.727,6.133-2.737       c1.592-1.041,2.03-1.811,1.923-2.154C332.824,54.156,331.937,53.89,330.489,53.89z"/>
				</g>
			</g>
		</g>
		<g>
			<g>
				<polygon style="fill:#FFDFE5;" points="423.364,198.706 429.79,178.233 434.194,199.86 455.656,204.188 436.784,208.956       439.501,228.913 428.234,211.411 413.472,227.681 421.481,207.05 401.04,199.341     "/>
			</g>
			<g>
				<polygon style="fill:#FFDFE5;" points="375.671,394.194 371.967,373.058 385.819,390.241 406.869,384.22 392.3,397.129       403.886,413.603 385.836,403.238 380.203,424.473 377.833,402.47 356.137,405.019     "/>
			</g>
			<g>
				<polygon style="fill:#FFDFE5;" points="232.322,315.533 230.843,294.126 242.828,312.66 264.39,308.866 248.555,320.185       258.36,337.778 241.489,325.588 233.673,346.12 233.61,323.989 211.766,324.263     "/>
			</g>
			<g>
				<polygon style="fill:#FFDFE5;" points="230.044,65.119 229.093,43.683 240.617,62.507 262.267,59.247 246.157,70.172       255.525,88.001 238.959,75.398 230.639,95.731 231.123,73.605 209.278,73.34     "/>
			</g>
		</g>
	</g>
</g>















</svg>
