<?xml version="1.0" encoding="UTF-8"?>
<!-- Generator: Adobe Illustrator 25.2.3, SVG Export Plug-In . SVG Version: 6.00 Build 0)  -->
<svg xmlns="http://www.w3.org/2000/svg" xmlns:xlink="http://www.w3.org/1999/xlink" version="1.1" id="Capa_1" x="0px" y="0px" viewBox="0 0 511.999 511.999" style="enable-background:new 0 0 511.999 511.999;" xml:space="preserve" width="512" height="512">
<g>
	<g>
		<path style="fill:#FFFFFF;" d="M31.45,460.828c-8.22,0-15.033-6.37-15.585-14.57c-1.457-21.6-2.275-65.714-2.275-71.655    c0-6.055,0.089-11.689,0.27-17.226c0.58-25.597,2.652-50.396,6.155-73.548c1.208-7.944,2.608-15.834,4.18-23.569    C9.046,247.557,0,228.626,0,208.561c0-37.202,30.265-67.468,67.465-67.468c1.826,0,3.664,0.08,5.514,0.24    c5.621-7.547,11.576-14.442,17.776-20.577c44.683-44.223,104.272-69.586,163.484-69.586c41.655,0,81.133,12.581,114.164,36.385    c9.511,6.81,18.705,14.782,27.28,23.665c10.335,10.712,19.3,23.32,27.412,38.549c9.646,18.093,16.556,37.204,21.501,51.833    c2.321,6.892,4.543,13.278,6.732,19.359c3.392,2.811,5.542,7.011,5.654,11.653c0.025,1.017-0.048,2.019-0.214,2.992    c3.953,10.307,7.871,19.77,11.904,28.743c6.414,14.266,13.106,27.422,20.461,40.221l0.895,1.585    c23.059,40.072,24.907,88.198,19.317,133.092c-0.295,2.61-0.608,5.259-0.946,7.918c-0.987,7.808-7.627,13.66-15.496,13.66H31.45z"/>
	</g>
	<g>
		<g>
			<path style="fill:#7F6EEC;" d="M467.696,421.036l-417.274,9.869c-1.458-21.66-21.189-67.444-21.007-73.015     c0.547-24.004,2.395-47.981,5.988-71.724c8.331-54.75,26.711-115.149,66.283-154.305     c70.475-69.746,178.881-88.308,257.531-31.632l22.025,37.692l28.013,19.193c8.383,15.725,14.814,32.699,20.489,49.491     c7.628,22.624,15.386,43.581,24.628,64.148C460.62,284.655,471.783,388.753,467.696,421.036z"/>
		</g>
		<g>
			<path style="fill:#FFD461;" d="M492.85,445.208H31.393c-1.458-21.66-2.239-65.528-2.239-70.605c0-5.572,0.078-11.143,0.26-16.714     c6.509,0.26,12.965,1.25,19.239,2.89c25.67,6.743,47.799,23.691,64.539,44.284c28.455-15.022,65.033-13.147,91.823,4.686     c10.987-22.572,32.907-42.644,57.301-48.71c24.368-6.066,51.34-0.781,71.62,14.006c11.065-19.292,28.898-33.845,47.955-45.273     c16.74-10.049,35.016-18.12,54.385-20.333c13.538-1.536,27.206,0.104,40.067,4.348     C499.619,355.338,498.656,399.284,492.85,445.208z"/>
		</g>
		<g>
			<g>
				<g>
					<path style="fill:#FFBCC9;" d="M263.013,112.913c-0.65-4.021-0.784-9.84,2.265-14.712c1.585-2.534,3.922-4.412,6.479-5.404       c1.14-4.24,3.735-8.222,6.748-11.139c4.952-4.792,10.923-7.337,16.405-6.98c6.654,0.438,12.341,5.625,12.676,11.566       l-1.301,0.072c-0.334-5.943-6.21-9.992-11.461-10.336c-5.108-0.378-10.726,2.076-15.415,6.613       c-2.671,2.586-4.997,6.043-6.168,9.738c1.785-0.434,3.621-0.443,5.345,0.054c2.633,0.76,4.911,2.959,5.949,5.739       c0.912,2.443,0.713,4.957-0.545,6.897c-1.191,1.837-3.159,2.984-5.136,2.995c-0.012,0-0.025,0-0.037,0       c-3.268,0-5.611-2.852-6.625-5.303c-1.115-2.689-1.286-5.531-0.793-8.309c-1.985,0.957-3.778,2.505-5.017,4.488       c-2.836,4.532-2.699,10.015-2.084,13.818L263.013,112.913z M272.836,93.823c-0.634,2.8-0.56,5.688,0.56,8.392       c0.929,2.242,2.965,4.499,5.425,4.499c0.009,0,0.017,0,0.026,0c1.544-0.009,3.098-0.93,4.052-2.402       c1.033-1.589,1.185-3.681,0.418-5.733c-0.896-2.403-2.846-4.296-5.09-4.944C276.515,93.141,274.635,93.237,272.836,93.823z"/>
				</g>
				<g>
					<circle style="fill:#FFBCC9;" cx="307.535" cy="86.422" r="5.484"/>
				</g>
			</g>
			<g>
				<g>
					<path style="fill:#FF85CA;" d="M362.995,235.141c0,0-0.417,21.062-2.525,47.694c-1.067,13.538-2.551,28.508-4.634,42.879       c-0.052,0.234-0.078,0.469-0.104,0.703c-0.495,3.333-1.015,6.613-1.562,9.867c-0.052,0.234-0.078,0.469-0.13,0.729       c-0.651,3.801-1.38,7.524-2.135,11.143c-0.234,1.093-0.547,2.161-0.911,3.202c-0.078,0.234-0.182,0.495-0.286,0.729       c-1.406,3.567-3.645,6.847-6.586,9.841c-0.208,0.208-0.443,0.442-0.651,0.651c-1.224,1.145-2.525,2.265-3.931,3.332       c-0.417,0.312-0.859,0.651-1.302,0.937c-3.306,2.369-7.133,4.504-11.377,6.431c-0.208,0.104-0.443,0.182-0.651,0.286       c-6.821,3.02-14.657,5.493-23.171,7.42c-0.208,0.052-0.442,0.104-0.651,0.156c-6.717,1.51-13.824,2.682-21.192,3.541       c-0.208,0.052-0.417,0.078-0.651,0.078c-5.337,0.651-10.778,1.093-16.297,1.406c-0.208,0.026-0.417,0.026-0.651,0.052       c-17.157,0.911-34.886,0.339-51.209-1.588c-0.208-0.026-0.417-0.052-0.625-0.078c-21.791-2.629-41.03-7.628-53.058-14.683       c-26.685-15.647-28.117-63.445-25.149-98.461c1.926-22.546,5.649-39.806,5.649-39.806L362.995,235.141z"/>
				</g>
				<g>
					<g>
						<g>
							<path style="fill:#FFDFE5;" d="M252.531,339.175c0,4.038-3.273,7.312-7.312,7.312c-4.038,0-7.312-3.274-7.312-7.312         c0-4.038,3.273-7.312,7.312-7.312C249.257,331.864,252.531,335.137,252.531,339.175z"/>
						</g>
						<g>
							<g>
								<path style="fill:#FFDFE5;" d="M218.922,308.699c-3.853,24.81-6.04,50.116-6.535,75.265          c-0.208-0.026-0.417-0.052-0.625-0.078c0.495-25.149,2.655-50.454,6.509-75.291L218.922,308.699z"/>
							</g>
						</g>
						<g>
							<g>
								<g>
									<g>
										<path style="fill:#FFDFE5;" d="M355.836,325.049c-0.052,0.234-0.078,0.469-0.104,0.703            c-4.087,1.015-8.201,1.926-12.314,2.733c-0.208,0.026-0.443,0.078-0.651,0.104c-5.493,1.041-11.012,1.874-16.532,2.525            c-0.208,0.026-0.442,0.052-0.651,0.078c-8.513,1.015-17.026,1.614-25.409,1.978c-0.208,0.026-0.443,0.026-0.651,0.026            c-6.925,0.312-13.772,0.469-20.489,0.547h-0.651c-4.53,0.052-9.008,0.078-13.408,0.104            c-0.104,3.853-0.208,7.706-0.26,11.585c-0.026,0.208-0.026,0.417-0.026,0.651c-0.104,3.775-0.156,7.576-0.208,11.377            c-0.026,0.208-0.026,0.417,0,0.625c-0.104,4.894-0.156,9.815-0.182,14.735v0.651c-0.026,4.009-0.052,8.018-0.052,12.028            c-0.208,0.026-0.417,0.026-0.651,0.052c0-9.138,0.078-18.328,0.234-27.518c0-0.104-0.026-0.208-0.026-0.312l0.026-0.312            c0.104-7.992,0.286-15.959,0.495-23.899v-0.312h0.338c24.498-0.13,51.522-0.234,78.103-5.259            c0.104-0.026,0.208-0.026,0.312-0.052C347.349,327.079,351.592,326.142,355.836,325.049z"/>
									</g>
								</g>
							</g>
							<g>
								<g>
									<g>
										<path style="fill:#FFDFE5;" d="M281.195,384.016c-0.208,0.052-0.417,0.078-0.651,0.078l-0.442-10.778l-0.026-0.625            l-0.599-13.954l-0.026-0.625l-0.547-12.21l-0.026-0.625l-0.495-11.533v-0.208l0.651-0.026v0.234l0.495,11.507l0.026,0.625            l0.547,12.236l0.026,0.625l0.599,13.954l0.026,0.625L281.195,384.016z"/>
									</g>
								</g>
							</g>
							<g>
								<g>
									<g>
										<path style="fill:#FFDFE5;" d="M303.038,380.319c-0.208,0.052-0.442,0.104-0.651,0.156            c-0.312-2.838-0.599-5.702-0.833-8.565c-0.026-0.208-0.052-0.417-0.052-0.625c-0.39-4.296-0.729-8.591-0.989-12.913            c-0.026-0.208-0.026-0.391-0.026-0.599c-0.286-4.348-0.495-8.721-0.651-13.069c-0.026-0.209-0.026-0.417,0-0.625            c-0.156-3.619-0.26-7.264-0.312-10.882v-0.339h0.651v0.312c0.052,3.619,0.156,7.238,0.286,10.856            c0,0.208,0,0.417,0.026,0.625c0.156,4.348,0.364,8.722,0.651,13.069c0,0.182,0,0.39,0.026,0.599            c0.26,4.296,0.599,8.591,0.989,12.887c0,0.208,0.026,0.417,0.052,0.651C302.44,374.696,302.726,377.508,303.038,380.319z"/>
									</g>
								</g>
							</g>
							<g>
								<g>
									<g>
										<path style="fill:#FFDFE5;" d="M326.86,372.613c-0.208,0.104-0.443,0.182-0.651,0.287l-0.052-4.348v-0.651l-0.182-11.95            l-0.026-0.651l-0.208-13.616v-0.651l-0.156-9.841v-0.312l0.651-0.026v0.26l0.157,9.815v0.651l0.208,13.642l0.026,0.625            l0.156,11.924h0.026v0.651L326.86,372.613z"/>
									</g>
								</g>
							</g>
							<g>
								<g>
									<g>
										<path style="fill:#FFDFE5;" d="M344.12,361.262c-0.208,0.208-0.443,0.443-0.651,0.651            c-0.078-2.968-0.156-5.936-0.26-8.904c0.026-0.234,0-0.443,0-0.651c-0.104-4.556-0.208-9.112-0.286-13.668v-0.651            c-0.052-3.15-0.104-6.3-0.156-9.45v-0.651c0-0.026,0-0.026,0-0.052h0.312l0.338-0.026v0.625            c0.052,3.15,0.078,6.3,0.156,9.451v0.651c0.078,4.53,0.182,9.086,0.312,13.642c-0.026,0.208-0.026,0.443,0,0.651            C343.938,355.691,344.016,358.477,344.12,361.262z"/>
									</g>
								</g>
							</g>
							<g>
								<g>
									<g>
										<path style="fill:#FFDFE5;" d="M354.169,335.619c-0.052,0.234-0.078,0.468-0.13,0.729            c-3.463,0.807-6.977,1.536-10.466,2.239c-0.208,0.052-0.442,0.078-0.651,0.104c-5.493,1.12-10.986,2.083-16.531,2.89            c-0.209,0.052-0.417,0.104-0.651,0.104c-8.357,1.276-16.792,2.265-25.253,2.968c-0.208,0.052-0.417,0.078-0.651,0.052            c-6.743,0.599-13.486,0.989-20.281,1.171c-0.208,0.026-0.417,0.026-0.651,0.026c-3.827,0.13-7.68,0.182-11.533,0.182            h-3.202v-0.651h0.547c4.738,0.026,9.45-0.026,14.163-0.156c0.208,0,0.443,0,0.651-0.026            c6.795-0.208,13.564-0.599,20.307-1.171c0.208,0,0.417-0.026,0.625-0.052c8.461-0.703,16.896-1.692,25.279-2.994            c0.208-0.026,0.442-0.052,0.651-0.104c5.519-0.833,11.038-1.796,16.531-2.89c0.208-0.026,0.417-0.078,0.651-0.104            C347.114,337.207,350.655,336.452,354.169,335.619z"/>
									</g>
								</g>
							</g>
							<g>
								<g>
									<g>
										<path style="fill:#FFDFE5;" d="M350.993,350.693c-0.078,0.234-0.182,0.495-0.286,0.729            c-2.265,0.52-4.53,0.989-6.821,1.458c-0.208,0.052-0.442,0.104-0.677,0.13c-5.493,1.119-11.039,2.057-16.584,2.838            c-0.208,0.052-0.443,0.078-0.651,0.104c-8.227,1.145-16.506,1.926-24.81,2.369c-0.208,0.026-0.417,0.052-0.651,0.052            c-5.155,0.286-10.336,0.417-15.517,0.417c-1.614,0-3.254,0-4.868-0.052h-0.651c-4.998-0.078-9.997-0.286-14.996-0.651            c-0.208-0.026-0.443-0.026-0.651-0.052c-0.026,0-0.026,0-0.052,0l0.052-0.625c0.208,0.026,0.443,0.026,0.651,0.052            c4.999,0.339,9.997,0.547,14.97,0.651h0.651c6.821,0.104,13.616,0,20.385-0.338c0.208-0.026,0.443-0.052,0.651-0.052            c8.305-0.468,16.584-1.25,24.811-2.421c0.208-0.026,0.443-0.052,0.651-0.078c5.545-0.807,11.091-1.744,16.61-2.864            c0.234-0.026,0.442-0.078,0.677-0.13C346.255,351.76,348.624,351.239,350.993,350.693z"/>
									</g>
								</g>
							</g>
							<g>
								<g>
									<g>
										<path style="fill:#FFDFE5;" d="M326.807,367.771c4.27-0.729,8.513-1.588,12.731-2.525            c-0.417,0.312-0.859,0.651-1.302,0.937c-3.801,0.833-7.602,1.588-11.429,2.239c-0.208,0.052-0.416,0.104-0.651,0.13            c-7.94,1.406-15.933,2.499-23.951,3.306c-0.208,0.026-0.443,0.052-0.651,0.052c-6.925,0.703-13.85,1.145-20.801,1.406            h-0.651c-3.567,0.13-7.107,0.182-10.674,0.182c-1.718,0-3.437,0-5.129-0.026h-0.469v-0.651h0.469            c5.285,0.078,10.544,0.052,15.777-0.13h0.651c6.951-0.26,13.876-0.729,20.775-1.406c0.234-0.026,0.443-0.026,0.651-0.078            c8.045-0.781,16.063-1.9,24.003-3.306c0.235-0.026,0.417-0.078,0.625-0.13H326.807z"/>
									</g>
								</g>
							</g>
						</g>
					</g>
					<g>
						<path style="fill:#FFDFE5;" d="M252.531,364.767c0,4.038-3.273,7.312-7.312,7.312c-4.038,0-7.312-3.273-7.312-7.312        c0-4.038,3.273-7.312,7.312-7.312C249.257,357.455,252.531,360.728,252.531,364.767z"/>
					</g>
				</g>
				<g style="opacity:0.36;">
					<path style="fill:#7F6EEC;" d="M362.995,235.141c0,0-0.417,21.062-2.525,47.694c-12.965,3.619-26.451,5.467-39.858,6.769       c-41.759,4.035-83.986,3.02-125.485-3.02c-20.958-3.046-41.915-7.446-61.571-15.178c1.926-22.546,5.649-39.806,5.649-39.806       L362.995,235.141z"/>
				</g>
				<g>
					<g>
						<path style="fill:#FFDFE5;" d="M219.991,304.281l-0.65-0.004c0.146-20.174,1.696-40.526,4.606-60.488l0.644,0.094        C221.686,263.814,220.139,284.136,219.991,304.281z"/>
					</g>
					<g>
						<path style="fill:#FFDFE5;" d="M279.398,295.675c-0.679-6.904-1.034-13.917-1.054-20.843c-0.017-5.33,3.97-9.914,9.271-10.66        l3.092-0.436c8.233-1.162,16.747-2.365,25.136-3.431c5.85-0.787,11.234,3.346,12.028,9.116        c1.181,8.6,1.952,16.715,2.427,25.534l-0.65,0.036c-0.474-8.801-1.244-16.898-2.423-25.48        c-0.744-5.417-5.803-9.232-11.3-8.562c-8.384,1.068-16.896,2.268-25.127,3.431l-3.092,0.436        c-4.983,0.702-8.727,5.008-8.713,10.017c0.02,6.904,0.374,13.897,1.051,20.78L279.398,295.675z"/>
					</g>
					<g>
						<path style="fill:#FFDFE5;" d="M199.544,294.311l-0.65-0.013c0.111-5.317,0.173-10.564,0.235-15.638l0.031-2.592        c0.092-7.572-5.264-13.991-12.734-15.26l-2.762-0.471c-5.659-0.966-11.511-1.962-17.284-2.908        c-8.088-1.336-15.74,3.918-17.437,11.934l-2.748,12.983l-0.637-0.134l2.748-12.983c1.769-8.358,9.75-13.829,18.179-12.444        c5.775,0.948,11.628,1.944,17.288,2.91l2.762,0.469c7.787,1.325,13.37,8.017,13.275,15.913l-0.031,2.592        C199.718,283.745,199.656,288.992,199.544,294.311z"/>
					</g>
				</g>
				<g>
					<path style="fill:#FF85CA;" d="M368.514,243.133c-71.802,14.189-136.576,11.221-180.469,5.649       c-0.234-0.026-0.443-0.052-0.651-0.078c-35.797-4.608-57.51-10.908-57.51-10.908s4.01-132.931,129.624-130.926       c0.677,0,1.328,0.026,2.004,0.052c0.547,0,1.094,0.026,1.614,0.052c38.739,1.432,63.498,15.725,79.222,34.573l9.724,31.12       l17.143,53.205C369.348,236.364,368.514,243.133,368.514,243.133z"/>
				</g>
				<g>
					<path style="fill:#FFDFE5;" d="M133.438,266.146c0,0,23.929,21.07,116.102,22.66c92.172,1.59,113-15.902,113-15.902       l4.584,0.587c2.633,0.338,4.494,2.487,4.207,4.859l-3.168,26.214c-0.195,1.61-1.341,3.004-3.015,3.612       c-9.428,3.424-44.428,13.509-120.039,8.854c-73.783-4.543-107.714-15.441-117.695-19.294c-1.974-0.762-3.147-2.58-2.933-4.498       l2.597-23.303C127.388,267.154,130.46,265.324,133.438,266.146L133.438,266.146z"/>
				</g>
				<g>
					<path style="fill:#3C1C87;" d="M369.217,225.872c-14.996,0.443-29.991,1.042-44.805,3.228       c-19.265,2.838-38.739,8.331-57.926,4.895c-2.083-0.364-4.166-0.859-6.196-1.51c-4.895-1.562-9.476-4.036-12.835-7.836       c-3.619-4.139-5.545-9.476-6.691-14.84c-3.176-15.1-0.391-31.345,7.628-44.492c2.577-4.244,5.702-8.175,9.633-11.195       c9.502-7.289,22.233-8.227,34.157-8.904c10.258-0.573,20.541-1.146,30.798-1.744c5.025-0.287,10.258-0.182,15.256-0.859       c1.328-0.182,2.733-0.651,4.113-1.068c0.521,0.625,1.042,1.276,1.562,1.927C365.078,170.185,368.983,205.253,369.217,225.872z"/>
				</g>
				<g style="opacity:0.49;">
					<path style="fill:#7F6EEC;" d="M369.217,225.872c-14.996,0.443-29.991,1.042-44.805,3.228       c-19.265,2.838-38.739,8.331-57.926,4.895c-2.083-0.364-4.166-0.859-6.196-1.51c-3.541-1.536-6.769-3.645-9.294-6.509       c-3.619-4.14-5.545-9.477-6.691-14.84c-3.176-15.1-0.391-31.345,7.628-44.493c2.577-4.243,5.701-8.175,9.633-11.195       c9.503-7.289,22.233-8.227,34.157-8.904c10.258-0.573,20.541-1.146,30.798-1.745c5.025-0.286,10.258-0.182,15.256-0.859       c0.703-0.104,1.406-0.26,2.135-0.469C365.078,170.185,368.983,205.253,369.217,225.872z"/>
				</g>
				<g>
					<g>
						
							<ellipse transform="matrix(0.1717 -0.9852 0.9852 0.1717 55.8339 440.32)" style="fill:#FFDFE5;" cx="289.754" cy="186.958" rx="9.638" ry="9.638"/>
					</g>
					<g>
						
							<ellipse transform="matrix(0.944 -0.3298 0.3298 0.944 -40.6402 122.7564)" style="fill:#FFDFE5;" cx="341.435" cy="181.142" rx="8.475" ry="8.475"/>
					</g>
					<g>
						<path style="fill:#FFDFE5;" d="M318.937,199.9c-1.423,0-2.845-0.344-4.091-1.028c-1.721-0.945-2.941-2.438-3.347-4.097        c-0.085-0.349,0.129-0.702,0.478-0.787c0.358-0.087,0.702,0.13,0.787,0.478c0.32,1.305,1.306,2.494,2.708,3.265        c1.958,1.075,4.431,1.16,6.452,0.228c2.026-0.936,3.565-2.874,4.017-5.055c0.073-0.353,0.417-0.574,0.769-0.505        c0.352,0.072,0.579,0.418,0.505,0.769c-0.533,2.579-2.352,4.868-4.746,5.972C321.368,199.65,320.152,199.9,318.937,199.9z"/>
					</g>
				</g>
				<g>
					<g>
						<path style="fill:#FFDFE5;" d="M263.128,106.974c-8.591,3.41-16.922,8.695-24.472,15.568c-8.956,8.149-17,18.51-24.55,31.658        c-16.532,28.742-25.539,61.441-26.06,94.582h-0.651v-0.078c0.547-33.246,9.555-66.023,26.138-94.843        c7.602-13.199,15.673-23.613,24.68-31.788c7.211-6.561,15.1-11.689,23.3-15.152        C262.061,106.922,262.607,106.948,263.128,106.974z"/>
					</g>
				</g>
			</g>
		</g>
		<g>
			<path style="fill:#3C1C87;" d="M323.322,430.905c0,2.386-31.099,4.32-69.461,4.32c-38.363,0-69.462-1.935-69.462-4.32     c0-2.386,31.099-4.321,69.462-4.321C292.223,426.584,323.322,428.518,323.322,430.905z"/>
		</g>
		<g>
			<path style="fill:#924CA5;" d="M409.254,157.114c-4.998,2.317-10.596,3.593-16.479,3.593c-21.843,0-39.546-17.703-39.546-39.546     c0-7.706,2.187-14.866,5.988-20.932c8.799,6.3,17.208,13.59,25.175,21.843C394.363,132.407,402.459,144.357,409.254,157.114z"/>
		</g>
		<g>
			<path style="fill:#FFDFE5;" d="M491.158,351.407c-9.346,13.694-25.071,22.676-42.879,22.676     c-28.638,0-51.834-23.223-51.834-51.86c0-28.638,23.196-51.834,51.834-51.834c2.057,0,4.088,0.13,6.092,0.364     c6.248,13.902,13.147,27.648,21.166,41.603c0.26,0.468,0.547,0.963,0.807,1.432C483.269,326.128,488.034,338.676,491.158,351.407     z"/>
		</g>
		<g>
			<g>
				
					<ellipse transform="matrix(0.3997 -0.9166 0.9166 0.3997 -150.7097 186.9893)" style="fill:#FFDFE5;" cx="67.411" cy="208.561" rx="51.847" ry="51.847"/>
			</g>
			<g>
				<g>
					<path style="fill:#7F6EEC;" d="M99.538,207.115c-4.577,0-8.302-5.911-8.302-13.177c0-7.266,3.725-13.177,8.302-13.177       c4.577,0,8.301,5.911,8.301,13.177C107.84,201.203,104.115,207.115,99.538,207.115z M99.538,181.413       c-4.218,0-7.651,5.619-7.651,12.524c0,6.906,3.433,12.524,7.651,12.524c4.218,0,7.651-5.618,7.651-12.524       C107.189,187.032,103.756,181.413,99.538,181.413z"/>
				</g>
				<g>
					<path style="fill:#7F6EEC;" d="M97.766,241.939c-3.56,0-6.457-4.561-6.457-10.169c0-5.605,2.896-10.167,6.457-10.167       c3.56,0,6.457,4.561,6.457,10.167C104.222,237.377,101.326,241.939,97.766,241.939z M97.766,222.109       c-3.282,0-5.951,4.333-5.951,9.661c0,5.328,2.67,9.664,5.951,9.664c3.282,0,5.951-4.336,5.951-9.664       C103.717,226.442,101.048,222.109,97.766,222.109z"/>
				</g>
				<g>
					<path style="fill:#7F6EEC;" d="M74.944,231.71c-4.577,0-8.301-5.911-8.301-13.177c0-7.266,3.724-13.179,8.301-13.179       s8.301,5.914,8.301,13.179C83.245,225.798,79.521,231.71,74.944,231.71z M74.944,206.006c-4.218,0-7.651,5.618-7.651,12.527       c0,6.906,3.433,12.524,7.651,12.524s7.651-5.618,7.651-12.524C82.595,211.625,79.162,206.006,74.944,206.006z"/>
				</g>
			</g>
		</g>
		<g>
			<polygon style="fill:#FFDFE5;" points="85.246,328.222 92.247,305.918 97.045,329.48 120.427,334.196 99.866,339.39      102.827,361.133 90.551,342.065 74.468,359.79 83.194,337.313 60.924,328.915    "/>
		</g>
		<g>
			<polygon style="fill:#FFDFE5;" points="172.986,113.523 179.988,91.219 184.786,114.781 208.168,119.497 187.607,124.691      190.568,146.434 178.292,127.365 162.209,145.091 170.935,122.614 148.665,114.216    "/>
		</g>
		<g>
			<polygon style="fill:#FFDFE5;" points="406.132,227.023 413.133,204.718 417.931,228.281 441.314,232.996 420.753,238.19      423.713,259.933 411.438,240.865 395.355,258.59 404.081,236.113 381.811,227.715    "/>
		</g>
	</g>
</g>















</svg>
