<?xml version="1.0" encoding="UTF-8"?>
<!-- Generator: Adobe Illustrator 25.2.3, SVG Export Plug-In . SVG Version: 6.00 Build 0)  -->
<svg xmlns="http://www.w3.org/2000/svg" xmlns:xlink="http://www.w3.org/1999/xlink" version="1.1" id="Capa_1" x="0px" y="0px" viewBox="0 0 512 512" style="enable-background:new 0 0 512 512;" xml:space="preserve" width="512" height="512">
<g>
	<g>
		<path style="fill:#FFFFFF;" d="M350.592,466.401c-0.374,0-0.746-0.014-1.113-0.042H16.927c-7.705,0-14.091-5.982-14.6-13.679    C0.838,430.28,0,384.768,0,378.65c0-6.456,0.09-12.273,0.279-17.785c0.593-26.45,2.725-52.042,6.326-75.899    c6.292-41.341,16.711-77.465,30.98-107.462v-30.606c0-8.092,6.552-14.651,14.634-14.651h13.441    c4.337-5.382,8.905-10.453,13.64-15.136c13.822-13.698,29.034-25.675,45.414-35.768c-1.746-3.318-2.203-7.272-1.072-11.046    c1.86-6.201,7.562-10.439,14.015-10.439c0.055,0,30.325,0.33,30.325,0.33c25.962-9.683,52.602-14.59,79.233-14.59    c36.692,0,71.728,9.529,102.339,27.704c2.727-3.381,6.883-5.45,11.385-5.45c0.252,0,0.505,0.006,0.76,0.019    c6.664,0.345,12.252,5.161,13.583,11.708l2.898,14.245l14.046,2.837c6.698,1.352,11.571,7.167,11.735,14.007    c0.069,2.792-0.658,5.452-1.989,7.737c2.851,3.606,5.604,7.406,8.248,11.383c2.056,0.314,4.044,0.711,5.959,1.188    c0.176,0.039,0.948,0.224,1.155,0.28c7.984,2.138,15.201,5.683,21.451,10.533c0.54,0.404,1.253,0.974,1.967,1.582    c11.437,9.624,17.004,21.682,19.609,29.645c2.772,2.666,4.499,6.416,4.499,10.57v75.954c0.822,1.891,1.653,3.778,2.499,5.661    c3.923,8.731,7.893,16.958,12.057,24.977l0.817,0.165c6.7,1.352,11.571,7.167,11.737,14.006c0.055,2.263-0.41,4.438-1.296,6.397    c6.926,12.771,12.04,26.06,15.553,40.446c8.746,35.325,5.95,71.568,2.058,102.357c-0.924,7.322-7.146,12.812-14.517,12.812    h-42.432c-0.367,0.027-0.736,0.042-1.11,0.042H350.592z"/>
	</g>
	<g>
		<g>
			<path style="fill:#3C1C87;" d="M495.014,451.709h-43.543l-49.817-12.511l-49.817,12.511h-36.745l-57.843-14.84l-76.666,14.84     h-27.39l-44.834-16.534l-54.896,16.534H18.172c-1.488-22.416-2.293-67.809-2.293-73.059c0-5.763,0.073-11.525,0.268-17.288     c0.561-24.833,2.463-49.642,6.17-74.206c5.39-35.406,14.829-73.108,31.146-106.292c5.756-11.696,12.365-22.831,19.951-33.111     c0.195-0.293,0.415-0.586,0.659-0.855c5.122-6.886,10.683-13.357,16.756-19.364c72.803-72.156,184.825-91.348,266.091-32.72     c9.097,6.52,17.805,14.065,26.024,22.587c10.317,10.695,18.682,23.051,25.682,36.261c8.683,16.262,15.317,33.819,21.17,51.205     c7.902,23.392,15.902,45.076,25.463,66.344c6.463,14.382,13.585,28.618,21.878,43.049c0.268,0.488,0.561,1.001,0.829,1.49     c7.146,12.771,12.073,25.737,15.292,38.922C500.99,385.902,499.234,418.305,495.014,451.709z"/>
		</g>
		<g>
			<g>
				<g>
					<g>
						<rect x="53.464" y="146.898" style="fill:#924CA5;" width="99.729" height="304.81"/>
					</g>
					<g style="opacity:0.43;">
						<rect x="53.464" y="146.898" style="fill:#3C1C87;" width="19.95" height="304.81"/>
					</g>
				</g>
				<g>
					<g>
						<rect x="87.882" y="157.641" style="fill:#FFDFE5;" width="4.604" height="60.919"/>
					</g>
					<g>
						<rect x="100.158" y="157.641" style="fill:#FFDFE5;" width="4.604" height="60.919"/>
					</g>
					<g>
						<rect x="112.435" y="157.641" style="fill:#FFDFE5;" width="4.604" height="60.919"/>
					</g>
					<g>
						<rect x="124.711" y="157.641" style="fill:#FFDFE5;" width="4.604" height="60.919"/>
					</g>
					<g>
						<rect x="136.988" y="157.641" style="fill:#FFDFE5;" width="4.604" height="60.919"/>
					</g>
				</g>
				<g>
					<g>
						<rect x="87.882" y="243.634" style="fill:#FFDFE5;" width="4.604" height="60.919"/>
					</g>
					<g>
						<rect x="100.158" y="243.634" style="fill:#FFDFE5;" width="4.604" height="60.919"/>
					</g>
					<g>
						<rect x="112.435" y="243.634" style="fill:#FFDFE5;" width="4.604" height="60.919"/>
					</g>
					<g>
						<rect x="124.711" y="243.634" style="fill:#FFDFE5;" width="4.604" height="60.919"/>
					</g>
					<g>
						<rect x="136.988" y="243.634" style="fill:#FFDFE5;" width="4.604" height="60.919"/>
					</g>
				</g>
				<g>
					<g>
						<rect x="87.882" y="243.634" style="fill:#FFDFE5;" width="4.604" height="60.919"/>
					</g>
					<g>
						<rect x="100.158" y="243.634" style="fill:#FFDFE5;" width="4.604" height="60.919"/>
					</g>
					<g>
						<rect x="112.435" y="243.634" style="fill:#FFDFE5;" width="4.604" height="60.919"/>
					</g>
					<g>
						<rect x="124.711" y="243.634" style="fill:#FFDFE5;" width="4.604" height="60.919"/>
					</g>
					<g>
						<rect x="136.988" y="243.634" style="fill:#FFDFE5;" width="4.604" height="60.919"/>
					</g>
				</g>
				<g>
					<g>
						<rect x="87.882" y="329.628" style="fill:#FFDFE5;" width="4.604" height="60.919"/>
					</g>
					<g>
						<rect x="100.158" y="329.628" style="fill:#FFDFE5;" width="4.604" height="60.919"/>
					</g>
					<g>
						<rect x="112.435" y="329.628" style="fill:#FFDFE5;" width="4.604" height="60.919"/>
					</g>
					<g>
						<rect x="124.711" y="329.628" style="fill:#FFDFE5;" width="4.604" height="60.919"/>
					</g>
					<g>
						<rect x="136.988" y="329.628" style="fill:#FFDFE5;" width="4.604" height="60.919"/>
					</g>
				</g>
				<g>
					<g>
						<rect x="87.882" y="329.628" style="fill:#FFDFE5;" width="4.604" height="60.919"/>
					</g>
					<g>
						<rect x="100.158" y="329.628" style="fill:#FFDFE5;" width="4.604" height="60.919"/>
					</g>
					<g>
						<rect x="112.435" y="329.628" style="fill:#FFDFE5;" width="4.604" height="60.919"/>
					</g>
					<g>
						<rect x="124.711" y="329.628" style="fill:#FFDFE5;" width="4.604" height="60.919"/>
					</g>
					<g>
						<rect x="136.988" y="329.628" style="fill:#FFDFE5;" width="4.604" height="60.919"/>
					</g>
				</g>
			</g>
		</g>
		<g>
			<g>
				<path style="fill:#7F6EEC;" d="M315.092,208.407v243.131H180.583V147.924h133.899      C314.482,147.924,315.092,206.527,315.092,208.407z"/>
			</g>
			<g>
				<g>
					<g>
						<path style="fill:#FFDFE5;" d="M328.478,186.886h-56.03v-19.937h56.03V186.886z M273.058,186.276h54.81v-18.717h-54.81        V186.276z"/>
					</g>
				</g>
				<g>
					<g>
						<path style="fill:#FFDFE5;" d="M328.478,297.443h-56.03v-19.937h56.03V297.443z M273.058,296.833h54.81v-18.717h-54.81        V296.833z"/>
					</g>
				</g>
				<g>
					<g>
						<path style="fill:#FFDFE5;" d="M328.478,419.221h-56.03v-19.937h56.03V419.221z M273.058,418.611h54.81v-18.716h-54.81        V418.611z"/>
					</g>
				</g>
				<g>
					<g>
						<path style="fill:#FFDFE5;" d="M247.942,356.878H191.91V336.94h56.032V356.878z M192.52,356.267h54.812v-18.717H192.52        V356.267z"/>
					</g>
				</g>
				<g>
					<g>
						<path style="fill:#FFDFE5;" d="M237.562,247.568H181.53V227.63h56.032V247.568z M182.14,246.957h54.812v-18.717H182.14        V246.957z"/>
					</g>
				</g>
			</g>
			<g style="opacity:0.43;">
				<rect x="180.583" y="147.924" style="fill:#3C1C87;" width="24.292" height="303.614"/>
			</g>
			<g>
				<g>
					<ellipse style="fill:#FFDFE5;" cx="239.126" cy="184.711" rx="16.813" ry="16.833"/>
				</g>
				<g>
					<path style="fill:#FFDFE5;" d="M301.086,235.521c0,9.296-7.528,16.833-16.813,16.833c-9.286,0-16.813-7.536-16.813-16.833       c0-9.297,7.528-16.833,16.813-16.833C293.558,218.688,301.086,226.225,301.086,235.521z"/>
				</g>
				<g>
					<ellipse style="fill:#FFDFE5;" cx="284.273" cy="350.857" rx="16.813" ry="16.833"/>
				</g>
				<g>
					<path style="fill:#FFDFE5;" d="M257.185,293.813c0,9.297-7.527,16.833-16.813,16.833c-9.286,0-16.813-7.536-16.813-16.833       c0-9.296,7.528-16.833,16.813-16.833C249.657,276.98,257.185,284.516,257.185,293.813z"/>
				</g>
				<g>
					
						<ellipse transform="matrix(0.0013 -1 1 0.0013 -165.9656 645.887)" style="fill:#FFDFE5;" cx="240.371" cy="406.032" rx="16.833" ry="16.813"/>
				</g>
			</g>
		</g>
		<g>
			<rect x="351.837" y="183.586" style="fill:#3C1C87;" width="20.825" height="268.165"/>
		</g>
		<g>
			<rect x="379.859" y="228.351" style="fill:#FFDFE5;" width="64.139" height="13.092"/>
		</g>
		<g>
			<rect x="379.859" y="261.394" style="fill:#FFDFE5;" width="64.139" height="13.092"/>
		</g>
		<g>
			<rect x="379.859" y="294.436" style="fill:#FFDFE5;" width="64.139" height="13.092"/>
		</g>
		<g>
			<rect x="379.859" y="327.478" style="fill:#FFDFE5;" width="64.139" height="13.092"/>
		</g>
		<g>
			<rect x="379.859" y="360.521" style="fill:#FFDFE5;" width="64.139" height="13.092"/>
		</g>
		<g>
			<g>
				<polygon style="fill:#FF85CA;" points="451.471,451.751 351.837,451.751 351.837,183.586 402.866,168.927 451.471,183.586           "/>
			</g>
			<g>
				<g>
					<path style="fill:#FFDFE5;" d="M449.235,183.574c0,0-2.39-0.024-6.414-0.049c-0.195,0.024-0.39,0.024-0.585,0       c-4.268,0-10.219-0.049-17-0.074h-0.61c-6.292-0.049-13.292-0.073-20.365-0.122h-0.61c-7.439-0.024-14.926-0.073-21.731-0.122       c-0.195,0.024-0.39,0.024-0.585,0c-7.585-0.025-14.268-0.049-19.024-0.098h-0.61c-4.171,0-6.707-0.024-6.805-0.024       c0,0,0.829-27.153,25.902-36.456c0.439-0.171,0.878-0.317,1.317-0.464c3.122-1.05,6.61-1.831,10.512-2.246       c0.244-0.025,0.512-0.049,0.756-0.073c1.976-0.195,4.049-0.293,6.219-0.293c0.707,0,1.39,0,2.073,0.024       c0.195,0.025,0.39,0.025,0.585,0.025c4.317,0.171,8.244,0.733,11.805,1.636c0.244,0.049,0.488,0.122,0.732,0.171       c6.561,1.758,11.927,4.591,16.268,7.96c0.488,0.366,0.976,0.757,1.463,1.172C446.601,166.384,449.235,183.574,449.235,183.574z       "/>
				</g>
				<g>
					<g>
						<g>
							<path style="fill:#FFBCC9;" d="M382.115,146.166c-5.244,5.177-9.049,10.988-11.609,15.75c-3.293,6.104-6,13.112-8.195,21.195         h-0.61c2.219-8.18,4.951-15.285,8.268-21.463c3.097-5.763,6.756-10.817,10.829-15.017         C381.237,146.458,381.676,146.312,382.115,146.166z"/>
						</g>
					</g>
					<g>
						<g>
							<path style="fill:#FFBCC9;" d="M393.383,143.846c-4.293,6.422-7.488,14.333-9.365,23.368         c-1.122,5.25-1.732,10.597-2.098,15.994c-0.195,0.024-0.39,0.024-0.585,0c0.366-5.445,1-10.817,2.097-16.116         c1.854-8.913,5-16.775,9.195-23.173C392.87,143.894,393.139,143.87,393.383,143.846z"/>
						</g>
					</g>
					<g>
						<g>
							<path style="fill:#FFBCC9;" d="M404.26,183.33h-0.61c-1.634-13.186-2.293-26.469-1.976-39.753         c0.195,0.025,0.39,0.025,0.585,0.025C401.968,156.86,402.626,170.144,404.26,183.33z"/>
						</g>
					</g>
					<g>
						<g>
							<path style="fill:#FFBCC9;" d="M425.235,183.452h-0.61c-1.561-13.259-5.122-26.152-10.561-38.214         c0.244,0.049,0.488,0.122,0.732,0.171C420.163,157.422,423.674,170.29,425.235,183.452z"/>
						</g>
					</g>
					<g>
						<g>
							<path style="fill:#FFBCC9;" d="M442.82,183.525c-0.195,0.024-0.39,0.024-0.585,0c-1.025-5.446-2.341-10.817-4.171-16.018         c-1.878-5.226-4.219-9.987-7-14.138c0.488,0.366,0.976,0.757,1.463,1.172c2.39,3.834,4.439,8.107,6.097,12.771         C440.503,172.586,441.796,178.031,442.82,183.525z"/>
						</g>
					</g>
				</g>
			</g>
			<g>
				<g>
					<rect x="379.859" y="195.309" style="fill:#FFDFE5;" width="64.139" height="13.092"/>
				</g>
				<g>
					<rect x="379.859" y="228.351" style="fill:#FFDFE5;" width="64.139" height="13.092"/>
				</g>
				<g>
					<rect x="379.859" y="261.394" style="fill:#FFDFE5;" width="64.139" height="13.092"/>
				</g>
				<g>
					<rect x="379.859" y="294.436" style="fill:#FFDFE5;" width="64.139" height="13.092"/>
				</g>
				<g>
					<rect x="379.859" y="327.478" style="fill:#FFDFE5;" width="64.139" height="13.092"/>
				</g>
				<g>
					<rect x="379.859" y="360.521" style="fill:#FFDFE5;" width="64.139" height="13.092"/>
				</g>
				<g>
					<rect x="379.859" y="393.563" style="fill:#FFDFE5;" width="64.139" height="13.092"/>
				</g>
			</g>
		</g>
		<g>
			<path style="fill:#FFFFFF;" d="M214.296,285.716H38.081c4.049-6.056,8.78-11.599,15.097-15.09     c9.341-5.152,23.195-3.687,28.048,5.836c1.049,2.1,1.732,4.566,3.658,5.909c3.927,2.735,8.902-1.221,12.268-4.591     c9.171-9.205,20.536-16.189,32.877-20.242c6.927-2.247,14.414-3.59,21.438-1.734c12.219,3.248,20,15.139,25.146,26.713     c5-6.569,13.097-11.037,21.316-10.353C205.467,272.823,212.613,278.415,214.296,285.716z"/>
		</g>
		<g>
			<path style="fill:#FFFFFF;" d="M409.487,187.214H244.589c3.878-3.101,7.975-5.86,12.609-7.57     c6.731-2.466,14.926-2.271,20.414,2.369c1.488,1.27,2.975,2.906,4.926,2.954c1.049,0,2.049-0.464,2.951-0.976     c7.219-4.005,12.195-10.988,18.219-16.653c10.439-9.792,25.609-15.725,39.341-11.672c9.341,2.735,17.097,9.865,21.585,18.534     c1.122,2.149,2.171,4.517,4.22,5.762c3.561,2.173,8.073,0.025,11.853-1.758c5.439-2.564,11.536-4.395,17.414-3.174     C404.024,176.226,409.439,181.207,409.487,187.214z"/>
		</g>
		<g>
			<path style="fill:#FFFFFF;" d="M472.021,390.455H248.325c5.261-4.207,10.819-7.95,17.106-10.269     c9.132-3.346,20.249-3.08,27.693,3.213c2.018,1.722,4.036,3.942,6.683,4.008c1.423,0,2.779-0.629,4.004-1.325     c9.793-5.432,16.543-14.906,24.715-22.591c14.161-13.283,34.74-21.332,53.368-15.834c12.672,3.71,23.194,13.382,29.282,25.142     c1.522,2.915,2.944,6.128,5.724,7.817c4.831,2.948,10.952,0.033,16.08-2.385c7.378-3.478,15.65-5.963,23.624-4.306     C464.61,375.549,471.955,382.306,472.021,390.455z"/>
		</g>
		<g>
			<g>
				<path style="fill:#FFD461;" d="M110.744,126.642c-4.516-0.046-9.081,0.16-13.434,1.364c-4.353,1.204-8.514,3.479-11.35,6.998      c3.187-1.787,7.707-0.928,9.753,2.101c2.047,3.029,0.941,7.81-2.367,9.362c-2.84,1.332-6.182,0.25-9.307,0.523      c-3.713,0.324-7.17,2.754-8.735,6.141c-1.517,3.284-1.273,7.075-0.997,10.683c0.281-2.133,2.797-3.165,4.943-3.284      c0.847-0.047,1.721-0.015,2.505,0.31c2.593,1.075,2.969,4.609,2.459,7.372c-0.51,2.763-1.459,5.772-0.126,8.244      c1.365,2.533,4.604,3.39,7.478,3.356c2.111-0.025,4.252-0.403,6.118-1.391c5.059-2.678,6.854-8.884,10.056-13.632      c0.839-1.244,2.072-2.53,3.561-2.355c1.32,0.155,2.255,1.477,2.423,2.797c0.168,1.32-0.25,2.635-0.662,3.9      c-0.902,2.765-1.804,5.531-2.706,8.296c0.525,0.501,1.384,0.266,2.046-0.032c5.337-2.401,9.622-7.048,11.588-12.565      c0.919-2.581,1.44-5.483,3.424-7.37c1.968-1.873,4.915-2.266,7.628-2.142c2.712,0.124,5.435,0.667,8.123,0.282      c7.243-1.039,13.393-10.458,9.31-17.293c-3.927-6.573-16.348-8.573-23.05-9.866      C123.273,127.251,117.006,126.706,110.744,126.642z"/>
			</g>
			<g>
				<path style="fill:#FFDFE5;" d="M124.303,132.726c-2.605-0.139-5.226-0.277-7.817,0.034c-3.782,0.454-7.444,1.881-10.538,4.106      c-1.646,1.184-3.281,3.123-2.581,5.028c0.87-1.783,3.653-1.928,5.069-0.54c1.417,1.388,1.566,3.703,0.861,5.557      c-0.705,1.855-2.107,3.347-3.518,4.741c-1.213,1.199-2.516,2.461-2.917,4.119c-0.401,1.659,0.597,3.771,2.301,3.834      c0.636,0.024,1.244-0.233,1.828-0.485c5.783-2.494,11.647-5.036,16.545-8.999c3.539-2.864,7.006-6.857,8.302-11.321      C133.664,132.512,129.464,133,124.303,132.726z"/>
			</g>
			<g>
				<g>
					<g>
						<polygon style="fill:#FF85CA;" points="263.945,141.741 261.538,142.934 244.983,151.136 168.041,189.274 185.836,160.19         191.622,150.746 263.142,141.839       "/>
					</g>
					<g style="opacity:0.43;">
						<path style="fill:#3C1C87;" d="M263.142,141.839c-0.535,0.365-1.07,0.73-1.604,1.095c-4.838,3.261-10.162,5.841-15.631,7.885        c-0.316,0.122-0.608,0.219-0.924,0.316c-9.457,3.407-19.4,5.257-29.342,6.742c-9.578,1.436-20.007,2.507-29.804,2.312        l5.786-9.443L263.142,141.839z"/>
					</g>
				</g>
				<g>
					<g>
						<polygon style="fill:#FF85CA;" points="245.91,75.677 243.225,75.648 224.754,75.449 138.904,74.509 167.541,92.984         176.847,98.979 245.145,75.937       "/>
					</g>
					<g style="opacity:0.43;">
						<path style="fill:#3C1C87;" d="M245.145,75.937c-0.64-0.097-1.28-0.193-1.92-0.29c-5.772-0.837-11.687-0.849-17.501-0.315        c-0.337,0.028-0.643,0.067-0.969,0.116c-9.997,1.038-19.757,3.69-29.358,6.672c-9.252,2.867-19.113,6.432-27.855,10.863        l9.306,5.995L245.145,75.937z"/>
					</g>
				</g>
				<g>
					<g>
						<g>
							<path style="fill:#FF85CA;" d="M308.197,91.69l-25.85,40.438c-8.824,5.817-19.108,11.22-30.922,15.406         c-16.652,5.914-31.992,7.813-45.12,7.691c-7.269-0.073-13.832-0.779-19.594-1.752c-15.923-2.702-25.502-7.594-25.502-7.594         l-21.758,22.124l-0.924,0.925l-5.859,5.963l-13.662-57.585l3.646,0.511l1.264,0.17l30.266,4.284         c0,0,6.588-11.901,23.022-24.12c4.181-3.115,8.995-6.23,14.489-9.175c9.773-5.257,21.709-9.979,36.125-13.094         c17.819-3.87,34.253-3.919,48.304-2.215L308.197,91.69z"/>
						</g>
					</g>
					<g>
						<g>
							<path style="fill:#FFDFE5;" d="M325.06,88.708c0,0-13.225,24.046-42.713,43.42c-2.139-4.917-3.865-10.003-5.154-15.212         c-3.428-13.581-4.814-29.547-1.07-43.249C305.807,77.269,325.06,88.708,325.06,88.708z"/>
						</g>
					</g>
					<g>
						<g>
							
								<ellipse transform="matrix(0.0011 -1 1 0.0011 127.558 346.5497)" style="fill:#FFDFE5;" cx="237.244" cy="109.426" rx="19.574" ry="19.552"/>
						</g>
					</g>
					<g>
						<g>
							<path style="fill:#FFDFE5;" d="M206.305,155.225c-7.269-0.073-13.832-0.779-19.594-1.752         c-4.425-6.985-7.682-14.725-9.53-22.781c-2.431-10.66-2.382-21.88,0.024-32.541c4.181-3.115,8.995-6.23,14.489-9.175         c-2.309,16.355-0.632,33.295,4.911,48.847C198.842,144.078,201.978,150.26,206.305,155.225z"/>
						</g>
					</g>
					<g>
						<g>
							<path style="fill:#FFDFE5;" d="M139.452,168.002l-0.924,0.925c-7.706-16.21-13.03-33.368-15.875-51.111l1.264,0.17         C126.738,135.365,131.941,152.134,139.452,168.002z"/>
						</g>
					</g>
				</g>
			</g>
		</g>
		<g>
			<g>
				<polygon style="fill:#FFD461;" points="355.136,104.999 362.189,82.504 367.022,106.267 390.576,111.022 369.864,116.261       372.846,138.189 360.481,118.958 344.28,136.835 353.07,114.166 330.636,105.697     "/>
			</g>
			<g>
				<polygon style="fill:#FFD461;" points="60.385,356.868 67.438,334.374 72.271,358.137 95.825,362.892 75.113,368.131       78.095,390.058 65.73,370.828 49.529,388.705 58.318,366.036 35.885,357.567     "/>
			</g>
			<g>
				<polygon style="fill:#FFD461;" points="443.147,298.68 450.199,276.186 455.033,299.949 478.586,304.705 457.874,309.943       460.857,331.871 448.492,312.641 432.29,330.517 441.08,307.848 418.647,299.379     "/>
			</g>
		</g>
	</g>
</g>















</svg>
