<?xml version="1.0" encoding="UTF-8"?>
<!-- Generator: Adobe Illustrator 25.2.3, SVG Export Plug-In . SVG Version: 6.00 Build 0)  -->
<svg xmlns="http://www.w3.org/2000/svg" xmlns:xlink="http://www.w3.org/1999/xlink" version="1.1" id="Capa_1" x="0px" y="0px" viewBox="0 0 512 512" style="enable-background:new 0 0 512 512;" xml:space="preserve" width="512" height="512">
<g>
	<g>
		<path style="fill:#FFFFFF;" d="M40.455,484.664c-6.419,0-11.729-4.999-12.117-11.406l-0.29-5.313    c-0.158-3.157-0.306-6.557-0.446-10.13l-0.25-6.917c-0.088-2.578-0.171-5.178-0.249-7.794c-0.021-0.243-0.031-0.441-0.038-0.685    c-0.202-7.652-0.405-15.342-0.547-22.203c-0.002-0.085-0.003-0.168-0.003-0.253l0.014,0.121c-0.019-0.251-0.029-0.502-0.033-0.753    c-0.234-11.287-0.345-19.611-0.362-22.46c0-0.024-0.003-0.8-0.003-0.8c0-1.322,0.001-2.663,0.023-3.985    c0.002-0.113,0.014-1.191,0.014-1.191c0.007-1.725,0.015-3.448,0.045-5.18c0.002-0.245,0.023-1.435,0.023-1.435    c0.017-2.009,0.076-4.186,0.136-6.384l0.042-1.715c0.024-1.089,0.048-2.179,0.092-3.26c0.683-25.839,2.666-50.875,5.89-74.246    c2.639-18.943,6.06-36.934,10.211-53.73c-2.749,0.599-5.41,1.213-7.93,1.806c-3.202,0.755-7.111,1.675-11.383,1.675    c-1.353,0-2.69-0.093-3.975-0.275c-8.575-1.213-15.754-6.907-18.283-14.506c-2.052-6.162-1.02-13.3,2.829-19.581    c6.323-10.321,17.767-16.355,34.013-17.934c3.335-0.324,6.69-0.488,9.973-0.488c3.446,0,6.855,0.18,10.206,0.533    c0.582-1.458,1.176-2.912,1.777-4.358c-4.324-8.831-7.504-18.1-9.473-27.631c-2.723-13.158-1.825-23.717,2.743-32.274    c3.419-6.399,8.658-10.534,14.753-11.647c1.083-0.198,2.185-0.296,3.281-0.296c7.136,0,13.793,4.054,18.746,11.416    c0.865,1.286,1.659,2.594,2.392,3.922c2.82-3.554,5.737-6.967,8.734-10.215c25.627-27.794,56.632-48.933,90.006-61.428    c6.859-21.432,26.79-36.33,49.873-36.33c18.463,0,35.348,9.675,44.773,25.158c31.595,4.369,60.57,16.822,86.223,37.072    c9.238,7.24,18.153,15.703,26.466,25.129c9.958,11.285,18.589,24.59,26.382,40.67c9.411,19.305,16.12,39.696,20.912,55.305    c0.363,1.174,0.726,2.345,1.092,3.515c16.382,9.219,26.685,26.572,26.685,45.685c0,6.637-1.273,13.237-3.713,19.38    c6.423,15.634,13.083,29.966,20.356,43.806c0.067,0.129,0.133,0.259,0.196,0.389c0.188,0.391,0.408,0.812,0.611,1.203    c6.741,13.145,11.684,26.639,15.148,41.322c0.195,0.768,0.372,1.535,0.547,2.302c0.642,2.841,1.225,5.742,1.793,8.903l0.093,0.502    c0.482,2.715,0.939,5.657,1.345,8.688c0.066,0.407,0.127,0.84,0.173,1.258l0.094,0.707c3.803,30.31,1.329,60.268-1.591,85.589    c-0.706,6.125-5.893,10.748-12.059,10.748H40.455z"/>
	</g>
	<g>
		<g>
			<path style="fill:#3C1C87;" d="M476.283,451.116L71.18,453.64c0,0-31.057-78.711-30.997-80.228     c0.648-24.46,2.448-48.879,5.786-73.076c5.159-37.044,14.182-76.495,29.781-111.212c5.503-12.24,11.836-23.893,19.078-34.636     c0.182-0.324,0.405-0.627,0.627-0.91c4.896-7.202,10.217-13.96,16.024-20.252c69.616-75.504,176.722-95.574,254.431-34.232     c8.7,6.818,17.015,14.708,24.885,23.63c9.873,11.188,17.864,24.116,24.561,37.934c8.295,17.014,14.648,35.385,20.232,53.573     c7.567,24.48,15.214,47.18,24.359,69.434c6.171,15.032,12.989,29.942,20.919,45.035c0.243,0.506,0.526,1.052,0.789,1.558     c6.494,12.665,11.046,25.532,14.122,38.602C495.958,369.567,476.283,451.116,476.283,451.116z"/>
		</g>
		<g>
			<g>
				<polygon style="fill:#FFDFE5;" points="336.614,116.2 342.615,97.082 346.728,117.278 366.77,121.32 349.146,125.772       351.684,144.409 341.162,128.065 327.376,143.258 334.856,123.992 315.767,116.793     "/>
			</g>
			<g>
				<g>
					<polygon style="fill:#FFDFE5;" points="336.614,321.698 342.615,302.58 346.728,322.776 366.77,326.818 349.146,331.27        351.684,349.907 341.162,333.563 327.376,348.757 334.856,329.49 315.767,322.291      "/>
				</g>
				<g>
					<polygon style="fill:#FFDFE5;" points="151.69,314.554 157.691,295.436 161.804,315.632 181.846,319.674 164.222,324.126        166.76,342.763 156.238,326.419 142.452,341.613 149.931,322.346 130.843,315.148      "/>
				</g>
			</g>
		</g>
		<g>
			<g>
				<path style="fill:#FFBCC9;" d="M492.588,465.021l-175.295,7.504h-47.2l-217.445-4.654c0,0-12.827-74.325-12.82-75.583      c0.011-2.142,0.034-4.28,0.072-6.434c0-0.263,0-0.526,0.02-0.789v-0.506c0.02-2.185,0.081-4.37,0.142-6.575      c0.041-1.517,0.061-3.055,0.121-4.572c6.818-4.552,14-8.517,21.486-11.896c0.364-0.162,0.728-0.323,1.092-0.465      c11.249-4.997,23.104-8.679,35.142-11.006c6.353-1.234,12.746-2.124,19.179-2.65c0.405-0.061,0.789-0.081,1.174-0.101      c20.353-1.659,40.968-0.041,61.099,4.006c0.263,0.041,0.546,0.101,0.809,0.162c9.549,1.922,19.017,4.41,28.284,7.344      c11.997,3.783,23.752,8.315,35.607,12.523c0.223,0.081,0.445,0.162,0.688,0.243c7.081,2.509,14.203,4.896,21.445,6.939      c0.121,0.041,0.243,0.061,0.364,0.101c0.121,0.04,0.263,0.081,0.384,0.101c20.049,5.584,40.847,8.396,61.645,8.437h0.931      c7.486-0.02,15.012-0.405,22.457-1.153c9.266-0.91,18.491-2.387,27.595-4.431c7.506-1.679,14.931-3.743,22.336-5.847      c0.182-0.04,0.344-0.101,0.526-0.162c0.384-0.101,0.769-0.202,1.153-0.324c4.714-1.356,9.448-2.752,14.162-4.046      c7.648-2.124,15.315-4.067,23.064-5.523c0.303-0.061,0.587-0.121,0.89-0.162c4.714-0.87,9.448-1.517,14.243-1.922      c3.217-0.263,6.454-0.405,9.691-0.384c10.359,0.061,20.737,1.659,30.145,5.665c0.182,0.708,0.344,1.416,0.506,2.124      c1.295,5.725,2.306,11.491,3.075,17.298c0.04,0.243,0.081,0.506,0.101,0.749c0.04,0.303,0.081,0.607,0.122,0.91L492.588,465.021      z"/>
			</g>
			<g>
				<g>
					<path style="fill:#FFDFE5;" d="M51.513,373.229c-3.884,4.067-7.91,8.254-11.613,12.624c0-0.263,0-0.526,0.02-0.789       c3.581-4.208,7.465-8.254,11.228-12.199c3.52-3.662,7.121-7.425,10.52-11.35c0.364-0.162,0.728-0.323,1.092-0.465       C59.12,365.258,55.276,369.305,51.513,373.229z"/>
				</g>
				<g>
					<path style="fill:#FFDFE5;" d="M40.204,419.964c0-0.263,0-0.526-0.02-0.789v-0.02c13.029-17.015,26.564-34.373,43.012-48.454       c10.439-8.963,21.951-16.529,33.888-23.307c0.405-0.061,0.789-0.081,1.174-0.101c-12.24,6.919-24.035,14.607-34.737,23.792       C66.97,385.267,53.334,402.828,40.204,419.964z"/>
				</g>
				<g>
					<path style="fill:#FFDFE5;" d="M180.165,351.46c-1.194,0.566-2.408,1.113-3.601,1.679l-1.457,0.688       c-47.706,22.255-96.99,48.434-134.236,88.897c-0.04,0.041-0.061,0.061-0.081,0.101c0-0.243-0.02-0.486-0.041-0.728       c37.266-40.362,86.51-66.501,134.135-88.735l1.477-0.668c0.992-0.465,1.983-0.93,2.994-1.396       C179.619,351.339,179.902,351.399,180.165,351.46z"/>
				</g>
				<g>
					<path style="fill:#FFDFE5;" d="M117.063,427.551c-17.52,15.7-35.486,31.804-55.313,44.974h-0.91       c20.049-13.231,38.197-29.497,55.9-45.359c12.098-10.844,24.621-22.073,37.57-32.188c11.755-9.145,25.917-18.755,41.798-20.434       c5.806-0.627,11.755-0.182,17.521,0.263c7.486,0.567,15.234,1.133,22.578-0.647c2.731-0.667,5.341-1.618,7.85-2.832       c0.223,0.081,0.445,0.162,0.688,0.243c-2.691,1.315-5.483,2.367-8.416,3.095c-7.425,1.801-15.214,1.214-22.74,0.647       c-5.746-0.425-11.674-0.89-17.439-0.263c-15.74,1.679-29.821,11.208-41.515,20.333       C141.685,405.499,129.161,416.707,117.063,427.551z"/>
				</g>
				<g>
					<path style="fill:#FFDFE5;" d="M217.553,399.753c-32.229,12.705-65.55,25.836-92.276,48.333       c-9.65,8.133-16.61,16.185-21.101,24.439h-0.566c4.512-8.396,11.532-16.569,21.344-24.824       c26.787-22.558,60.148-35.708,92.397-48.414c16.307-6.413,32.937-12.969,48.839-20.778c0.121,0.041,0.243,0.061,0.364,0.101       c0.121,0.04,0.263,0.081,0.384,0.101C250.854,386.643,234.041,393.258,217.553,399.753z"/>
				</g>
				<g>
					<path style="fill:#FFDFE5;" d="M329.514,387.149c-4.694,3.176-9.974,6.029-15.74,7.142c-4.795,0.91-9.772,0.587-14.567,0.283       c-2.913-0.182-5.908-0.384-8.861-0.303c-25.532,0.728-44.631,20.535-63.122,39.694c-2.023,2.124-4.047,4.208-6.049,6.252       c-11.491,11.694-23.873,22.497-37.003,32.31h-0.87c13.332-9.873,25.896-20.818,37.509-32.674       c2.023-2.043,4.026-4.127,6.049-6.231c18.552-19.24,37.732-39.128,63.486-39.856c2.954-0.081,5.968,0.121,8.902,0.303       c4.754,0.303,9.691,0.627,14.445-0.283c5.422-1.032,10.419-3.662,14.89-6.636H329.514z"/>
				</g>
				<g>
					<path style="fill:#FFDFE5;" d="M377.685,392.975c-41.737,25.552-71.923,51.125-93.712,79.55h-0.647       c21.85-28.607,52.157-54.301,94.096-79.975l1.801-1.113c8.032-4.916,16.226-9.893,23.206-15.882       c0.384-0.101,0.769-0.202,1.153-0.324c-7.202,6.332-15.72,11.532-24.095,16.65L377.685,392.975z"/>
				</g>
				<g>
					<path style="fill:#FFDFE5;" d="M441.697,365.501c-11.835,11.512-22.497,24.298-32.896,36.801       c-3.682,4.431-7.486,9.003-11.289,13.434c-17.055,19.948-35.385,38.966-54.766,56.789h-0.769       c19.523-17.905,37.974-37.044,55.151-57.134c3.803-4.431,7.607-8.983,11.289-13.413c10.258-12.321,20.758-24.925,32.391-36.315       C441.11,365.602,441.393,365.541,441.697,365.501z"/>
				</g>
				<g>
					<path style="fill:#FFDFE5;" d="M499.458,389.03c-4.127,6.434-8.517,12.685-12.867,18.856       c-13.595,19.341-27.636,39.35-32.573,62.616c-0.142,0.688-0.283,1.356-0.364,2.023h-0.546c0.121-0.688,0.243-1.416,0.405-2.145       c4.956-23.347,19.038-43.396,32.674-62.778c4.451-6.332,8.942-12.746,13.171-19.321       C499.397,388.524,499.437,388.787,499.458,389.03z"/>
				</g>
			</g>
		</g>
		<g>
			<g>
				<path style="fill:#7F6EEC;" d="M103.452,216.646c-1.021,0.47-1.644,1.545-1.552,2.7c1.19,14.906,8.828,113.094,7.346,159.735      c-1.607,50.55-6.964,89.99-6.964,89.99l58.928-6.11c0,0-23.036-46.106-34.285-117.764      c-9.632-61.351-17.693-112.93-19.812-126.499C106.836,216.934,105.026,215.92,103.452,216.646L103.452,216.646z"/>
			</g>
			<g>
				<g>
					<path style="fill:#FFD461;" d="M90.575,229.522c-19.042-2.821-38.377,0.993-57.134,5.415       c-3.573,0.842-7.237,1.713-10.867,1.198c-3.63-0.514-7.277-2.733-8.473-6.324c-1.038-3.118-0.044-6.621,1.662-9.405       c5.092-8.31,15.384-11.275,24.838-12.192c12.419-1.206,25.167,0.004,36.833,4.582c10.014,3.931,21.331,11.056,27.024,20.769       C102.027,234.635,93.914,230.016,90.575,229.522z"/>
				</g>
				<g>
					<path style="fill:#FFD461;" d="M86.682,208.452c-11.343-13.178-19.314-29.451-22.886-46.722       c-1.665-8.048-2.281-16.897,1.565-24.097c1.358-2.543,3.463-4.921,6.224-5.423c3.936-0.717,7.488,2.554,9.775,5.953       c5.054,7.515,7.278,16.63,9.406,25.522c5.197,21.715,11.843,44.355,13.424,66.747c-2.833-2.864-4.683-7.306-7.333-10.548       C93.622,215.925,90.011,212.32,86.682,208.452z"/>
				</g>
				<g>
					<path style="fill:#FFD461;" d="M106.105,190.34c1.408-15.873,5.005-31.931,13.523-45.2c2.863-4.46,6.521-8.746,11.443-10.374       c2.066-0.683,4.415-0.834,6.328,0.226c3.716,2.058,4.105,7.374,3.647,11.717c-1.643,15.553-7.906,29.97-14.935,43.633       c-7.035,13.677-13.609,28.327-21.088,41.549c-1.135-5.985-0.038-13.068,0.075-19.178       C105.237,205.247,105.445,197.778,106.105,190.34z"/>
				</g>
				<g>
					<path style="fill:#FFD461;" d="M130.587,200.822c10.396-11.743,22.641-22.256,37.172-27.46       c4.884-1.749,10.298-2.861,15.166-1.063c2.043,0.755,3.999,2.111,4.902,4.156c1.753,3.972-1.044,8.446-3.946,11.612       c-10.395,11.34-23.803,18.873-37.379,25.326c-13.589,6.459-27.379,13.984-41.056,19.802       c2.595-5.474,7.606-10.419,11.267-15.208C121.185,212.136,125.715,206.325,130.587,200.822z"/>
				</g>
			</g>
		</g>
		<g>
			<path style="fill:#924CA5;" d="M270.094,472.525H42.004c-1.416-23.468-2.185-70.952-2.185-76.455c0-1.254,0-2.529,0.02-3.783     c3.399-4.087,7.263-7.789,11.997-10.156c6.292-3.136,14.486-3.379,19.968,1.032c4.916,3.945,6.676,10.581,7.829,16.772     c2.792,15.194,3.581,30.752,2.367,46.148c9.428-14.971,18.856-29.963,29.052-44.428c10.379-14.708,22.619-29.659,39.856-34.879     c4.754-1.437,9.994-2.064,14.668-0.364c4.977,1.8,8.74,5.948,11.694,10.338c13.373,19.725,14.303,45.055,14.769,68.888     c6.818-12.624,22.498-19.078,36.68-16.934c14.182,2.165,26.544,11.896,33.928,24.197     C266.331,458.991,268.759,465.626,270.094,472.525z"/>
		</g>
		<g>
			<path style="fill:#FF85CA;" d="M497.961,472.525H317.294c-0.162-6.96,0.405-13.858,2.792-20.312     c3.885-10.46,14.02-19.483,25.107-18.289c8.538,0.951,15.295,7.405,21.344,13.494c-8.133-19.503-13.049-40.342-14.567-61.423     c-0.971-13.292-0.587-26.665,1.173-39.876c1.011-7.627,3.945-16.792,11.512-18.208c7.284-1.376,13.272,5.523,17.278,11.775     c7.425,11.572,14.101,23.61,19.969,36.032c9.994,21.101,17.662,43.296,22.841,66.076c-3.702-23.286-7.364-47.16-7-70.608     c0.243-14.627,2.064-29.073,6.413-43.113c1.356-4.37,3.278-9.043,7.324-11.147c8.234-4.309,16.994,4.835,21.223,13.11     c5.422,10.621,9.61,21.729,12.928,33.159c7.688,26.503,10.642,54.625,13.434,82.241c4.512-19.139,10.824-38.48,20.515-55.495     C502.938,416.707,501.218,444.282,497.961,472.525z"/>
		</g>
		<g>
			<g>
				<path style="fill:#FF85CA;" d="M361.073,231.205c-24.035,7.648-54.342,15.76-86.631,23.125      c-29.781,6.798-60.269,12.665-85.195,16.327c-0.162-0.303-0.303-0.607-0.425-0.91c22.882-3.338,52.015-8.78,85.397-16.408      c32.37-7.405,62.778-15.518,86.833-23.185C361.053,230.497,361.073,230.862,361.073,231.205z"/>
			</g>
			<g>
				<g>
					<path style="fill:#FF85CA;" d="M361.073,232.156c0,9.145-1.356,17.986-3.885,26.301c-0.081,0.222-0.142,0.425-0.202,0.647       c-8.659,27.697-30.307,49.628-57.801,58.712c-0.223,0.081-0.445,0.162-0.668,0.222c-8.72,2.812-18.026,4.33-27.677,4.33       c-3.298,0-6.535-0.182-9.731-0.526c-0.182-0.02-0.344-0.02-0.506-0.061c-7.708-0.85-15.113-2.691-22.093-5.381       c-0.202-0.081-0.405-0.142-0.587-0.223c-22.882-8.963-41.191-27.009-50.538-49.709c-0.081-0.162-0.141-0.344-0.223-0.526       c-2.569-6.393-4.451-13.151-5.523-20.171c-0.02-0.263-0.061-0.506-0.101-0.769c-0.607-4.188-0.91-8.477-0.91-12.847       c0-12.806,2.67-25.006,7.486-36.032c0.142-0.344,0.283-0.668,0.445-0.991c14.122-31.379,45.642-53.209,82.281-53.209       c1.437,0,2.873,0.041,4.309,0.101c0.223,0.02,0.466,0.02,0.708,0.04c5.301,0.283,10.48,1.032,15.497,2.205       c0.202,0.04,0.405,0.081,0.607,0.142c18.026,4.33,33.928,14.061,45.946,27.373c0.101,0.121,0.222,0.243,0.324,0.364       c3.905,4.37,7.405,9.145,10.379,14.243c0.121,0.162,0.202,0.324,0.283,0.485c7.283,12.503,11.633,26.908,12.139,42.284       c0,0.182,0,0.385,0.02,0.587C361.053,230.538,361.073,231.347,361.073,232.156z"/>
				</g>
				<g>
					<g>
						<path style="fill:#FFBCC9;" d="M354.093,259.691c-2.994,1.072-6.191,1.821-9.246,2.57c-4.653,1.133-9.469,2.286-13.798,4.491        c-13.332,6.818-19.463,21.486-25.391,35.648c-0.546,1.295-1.092,2.569-1.618,3.844c-1.538,3.601-3.338,7.648-5.523,11.795        c0.223-0.061,0.445-0.141,0.668-0.222c2.084-4.006,3.824-7.87,5.321-11.37c0.526-1.275,1.072-2.569,1.618-3.844        c5.887-14.102,11.997-28.668,25.148-35.385c4.289-2.205,9.064-3.359,13.676-4.471c3.096-0.728,6.292-1.497,9.327-2.569        c0.91-0.324,1.821-0.688,2.711-1.072c0.061-0.223,0.121-0.425,0.202-0.647C356.177,258.923,355.145,259.327,354.093,259.691z         M361.032,229.162c-3.399,2.145-6.879,4.147-10.298,6.15c-2.185,1.275-4.451,2.59-6.656,3.905        c-23.529,14.101-44.711,31.642-62.96,52.116c-6.454,7.263-14.547,17.055-19.726,28.526c-0.283,0.627-0.567,1.275-0.789,1.922        c0.162,0.041,0.324,0.041,0.506,0.061c0.243-0.607,0.486-1.194,0.749-1.78c5.159-11.39,13.211-21.162,19.645-28.385        c18.208-20.454,39.35-37.954,62.839-52.035c2.205-1.315,4.451-2.63,6.636-3.885c3.358-1.942,6.757-3.925,10.075-6.009        C361.032,229.547,361.032,229.344,361.032,229.162z M253.907,280.53c-0.567-1.376-1.133-2.792-1.578-4.208        c-0.83-2.65-1.8-7.607,0.991-11.087c2.306-2.913,6.838-4.006,12.119-2.954c1.538,0.303,3.075,0.728,4.592,1.153        c2.752,0.789,5.604,1.598,8.538,1.619h0.121c12.139,0,20.231-12.908,21.708-25.087c0.627-5.28,0.486-10.682,0.324-15.902        c-0.182-6.636-0.384-13.515,1.052-20.07c0.425-1.962,1.153-4.43,2.893-6.009c3.116-2.812,7.708-1.78,12.159-0.789        c0.728,0.162,1.477,0.324,2.185,0.465c10.055,2.003,21.122-1.497,28.203-8.882c0.587-0.607,1.133-1.254,1.679-1.902        c-0.081-0.162-0.162-0.324-0.283-0.485c-0.566,0.688-1.153,1.376-1.78,2.023c-6.96,7.283-17.844,10.723-27.717,8.76        c-0.708-0.142-1.437-0.304-2.185-0.486c-4.35-0.971-9.286-2.064-12.604,0.931c-1.841,1.659-2.59,4.229-3.055,6.272        c-1.437,6.616-1.234,13.515-1.052,20.171c0.162,5.22,0.303,10.601-0.324,15.841c-1.436,11.957-9.367,24.642-21.202,24.642        h-0.121c-2.853-0.02-5.685-0.83-8.416-1.598c-1.497-0.425-3.055-0.87-4.613-1.173c-5.463-1.072-10.197,0.081-12.624,3.136        c-2.934,3.682-1.922,8.821-1.072,11.552c0.445,1.437,1.032,2.873,1.578,4.249c0.91,2.225,1.821,4.512,2.245,6.899        c2.044,11.856-8.598,21.81-15.133,26.685c-0.87,0.647-1.74,1.295-2.61,1.882c0.182,0.081,0.385,0.141,0.587,0.223        c0.769-0.547,1.538-1.113,2.327-1.7c6.615-4.936,17.419-15.052,15.315-27.171C255.748,285.102,254.797,282.776,253.907,280.53        z M337.908,171.786c-3.561,2.974-7.405,5.098-10.622,6.555c-9.934,4.492-21.364,6.029-32.148,4.37        c-0.789-0.121-1.578-0.263-2.347-0.405c-2.752-0.486-5.584-0.971-8.396-0.749c-10.54,0.87-17.5,12.038-17.176,21.506        c0.141,3.702,1.072,7.486,1.983,11.127c1.639,6.515,3.176,12.665,0.485,18.37c-2.65,5.604-8.639,9.225-18.855,11.41        c-5.098,1.072-10.339,1.882-15.416,2.63c-6.373,0.971-12.989,1.962-19.341,3.561c-12.746,3.197-22.437,8.497-28.911,15.781        c0.081,0.182,0.142,0.364,0.223,0.526c6.393-7.283,16.064-12.624,28.81-15.801c6.332-1.598,12.928-2.59,19.301-3.561        c5.078-0.769,10.338-1.558,15.437-2.65c6.535-1.396,15.639-4.127,19.199-11.674c2.772-5.887,1.153-12.402-0.425-18.714        c-0.91-3.621-1.841-7.364-1.983-11.026c-0.324-9.246,6.454-20.13,16.711-20.98c2.751-0.222,5.564,0.263,8.275,0.748        c0.769,0.142,1.558,0.283,2.347,0.405c10.884,1.679,22.396,0.121,32.431-4.41c3.257-1.477,7.142-3.622,10.743-6.656        C338.13,172.028,338.009,171.907,337.908,171.786z M205.068,222.769c3.379-1.133,7.02-1.497,10.52-1.841        c2.65-0.263,5.362-0.546,7.992-1.133c12.321-2.772,21.526-12.281,27.11-19.786c4.087-5.483,7.546-11.512,10.925-17.359        c2.226-3.864,4.512-7.85,6.98-11.653c6.757-10.46,14.587-19.361,23.367-26.584c-0.202-0.061-0.405-0.101-0.607-0.142        c-8.7,7.202-16.489,16.064-23.185,26.463c-2.468,3.803-4.775,7.809-7,11.674c-3.358,5.806-6.818,11.836-10.884,17.298        c-5.523,7.425-14.648,16.853-26.807,19.584c-2.61,0.587-5.321,0.87-7.931,1.133c-3.54,0.344-7.202,0.728-10.642,1.861        c-10.44,3.46-16.833,12.988-23.023,22.214c-0.121,0.162-0.222,0.344-0.344,0.506c0.04,0.263,0.081,0.506,0.101,0.769        c0.222-0.324,0.445-0.668,0.668-0.991C188.438,235.616,194.791,226.168,205.068,222.769z M275.15,142.025        c-5.301,4.512-11.228,8.335-17.095,11.856c-8.073,4.835-16.468,9.428-24.581,13.858c-9.752,5.321-19.827,10.804-29.397,16.792        c-5.624,3.52-10.783,7.041-15.517,10.601c-0.162,0.324-0.303,0.647-0.445,0.991c4.936-3.763,10.318-7.445,16.246-11.147        c9.549-5.989,19.625-11.492,29.356-16.792c8.113-4.43,16.529-9.023,24.581-13.879c6.029-3.621,12.139-7.567,17.561-12.24        C275.615,142.046,275.373,142.046,275.15,142.025z"/>
					</g>
				</g>
			</g>
			<g>
				<g>
					<path style="fill:#FFDFE5;" d="M408.313,208.748c-1.072-4.714-21.405-3.985-50.295,0.041c0.081,0.303,0.162,0.627,0.243,0.951       c16.003-2.205,28.607-3.298,37.044-3.298c3.723,0,6.636,0.202,8.659,0.627c2.043,0.425,3.196,1.072,3.378,1.902       c0.283,1.234-1.598,6.211-37.469,18.289c-2.832,0.951-5.766,1.922-8.821,2.893c-24.055,7.668-54.463,15.781-86.833,23.185       c-33.382,7.627-62.515,13.07-85.397,16.408c-32.957,4.795-52.926,5.199-53.775,1.416c-0.85-3.723,16.61-11.775,47.281-21.506       c-0.061-0.324-0.121-0.627-0.182-0.951c-29.295,9.266-49.203,17.804-48.09,22.679c0.526,2.246,5.442,3.257,13.596,3.257       c9.832,0,24.379-1.477,41.596-3.986c24.925-3.662,55.414-9.529,85.195-16.327c32.289-7.364,62.596-15.477,86.631-23.125       c3.156-1.011,6.191-2.003,9.124-2.994c17.541-5.908,38.156-13.919,38.156-19.058       C408.354,209.011,408.354,208.89,408.313,208.748z"/>
				</g>
			</g>
		</g>
		<g>
			
				<ellipse transform="matrix(0.9571 -0.2898 0.2898 0.9571 -12.7124 73.6762)" style="fill:#7F6EEC;" cx="242.436" cy="79.766" rx="40.291" ry="40.291"/>
		</g>
		<g>
			
				<ellipse transform="matrix(0.9966 -0.0825 0.0825 0.9966 -19.9945 35.7369)" style="fill:#FFD461;" cx="422.539" cy="259.869" rx="40.291" ry="40.291"/>
		</g>
	</g>
</g>















</svg>
