<?xml version="1.0" encoding="UTF-8"?>
<!-- Generator: Adobe Illustrator 25.2.3, SVG Export Plug-In . SVG Version: 6.00 Build 0)  -->
<svg xmlns="http://www.w3.org/2000/svg" xmlns:xlink="http://www.w3.org/1999/xlink" version="1.1" id="Capa_1" x="0px" y="0px" viewBox="0 0 512 512" style="enable-background:new 0 0 512 512;" xml:space="preserve" width="512" height="512">
<g>
	<g>
		<path style="fill:#FFFFFF;" d="M18.154,466.41c-7.36,0-13.474-5.68-14.013-13.021l-0.608-8.516    c-0.172-2.395-0.318-4.766-0.464-7.138c-0.884-13.89-1.607-27.758-2.077-41.645c-0.373-9.895-0.633-20.006-0.773-29.909    c-0.002-0.041-0.002-0.166-0.002-0.27c-0.226-12.148-0.274-23.304-0.144-34.087c-0.011-0.502-0.007-1.012-0.002-1.516l0.005-0.439    c0-0.407,0.007-0.814,0.023-1.221c0,0,0.071-5.354,0.073-5.422c0.048-3.36,0.117-6.742,0.188-10.077    c0.51-22.6,1.573-49.293,5.606-76.165c2.639-17.813,6.288-34.471,11.825-51.161c10.528-32.104,26.172-59.08,46.484-80.146    c2.267-2.352,4.359-4.398,6.388-6.246c1.153-1.116,2.306-2.161,3.483-3.179c17.206-15.25,37.974-27.406,61.596-36.017    c1.468-0.555,3.104-1.135,4.771-1.667c22.357-7.597,46.619-11.905,72.126-12.804c0.096-0.003,0.778-0.026,1.006-0.031    c2.994-0.096,5.988-0.143,8.982-0.143c8.95,0,18.016,0.431,26.945,1.281c9.048,0.845,17.346,2.034,25.335,3.634    c0.297,0.041,0.592,0.093,0.887,0.153c12.387,2.562,23.274,5.986,33.28,10.472c10.061,4.495,19.683,10.299,28.699,17.306    c8.414-4.414,17.353-7.345,26.687-8.742c4.117-0.611,8.284-0.918,12.403-0.918c6.82,0,13.677,0.84,20.383,2.497    c9.032,2.2,17.909,5.892,26.337,10.961c2.388,1.421,4.833,3.027,7.278,4.781c2.685,0.995,5.023,2.797,6.669,5.173    c4.837,4.06,9.414,8.577,13.643,13.473c29.451,34.331,40.852,82.497,32.668,126.68c-2.418,12.913-6.532,25.131-12.223,36.264    c-2.161,4.231-4.545,8.289-7.134,12.14c1.853,1.962,3.687,4.039,5.43,6.151c5.669,6.799,10.794,14.33,15.134,22.073    c4.282,7.53,8.147,15.881,11.496,24.825c10.05,26.905,13.708,56.068,14.805,84.6l0.181,4.96c0.046,1.466,0.16,5.829,0.16,5.829    l0.082,4.055c0.089,4.879,0.137,9.791,0.16,14.697v2.459l0.057,1.365c0.165,3.828-1.242,7.556-3.893,10.322    c-2.651,2.765-6.315,4.329-10.146,4.329H18.154z"/>
	</g>
	<g>
		<g>
			<path style="fill:#3C1C87;" d="M492.12,450.068c0,0-470.062,0.177-470.273-2.657c-0.187-2.529-6.421-100.965-7.92-115.693     c-0.024-0.609,0-1.241,0-1.85c0-0.281,0-0.562,0.023-0.843v-0.843c0.023-1.522,0.047-3.044,0.07-4.567v-0.187     c0.047-3.326,0.117-6.675,0.187-9.977c0.562-24.99,1.78-50.05,5.504-74.712c0.023-0.304,0.07-0.609,0.14-0.914     c0.234-1.686,0.515-3.372,0.796-5.059c1.358-8.221,2.998-16.371,5.036-24.475c0.562-2.272,1.171-4.544,1.803-6.792     c0.094-0.351,0.187-0.679,0.281-1.03c0.984-3.419,2.038-6.839,3.162-10.235c9.087-27.706,23.093-53.891,43.258-74.805     c1.921-1.991,3.888-3.935,5.902-5.761c1.007-0.984,2.014-1.897,3.045-2.787c16.675-14.778,36.208-25.786,57.217-33.444     c1.428-0.539,2.881-1.054,4.356-1.522c21.734-7.401,44.968-11.289,68.224-12.109c0.281,0,0.539-0.023,0.82-0.023     c11.476-0.375,22.975,0,34.287,1.077c8.033,0.75,16.067,1.85,24.006,3.443c0.234,0.047,0.469,0.094,0.703,0.117     c10.422,2.154,20.657,5.176,30.376,9.532c15.621,6.979,29.229,17.003,40.892,29.135c0.234,0.234,0.421,0.445,0.609,0.656     c1.569,1.639,3.091,3.326,4.567,5.059c0.164,0.164,0.305,0.328,0.422,0.492c0.749,0.82,1.452,1.663,2.155,2.506     c4.028,4.848,7.799,9.954,11.335,15.27c0.445,0.656,0.867,1.335,1.288,1.991c0.117,0.164,0.211,0.328,0.305,0.492     c2.412,3.794,4.708,7.658,6.886,11.617c2.085,3.794,4.028,7.682,5.902,11.593c0.843,1.803,1.663,3.607,2.459,5.41     c0.094,0.211,0.187,0.398,0.258,0.609c0.258,0.562,0.515,1.124,0.749,1.686c0.047,0.094,0.07,0.187,0.117,0.281     c0.586,1.382,1.171,2.764,1.733,4.145c0.539,1.335,1.077,2.67,1.593,4.005c0.094,0.211,0.164,0.422,0.234,0.632     c2.646,6.815,4.988,13.771,7.003,20.751c0.07,0.187,0.141,0.398,0.187,0.586c0.164,0.585,0.328,1.148,0.492,1.733     c1.101,3.841,2.085,7.682,2.998,11.523c0.211,0.89,0.422,1.803,0.632,2.717c0.023,0.117,0.047,0.211,0.07,0.328     c0.023,0.117,0.047,0.234,0.07,0.351c0.023,0.07,0.047,0.164,0.07,0.258c0.141,0.515,0.258,1.031,0.351,1.569     c0.89,3.771,1.757,7.565,2.717,11.312c0.538,2.108,1.101,4.216,1.71,6.3c0.468,1.639,0.96,3.279,1.522,4.918     c0.07,0.211,0.141,0.421,0.234,0.656c0.245,0.764,0.489,1.528,0.838,2.293c0.193,0.729,0.504,1.42,0.761,2.129     c0.047,0.133,0.113,0.246,0.158,0.38c1.522,3.817,3.302,7.494,5.48,10.984c0.515,0.843,1.054,1.686,1.616,2.506     c3.232,4.708,7.143,8.83,11.336,12.624c0.187,0.187,0.398,0.375,0.609,0.562c0.047,0.07,0.094,0.117,0.141,0.164l0.023,0.023     c0.164,0.141,0.305,0.281,0.469,0.398c6.23,5.574,13.069,10.586,19.509,15.973C444.772,281.552,492.12,450.068,492.12,450.068z"/>
		</g>
		<g>
			<g>
				<path style="fill:#FF85CA;" d="M396.667,397.743l-42.735-47.725c-4.465,0.527-8.878,1.639-13.031,3.249      c-22.156,8.595-39.487,29.276-40.33,53.024c-5.832-4.38-13.654-8.946-20.868-9.93c-7.377-0.983-14.474-0.398-21.547,1.405      c-9.649,2.436-18.572,8.783-24.732,16.582c-3.747-18.76-17.331-35.272-35.037-42.555c-17.682-7.307-39.276-6.909-55.155,3.771      c-8.502-22.156-29.978-37.871-53.188-42.836c-23.21-4.942-50.167-3.185-71.667,6.839c-1.288-2.764-2.787-5.387-4.45-7.846      c-0.141,11.359-0.07,22.695,0.141,34.053v0.211c0.141,9.907,0.398,19.814,0.773,29.721c0.023,0.913,0.047,1.827,0.094,2.764      c0.047,1.686,0.117,3.372,0.187,5.035c0.117,2.647,0.234,5.316,0.375,7.94c0.164,3.419,0.305,6.815,0.492,10.235      c0.211,3.419,0.398,6.839,0.586,10.211c0.258,3.982,0.492,7.987,0.773,11.945c0.211,2.834,0.398,5.668,0.609,8.525h378.008      L396.667,397.743z"/>
			</g>
			<g>
				<path style="fill:#7F6EEC;" d="M497.679,448.002l0.07,4.356H395.963c-26.91-16.16-44.921-45.647-44.921-79.325      c0-51.057,41.407-92.465,92.488-92.465h0.094c1.148,0.984,2.295,1.944,3.419,2.951c0.305,0.258,0.562,0.515,0.843,0.796      c0.141,0.094,0.281,0.234,0.398,0.351c0.398,0.375,0.796,0.75,1.194,1.148c0.82,0.75,1.616,1.522,2.389,2.319      c2.459,2.459,4.801,5.035,7.003,7.705c5.106,6.066,9.556,12.624,13.467,19.533c0.047,0.094,0.07,0.164,0.117,0.234      c4.192,7.331,7.729,15.106,10.727,23.116v0.023c0.117,0.351,0.258,0.703,0.375,1.054c2.67,7.26,4.848,14.661,6.605,22.156      C496.695,390.06,497.538,419.148,497.679,448.002z"/>
			</g>
			<g>
				
					<ellipse transform="matrix(0.5321 -0.8467 0.8467 0.5321 -54.8347 185.2318)" style="fill:#FFD461;" cx="140.167" cy="142.226" rx="36.676" ry="36.676"/>
			</g>
		</g>
		<g style="opacity:0.41;">
			<g>
				<path style="fill:#FFBCC9;" d="M497.046,417.111c-2.366-0.445-4.684-1.242-6.932-2.014c-3.443-1.171-7.003-2.365-10.68-2.436      h-0.351c-7.331,0-13.841,4.309-19.79,8.97c-8.9,7.003-17.425,14.872-25.669,22.507c-2.951,2.717-5.949,5.48-8.947,8.22h0.843      c2.857-2.576,5.691-5.199,8.502-7.799c8.221-7.612,16.746-15.481,25.646-22.46c5.855-4.614,12.272-8.853,19.415-8.853h0.328      c3.607,0.07,7.12,1.265,10.516,2.413c2.295,0.773,4.684,1.593,7.143,2.061C497.07,417.508,497.046,417.298,497.046,417.111z       M489.201,358.184c-0.023-0.258-0.094-0.492-0.164-0.726c-24.334,28.643-57.896,49.652-90.614,70.145      c-11.71,7.331-23.819,14.919-35.248,22.695c-0.843,0.586-1.827,1.265-2.881,2.061h1.007c0.796-0.586,1.546-1.124,2.202-1.569      c11.406-7.776,23.514-15.364,35.225-22.694C431.352,407.648,464.843,386.687,489.201,358.184z M470.956,313.006      c-0.492,0.281-0.984,0.539-1.499,0.82c-10.071,5.27-20.774,9.345-31.571,12.928c10.563-5.527,21.594-10.188,32.929-13.982      c-0.094-0.164-0.187-0.351-0.305-0.515c-12.413,4.169-24.404,9.368-35.904,15.575c-4.872,1.593-9.767,3.092-14.615,4.59      c-6.511,1.991-13.209,4.052-19.743,6.253c-74.15,25.06-137.971,73.634-185.608,113.684h0.913      c47.544-39.932,111.084-88.178,184.882-113.121c6.511-2.202,13.232-4.262,19.72-6.253c3.888-1.218,7.822-2.412,11.757-3.677      c-14.544,8.127-28.198,17.846-40.681,29.065c-1.475,1.335-2.951,2.67-4.427,4.052c-6.511,5.972-13.232,12.155-21.149,16.277      c-7.846,4.098-16.675,6.089-25.224,7.986c-4.918,1.101-10.001,2.249-14.849,3.771c-30.236,9.486-52.368,33.679-73.751,57.053      c-1.475,1.616-2.951,3.232-4.45,4.848h0.796c1.382-1.499,2.717-2.974,4.075-4.45c21.36-23.327,43.422-47.45,73.494-56.889      c4.848-1.522,9.907-2.67,14.802-3.747c8.595-1.921,17.472-3.911,25.388-8.033c7.963-4.169,14.732-10.375,21.242-16.394      c1.476-1.358,2.951-2.717,4.45-4.052c13.209-11.828,27.73-22.039,43.211-30.424c11.898-3.864,23.796-8.22,34.873-14.029      c0.515-0.281,1.03-0.538,1.546-0.82C471.167,313.357,471.073,313.17,470.956,313.006z M423.646,264.198l-0.023-0.023      c-7.471,3.466-15.13,6.558-22.952,9.274c-1.639,0.586-3.302,1.148-4.965,1.71c-9.415,3.162-19.158,6.441-27.144,12.483      c-5.715,4.333-10.352,9.977-14.848,15.434c-1.85,2.225-3.748,4.52-5.691,6.722c-12.788,14.357-29.182,25.224-47.38,31.43      c-5.012,1.71-10.328,3.162-15.481,4.544c-16.09,4.38-32.719,8.9-42.743,21.969c-4.661,6.089-7.471,13.654-10.188,20.961      c-3.911,10.539-7.612,20.493-16.441,26.442c-5.691,3.841-12.671,5.223-19.416,6.581c-0.866,0.164-1.71,0.328-2.553,0.492      c-28.151,5.762-54.781,17.846-80.567,30.142h1.429c25.388-12.108,51.595-23.889,79.255-29.557      c0.843-0.164,1.686-0.351,2.553-0.515c6.792-1.358,13.841-2.74,19.626-6.651c8.994-6.066,12.905-16.582,16.675-26.746      c2.693-7.26,5.48-14.755,10.094-20.798c9.907-12.905,26.442-17.401,42.438-21.758c5.152-1.382,10.492-2.834,15.504-4.544      c18.292-6.253,34.78-17.167,47.637-31.618c1.944-2.178,3.865-4.497,5.691-6.722c4.473-5.434,9.087-11.031,14.755-15.34      c7.916-5.996,17.612-9.251,26.98-12.413c1.663-0.562,3.326-1.124,4.965-1.686c7.916-2.764,15.692-5.902,23.257-9.415      C423.951,264.479,423.81,264.338,423.646,264.198z M364.392,129.061C351.3,139.132,338.7,152.13,326.357,168.22      c-11.663,15.247-22.039,31.758-32.063,47.731c-5.621,8.947-11.429,18.198-17.402,27.121      c-9.321,13.912-20.025,27.332-35.271,31.36c-3.7,0.96-7.588,1.359-11.336,1.71c-4.098,0.398-8.314,0.82-12.342,1.991      c-17.191,5.059-25.505,20.915-34.311,37.707c-6.3,12.038-12.811,24.474-22.929,32.765      c-12.249,10.024-28.386,12.811-44.007,15.504c-12.928,2.248-26.278,4.567-37.707,10.914c-9.79,5.434-17.753,13.654-25.458,21.57      c-5.176,5.34-10.516,10.867-16.394,15.504c-6.136,4.872-13.607,8.525-21.102,10.282c0,0.211,0.023,0.398,0.023,0.609      c7.635-1.78,15.2-5.48,21.453-10.422c5.902-4.684,11.265-10.211,16.441-15.551c7.682-7.916,15.598-16.09,25.318-21.5      c11.336-6.277,24.638-8.595,37.52-10.82c15.692-2.717,31.922-5.527,44.288-15.645c10.188-8.338,16.746-20.844,23.093-32.929      c8.736-16.699,16.98-32.438,33.936-37.426c3.958-1.148,8.174-1.569,12.226-1.967c3.794-0.375,7.705-0.75,11.453-1.733      c15.411-4.075,26.231-17.589,35.599-31.594c5.972-8.923,11.78-18.174,17.401-27.121c10.024-15.973,20.399-32.484,32.039-47.684      c12.272-16.02,24.826-28.971,37.871-39.042C364.603,129.389,364.509,129.225,364.392,129.061z M396.01,207.168      c-0.023-0.117-0.047-0.211-0.07-0.328c-12.507,12.764-27.191,23.374-43.328,31.149c-5.949,2.857-12.249,5.434-18.315,7.893      c-14.263,5.808-29.018,11.804-40.517,22.249c-4.286,3.888-8.22,8.455-12.015,12.858c-7.916,9.204-16.09,18.69-27.66,22.062      c-3.677,1.077-7.588,1.452-11.382,1.827c-4.192,0.422-8.549,0.843-12.624,2.225c-11.617,3.911-19.064,14.38-26.278,24.498      c-0.96,1.335-1.921,2.67-2.857,3.982c-19.463,26.699-45.857,47.567-76.351,60.355c-13.725,5.738-28.339,9.837-42.462,13.795      c-10.141,2.857-20.634,5.785-30.728,9.321c-13.467,4.684-24.943,10.164-34.616,16.465c0,0.234,0.023,0.468,0.047,0.679      c9.696-6.37,21.242-11.851,34.756-16.582c10.094-3.537,20.563-6.488,30.704-9.322c14.146-3.958,28.76-8.057,42.532-13.818      c30.587-12.811,57.053-33.749,76.585-60.542c0.96-1.311,1.897-2.646,2.857-3.981c7.167-10.071,14.568-20.446,25.997-24.287      c4.005-1.358,8.314-1.78,12.507-2.201c3.794-0.375,7.752-0.773,11.476-1.85c11.734-3.419,19.978-12.975,27.941-22.226      c3.771-4.403,7.706-8.97,11.945-12.811c11.453-10.375,26.137-16.371,40.354-22.156c6.089-2.459,12.39-5.035,18.362-7.916      c16.09-7.752,30.728-18.315,43.211-30.985C396.057,207.403,396.033,207.286,396.01,207.168z M272.045,64.303      c-1.873,1.827-3.724,3.654-5.551,5.48c-4.59,4.59-9.345,9.322-14.357,13.631c-18.479,15.879-41.103,26.372-62.978,36.536      c-8.197,3.794-16.652,7.729-24.779,11.874c-48.34,24.709-90.614,60.449-131.483,94.994c-4.309,3.654-8.665,7.331-13.045,11.008      c-0.07,0.305-0.117,0.609-0.14,0.914c4.544-3.841,9.064-7.659,13.56-11.453c40.869-34.545,83.096-70.262,131.366-94.947      c8.127-4.145,16.582-8.057,24.756-11.851c21.922-10.188,44.593-20.704,63.142-36.63c5.012-4.309,9.766-9.064,14.38-13.678      c1.921-1.921,3.864-3.841,5.832-5.761C272.513,64.397,272.279,64.35,272.045,64.303z M349.192,108.802      c-2.927,5.551-6.675,11.148-11.195,16.793c-25.388,31.547-63.236,51.478-96.61,69.044l-132.701,69.887      c-24.404,12.835-50.05,26.793-72.135,43.726c-8.431,6.487-15.973,13.115-22.601,19.931v0.843      c25.013-25.716,59.16-45.131,94.994-63.985l132.701-69.864c33.444-17.612,71.339-37.566,96.797-69.231      c4.52-5.574,8.221-11.148,11.172-16.652C349.497,109.13,349.356,108.966,349.192,108.802z M140.351,73.437      c-19.72,9.977-38.831,21.172-57.217,33.444c-1.03,0.89-2.038,1.803-3.045,2.787c20.657-14.029,42.251-26.653,64.617-37.754      C143.232,72.383,141.78,72.898,140.351,73.437z M212.931,59.806c-1.476,1.522-3.279,2.928-5.129,4.122      C144.497,104.657,84.142,150.444,27.768,200.47c-0.094,0.351-0.187,0.679-0.281,1.03      c56.537-50.237,117.103-96.212,180.619-137.08c2.061-1.335,4.052-2.928,5.644-4.637      C213.47,59.783,213.212,59.806,212.931,59.806z"/>
			</g>
		</g>
		<g>
			<g>
				<g>
					<g>
						<g>
							<polygon style="fill:#CD7CB5;" points="131.128,361.032 129.304,363.587 110.457,452.358 115.574,452.358 134.971,361.015                 "/>
						</g>
						<g>
							<path style="fill:#3C1C87;" d="M137.018,351.329l-2.047,9.686c-1.972,0.948-4.044,1.897-5.667,2.571l2.821-13.281         L137.018,351.329z"/>
						</g>
					</g>
					<g>
						<g>
							<polygon style="fill:#CD7CB5;" points="195.908,351.654 192.645,348.186 189.567,348.783 211.56,452.358 217.277,452.358                 "/>
						</g>
						<g>
							<path style="fill:#3C1C87;" d="M187.269,337.943l2.291,10.838c2.207,1.062,4.525,2.123,6.341,2.878l-3.157-14.861         L187.269,337.943z"/>
						</g>
					</g>
				</g>
				<g>
					<g>
						<g>
							<path style="fill:#CD7CB5;" d="M359.746,315.107l-94.039,15.977l-24.892,0.469l-14.377,6.222l-86.649,14.729l-15.506-2.729         l-11.43,7.297l-73.344,12.482l-12.205-7.381c-0.524-2.721,5.614-18.082,5.614-18.082l63.458-51.65l11.301-2.328l12.39-16.945         l75.042-61.086l16.861-5.24l13.57-19.524l67.827-55.195c0,0,30.913,9.099,32.985,15.889l49.156,135.22         C375.533,283.28,359.746,315.107,359.746,315.107z"/>
						</g>
						<g>
							<path style="fill:#FFBCC9;" d="M391.825,308.941H391.8c-0.075,0.05-0.15,0.1-0.225,0.125         c-0.948,0.574-2.047,0.973-3.22,1.173l-28.609,4.868c-5.117-1.997-10.11-4.344-14.928-6.915         c-6.765-3.62-13.33-7.739-19.397-12.482c-4.893-3.794-9.487-8.013-13.605-12.682c-10.16-11.483-17.225-25.438-22.343-39.917         c-12.632-35.873-12.981-77.039,3.894-110.99l26.711-21.768c0.025-0.025,0.05-0.025,0.05-0.025l4.094-3.345         c5.517-4.493,13.805-1.947,15.877,4.843c0,0,56.169,185.781,56.194,185.831C397.541,302.126,395.569,306.694,391.825,308.941         z"/>
						</g>
						<g>
							<path style="fill:#3C1C87;" d="M469.837,229.705c-2.197,11.733-5.916,22.692-10.934,32.503         c-7.664,15.029-18.373,27.386-31.33,35.574c-5.692,3.645-11.808,6.466-18.298,8.363c-3.021,0.899-6.141,1.598-9.337,2.072         c-2.721,0.424-5.417,0.649-8.113,0.724H391.8c0,0-0.025,0-0.025,0.025c-0.025,0-0.05,0-0.05-0.025         c-10.06,0.3-19.971-1.573-29.357-5.342c-4.818-1.897-9.511-4.294-14.03-7.19c-2.671-1.672-5.268-3.495-7.789-5.492         c-9.761-7.664-18.448-17.474-25.638-28.983c-6.116-9.786-11.109-20.77-14.679-32.703c-1.947-6.491-3.47-13.256-4.518-20.245         c-0.525-3.445-0.899-6.865-1.173-10.26c-0.524-6.716-0.574-13.331-0.2-19.772c1.623-26.961,10.984-51.201,25.738-68.601         c0.025-0.025,0.05-0.025,0.05-0.025c12.157-14.329,28.01-24.015,46.208-26.736c9.262-1.373,18.448-0.874,27.335,1.323         c7.789,1.897,15.328,5.068,22.467,9.361c3.021,1.798,5.967,3.82,8.837,6.017         C425.077,100.367,470.236,227.608,469.837,229.705z"/>
						</g>
						<g>
							<g style="opacity:0.12;">
								<path style="fill:#CD7CB5;" d="M405.954,102.914c-0.899,3.171-0.249,6.565,0.275,9.836          c1.523,9.412,1.622,20.171-4.893,27.136c-7.439,7.939-20.296,7.439-30.581,3.894c-7.314-2.521-15.128-6.29-22.442-3.719          c-7.09,2.521-10.984,10.36-11.933,17.824c-0.974,7.464,0.25,15.053-0.274,22.567c-0.524,7.514-3.37,15.553-9.936,19.247          c-9.286,5.218-21.02-0.524-31.629-0.973c-0.524-6.716-0.574-13.331-0.2-19.772c0.275,0.05,0.549,0.1,0.824,0.15          c6.615,1.023,14.03-0.325,18.523-5.268c4.244-4.693,5.043-11.458,6.191-17.699c1.648-8.887,4.518-17.799,10.011-24.989          c5.517-7.214,13.98-12.532,23.042-12.607c8.388-0.075,16.95,4.194,24.889,1.448c7.939-2.746,12.057-11.534,13.63-19.772          c0.974-5.043,1.298-10.26,2.222-15.303c7.789,1.897,15.328,5.068,22.467,9.361          C411.446,95.499,407.252,98.37,405.954,102.914z"/>
							</g>
							<g style="opacity:0.12;">
								<path style="fill:#CD7CB5;" d="M467.316,166.996c-0.949-0.649-1.872-1.323-2.771-2.022          c-3.719-2.821-7.489-6.141-12.132-6.591c-7.664-0.724-13.805,6.79-15.602,14.279c-1.773,7.489-0.799,15.428-2.372,22.942          c-2.172,10.31-9.386,19.422-18.897,23.941c-9.536,4.519-21.12,4.369-30.531-0.374c-3.62-1.822-6.94-4.269-10.735-5.717          c-3.769-1.448-8.363-1.698-11.633,0.724c-2.272,1.698-3.52,4.419-4.418,7.115c-3.071,9.212-3.046,19.522-7.964,27.885          c-6.216,10.66-19.846,15.777-31.979,13.605c-0.999-0.175-2.147-0.474-3.37-0.849c-6.116-9.786-11.109-20.77-14.679-32.703          c2.397-0.524,4.818-0.649,6.79-0.474c7.514,0.674,14.03,5.841,21.719,5.367c5.167-0.299,9.91-3.32,13.106-7.389          c3.221-4.044,5.018-9.062,6.091-14.13c0.899-4.319,1.323-8.787,2.721-12.981c1.423-4.219,4.044-8.263,8.088-10.111          c9.611-4.369,20.021,5.617,30.581,5.093c6.566-0.325,12.307-4.768,16.077-10.135c3.744-5.367,5.941-11.658,8.512-17.699          c4.893-11.508,11.583-22.592,21.419-30.331c4.594-3.595,10.085-6.441,15.852-6.89          C458.154,140.609,463.671,153.241,467.316,166.996z"/>
							</g>
							<g style="opacity:0.12;">
								<path style="fill:#CD7CB5;" d="M472.184,203.943c0,1.498-0.025,2.996-0.075,4.494v0.674          c-0.025,1.098-0.075,2.197-0.15,3.295c0,0.025,0,0.025,0,0.025c-0.05,0.674-0.1,1.323-0.15,1.972          c-0.075,1.198-0.175,2.421-0.3,3.62c-0.125,1.398-0.299,2.796-0.499,4.169c-0.225,0.15-0.449,0.299-0.649,0.474          c-0.324,0.25-0.649,0.499-0.973,0.774h-0.025c-2.996,2.621-5.392,6.216-6.89,10.061c-0.474,1.223-0.874,2.447-1.173,3.695          c-1.947,8.163-1.248,16.726-2.397,25.014c-7.664,15.029-18.373,27.386-31.33,35.574          c-10.035,2.646-21.044,1.573-30.331-3.095c-0.749-0.375-1.473-0.774-2.197-1.173c-3.67-2.072-7.165-4.418-11.059-5.917          c-4.493-1.697-9.861-2.072-13.83,0.549c-0.2,0.1-0.374,0.225-0.549,0.35c-2.821,2.097-4.368,5.467-5.492,8.787          c-0.699,2.072-1.248,4.194-1.747,6.316c-4.818-1.897-9.511-4.294-14.03-7.19c1.298-2.896,2.222-5.966,2.896-9.062          c0.075-0.25,0.125-0.524,0.175-0.774c1.124-5.367,1.623-10.884,3.37-16.077c1.748-5.192,4.993-10.21,9.986-12.482          c6.466-2.946,13.231-0.624,20.146,1.997c5.817,2.172,11.733,4.593,17.675,4.294c8.088-0.399,15.203-5.891,19.846-12.532          c2.721-3.869,4.768-8.138,6.64-12.482c1.323-3.12,2.571-6.266,3.895-9.386c0.35-0.824,0.724-1.647,1.074-2.471          c0.199-0.424,0.399-0.874,0.624-1.323c1.124-2.496,2.372-4.993,3.67-7.414c3.645-6.79,7.939-13.206,13.106-18.823          c2.346-2.571,4.893-4.968,7.639-7.14c0.125-0.125,0.25-0.225,0.374-0.325c3.47-2.746,7.389-5.118,11.533-6.69          c0.2,1.498,0.374,2.995,0.499,4.493c0.025,0.2,0.05,0.424,0.075,0.624c0.125,1.223,0.225,2.471,0.299,3.695          c0.025,0.25,0.025,0.499,0.05,0.724c0.075,1.173,0.125,2.346,0.175,3.495c0.025,0.375,0.025,0.749,0.025,1.123          C472.158,201.247,472.184,202.595,472.184,203.943z"/>
							</g>
						</g>
					</g>
					<g>
						<path style="fill:#FFFFFF;" d="M39.509,369.553l-7.564,1.298c-4.019,0.674-7.838-1.972-8.613-5.942l-1.348-6.815        c-0.524-2.721,0.474-5.492,2.621-7.24l8.313-6.765c-0.549,3.819-0.3,7.764,0.574,11.508        C34.666,360.541,36.838,365.209,39.509,369.553z"/>
					</g>
					<g>
						<path style="fill:#FFBCC9;" d="M139.789,352.503l-26.936,4.568c-7.489-8.538-12.981-18.798-15.852-29.782        c-2.995-11.334-3.195-23.416-0.624-34.85l23.691-19.272C116.073,300.753,123.288,330.035,139.789,352.503z"/>
					</g>
					<g>
						<path style="fill:#FFBCC9;" d="M265.707,331.084l-39.269,6.69c-4.718-4.119-9.037-8.687-12.931-13.63        c-8.662-10.959-15.153-23.716-19.072-37.146c-6.915-23.566-6.266-49.029,0.075-72.745c0.2-0.724,0.399-1.448,0.599-2.172        l30.431-24.764c-5.417,25.389-4.993,52.025,1.348,77.189c4.643,18.374,12.482,36.073,23.841,51.251        c1.173,1.598,2.396,3.146,3.645,4.668C257.619,324.318,261.463,328.038,265.707,331.084z"/>
					</g>
					<g style="opacity:0.32;">
						<path style="fill:#3C1C87;" d="M409.274,306.145c-3.021,0.899-6.141,1.598-9.337,2.072c-2.721,0.424-5.417,0.649-8.113,0.724        H391.8c-0.075,0.05-0.15,0.1-0.225,0.125c-0.948,0.574-2.047,0.973-3.22,1.173l-28.609,4.868l-94.039,15.977l-39.269,6.69        l-86.649,14.729l-26.936,4.568l-73.344,12.482l-7.564,1.298c-3.994,0.674-7.764-1.923-8.588-5.842        c4.194-0.949,8.263-1.548,10.984-2.222c25.363-6.415,50.902-12.058,76.514-17.425c34.2-7.165,68.501-13.855,102.651-21.219        c12.432-2.671,24.839-5.442,37.221-8.388c4.518-1.048,9.012-2.147,13.53-3.245c20.52-5.043,40.966-10.56,61.162-16.801        c5.068-1.523,10.11-3.145,15.128-4.793c3.021-0.973,6.041-1.997,9.062-3.02c3.545-1.198,7.165-2.447,10.909-2.272        c2.921,0.125,5.717,1.124,8.463,2.097c6.84,2.421,13.68,4.868,20.52,7.314c2.247,0.799,4.543,1.648,6.79,2.621        C401.211,299.754,405.929,302.425,409.274,306.145z"/>
					</g>
				</g>
			</g>
			<g>
				<g>
					<path style="fill:#CD7CB5;" d="M472.108,208.436v0.674c-0.05,1.772-0.15,3.545-0.299,5.292       c-0.175,2.771-0.475,5.517-0.849,8.213c0,0.225-0.025,0.45-0.075,0.674c-0.3,2.172-0.649,4.319-1.049,6.416       c-6.665,3.969-14.055,6.865-21.893,8.413c-0.374,0.1-0.774,0.175-1.173,0.225c-4.094,0.749-8.313,1.148-12.632,1.148       c-2.297,0-4.568-0.1-6.79-0.325c-0.225-0.025-0.449-0.05-0.649-0.075c-12.357-1.298-23.741-5.817-33.327-12.732       c-0.175-0.1-0.35-0.225-0.524-0.375c-0.549-0.399-1.098-0.824-1.648-1.273c-0.125-0.075-0.274-0.175-0.399-0.325       c-1.423-1.098-2.796-2.272-4.119-3.495c-1.448-1.323-2.821-2.721-4.169-4.169c-1.723-1.897-3.345-3.894-4.843-5.966       c-1.174-1.573-2.247-3.195-3.271-4.868c-1.747-2.846-3.27-5.841-4.593-8.937c-0.1-0.2-0.2-0.425-0.275-0.624       c-0.974-2.371-1.822-4.793-2.546-7.29c-0.075-0.249-0.15-0.499-0.2-0.749c-1.673-5.942-2.546-12.232-2.546-18.698       c0-1.073,0.025-2.147,0.1-3.195c-0.025-0.325,0-0.649,0.05-0.973c0.374-6.765,1.723-13.256,3.92-19.372       c0.1-0.325,0.224-0.674,0.374-0.999c8.837-23.566,30.057-41.115,55.72-44.685c0.2-0.025,0.375-0.05,0.574-0.075l0.299,0.225       c5.442,4.219,10.56,9.087,15.278,14.579c0.15,0.15,0.3,0.324,0.424,0.499c1.672,1.947,3.27,3.944,4.793,6.041       c0.15,0.175,0.274,0.325,0.374,0.499c9.636,13.056,17.125,28.833,21.544,46.358c0.224,0.849,0.424,1.673,0.624,2.522       c0.075,0.225,0.125,0.449,0.15,0.699c0.524,2.172,0.974,4.369,1.373,6.59c0.05,0.299,0.1,0.624,0.15,0.924       c0.225,1.198,0.424,2.396,0.599,3.595C471.884,191.511,472.383,200.098,472.108,208.436z"/>
				</g>
				<g>
					<g>
						<path style="fill:#FFBCC9;" d="M425.276,100.517c-3.47,2.297-7.015,4.818-10.634,7.639        c-6.616,5.143-13.007,10.734-19.222,16.151c-6.066,5.268-12.307,10.735-18.773,15.777c-2.646,2.047-5.417,4.119-8.338,5.966        c0.1-0.325,0.224-0.674,0.374-0.999c2.646-1.722,5.143-3.595,7.564-5.492c6.441-5.018,12.707-10.485,18.748-15.752        c6.216-5.417,12.632-11.034,19.247-16.152c3.47-2.671,6.84-5.117,10.16-7.289c0.2-0.025,0.375-0.05,0.574-0.075        L425.276,100.517z"/>
					</g>
					<g>
						<path style="fill:#FFBCC9;" d="M440.979,115.596c-0.849,0.424-1.723,0.799-2.571,1.198c-1.473,0.674-2.921,1.323-4.368,1.997        c-25.488,11.858-49.229,28.109-69.699,47.606c-0.025-0.325,0-0.649,0.05-0.973c20.395-19.322,44.011-35.424,69.375-47.207        c1.448-0.674,2.921-1.348,4.369-2.022c0.799-0.374,1.623-0.724,2.422-1.098C440.704,115.246,440.854,115.42,440.979,115.596z"/>
					</g>
					<g>
						<path style="fill:#FFBCC9;" d="M446.146,122.136c-0.724,0.699-1.398,1.423-2.047,2.147c-3.345,3.744-5.916,8.163-8.413,12.432        c-2.047,3.495-4.144,7.115-6.665,10.36c-8.438,10.859-21.02,17.275-33.177,23.466c-9.511,4.843-19.322,9.861-27.236,16.975        c-0.524,0.499-1.074,0.999-1.623,1.523c-0.075-0.249-0.15-0.499-0.2-0.749c0.474-0.425,0.924-0.849,1.398-1.273        c7.963-7.165,17.824-12.182,27.361-17.05c12.082-6.166,24.589-12.532,32.952-23.291c2.496-3.22,4.593-6.815,6.615-10.285        c2.521-4.294,5.118-8.762,8.488-12.532c0.674-0.774,1.398-1.498,2.172-2.222C445.921,121.811,446.046,121.961,446.146,122.136        z"/>
					</g>
					<g>
						<path style="fill:#FFBCC9;" d="M468.464,171.714c-4.069,3.195-8.188,5.892-12.357,8.113        c-8.562,4.543-17.874,7.339-27.086,9.062c-10.71,1.997-21.294,2.546-30.481,2.696l-1.897,0.05        c-5.991,0.075-12.182,0.175-18.024,1.647c-3.32,0.824-6.291,2.072-8.812,3.67c-0.1-0.2-0.2-0.425-0.275-0.624        c2.571-1.598,5.567-2.846,8.912-3.695c5.941-1.473,12.157-1.573,18.174-1.673l1.922-0.025        c9.761-0.175,21.12-0.774,32.503-3.121c8.438-1.698,16.901-4.394,24.764-8.563c4.244-2.246,8.388-4.993,12.507-8.238        C468.389,171.24,468.439,171.465,468.464,171.714z"/>
					</g>
					<g>
						<path style="fill:#FFBCC9;" d="M470.96,222.615c0,0.225-0.025,0.45-0.075,0.674h-0.025        c-8.088,0.475-14.279,6.491-20.27,12.307c-0.874,0.824-1.748,1.698-2.646,2.522c-0.374,0.1-0.774,0.175-1.173,0.225        c1.123-1.074,2.271-2.147,3.37-3.22c6.066-5.892,12.357-11.983,20.67-12.507H470.96z"/>
					</g>
					<g>
						<path style="fill:#FFBCC9;" d="M472.108,208.436v0.674c-8.512,1.273-16.426,4.443-23.291,8.238        c-5.442,3.021-10.235,6.466-14.204,9.636c-2.297,1.847-4.868,4.069-6.291,6.94c-0.749,1.498-1.173,3.42-0.974,5.242        c-0.225-0.025-0.449-0.05-0.649-0.075c-0.175-1.922,0.25-3.894,1.024-5.467c1.498-2.996,4.119-5.242,6.465-7.14        c3.645-2.946,8.039-6.091,12.957-8.912C454.409,213.354,462.897,209.784,472.108,208.436z"/>
					</g>
					<g>
						<path style="fill:#FFBCC9;" d="M469.987,179.229c-0.599,0.874-1.223,1.722-1.848,2.571        c-7.988,10.784-15.552,18.099-23.79,23.067c-5.168,3.095-12.981,6.441-20.795,4.793c-0.874-0.199-1.747-0.449-2.596-0.699        c-1.648-0.449-3.345-0.949-5.043-0.949c-0.05,0-0.1-0.025-0.125-0.025c-3.345,0-6.191,1.647-8.762,3.944        c-2.097,1.872-4.019,4.194-5.816,6.391l-0.474,0.599c-0.799,0.949-1.573,1.873-2.372,2.721        c-0.824,0.899-1.623,1.722-2.446,2.472c-0.849,0.823-1.698,1.573-2.546,2.247c-0.175-0.1-0.35-0.225-0.524-0.375        c0.674-0.549,1.348-1.123,2.022-1.722c0.674-0.649,1.373-1.323,2.097-2.047c1.073-1.123,2.172-2.347,3.27-3.695l0.475-0.599        c1.697-2.047,3.47-4.219,5.417-6.041c2.771-2.621,5.892-4.543,9.661-4.543h0.125c1.797,0.025,3.52,0.524,5.218,0.998        c0.824,0.25,1.697,0.499,2.571,0.674c7.589,1.598,15.228-1.673,20.296-4.718c8.188-4.918,15.677-12.182,23.616-22.892        c0.749-1.023,1.498-2.047,2.222-3.096C469.887,178.604,469.937,178.929,469.987,179.229z"/>
					</g>
				</g>
			</g>
			<g>
				<circle style="fill:#FFBCC9;" cx="374.02" cy="140.911" r="38.242"/>
			</g>
			<g style="opacity:0.26;">
				<path style="fill:#FFFFFF;" d="M472.108,208.436v0.674c-0.05,1.772-0.15,3.545-0.299,5.292l-22.992,2.946l-1.672,0.225      l-51.226,6.541l-1.049,0.15l-3.67,0.449l-2.446,0.325l-1.772,0.225l-0.3-4.369l-0.474-6.965l-0.1-1.448l-0.075-0.924      l42.988-22.667l2.022-1.074l36.647-19.322c0.224,0.849,0.424,1.673,0.624,2.522c0.075,0.225,0.125,0.449,0.15,0.699      c0.524,2.172,0.974,4.369,1.373,6.59c0.05,0.299,0.1,0.624,0.15,0.924c0.225,1.198,0.424,2.396,0.599,3.595      C471.884,191.511,472.383,200.098,472.108,208.436z"/>
			</g>
			<g>
				<g>
					<path style="fill:#7F6EEC;" d="M340.977,221.996c0,0,5.045-13.804,20.826-16.657c15.781-2.853,25.219,8.097,25.219,8.097       s22.05-3.021,22.698-0.671c0.833,3.017-8.287,10.741-40.857,17.118c-36.639,7.174-53.611,2.014-51.233-0.671       C320.009,226.528,340.977,221.996,340.977,221.996z"/>
				</g>
				<g>
					<path style="fill:#FFBCC9;" d="M353.327,224.292c-2.181,0-4.34-0.118-6.469-0.355c-2.121-0.236-4.346-0.565-6.201-1.737       c-0.146-0.092-0.19-0.285-0.098-0.43c0.093-0.147,0.287-0.186,0.43-0.098c1.743,1.101,3.889,1.416,5.937,1.645       c6.587,0.732,13.462,0.318,20.439-1.232c8.92-1.982,15.408-5.027,19.283-9.049c0.119-0.126,0.316-0.127,0.442-0.008       c0.124,0.12,0.127,0.317,0.008,0.442c-3.962,4.112-10.556,7.215-19.599,9.223C362.71,223.758,357.965,224.292,353.327,224.292z       "/>
				</g>
				<g>
					<g>
						<path style="fill:#FFBCC9;" d="M369.136,206.905c-0.505,0.299-0.844,0.759-0.751,1.214c0.135,0.667,1.095,1.097,2.009,1.342        c0.55,0.148,1.119,0.262,1.698,0.342c0.978,0.134,2.115,0.138,2.832-0.338c0.633-0.42,0.737-1.13,0.384-1.684        c-0.353-0.554-1.091-0.96-1.902-1.198C371.915,206.146,370.412,206.148,369.136,206.905z"/>
					</g>
					<g>
						<path style="fill:#FFBCC9;" d="M379.57,209.96c0,0.616-0.5,1.116-1.115,1.116c-0.616,0-1.116-0.499-1.116-1.116        c0-0.616,0.499-1.115,1.116-1.115C379.07,208.845,379.57,209.344,379.57,209.96z"/>
					</g>
				</g>
			</g>
			<g>
				<g>
					<polygon style="fill:#FFDFE5;" points="387.695,271.085 396.79,273.49 388.221,276.046 385.591,286.559 382.434,276.046        373.047,274.016 382.885,271.386 385.591,261.473      "/>
				</g>
				<g>
					<polygon style="fill:#FFDFE5;" points="317.258,200.647 326.352,203.052 317.784,205.608 315.153,216.122 311.996,205.608        302.61,203.579 312.447,200.948 315.153,191.036      "/>
				</g>
				<g>
					<polygon style="fill:#FFDFE5;" points="438.359,156.031 447.454,158.436 438.885,160.992 436.254,171.505 433.098,160.992        423.711,158.962 433.548,156.332 436.254,146.419      "/>
				</g>
			</g>
		</g>
		<g>
			<g>
				<polygon style="fill:#FFDFE5;" points="246.72,112.759 261.459,116.657 247.573,120.799 243.309,137.837 238.193,120.799       222.982,117.51 238.924,113.247 243.309,97.183     "/>
			</g>
			<g>
				<polygon style="fill:#FFDFE5;" points="246.72,387.826 261.459,391.724 247.573,395.866 243.309,412.904 238.193,395.866       222.982,392.577 238.924,388.314 243.309,372.25     "/>
			</g>
			<g>
				<polygon style="fill:#FFDFE5;" points="90.051,223.982 104.79,227.88 90.904,232.022 86.641,249.06 81.525,232.022       66.314,228.733 82.256,224.47 86.641,208.406     "/>
			</g>
		</g>
	</g>
</g>















</svg>
