<?xml version="1.0" encoding="UTF-8"?>
<!-- Generator: Adobe Illustrator 25.2.3, SVG Export Plug-In . SVG Version: 6.00 Build 0)  -->
<svg xmlns="http://www.w3.org/2000/svg" xmlns:xlink="http://www.w3.org/1999/xlink" version="1.1" id="Capa_1" x="0px" y="0px" viewBox="0 0 511.965 511.965" style="enable-background:new 0 0 511.965 511.965;" xml:space="preserve" width="512" height="512">
<g>
	<g>
		<path style="fill:#FFFFFF;" d="M511.292,404.401c-0.966-14.544-3.025-29.066-6.476-43.068c-3.523-14.61-8.55-28.685-15.011-41.974    c-3.834-7.789-7.588-15.609-11.089-23.545c-9.445-22.257-18.181-45.483-21.676-55.778    c-22.597-69.648-35.913-140.933-98.83-186.728c-11.659-8.927-24.177-16.42-37.21-22.273c-0.517-0.248-1.052-0.482-1.611-0.719    c-0.982-0.435-1.978-0.857-2.964-1.277c0,0-1.526-0.632-1.647-0.681c-13.704-5.543-28.099-9.384-43-11.445l-0.39-0.044    c-7.967-1.076-16.133-1.621-24.276-1.621c-5.992,0-12.097,0.295-18.153,0.878c-0.478,0.03-0.956,0.081-1.432,0.154    c-13.985,1.428-28.049,4.444-41.817,8.968c-0.259,0.078-0.533,0.166-0.829,0.266c-4.339,1.439-8.625,3.011-12.7,4.656    c-0.544,0.216-1.085,0.436-1.627,0.674c-9.403,3.852-18.694,8.443-27.626,13.649c-0.425,0.229-0.831,0.469-1.223,0.723    c-11.847,6.946-32.964,21.995-46.273,35.161c-5.808,5.541-11.457,11.451-16.848,17.62c-3.267,3.742-6.417,7.64-9.412,11.643    l-14.206,21.502c-4.845,8.274-9.412,17.173-13.599,26.503c-0.149,0.311-0.292,0.634-0.423,0.952    c-0.743,1.631-1.449,3.264-2.142,4.898c-4.746,11.146-9.124,23.204-13.014,35.845c-0.116,0.335-0.226,0.682-0.32,1.015    c-3.657,11.915-6.967,24.598-9.837,37.701c-0.208,0.89-0.399,1.76-0.585,2.653c-0.02,0.083-0.156,0.666-0.193,0.844    c-2.703,12.683-5.112,26.328-7.162,40.556c-0.002,0.017-0.07,0.423-0.096,0.603c-0.316,2.236-0.614,4.47-0.912,6.691l-0.138,1.033    c-1.407,10.782-2.561,21.583-3.431,32.118c-2.35,27.273-3.318,55.133-3.078,82.898c0.099,7.73,0.368,22.75,0.807,39.681    c0.004,0.362,0.015,0.706,0.035,1.041c0.292,11.102,0.77,26.551,1.401,37.824c0.399,7.136,6.301,12.718,13.448,12.718h479.16    c6.873,0,12.643-5.174,13.391-12.005c1.598-14.616,2.598-26.773,3.144-38.212c0.04-0.43,0.068-0.914,0.066-1.454    C512.184,430.38,512.12,417.077,511.292,404.401z"/>
	</g>
	<g>
		<g>
			<path style="fill:#FF85CA;" d="M499.727,444.926c0.022,0.18,0,0.359-0.022,0.561c-0.584,12.437-1.706,25.031-3.098,37.76h-55.765     l-76.857-16.253l-113.447,16.253h-0.584l-94.327-9.504l-95.506,9.504H17.445c-0.561-10.035-1.033-24.021-1.392-37.76     c-0.022-0.18-0.022-0.359-0.022-0.561c-0.404-15.647-0.696-30.935-0.808-39.646v-0.561c-0.045-3.12-0.067-5.32-0.067-6.308     c0-4.265,0.023-8.508,0.112-12.774c0.023-2.424,0.067-4.849,0.135-7.296c0.045-1.684,0.068-3.39,0.135-5.074     c0.067-2.739,0.157-5.478,0.247-8.216c0-0.202,0-0.382,0.022-0.561c0.449-13.245,1.213-26.49,2.335-39.668     c0-0.202,0.023-0.382,0.067-0.561c0.875-10.731,2.02-21.417,3.412-32.08c0.337-2.514,0.674-5.051,1.033-7.588     c0.045-0.202,0.067-0.382,0.09-0.561c1.886-13.088,4.176-26.401,7.004-39.668c0.045-0.179,0.09-0.359,0.135-0.561     c0.022-0.068,0.022-0.135,0.045-0.225c0.18-0.853,0.359-1.684,0.561-2.537c2.716-12.415,5.904-24.784,9.631-36.907     c0.045-0.18,0.112-0.382,0.18-0.561c3.659-11.921,7.835-23.572,12.617-34.797c0.696-1.639,1.392-3.255,2.133-4.872     c0.067-0.179,0.157-0.382,0.247-0.561c4.445-9.923,9.384-19.464,14.862-28.488c0.18-0.292,0.359-0.606,0.561-0.898     c0.741-1.212,1.482-2.425,2.245-3.614c0.18-0.359,0.427-0.696,0.651-1.01c1.235-1.908,2.492-3.794,3.794-5.657     c0.112-0.18,0.247-0.382,0.382-0.561c3.951-5.702,8.172-11.113,12.662-16.253c6.353-7.274,13.021-14.098,19.935-20.407     c0.18-0.202,0.359-0.359,0.561-0.517c0.898-0.853,1.818-1.661,2.739-2.47c0.202-0.202,0.426-0.381,0.651-0.561     c11.494-10.124,23.662-18.925,36.278-26.288c0.18-0.135,0.382-0.247,0.561-0.337c8.598-5.029,17.421-9.384,26.378-13.043     c0.449-0.202,0.898-0.382,1.347-0.561c3.951-1.594,7.947-3.053,11.943-4.378c0.202-0.067,0.382-0.135,0.561-0.179     c13.066-4.31,26.356-7.161,39.668-8.486c0.202-0.045,0.382-0.067,0.561-0.067c13.268-1.302,26.535-1.122,39.668,0.651     c0.18,0.022,0.382,0.045,0.561,0.067c13.47,1.863,26.76,5.366,39.668,10.596c0.18,0.067,0.359,0.157,0.561,0.224     c1.212,0.517,2.447,1.033,3.659,1.571c0.427,0.18,0.853,0.36,1.257,0.561c11.988,5.365,23.617,12.257,34.729,20.766     c0.18,0.135,0.381,0.27,0.561,0.426c1.863,1.437,3.704,2.919,5.545,4.445c5.186,4.288,10.237,8.98,15.153,14.031     c0.18,0.18,0.359,0.359,0.539,0.561c3.569,3.682,7.049,7.565,10.439,11.629c2.806,3.345,5.455,6.847,7.992,10.462     c0.18,0.269,0.382,0.539,0.561,0.808c3.682,5.343,7.094,10.933,10.214,16.747c0.135,0.18,0.225,0.382,0.292,0.561     c2.402,4.4,4.647,8.912,6.757,13.514c3.906,8.486,7.386,17.241,10.596,26.154c0.067,0.179,0.135,0.359,0.202,0.561     c3.861,10.798,7.274,21.798,10.461,32.731c0.382,1.324,0.763,2.627,1.145,3.929c0.202,0.628,0.381,1.257,0.561,1.885     c0.112,0.382,0.224,0.741,0.337,1.122c0.067,0.18,0.112,0.382,0.157,0.561c4.064,13.627,8.194,26.805,12.572,39.668     c0.045,0.202,0.112,0.382,0.18,0.561c3.367,9.923,6.869,19.643,10.641,29.319c1.347,3.457,2.716,6.914,4.131,10.349     c0.067,0.202,0.157,0.382,0.247,0.561c3.547,8.733,7.318,17.421,11.404,26.154c0.18,0.404,0.359,0.786,0.561,1.19     c1.819,3.906,3.704,7.812,5.657,11.719c0.09,0.202,0.179,0.404,0.269,0.606c0.09,0.18,0.18,0.359,0.292,0.561     c0.067,0.18,0.18,0.381,0.27,0.561c6.241,12.841,10.776,25.884,13.964,39.107c0.045,0.18,0.09,0.382,0.135,0.561     c0.27,1.055,0.517,2.11,0.741,3.165c0.18,0.786,0.359,1.571,0.516,2.357c1.504,6.96,2.649,13.964,3.48,21.035     c0.516,4.355,0.92,8.733,1.212,13.11c0.022,0.18,0.022,0.382,0.045,0.561C500.423,418.323,500.378,431.546,499.727,444.926z"/>
		</g>
		<g style="opacity:0.4;">
			<g>
				<g>
					<g>
						<path style="fill:#FFDFE5;" d="M29.927,243.551c0.18-0.845,0.359-1.667,0.561-2.511v242.207h-0.561V243.551z"/>
					</g>
				</g>
				<g>
					<g>
						<rect x="70.156" y="123.113" style="fill:#FFDFE5;" width="0.561" height="360.134"/>
					</g>
				</g>
				<g>
					<g>
						<rect x="110.386" y="82.583" style="fill:#FFDFE5;" width="0.561" height="400.374"/>
					</g>
				</g>
				<g>
					<g>
						<path style="fill:#FFDFE5;" d="M150.615,56.453c0.18-0.134,0.382-0.245,0.561-0.335v426.838h-0.561V56.453z"/>
					</g>
				</g>
				<g>
					<g>
						<path style="fill:#FFDFE5;" d="M191.406,38.067v444.889h-0.561V38.245C191.047,38.179,191.226,38.112,191.406,38.067z"/>
					</g>
				</g>
				<g>
					<g>
						<path style="fill:#FFDFE5;" d="M231.635,29.566v453.391h-0.561V29.633C231.276,29.588,231.456,29.566,231.635,29.566z"/>
					</g>
				</g>
				<g>
					<g>
						<path style="fill:#FFDFE5;" d="M271.865,30.28v452.677h-0.561V30.213C271.483,30.235,271.685,30.257,271.865,30.28z"/>
					</g>
				</g>
				<g>
					<g>
						<path style="fill:#FFDFE5;" d="M312.094,41.035v441.922h-0.561V40.812C311.712,40.878,311.892,40.968,312.094,41.035z"/>
					</g>
				</g>
				<g>
					<g>
						<path style="fill:#FFDFE5;" d="M351.74,63.795c0.18,0.134,0.381,0.268,0.561,0.424v418.738h-0.561V63.795z"/>
					</g>
				</g>
				<g>
					<g>
						<path style="fill:#FFDFE5;" d="M391.969,105.097c0.18,0.268,0.382,0.536,0.561,0.803v377.056h-0.561V105.097z"/>
					</g>
				</g>
				<g>
					<g>
						<path style="fill:#FFDFE5;" d="M432.199,199.529c0.202,0.625,0.381,1.249,0.561,1.874v281.554h-0.561V199.529z"/>
					</g>
				</g>
				<g>
					<g>
						<rect x="472.428" y="284.03" style="fill:#FFDFE5;" width="0.561" height="0.561"/>
					</g>
					<g>
						<path style="fill:#FFDFE5;" d="M472.428,309.044c0.18,0.402,0.359,0.782,0.561,1.184v173.018h-0.561V309.044z"/>
					</g>
				</g>
			</g>
			<g>
				<g>
					<g>
						<path style="fill:#FFDFE5;" d="M317.011,43.237H177.554c0.449-0.202,0.898-0.382,1.347-0.561h136.852        C316.18,42.856,316.606,43.035,317.011,43.237z"/>
					</g>
				</g>
				<g>
					<g>
						<path style="fill:#FFDFE5;" d="M373.538,83.467H110.386v-0.561H373C373.179,83.085,373.359,83.265,373.538,83.467z"/>
					</g>
				</g>
				<g>
					<g>
						<path style="fill:#FFDFE5;" d="M403.037,123.674H70.156v-0.561h332.589C402.88,123.292,402.97,123.494,403.037,123.674z"/>
					</g>
				</g>
				<g>
					<g>
						<path style="fill:#FFDFE5;" d="M420.592,163.903H55.048c0.067-0.179,0.157-0.382,0.247-0.561H420.39        C420.458,163.521,420.525,163.701,420.592,163.903z"/>
					</g>
				</g>
				<g>
					<g>
						<path style="fill:#FFDFE5;" d="M433.254,204.133H40.119c0.045-0.18,0.112-0.382,0.18-0.561h392.798        C433.164,203.751,433.209,203.953,433.254,204.133z"/>
					</g>
				</g>
				<g>
					<g>
						<path style="fill:#FFDFE5;" d="M445.826,243.801c0.045,0.202,0.112,0.382,0.18,0.561H29.747        c0.045-0.179,0.09-0.359,0.135-0.561H445.826z"/>
					</g>
				</g>
				<g>
					<g>
						<path style="fill:#FFDFE5;" d="M460.777,284.03c0.067,0.202,0.157,0.382,0.247,0.561H22.653        c0.045-0.202,0.067-0.382,0.09-0.561H460.777z"/>
					</g>
					<g>
						<rect x="472.428" y="284.03" style="fill:#FFDFE5;" width="0.561" height="0.561"/>
					</g>
				</g>
				<g>
					<g>
						<path style="fill:#FFDFE5;" d="M479.208,324.821H18.141c0-0.202,0.023-0.382,0.067-0.561h460.708        C479.006,324.439,479.096,324.619,479.208,324.821z"/>
					</g>
				</g>
				<g>
					<g>
						<path style="fill:#FFDFE5;" d="M493.576,365.05H15.784c0-0.202,0-0.382,0.022-0.561h477.635        C493.486,364.669,493.531,364.871,493.576,365.05z"/>
					</g>
				</g>
				<g>
					<g>
						<path style="fill:#FFDFE5;" d="M499.57,405.28H15.222v-0.561h484.302C499.547,404.898,499.547,405.1,499.57,405.28z"/>
					</g>
				</g>
				<g>
					<g>
						<path style="fill:#FFDFE5;" d="M499.727,444.926c0.022,0.18,0,0.359-0.022,0.561H16.053c-0.022-0.18-0.022-0.359-0.022-0.561        H499.727z"/>
					</g>
				</g>
			</g>
		</g>
		<g>
			<g>
				<g>
					<path style="fill:#7F6EEC;" d="M402.983,200.34v75.565c0,6.196-5.029,11.225-11.225,11.225h-25.458v-94.149l17.533-3.865h7.925       C397.954,189.116,402.983,194.144,402.983,200.34z"/>
				</g>
				<g>
					<polygon style="fill:#3C1C87;" points="383.834,189.116 377.593,287.13 376.717,287.13 369.668,189.116      "/>
				</g>
			</g>
			<g>
				<g>
					<path style="fill:#FFBCC9;" d="M138.909,285.135c-13.85,9.274-30.942,12.705-46.061,6.775       c-15.12-5.93-27.563-22.049-29.059-40.707c-1.496-18.658,9.486-38.304,25.123-41.931c4.78-1.109,9.758-0.798,14.497,0.532       c13.682,3.838,24.977,16.096,31.41,30.804C141.177,255.145,138.423,268.798,138.909,285.135z"/>
				</g>
				<g>
					<path style="fill:#3C1C87;" d="M128.86,283.111c-0.476,0-0.917-0.305-1.07-0.781c-3.993-12.543-11.625-25.153-21.489-35.507       c-6.951-7.298-20.681-19.242-34.545-17.255c-0.623,0.061-1.184-0.341-1.271-0.953c-0.088-0.612,0.339-1.181,0.952-1.269       c14.869-2.126,29.242,10.32,36.49,17.928c10.093,10.598,17.907,23.516,22.001,36.375c0.189,0.592-0.138,1.222-0.728,1.412       C129.087,283.093,128.973,283.111,128.86,283.111z"/>
				</g>
			</g>
			<g>
				<g>
					<path style="fill:#FFBCC9;" d="M242.664,380.278l27.007,25.34l-19.717,77.629H60.121c2.29-9.9,6.308-20.092,13.29-27.613       c19.104-20.631,113.864-19.868,139.074-27.523c13.896-4.198,16.433-23.707,15.894-40.386L242.664,380.278z"/>
				</g>
				<g>
					<path style="fill:#7F6EEC;" d="M440.842,483.247H250.538v-89.594l13.759-15.079l7.748,7.961       c-0.382,16.433,2.357,35.178,15.939,39.287c5.859,1.774,15.423,3.098,26.94,4.333c0.382,0.045,0.741,0.09,1.122,0.112       c18.117,1.931,40.746,3.704,61.108,6.69c0.382,0.045,0.763,0.112,1.122,0.157c22.068,3.323,41.285,8.127,48.783,16.231       C434.579,461.448,438.664,472.651,440.842,483.247z"/>
				</g>
				<g>
					<path style="fill:#3C1C87;" d="M273.584,368.352c-0.673,4.804-1.369,11.292-1.549,18.184       c-6.286,4.355-13.851,6.937-21.507,7.117c-0.202,0.022-0.382,0.022-0.584,0.022c-0.494,0-0.988,0-1.482-0.022       c-7.094-0.225-13.964-2.38-20.092-5.927c-0.247-7.79-1.167-14.996-1.886-19.688l23.46,0.292h0.584l14.3,0.18       C267.658,368.509,270.621,368.442,273.584,368.352z"/>
				</g>
			</g>
			<g>
				<path style="fill:#FFBCC9;" d="M254.981,84.862l-4.273-12.102h-62.05c-37.064,0-67.124,30.038-67.124,67.102v163.836      c0,37.064,30.06,67.101,67.124,67.101h62.05l4.273-11.355V84.862z"/>
			</g>
			<g>
				<path style="fill:#7F6EEC;" d="M376.044,139.861v163.836c0,37.064-30.06,67.101-67.124,67.101h-58.212V72.76h58.212      c11.808,0,22.921,3.053,32.552,8.396c0.561,0.314,1.122,0.629,1.661,0.965C362.843,93.817,376.044,115.302,376.044,139.861z"/>
			</g>
			<g>
				<path style="fill:#3C1C87;" d="M198.348,223.499c0,8.547-6.929,15.476-15.476,15.476s-15.476-6.929-15.476-15.476      c0-8.547,6.929-15.476,15.476-15.476S198.348,214.952,198.348,223.499z"/>
			</g>
			<g>
				<path style="fill:#3C1C87;" d="M251.282,260.151c-0.165,0-0.331-0.05-0.478-0.149c-4.87-3.363-11.184-4.447-16.89-2.905      c-0.369,0.099-0.739,0.21-1.11,0.321c-1.661,0.495-3.384,1.007-5.183,0.691c-2.838-0.495-5.262-3.183-5.893-6.537      c-0.549-2.918,0.114-5.85,0.841-8.604c1.937-7.336,4.496-14.564,7.605-21.49c0.19-0.425,0.695-0.61,1.113-0.422      c0.425,0.19,0.614,0.689,0.423,1.114c-3.072,6.839-5.599,13.982-7.513,21.228c-0.679,2.568-1.3,5.29-0.814,7.863      c0.412,2.191,2.005,4.75,4.527,5.191c1.414,0.248,2.872-0.188,4.412-0.648c0.385-0.113,0.769-0.228,1.151-0.332      c6.18-1.674,13.016-0.497,18.288,3.144c0.382,0.264,0.478,0.788,0.213,1.172C251.813,260.025,251.549,260.151,251.282,260.151z"/>
			</g>
			<g>
				<path style="fill:#3C1C87;" d="M154.884,178.265c-0.229,0-0.46-0.07-0.66-0.215c-0.501-0.366-0.612-1.068-0.247-1.568      c3.316-4.556,8.388-7.777,13.916-8.841c5.535-1.059,11.439,0.047,16.204,3.045c0.524,0.332,0.682,1.023,0.351,1.549      c-0.329,0.526-1.022,0.68-1.548,0.352c-4.288-2.699-9.602-3.695-14.583-2.742c-4.976,0.958-9.541,3.858-12.525,7.955      C155.573,178.104,155.231,178.265,154.884,178.265z"/>
			</g>
			<g>
				<g>
					<g>
						<path style="fill:#3C1C87;" d="M250.707,259.29c5.084-3.505,12.433-4.327,18.399-2.718c1.965,0.53,3.961,1.35,5.966,1        c2.759-0.48,4.725-3.141,5.243-5.887c0.518-2.746-0.118-5.567-0.833-8.268c-1.942-7.34-6.433-13.8-9.551-20.724        c0,0-17.691-36.833-19.229-36.833L250.707,259.29z"/>
					</g>
					<g>
						
							<ellipse transform="matrix(0.3827 -0.9239 0.9239 0.3827 1.0346 429.8225)" style="fill:#FFDFE5;" cx="322.155" cy="214.137" rx="31.334" ry="31.334"/>
					</g>
					<g>
						<path style="fill:#3C1C87;" d="M250,279.07c-9.261,0-18.518-1.861-26.986-5.59c-0.567-0.251-0.824-0.913-0.575-1.479        c0.25-0.565,0.909-0.82,1.481-0.576c16.645,7.334,36.457,7.196,53-0.361c0.565-0.26,1.229-0.009,1.487,0.556        c0.258,0.562,0.009,1.229-0.555,1.486C269.152,277.078,259.574,279.07,250,279.07z"/>
					</g>
					<g>
						<g>
							<g>
								<path style="fill:#FFDFE5;" d="M376.044,168.44v1.122c-16.5-0.045-33.113-0.606-49.524-1.706          c-5.837-0.382-11.09-0.831-16.051-2.604c-1.145-0.426-2.312-0.943-2.963-2.043c-0.539-0.92-0.539-2.043-0.539-2.918          c0.068-23.46,0.135-47.728,6.735-70.783c0.359-1.28,0.808-2.582,1.818-3.48c0.965-0.853,2.267-1.123,3.3-1.347          c7.453-1.571,15.041-2.761,22.651-3.524c0.561,0.314,1.122,0.629,1.661,0.965c-8.082,0.763-16.141,1.976-24.066,3.659          c-0.921,0.18-2.065,0.426-2.806,1.1c-0.786,0.673-1.145,1.774-1.482,2.941c-6.555,22.898-6.622,47.077-6.69,70.469          c0,0.786,0,1.684,0.382,2.357c0.471,0.786,1.414,1.19,2.38,1.549c4.827,1.706,9.99,2.178,15.737,2.559          C342.998,167.833,359.566,168.394,376.044,168.44z"/>
							</g>
						</g>
						<g>
							<g>
								<path style="fill:#FFDFE5;" d="M344.7,155.291c0,2.321-1.882,4.203-4.203,4.203c-2.321,0-4.203-1.882-4.203-4.203          c0-2.322,1.882-4.203,4.203-4.203C342.818,151.088,344.7,152.969,344.7,155.291z"/>
							</g>
						</g>
						<g>
							<g>
								<path style="fill:#FFDFE5;" d="M367.914,155.291c0,2.321-1.882,4.203-4.203,4.203c-2.321,0-4.203-1.882-4.203-4.203          c0-2.322,1.882-4.203,4.203-4.203C366.032,151.088,367.914,152.969,367.914,155.291z"/>
							</g>
						</g>
					</g>
					<g>
						<path style="fill:#FFDFE5;" d="M301.901,370.22c-0.281,0-0.524-0.21-0.557-0.497l-5.038-44.542        c-0.362-3.081-2.975-5.426-6.077-5.45l-38.771-0.332c-0.311-0.002-0.559-0.255-0.557-0.565        c0.002-0.309,0.253-0.556,0.561-0.556c0.001,0,0.003,0,0.005,0l38.771,0.332c3.667,0.029,6.755,2.799,7.184,6.442        l5.038,44.545c0.035,0.307-0.186,0.585-0.495,0.621C301.944,370.22,301.923,370.22,301.901,370.22z"/>
					</g>
				</g>
				<g>
					<g>
						<path style="fill:#FFDFE5;" d="M378.715,473.146c0.09,5.253-4.108,9.631-9.361,9.743c-2.716,0.045-5.41,0.067-8.059,0.067        c-14.255,0-27.501-0.741-38.86-1.527c-5.006-0.337-8.935-4.49-8.935-9.474c0.022-13.896,0.494-27.927,1.414-41.801        c0.382,0.045,0.741,0.09,1.122,0.112c-0.921,13.829-1.392,27.837-1.414,41.689c0,4.378,3.457,8.059,7.88,8.374        c13.47,0.898,29.543,1.796,46.829,1.437c4.625-0.112,8.329-3.951,8.262-8.598c-0.09-5.927-0.157-11.898-0.202-17.848        c-0.067-6.039-0.135-12.235-0.247-18.363c0.382,0.045,0.763,0.112,1.122,0.157c0.135,6.084,0.18,12.19,0.247,18.184        C378.558,461.27,378.625,467.242,378.715,473.146z"/>
					</g>
				</g>
			</g>
		</g>
		<g>
			<g>
				<g>
					<rect x="395.522" y="306.61" style="fill:#FFDFE5;" width="53.497" height="13.756"/>
				</g>
				<g>
					<rect x="395.522" y="329.537" style="fill:#FFDFE5;" width="53.497" height="13.756"/>
				</g>
			</g>
			<g>
				
					<ellipse transform="matrix(0.5257 -0.8507 0.8507 0.5257 -305.6516 248.4191)" style="fill:#FFDFE5;" cx="69.957" cy="398.318" rx="21.399" ry="21.399"/>
			</g>
			<g>
				<g>
					<path style="fill:#924CA5;" d="M408.505,389.038l12.519-28.168l14.397,28.168C435.42,389.038,407.253,389.038,408.505,389.038z       "/>
				</g>
				<g>
					<path style="fill:#924CA5;" d="M408.505,426.595l12.519-28.168l14.397,28.168C435.42,426.595,407.253,426.595,408.505,426.595z       "/>
				</g>
			</g>
			<g>
				<g>
					<path style="fill:#7F6EEC;" d="M81.966,322.213l28.167,12.519l-28.167,14.397C81.966,349.129,81.966,320.961,81.966,322.213z"/>
				</g>
				<g>
					<path style="fill:#7F6EEC;" d="M44.409,322.213l28.168,12.519l-28.168,14.397C44.409,349.129,44.409,320.961,44.409,322.213z"/>
				</g>
			</g>
		</g>
		<g>
			<path style="fill:#FFDFE5;" d="M246.877,401.687c-44.483,0-86.303-17.322-117.756-48.775     c-31.454-31.455-48.776-73.274-48.776-117.757c0-44.484,17.322-86.302,48.776-117.757     c31.453-31.453,73.274-48.775,117.756-48.775c44.483,0,86.303,17.322,117.758,48.775c31.454,31.455,48.776,73.274,48.776,117.757     c0,44.484-17.322,86.302-48.776,117.757C333.181,384.364,291.36,401.687,246.877,401.687z M246.877,69.244     c-91.483,0-165.909,74.428-165.909,165.91s74.427,165.909,165.909,165.909c91.483,0,165.911-74.428,165.911-165.909     S338.36,69.244,246.877,69.244z"/>
		</g>
		<g>
			<path style="fill:#FFDFE5;" d="M246.93,418.532h-0.053c-0.733,0-1.466-0.005-2.197-0.014c-0.19-0.002-0.341-0.158-0.339-0.348     c0.002-0.188,0.156-0.339,0.343-0.339c0.001,0,0.002,0,0.005,0c0.728,0.009,1.457,0.014,2.188,0.014     c0.19,0,0.37,0.154,0.37,0.343C247.248,418.379,247.12,418.532,246.93,418.532z M249.175,418.516     c-0.189,0-0.341-0.151-0.343-0.339c-0.002-0.19,0.149-0.346,0.339-0.348c0.748-0.009,1.494-0.023,2.24-0.041     c0.002,0,0.006,0,0.008,0c0.186,0,0.339,0.149,0.343,0.334c0.005,0.19-0.146,0.348-0.335,0.352     c-0.748,0.018-1.496,0.032-2.246,0.041C249.178,418.516,249.177,418.516,249.175,418.516z M242.439,418.48     c-0.002,0-0.006,0-0.008,0c-0.752-0.018-1.502-0.041-2.25-0.068c-0.19-0.007-0.338-0.167-0.331-0.357     c0.007-0.19,0.163-0.352,0.356-0.33c0.745,0.027,1.493,0.05,2.241,0.068c0.19,0.005,0.34,0.163,0.335,0.352     C242.778,418.331,242.625,418.48,242.439,418.48z M253.658,418.408c-0.184,0-0.337-0.145-0.343-0.332     c-0.007-0.19,0.141-0.348,0.331-0.355c0.749-0.027,1.495-0.059,2.24-0.095c0.2,0.005,0.351,0.138,0.36,0.328     c0.009,0.19-0.137,0.35-0.326,0.359c-0.749,0.036-1.497,0.068-2.249,0.095C253.666,418.408,253.661,418.408,253.658,418.408z      M237.95,418.32c-0.006,0-0.011,0-0.017,0c-0.75-0.036-1.499-0.077-2.246-0.122c-0.19-0.011-0.334-0.174-0.323-0.364     c0.011-0.19,0.201-0.312,0.364-0.323c0.745,0.045,1.492,0.086,2.24,0.122c0.19,0.009,0.335,0.169,0.326,0.359     C238.284,418.178,238.132,418.32,237.95,418.32z M258.145,418.189c-0.181,0-0.332-0.14-0.343-0.323     c-0.011-0.19,0.133-0.352,0.323-0.364c0.746-0.045,1.492-0.095,2.236-0.149c0.184-0.007,0.355,0.131,0.368,0.318     c0.014,0.19-0.129,0.355-0.319,0.368c-0.746,0.054-1.494,0.104-2.245,0.149C258.159,418.189,258.152,418.189,258.145,418.189z      M233.466,418.047c-0.008,0-0.017,0-0.025,0c-0.749-0.054-1.496-0.113-2.244-0.176c-0.189-0.016-0.33-0.183-0.313-0.373     c0.016-0.188,0.172-0.33,0.372-0.314c0.744,0.063,1.488,0.122,2.235,0.176c0.19,0.013,0.332,0.178,0.318,0.368     C233.796,417.909,233.644,418.047,233.466,418.047z M262.625,417.864c-0.177,0-0.328-0.135-0.342-0.314     c-0.017-0.19,0.124-0.357,0.313-0.373c0.745-0.063,1.49-0.131,2.233-0.203c0.204,0.007,0.358,0.124,0.375,0.309     c0.018,0.19-0.12,0.357-0.31,0.375c-0.745,0.074-1.492,0.142-2.24,0.206C262.644,417.864,262.634,417.864,262.625,417.864z      M228.99,417.669c-0.011,0-0.021,0-0.033,0c-0.749-0.074-1.494-0.151-2.24-0.233c-0.189-0.02-0.325-0.19-0.305-0.379     c0.02-0.188,0.197-0.339,0.38-0.303c0.743,0.081,1.486,0.158,2.23,0.228c0.19,0.02,0.327,0.188,0.309,0.377     C229.315,417.536,229.165,417.669,228.99,417.669z M267.095,417.43c-0.173,0-0.322-0.129-0.342-0.305     c-0.02-0.19,0.115-0.359,0.304-0.379c0.745-0.084,1.487-0.169,2.228-0.26c0.199-0.029,0.359,0.108,0.383,0.3     c0.024,0.188-0.111,0.359-0.299,0.382c-0.743,0.09-1.487,0.176-2.235,0.26C267.12,417.43,267.108,417.43,267.095,417.43z      M224.525,417.182c-0.014,0-0.027,0-0.042-0.002c-0.745-0.09-1.49-0.185-2.232-0.285c-0.188-0.025-0.32-0.199-0.295-0.386     c0.026-0.187,0.2-0.318,0.387-0.296c0.738,0.099,1.479,0.194,2.223,0.285c0.189,0.023,0.322,0.194,0.299,0.382     C224.844,417.055,224.696,417.182,224.525,417.182z M271.555,416.883c-0.169,0-0.317-0.124-0.341-0.296     c-0.025-0.19,0.106-0.361,0.295-0.388c0.742-0.102,1.482-0.206,2.22-0.314c0.201-0.023,0.363,0.104,0.39,0.291     c0.028,0.188-0.102,0.361-0.29,0.391c-0.741,0.108-1.483,0.212-2.227,0.314C271.586,416.883,271.57,416.883,271.555,416.883z      M220.073,416.583c-0.016,0-0.033,0-0.05-0.002c-0.744-0.108-1.485-0.224-2.226-0.343c-0.188-0.029-0.314-0.206-0.283-0.393     c0.03-0.19,0.194-0.339,0.394-0.285c0.736,0.12,1.475,0.23,2.215,0.339c0.188,0.029,0.318,0.203,0.29,0.391     C220.388,416.461,220.241,416.583,220.073,416.583z M275.998,416.231c-0.166,0-0.312-0.12-0.34-0.289     c-0.029-0.188,0.097-0.364,0.285-0.393c0.739-0.12,1.476-0.242,2.214-0.368c0.181-0.041,0.365,0.093,0.396,0.28     c0.032,0.188-0.094,0.366-0.281,0.397c-0.738,0.126-1.477,0.249-2.218,0.368C276.034,416.231,276.016,416.231,275.998,416.231z      M215.636,415.878c-0.019,0-0.038,0-0.058-0.005c-0.741-0.126-1.481-0.258-2.217-0.395c-0.186-0.036-0.309-0.215-0.275-0.402     c0.034-0.185,0.208-0.303,0.401-0.276c0.734,0.138,1.469,0.269,2.206,0.395c0.188,0.032,0.313,0.21,0.281,0.398     C215.947,415.761,215.801,415.878,215.636,415.878z M280.424,415.465c-0.163,0-0.307-0.115-0.338-0.28     c-0.035-0.188,0.088-0.366,0.274-0.402c0.735-0.138,1.469-0.276,2.202-0.42c0.189-0.043,0.367,0.084,0.404,0.271     c0.036,0.185-0.085,0.366-0.271,0.402c-0.735,0.145-1.472,0.287-2.209,0.425C280.466,415.463,280.444,415.465,280.424,415.465z      M211.221,415.061c-0.021,0-0.044-0.002-0.067-0.007c-0.736-0.145-1.473-0.294-2.206-0.449c-0.186-0.041-0.305-0.221-0.265-0.409     c0.041-0.185,0.225-0.298,0.408-0.264c0.731,0.156,1.462,0.305,2.197,0.449c0.186,0.036,0.307,0.217,0.271,0.402     C211.526,414.948,211.382,415.061,211.221,415.061z M284.832,414.591c-0.159,0-0.301-0.111-0.337-0.271     c-0.039-0.188,0.079-0.368,0.265-0.409c0.732-0.156,1.463-0.314,2.191-0.477c0.181-0.034,0.368,0.077,0.41,0.262     c0.042,0.185-0.076,0.368-0.261,0.411c-0.731,0.163-1.464,0.321-2.198,0.477C284.879,414.588,284.856,414.591,284.832,414.591z      M206.824,414.137c-0.025,0-0.05-0.002-0.075-0.007c-0.734-0.165-1.465-0.332-2.195-0.506c-0.184-0.043-0.298-0.23-0.254-0.413     c0.043-0.185,0.224-0.305,0.415-0.255c0.726,0.174,1.455,0.341,2.184,0.501c0.185,0.043,0.303,0.226,0.261,0.411     C207.124,414.028,206.982,414.137,206.824,414.137z M289.214,413.61c-0.156,0-0.297-0.106-0.334-0.264     c-0.044-0.183,0.07-0.37,0.254-0.413c0.728-0.174,1.455-0.35,2.18-0.531c0.185-0.05,0.37,0.066,0.417,0.251     c0.046,0.185-0.065,0.37-0.25,0.418c-0.727,0.181-1.456,0.357-2.186,0.531C289.267,413.608,289.24,413.61,289.214,413.61z      M202.453,413.104c-0.027,0-0.055-0.002-0.083-0.009c-0.73-0.181-1.457-0.368-2.181-0.56c-0.184-0.047-0.292-0.237-0.244-0.42     c0.049-0.183,0.241-0.303,0.42-0.244c0.722,0.192,1.444,0.375,2.169,0.556c0.185,0.047,0.297,0.233,0.251,0.418     C202.748,413.001,202.608,413.104,202.453,413.104z M293.572,412.522c-0.152,0-0.291-0.102-0.332-0.255     c-0.049-0.183,0.061-0.373,0.244-0.42c0.724-0.192,1.446-0.386,2.165-0.585c0.18-0.041,0.372,0.056,0.422,0.242     c0.051,0.183-0.056,0.37-0.239,0.422c-0.722,0.199-1.446,0.393-2.172,0.585C293.631,412.519,293.602,412.522,293.572,412.522z      M198.107,411.964c-0.031,0-0.061-0.005-0.092-0.011c-0.724-0.199-1.447-0.404-2.166-0.614c-0.183-0.054-0.287-0.244-0.234-0.427     c0.054-0.178,0.251-0.28,0.426-0.233c0.717,0.21,1.435,0.411,2.157,0.61c0.183,0.052,0.29,0.239,0.241,0.422     C198.397,411.864,198.259,411.964,198.107,411.964z M297.901,411.325c-0.149,0-0.287-0.097-0.33-0.248     c-0.053-0.183,0.052-0.373,0.235-0.425c0.717-0.208,1.434-0.42,2.149-0.637c0.181-0.054,0.374,0.05,0.428,0.23     c0.055,0.181-0.048,0.373-0.229,0.429c-0.717,0.217-1.437,0.429-2.158,0.637C297.964,411.32,297.933,411.325,297.901,411.325z      M193.793,410.715c-0.033,0-0.066-0.005-0.099-0.014c-0.722-0.217-1.442-0.44-2.159-0.669c-0.182-0.056-0.281-0.251-0.224-0.431     c0.058-0.183,0.253-0.285,0.431-0.224c0.715,0.228,1.431,0.447,2.15,0.664c0.182,0.054,0.285,0.246,0.229,0.429     C194.078,410.62,193.941,410.715,193.793,410.715z M302.201,410.021c-0.146,0-0.281-0.093-0.327-0.239     c-0.058-0.181,0.043-0.375,0.224-0.431c0.713-0.226,1.424-0.456,2.132-0.691c0.181-0.056,0.375,0.038,0.435,0.219     c0.06,0.181-0.038,0.375-0.218,0.436c-0.713,0.235-1.426,0.465-2.141,0.691C302.27,410.017,302.235,410.021,302.201,410.021z      M189.491,409.357c-0.035,0-0.071-0.005-0.107-0.016c-0.717-0.237-1.431-0.477-2.144-0.723c-0.18-0.063-0.274-0.257-0.212-0.438     c0.063-0.181,0.262-0.276,0.438-0.212c0.708,0.246,1.42,0.486,2.132,0.718c0.181,0.061,0.279,0.255,0.219,0.436     C189.77,409.267,189.636,409.357,189.491,409.357z M306.466,408.612c-0.143,0-0.277-0.09-0.325-0.233     c-0.061-0.178,0.034-0.375,0.215-0.436c0.705-0.242,1.411-0.49,2.113-0.741c0.182-0.063,0.376,0.027,0.44,0.208     c0.063,0.178-0.029,0.375-0.208,0.438c-0.707,0.255-1.415,0.504-2.124,0.745C306.541,408.607,306.504,408.612,306.466,408.612z      M185.226,407.889c-0.038,0-0.078-0.007-0.115-0.02c-0.71-0.253-1.417-0.51-2.123-0.772c-0.178-0.068-0.269-0.264-0.202-0.443     c0.066-0.176,0.261-0.262,0.442-0.203c0.704,0.262,1.408,0.52,2.114,0.772c0.18,0.063,0.272,0.26,0.209,0.438     C185.499,407.801,185.367,407.889,185.226,407.889z M310.696,407.098c-0.139,0-0.27-0.086-0.322-0.224     c-0.067-0.176,0.024-0.375,0.201-0.443c0.7-0.26,1.4-0.524,2.097-0.793c0.18-0.065,0.377,0.022,0.444,0.197     c0.069,0.178-0.02,0.377-0.198,0.445c-0.699,0.269-1.4,0.533-2.102,0.797C310.776,407.092,310.735,407.098,310.696,407.098z      M181,406.319c-0.042,0-0.084-0.007-0.124-0.023c-0.702-0.271-1.403-0.547-2.101-0.827c-0.176-0.07-0.262-0.269-0.192-0.445     c0.071-0.178,0.273-0.267,0.447-0.192c0.696,0.276,1.394,0.551,2.094,0.822c0.177,0.068,0.265,0.266,0.197,0.445     C181.267,406.236,181.138,406.319,181,406.319z M314.885,405.483c-0.135,0-0.265-0.081-0.319-0.215     c-0.071-0.176,0.014-0.377,0.19-0.447c0.694-0.28,1.387-0.562,2.077-0.849c0.178-0.07,0.378,0.011,0.45,0.188     c0.073,0.174-0.01,0.375-0.185,0.449c-0.692,0.287-1.387,0.569-2.084,0.849C314.971,405.477,314.928,405.483,314.885,405.483z      M176.815,404.643c-0.044,0-0.088-0.007-0.131-0.025c-0.697-0.289-1.39-0.581-2.081-0.879c-0.174-0.077-0.254-0.278-0.178-0.452     c0.076-0.176,0.283-0.249,0.452-0.181c0.687,0.298,1.378,0.59,2.07,0.874c0.176,0.072,0.26,0.273,0.186,0.449     C177.079,404.564,176.95,404.643,176.815,404.643z M319.026,403.765c-0.133,0-0.26-0.077-0.315-0.208     c-0.076-0.174,0.005-0.375,0.178-0.452c0.684-0.296,1.367-0.592,2.046-0.894c0.177-0.079,0.377,0,0.454,0.174     c0.077,0.174-0.001,0.377-0.174,0.454c-0.682,0.303-1.367,0.603-2.053,0.899C319.118,403.756,319.071,403.765,319.026,403.765z      M172.675,402.868c-0.046,0-0.094-0.009-0.14-0.029c-0.688-0.305-1.373-0.614-2.057-0.928c-0.172-0.077-0.248-0.282-0.169-0.454     c0.078-0.174,0.285-0.255,0.456-0.169c0.681,0.309,1.364,0.619,2.05,0.924c0.173,0.077,0.251,0.28,0.174,0.454     C172.933,402.793,172.807,402.868,172.675,402.868z M323.116,401.951c-0.13,0-0.254-0.074-0.313-0.199     c-0.079-0.174-0.003-0.377,0.169-0.456c0.677-0.312,1.352-0.628,2.025-0.946c0.172-0.084,0.377-0.007,0.457,0.165     c0.081,0.172,0.008,0.377-0.164,0.458c-0.675,0.318-1.353,0.635-2.032,0.946C323.213,401.942,323.164,401.951,323.116,401.951z      M168.582,400.989c-0.05,0-0.099-0.009-0.147-0.032c-0.68-0.323-1.359-0.648-2.034-0.978c-0.171-0.083-0.241-0.289-0.157-0.461     c0.083-0.169,0.293-0.237,0.46-0.158c0.673,0.33,1.347,0.655,2.025,0.974c0.172,0.081,0.245,0.287,0.164,0.458     C168.834,400.916,168.711,400.989,168.582,400.989z M327.16,400.033c-0.127,0-0.25-0.07-0.308-0.192     c-0.084-0.172-0.014-0.377,0.157-0.461c0.669-0.325,1.336-0.657,2.001-0.994c0.167-0.088,0.375-0.018,0.462,0.151     c0.086,0.169,0.017,0.377-0.153,0.463c-0.667,0.337-1.337,0.669-2.008,0.998C327.263,400.022,327.211,400.033,327.16,400.033z      M164.537,399.01c-0.052,0-0.105-0.011-0.155-0.036c-0.671-0.339-1.34-0.682-2.007-1.028c-0.168-0.088-0.235-0.294-0.147-0.463     c0.087-0.167,0.294-0.237,0.463-0.147c0.665,0.346,1.331,0.684,2,1.023c0.169,0.086,0.238,0.294,0.152,0.463     C164.783,398.942,164.662,399.01,164.537,399.01z M331.158,398.018c-0.124,0-0.244-0.068-0.305-0.185     c-0.088-0.167-0.023-0.375,0.146-0.463c0.661-0.346,1.32-0.691,1.976-1.044c0.165-0.088,0.375-0.027,0.465,0.14     c0.09,0.167,0.027,0.375-0.14,0.465c-0.658,0.352-1.32,0.702-1.983,1.048C331.266,398.007,331.212,398.018,331.158,398.018z      M160.542,396.932c-0.055,0-0.111-0.014-0.163-0.041c-0.663-0.355-1.324-0.714-1.981-1.077c-0.166-0.09-0.227-0.3-0.136-0.465     c0.093-0.172,0.3-0.228,0.468-0.135c0.655,0.359,1.313,0.718,1.974,1.073c0.167,0.09,0.23,0.298,0.14,0.465     C160.783,396.866,160.664,396.932,160.542,396.932z M335.106,395.902c-0.121,0-0.238-0.063-0.301-0.176     c-0.093-0.167-0.032-0.377,0.134-0.467c0.653-0.361,1.303-0.725,1.952-1.091c0.167-0.097,0.376-0.034,0.469,0.129     c0.094,0.165,0.035,0.375-0.13,0.468c-0.651,0.37-1.303,0.734-1.958,1.096C335.22,395.888,335.163,395.902,335.106,395.902z      M156.602,394.757c-0.058,0-0.116-0.014-0.169-0.045c-0.654-0.37-1.304-0.745-1.953-1.123c-0.165-0.097-0.22-0.307-0.124-0.472     c0.097-0.165,0.307-0.226,0.47-0.122c0.646,0.375,1.294,0.75,1.946,1.12c0.165,0.093,0.224,0.303,0.13,0.468     C156.838,394.696,156.722,394.757,156.602,394.757z M339.002,393.691c-0.117,0-0.233-0.061-0.297-0.169     c-0.096-0.165-0.041-0.375,0.123-0.47c0.644-0.377,1.285-0.757,1.924-1.141c0.16-0.093,0.373-0.047,0.472,0.12     c0.098,0.163,0.045,0.373-0.117,0.472c-0.641,0.384-1.285,0.763-1.931,1.141C339.121,393.677,339.061,393.691,339.002,393.691z      M152.716,392.487c-0.061,0-0.122-0.016-0.177-0.05c-0.644-0.386-1.285-0.777-1.924-1.17c-0.161-0.099-0.211-0.312-0.112-0.474     c0.1-0.163,0.314-0.208,0.473-0.113c0.637,0.393,1.276,0.784,1.918,1.17c0.163,0.097,0.216,0.307,0.117,0.47     C152.946,392.428,152.832,392.487,152.716,392.487z M342.846,391.387c-0.115,0-0.227-0.056-0.293-0.163     c-0.099-0.16-0.05-0.373,0.112-0.472c0.635-0.393,1.267-0.788,1.896-1.188c0.156-0.102,0.371-0.054,0.474,0.106     c0.102,0.16,0.054,0.373-0.106,0.477c-0.631,0.4-1.266,0.795-1.903,1.188C342.97,391.371,342.908,391.387,342.846,391.387z      M148.888,390.122c-0.063,0-0.128-0.016-0.184-0.052c-0.635-0.404-1.266-0.811-1.895-1.22c-0.159-0.104-0.204-0.318-0.1-0.477     c0.105-0.16,0.321-0.201,0.475-0.102c0.627,0.409,1.256,0.815,1.888,1.215c0.16,0.104,0.208,0.316,0.106,0.477     C149.113,390.065,149.001,390.122,148.888,390.122z M346.631,388.988c-0.112,0-0.221-0.054-0.288-0.156     c-0.104-0.158-0.059-0.37,0.099-0.474c0.626-0.409,1.248-0.82,1.868-1.236c0.158-0.104,0.37-0.063,0.477,0.095     c0.106,0.158,0.063,0.373-0.095,0.479c-0.622,0.416-1.247,0.827-1.872,1.236C346.761,388.97,346.696,388.988,346.631,388.988z      M145.121,387.662c-0.067,0-0.132-0.018-0.192-0.059c-0.623-0.418-1.244-0.838-1.863-1.265c-0.157-0.106-0.197-0.321-0.089-0.477     c0.109-0.158,0.325-0.201,0.478-0.088c0.617,0.422,1.236,0.842,1.859,1.26c0.157,0.104,0.199,0.318,0.094,0.477     C145.34,387.61,145.231,387.662,145.121,387.662z M350.357,386.496c-0.109,0-0.217-0.052-0.284-0.149     c-0.107-0.156-0.068-0.37,0.089-0.479c0.614-0.42,1.227-0.847,1.835-1.276c0.158-0.108,0.37-0.075,0.48,0.081     c0.109,0.156,0.072,0.37-0.083,0.479c-0.613,0.434-1.228,0.861-1.844,1.285C350.493,386.478,350.425,386.496,350.357,386.496z      M141.415,385.114c-0.069,0-0.138-0.02-0.198-0.063c-0.614-0.431-1.225-0.867-1.833-1.31c-0.154-0.111-0.187-0.325-0.076-0.479     c0.112-0.154,0.326-0.19,0.48-0.077c0.605,0.438,1.214,0.874,1.824,1.305c0.156,0.108,0.193,0.323,0.084,0.479     C141.63,385.064,141.522,385.114,141.415,385.114z M354.023,383.91c-0.106,0-0.212-0.05-0.279-0.142     c-0.111-0.154-0.076-0.368,0.078-0.481c0.604-0.434,1.206-0.876,1.805-1.319c0.15-0.113,0.368-0.084,0.48,0.07     c0.114,0.154,0.081,0.368-0.071,0.481c-0.601,0.447-1.205,0.89-1.811,1.328C354.163,383.89,354.093,383.91,354.023,383.91z      M137.776,382.476c-0.071,0-0.143-0.023-0.206-0.068c-0.603-0.447-1.203-0.901-1.799-1.355c-0.15-0.115-0.18-0.33-0.064-0.481     c0.116-0.156,0.33-0.181,0.482-0.065c0.594,0.454,1.191,0.903,1.792,1.351c0.152,0.113,0.184,0.328,0.07,0.481     C137.985,382.428,137.881,382.476,137.776,382.476z M357.625,381.238c-0.104,0-0.207-0.047-0.273-0.135     c-0.115-0.151-0.086-0.366,0.065-0.481c0.594-0.452,1.185-0.906,1.773-1.367c0.148-0.115,0.365-0.09,0.482,0.059     c0.116,0.149,0.09,0.366-0.06,0.483c-0.591,0.461-1.184,0.919-1.78,1.371C357.77,381.215,357.697,381.238,357.625,381.238z      M134.201,379.75c-0.075,0-0.149-0.023-0.211-0.072c-0.592-0.461-1.181-0.928-1.766-1.398c-0.148-0.12-0.172-0.337-0.052-0.483     c0.119-0.151,0.335-0.172,0.483-0.054c0.583,0.47,1.168,0.933,1.757,1.394c0.15,0.118,0.176,0.332,0.06,0.483     C134.404,379.704,134.302,379.75,134.201,379.75z M361.161,378.476c-0.1,0-0.201-0.043-0.269-0.129     c-0.119-0.149-0.094-0.364,0.054-0.483c0.584-0.465,1.163-0.935,1.74-1.41c0.147-0.12,0.361-0.099,0.483,0.047     c0.121,0.147,0.099,0.364-0.047,0.486c-0.579,0.474-1.161,0.944-1.747,1.414C361.312,378.451,361.236,378.476,361.161,378.476z      M130.694,376.937c-0.077,0-0.155-0.025-0.219-0.079c-0.579-0.477-1.155-0.955-1.729-1.441c-0.146-0.122-0.164-0.339-0.042-0.483     c0.125-0.147,0.342-0.16,0.484-0.041c0.572,0.481,1.148,0.96,1.725,1.437c0.146,0.12,0.167,0.337,0.046,0.483     C130.892,376.895,130.793,376.937,130.694,376.937z M364.629,375.632c-0.098,0-0.195-0.041-0.263-0.122     c-0.122-0.145-0.104-0.361,0.042-0.486c0.572-0.479,1.14-0.964,1.705-1.45c0.143-0.126,0.361-0.111,0.486,0.036     c0.123,0.142,0.107,0.361-0.036,0.483c-0.568,0.49-1.138,0.976-1.712,1.459C364.786,375.607,364.707,375.632,364.629,375.632z      M127.26,374.042c-0.08,0-0.16-0.027-0.225-0.084c-0.568-0.49-1.133-0.985-1.694-1.482c-0.142-0.126-0.155-0.343-0.029-0.486     c0.125-0.145,0.342-0.158,0.486-0.029c0.559,0.497,1.122,0.987,1.687,1.477c0.144,0.124,0.159,0.341,0.035,0.486     C127.452,374.001,127.356,374.042,127.26,374.042z M368.03,372.7c-0.095,0-0.19-0.038-0.258-0.115     c-0.125-0.142-0.113-0.359,0.029-0.486c0.559-0.497,1.117-0.994,1.67-1.495c0.14-0.126,0.358-0.115,0.486,0.025     c0.128,0.14,0.116,0.359-0.025,0.486c-0.556,0.501-1.113,1.003-1.675,1.5C368.192,372.673,368.111,372.7,368.03,372.7z      M123.896,371.062c-0.082,0-0.165-0.029-0.231-0.088c-0.555-0.506-1.107-1.012-1.657-1.52c-0.139-0.129-0.148-0.348-0.018-0.486     c0.13-0.14,0.344-0.149,0.486-0.02c0.548,0.508,1.098,1.014,1.652,1.516c0.14,0.129,0.15,0.346,0.023,0.486     C124.083,371.024,123.99,371.062,123.896,371.062z M371.357,369.689c-0.092,0-0.184-0.036-0.252-0.109     c-0.129-0.14-0.122-0.357,0.017-0.486c0.548-0.51,1.092-1.023,1.633-1.536c0.139-0.129,0.356-0.122,0.487,0.011     c0.131,0.138,0.125,0.355-0.012,0.486c-0.543,0.517-1.09,1.03-1.638,1.54C371.525,369.66,371.44,369.689,371.357,369.689z      M120.608,368.004c-0.086,0-0.171-0.032-0.237-0.095c-0.543-0.517-1.083-1.039-1.618-1.561c-0.137-0.133-0.139-0.35-0.007-0.486     c0.133-0.138,0.35-0.14,0.486-0.007c0.535,0.522,1.073,1.039,1.614,1.556c0.138,0.131,0.142,0.348,0.011,0.486     C120.788,367.968,120.698,368.004,120.608,368.004z M374.608,366.592c-0.089,0-0.179-0.034-0.246-0.104     c-0.132-0.135-0.13-0.352,0.007-0.486c0.535-0.522,1.067-1.046,1.596-1.574c0.133-0.131,0.352-0.131,0.486,0     c0.134,0.136,0.134,0.352,0,0.488c-0.531,0.529-1.065,1.057-1.603,1.579C374.781,366.561,374.695,366.592,374.608,366.592z      M117.395,364.864c-0.088,0-0.176-0.034-0.243-0.099c-0.53-0.531-1.057-1.064-1.58-1.602c-0.132-0.135-0.13-0.352,0.007-0.486     c0.135-0.133,0.352-0.131,0.486,0.007c0.521,0.533,1.046,1.066,1.573,1.592c0.134,0.135,0.134,0.352,0,0.488     C117.571,364.831,117.483,364.864,117.395,364.864z M377.787,363.421c-0.087,0-0.174-0.032-0.24-0.097     c-0.136-0.133-0.138-0.35-0.006-0.486c0.523-0.535,1.042-1.071,1.557-1.613c0.131-0.133,0.349-0.14,0.486-0.011     c0.138,0.131,0.142,0.348,0.011,0.486c-0.516,0.542-1.037,1.082-1.562,1.617C377.966,363.387,377.877,363.421,377.787,363.421z      M114.261,361.648c-0.09,0-0.182-0.036-0.248-0.106c-0.517-0.544-1.031-1.089-1.54-1.64c-0.13-0.138-0.121-0.357,0.018-0.486     c0.141-0.129,0.357-0.122,0.486,0.02c0.507,0.547,1.019,1.091,1.534,1.631c0.131,0.138,0.126,0.355-0.011,0.486     C114.431,361.616,114.345,361.648,114.261,361.648z M380.888,360.171c-0.084,0-0.167-0.029-0.234-0.09     c-0.139-0.131-0.148-0.348-0.018-0.488c0.508-0.547,1.015-1.098,1.518-1.649c0.126-0.14,0.344-0.151,0.486-0.025     c0.14,0.129,0.15,0.346,0.023,0.486c-0.505,0.556-1.012,1.107-1.522,1.658C381.072,360.135,380.98,360.171,380.888,360.171z      M111.204,358.359c-0.094,0-0.186-0.038-0.254-0.113c-0.504-0.553-1.004-1.113-1.5-1.674c-0.125-0.142-0.113-0.359,0.031-0.486     c0.139-0.129,0.357-0.113,0.484,0.029c0.493,0.56,0.992,1.116,1.493,1.669c0.128,0.14,0.118,0.357-0.023,0.486     C111.369,358.33,111.287,358.359,111.204,358.359z M383.909,356.844c-0.081,0-0.163-0.027-0.228-0.086     c-0.142-0.126-0.155-0.343-0.029-0.486c0.495-0.558,0.987-1.12,1.477-1.687c0.123-0.142,0.343-0.158,0.484-0.034     c0.143,0.124,0.159,0.341,0.035,0.486c-0.49,0.567-0.985,1.129-1.482,1.692C384.098,356.805,384.003,356.844,383.909,356.844z      M108.231,354.996c-0.096,0-0.192-0.041-0.261-0.12c-0.489-0.567-0.976-1.136-1.458-1.71c-0.122-0.145-0.104-0.361,0.042-0.483     c0.146-0.122,0.364-0.104,0.485,0.041c0.48,0.572,0.965,1.138,1.454,1.705c0.123,0.142,0.107,0.359-0.036,0.483     C108.39,354.969,108.311,354.996,108.231,354.996z M386.847,353.446c-0.078,0-0.157-0.027-0.221-0.081     c-0.146-0.122-0.164-0.339-0.042-0.483c0.482-0.571,0.961-1.145,1.435-1.723c0.119-0.145,0.338-0.167,0.483-0.047     c0.147,0.122,0.168,0.339,0.047,0.486c-0.477,0.578-0.958,1.156-1.44,1.728C387.041,353.406,386.944,353.446,386.847,353.446z      M105.342,351.563c-0.099,0-0.198-0.043-0.265-0.124c-0.475-0.581-0.948-1.161-1.416-1.748c-0.119-0.149-0.094-0.364,0.054-0.483     c0.147-0.115,0.365-0.095,0.483,0.054c0.466,0.583,0.936,1.163,1.409,1.739c0.121,0.147,0.099,0.364-0.047,0.486     C105.495,351.538,105.419,351.563,105.342,351.563z M389.701,349.975c-0.076,0-0.151-0.025-0.215-0.074     c-0.149-0.12-0.173-0.337-0.054-0.483c0.469-0.585,0.933-1.17,1.394-1.76c0.118-0.147,0.334-0.176,0.483-0.059     c0.149,0.117,0.175,0.334,0.059,0.483c-0.463,0.59-0.929,1.179-1.398,1.764C389.901,349.932,389.802,349.975,389.701,349.975z      M102.538,348.059c-0.102,0-0.203-0.045-0.271-0.131c-0.461-0.592-0.918-1.184-1.372-1.782c-0.115-0.151-0.086-0.366,0.065-0.481     c0.151-0.113,0.366-0.086,0.481,0.065c0.454,0.594,0.909,1.186,1.368,1.773c0.116,0.151,0.09,0.366-0.06,0.483     C102.687,348.037,102.612,348.059,102.538,348.059z M392.473,346.435c-0.073,0-0.147-0.023-0.209-0.07     c-0.15-0.115-0.18-0.332-0.064-0.481c0.454-0.596,0.905-1.193,1.351-1.793c0.113-0.154,0.326-0.183,0.481-0.07     c0.152,0.113,0.184,0.327,0.07,0.481c-0.448,0.601-0.899,1.202-1.355,1.798C392.678,346.39,392.575,346.435,392.473,346.435z      M99.819,344.493c-0.105,0-0.209-0.047-0.277-0.138c-0.445-0.603-0.888-1.206-1.327-1.814c-0.111-0.154-0.077-0.368,0.077-0.479     c0.152-0.113,0.37-0.077,0.481,0.077c0.437,0.603,0.878,1.206,1.323,1.805c0.113,0.154,0.08,0.368-0.072,0.481     C99.963,344.47,99.89,344.493,99.819,344.493z M395.156,342.83c-0.07,0-0.141-0.02-0.202-0.066     c-0.154-0.111-0.188-0.327-0.076-0.481c0.439-0.603,0.874-1.211,1.306-1.823c0.112-0.154,0.323-0.19,0.48-0.081     c0.155,0.108,0.192,0.323,0.082,0.479c-0.434,0.612-0.871,1.224-1.312,1.832C395.367,342.783,395.262,342.83,395.156,342.83z      M97.19,340.861c-0.107,0-0.213-0.05-0.281-0.145c-0.43-0.612-0.858-1.227-1.283-1.845c-0.107-0.156-0.068-0.37,0.089-0.477     c0.156-0.111,0.372-0.068,0.478,0.088c0.422,0.614,0.848,1.229,1.278,1.836c0.11,0.156,0.072,0.37-0.082,0.479     C97.328,340.84,97.259,340.861,97.19,340.861z M397.75,339.155c-0.068,0-0.136-0.02-0.195-0.061     c-0.156-0.108-0.195-0.321-0.087-0.479c0.423-0.612,0.844-1.231,1.26-1.854c0.107-0.158,0.32-0.201,0.478-0.093     c0.157,0.104,0.199,0.318,0.094,0.477c-0.419,0.623-0.841,1.247-1.267,1.863C397.966,339.103,397.859,339.155,397.75,339.155z      M94.651,337.163c-0.111,0-0.219-0.052-0.286-0.151c-0.417-0.624-0.83-1.249-1.238-1.877c-0.104-0.16-0.059-0.373,0.101-0.477     c0.155-0.099,0.373-0.061,0.475,0.102c0.408,0.628,0.819,1.249,1.233,1.868c0.106,0.158,0.063,0.373-0.095,0.479     C94.783,337.145,94.717,337.163,94.651,337.163z M400.256,335.419c-0.064,0-0.13-0.018-0.188-0.056     c-0.159-0.104-0.204-0.316-0.1-0.474c0.409-0.628,0.814-1.256,1.215-1.888c0.103-0.158,0.316-0.21,0.474-0.104     c0.16,0.102,0.208,0.314,0.106,0.474c-0.403,0.632-0.809,1.265-1.22,1.893C400.479,335.365,400.368,335.419,400.256,335.419z      M92.204,333.407c-0.113,0-0.225-0.056-0.29-0.158c-0.401-0.633-0.797-1.267-1.191-1.904c-0.099-0.163-0.05-0.373,0.112-0.474     c0.164-0.093,0.375-0.05,0.473,0.113c0.392,0.637,0.788,1.267,1.187,1.895c0.102,0.16,0.054,0.375-0.106,0.477     C92.331,333.391,92.267,333.407,92.204,333.407z M402.669,331.627c-0.062,0-0.124-0.016-0.181-0.05     c-0.162-0.102-0.211-0.312-0.112-0.474c0.393-0.637,0.784-1.276,1.169-1.918c0.099-0.163,0.311-0.208,0.472-0.12     c0.163,0.099,0.216,0.309,0.118,0.472c-0.387,0.646-0.778,1.285-1.173,1.927C402.897,331.57,402.784,331.627,402.669,331.627z      M89.85,329.594c-0.116,0-0.23-0.059-0.295-0.167c-0.385-0.639-0.766-1.283-1.144-1.929c-0.096-0.165-0.041-0.375,0.123-0.47     c0.165-0.104,0.375-0.043,0.471,0.122c0.376,0.646,0.757,1.285,1.14,1.924c0.098,0.163,0.045,0.373-0.118,0.47     C89.972,329.578,89.911,329.594,89.85,329.594z M404.988,327.767c-0.06,0-0.119-0.014-0.174-0.047     c-0.164-0.095-0.219-0.305-0.123-0.47c0.378-0.644,0.752-1.294,1.121-1.945c0.094-0.167,0.307-0.226,0.469-0.129     c0.165,0.093,0.224,0.303,0.13,0.468c-0.372,0.655-0.748,1.305-1.126,1.954C405.221,327.706,405.106,327.767,404.988,327.767z      M87.59,325.725c-0.12,0-0.236-0.061-0.299-0.174c-0.368-0.648-0.734-1.301-1.097-1.956c-0.091-0.167-0.03-0.377,0.136-0.468     c0.167-0.095,0.374-0.034,0.467,0.133c0.36,0.655,0.724,1.303,1.092,1.952c0.094,0.165,0.036,0.375-0.13,0.468     C87.707,325.711,87.648,325.725,87.59,325.725z M407.212,323.855c-0.056,0-0.113-0.014-0.166-0.043     c-0.166-0.09-0.227-0.3-0.136-0.467c0.361-0.653,0.719-1.31,1.074-1.972c0.09-0.167,0.299-0.228,0.465-0.14     c0.167,0.09,0.23,0.298,0.14,0.465c-0.355,0.662-0.715,1.324-1.076,1.981C407.45,323.791,407.333,323.855,407.212,323.855z      M85.428,321.804c-0.122,0-0.241-0.066-0.303-0.181c-0.354-0.66-0.701-1.319-1.048-1.985c-0.088-0.167-0.023-0.375,0.146-0.463     c0.168-0.09,0.377-0.022,0.464,0.147c0.344,0.662,0.692,1.321,1.044,1.976c0.09,0.167,0.027,0.375-0.14,0.465     C85.538,321.79,85.483,321.804,85.428,321.804z M409.339,319.888c-0.054,0-0.108-0.011-0.159-0.038     c-0.168-0.088-0.234-0.296-0.146-0.463c0.346-0.664,0.688-1.33,1.025-2.001c0.087-0.167,0.296-0.235,0.462-0.151     c0.169,0.086,0.238,0.294,0.152,0.463c-0.34,0.671-0.683,1.342-1.03,2.006C409.583,319.82,409.463,319.888,409.339,319.888z      M83.363,317.831c-0.125,0-0.246-0.068-0.307-0.19c-0.335-0.666-0.669-1.335-0.997-2.006c-0.084-0.169-0.014-0.377,0.157-0.461     c0.168-0.077,0.375-0.014,0.46,0.158c0.329,0.666,0.66,1.335,0.995,2.001c0.086,0.169,0.017,0.375-0.152,0.461     C83.468,317.819,83.415,317.831,83.363,317.831z M411.368,315.868c-0.051,0-0.103-0.011-0.151-0.034     c-0.171-0.084-0.241-0.289-0.158-0.461c0.33-0.673,0.656-1.349,0.977-2.024c0.082-0.172,0.286-0.251,0.458-0.163     c0.171,0.081,0.244,0.285,0.163,0.456c-0.322,0.68-0.649,1.355-0.979,2.033C411.618,315.798,411.495,315.868,411.368,315.868z      M81.395,313.808c-0.129,0-0.252-0.072-0.311-0.197c-0.321-0.673-0.636-1.351-0.948-2.033c-0.079-0.172-0.002-0.377,0.171-0.454     c0.172-0.086,0.376-0.004,0.455,0.169c0.31,0.678,0.625,1.351,0.943,2.024c0.081,0.172,0.008,0.375-0.163,0.458     C81.494,313.799,81.444,313.808,81.395,313.808z M413.298,311.8c-0.049,0-0.097-0.009-0.143-0.032     c-0.173-0.079-0.249-0.282-0.169-0.454c0.313-0.682,0.621-1.364,0.926-2.051c0.076-0.174,0.279-0.253,0.454-0.174     c0.173,0.077,0.251,0.28,0.174,0.454c-0.305,0.687-0.615,1.373-0.928,2.055C413.552,311.725,413.428,311.8,413.298,311.8z      M79.528,309.744c-0.132,0-0.257-0.075-0.314-0.203c-0.304-0.684-0.602-1.369-0.898-2.056c-0.075-0.174,0.006-0.377,0.181-0.452     c0.174-0.075,0.376,0.004,0.452,0.181c0.294,0.682,0.592,1.366,0.893,2.046c0.077,0.174-0.001,0.377-0.175,0.454     C79.622,309.735,79.574,309.744,79.528,309.744z M415.129,307.684c-0.045,0-0.091-0.009-0.135-0.027     c-0.174-0.074-0.255-0.278-0.181-0.452c0.296-0.689,0.587-1.38,0.875-2.071c0.071-0.176,0.277-0.262,0.449-0.188     c0.175,0.074,0.259,0.276,0.185,0.449c-0.288,0.696-0.582,1.387-0.878,2.08C415.389,307.607,415.262,307.684,415.129,307.684z      M77.763,305.633c-0.134,0-0.263-0.079-0.317-0.212c-0.287-0.689-0.568-1.382-0.846-2.073c-0.071-0.176,0.014-0.377,0.19-0.447     c0.178-0.077,0.377,0.016,0.447,0.19c0.278,0.691,0.559,1.38,0.844,2.069c0.073,0.174-0.01,0.375-0.185,0.449     C77.851,305.627,77.807,305.633,77.763,305.633z M416.856,303.519c-0.043,0-0.086-0.007-0.128-0.025     c-0.176-0.07-0.262-0.269-0.192-0.445c0.278-0.696,0.552-1.394,0.823-2.094c0.07-0.176,0.271-0.262,0.445-0.197     c0.177,0.068,0.265,0.269,0.197,0.445c-0.272,0.7-0.548,1.403-0.826,2.098C417.121,303.438,416.992,303.519,416.856,303.519z      M76.094,301.473c-0.138,0-0.268-0.084-0.321-0.219c-0.27-0.7-0.536-1.4-0.799-2.105c-0.067-0.178,0.024-0.375,0.202-0.443     c0.181-0.059,0.377,0.027,0.442,0.203c0.262,0.7,0.526,1.4,0.796,2.096c0.069,0.176-0.019,0.377-0.197,0.445     C76.178,301.466,76.136,301.473,76.094,301.473z M418.48,299.316c-0.04,0-0.08-0.007-0.12-0.02     c-0.178-0.068-0.269-0.264-0.202-0.443c0.261-0.702,0.518-1.407,0.77-2.112c0.066-0.178,0.264-0.269,0.441-0.208     c0.178,0.063,0.271,0.26,0.208,0.438c-0.254,0.709-0.512,1.419-0.775,2.121C418.751,299.23,418.619,299.316,418.48,299.316z      M74.526,297.262c-0.141,0-0.273-0.086-0.324-0.228c-0.253-0.705-0.501-1.414-0.746-2.121c-0.062-0.181,0.034-0.375,0.214-0.438     c0.182-0.063,0.375,0.034,0.437,0.212c0.243,0.707,0.491,1.412,0.744,2.116c0.063,0.178-0.029,0.375-0.208,0.438     C74.604,297.256,74.564,297.262,74.526,297.262z M419.999,295.071c-0.037,0-0.075-0.005-0.112-0.018     c-0.18-0.061-0.276-0.258-0.214-0.436c0.244-0.711,0.483-1.421,0.719-2.134c0.06-0.181,0.252-0.28,0.435-0.219     c0.18,0.061,0.278,0.255,0.218,0.436c-0.236,0.714-0.478,1.427-0.722,2.139C420.276,294.983,420.142,295.071,419.999,295.071z      M73.063,293.014c-0.145,0-0.279-0.09-0.326-0.235c-0.235-0.712-0.466-1.423-0.693-2.141c-0.058-0.181,0.043-0.375,0.224-0.431     c0.181-0.063,0.374,0.043,0.431,0.224c0.227,0.714,0.456,1.425,0.691,2.132c0.06,0.181-0.038,0.375-0.218,0.434     C73.136,293.009,73.099,293.014,73.063,293.014z M421.415,290.789c-0.034,0-0.069-0.005-0.103-0.016     c-0.182-0.056-0.282-0.249-0.225-0.431c0.225-0.716,0.447-1.434,0.665-2.152c0.053-0.183,0.242-0.282,0.428-0.23     c0.182,0.056,0.285,0.248,0.229,0.429c-0.218,0.723-0.44,1.441-0.668,2.162C421.697,290.696,421.562,290.789,421.415,290.789z      M71.706,288.733c-0.148,0-0.285-0.095-0.329-0.244c-0.218-0.716-0.431-1.437-0.64-2.155c-0.053-0.183,0.052-0.375,0.234-0.427     c0.18-0.052,0.374,0.052,0.426,0.233c0.209,0.718,0.422,1.434,0.638,2.15c0.055,0.181-0.048,0.373-0.229,0.429     C71.772,288.729,71.739,288.733,71.706,288.733z M422.718,286.479c-0.032,0-0.063-0.005-0.096-0.014     c-0.182-0.052-0.287-0.244-0.234-0.425c0.207-0.718,0.41-1.437,0.61-2.159c0.051-0.181,0.245-0.278,0.422-0.239     c0.183,0.052,0.29,0.242,0.239,0.425c-0.2,0.723-0.403,1.446-0.612,2.164C423.005,286.382,422.867,286.479,422.718,286.479z      M70.454,284.421c-0.151,0-0.289-0.099-0.331-0.251c-0.201-0.723-0.396-1.448-0.587-2.173c-0.049-0.185,0.061-0.373,0.245-0.42     c0.178-0.059,0.372,0.061,0.419,0.244c0.191,0.725,0.386,1.446,0.585,2.164c0.051,0.183-0.057,0.373-0.24,0.425     C70.515,284.417,70.485,284.421,70.454,284.421z M423.913,282.151c-0.028,0-0.058-0.002-0.087-0.011     c-0.184-0.047-0.294-0.235-0.246-0.42c0.19-0.723,0.376-1.446,0.558-2.173c0.045-0.183,0.227-0.298,0.417-0.251     c0.184,0.047,0.296,0.233,0.25,0.418c-0.182,0.727-0.368,1.455-0.558,2.182C424.206,282.05,424.066,282.151,423.913,282.151z      M69.31,280.076c-0.155,0-0.295-0.104-0.333-0.26c-0.183-0.727-0.36-1.455-0.532-2.187c-0.044-0.185,0.071-0.37,0.255-0.413     c0.186-0.05,0.369,0.07,0.413,0.255c0.172,0.727,0.349,1.455,0.53,2.177c0.046,0.185-0.065,0.37-0.25,0.418     C69.366,280.073,69.337,280.076,69.31,280.076z M425.002,277.792c-0.026,0-0.052-0.002-0.079-0.009     c-0.185-0.043-0.299-0.228-0.255-0.413c0.171-0.725,0.339-1.455,0.503-2.184c0.041-0.185,0.229-0.294,0.41-0.262     c0.186,0.043,0.303,0.226,0.261,0.411c-0.164,0.734-0.332,1.464-0.505,2.193C425.299,277.686,425.158,277.792,425.002,277.792z      M68.274,275.705c-0.158,0-0.299-0.109-0.335-0.269c-0.164-0.73-0.324-1.464-0.479-2.198c-0.04-0.185,0.08-0.368,0.265-0.407     c0.183-0.038,0.368,0.079,0.408,0.267c0.155,0.73,0.313,1.459,0.477,2.189c0.042,0.185-0.075,0.368-0.26,0.411     C68.323,275.703,68.298,275.705,68.274,275.705z M425.981,273.408c-0.023,0-0.046-0.002-0.071-0.007     c-0.185-0.038-0.304-0.221-0.265-0.406c0.154-0.732,0.304-1.464,0.448-2.198c0.036-0.185,0.213-0.3,0.404-0.269     c0.186,0.036,0.307,0.217,0.271,0.404c-0.147,0.734-0.297,1.471-0.451,2.202C426.284,273.297,426.14,273.408,425.981,273.408z      M67.345,271.312c-0.161,0-0.305-0.113-0.338-0.276c-0.146-0.736-0.287-1.475-0.424-2.209c-0.035-0.188,0.088-0.366,0.274-0.402     c0.191-0.02,0.366,0.088,0.401,0.276c0.137,0.734,0.278,1.468,0.424,2.2c0.036,0.188-0.085,0.368-0.271,0.404     C67.389,271.309,67.367,271.312,67.345,271.312z M426.852,269.001c-0.02,0-0.041-0.002-0.062-0.005     c-0.186-0.036-0.311-0.215-0.276-0.402c0.134-0.734,0.267-1.468,0.394-2.207c0.033-0.187,0.201-0.319,0.398-0.28     c0.188,0.032,0.313,0.21,0.28,0.398c-0.128,0.739-0.26,1.477-0.396,2.216C427.159,268.886,427.015,269.001,426.852,269.001z      M66.525,266.896c-0.165,0-0.31-0.117-0.339-0.285c-0.128-0.739-0.251-1.477-0.369-2.22c-0.029-0.188,0.098-0.364,0.286-0.393     c0.197-0.041,0.365,0.099,0.394,0.285c0.116,0.739,0.239,1.477,0.367,2.211c0.033,0.188-0.093,0.366-0.28,0.397     C66.564,266.896,66.545,266.896,66.525,266.896z M427.615,264.574c-0.018,0-0.036,0-0.054-0.005     c-0.188-0.029-0.315-0.206-0.286-0.393c0.119-0.739,0.232-1.477,0.341-2.216c0.027-0.188,0.185-0.312,0.391-0.291     c0.187,0.029,0.317,0.203,0.289,0.391c-0.11,0.743-0.222,1.486-0.341,2.225C427.928,264.454,427.781,264.574,427.615,264.574z      M65.816,262.457c-0.168,0-0.315-0.122-0.34-0.294c-0.11-0.741-0.216-1.484-0.315-2.229c-0.025-0.188,0.107-0.361,0.296-0.386     c0.18-0.02,0.359,0.106,0.386,0.296c0.099,0.741,0.203,1.48,0.313,2.22c0.028,0.188-0.102,0.361-0.289,0.391     C65.849,262.457,65.832,262.457,65.816,262.457z M428.269,260.129c-0.015,0-0.03,0-0.046-0.002     c-0.189-0.025-0.32-0.199-0.295-0.386c0.1-0.741,0.195-1.482,0.286-2.223c0.023-0.19,0.185-0.35,0.383-0.3     c0.189,0.023,0.323,0.194,0.299,0.382c-0.09,0.745-0.185,1.491-0.286,2.232C428.587,260.004,428.439,260.129,428.269,260.129z      M65.213,258.008c-0.172,0-0.32-0.126-0.341-0.3c-0.092-0.745-0.179-1.491-0.261-2.236c-0.02-0.19,0.116-0.359,0.305-0.38     c0.184-0.05,0.359,0.118,0.38,0.303c0.08,0.745,0.167,1.486,0.259,2.227c0.024,0.19-0.111,0.361-0.299,0.384     C65.241,258.008,65.227,258.008,65.213,258.008z M428.814,255.67c-0.012,0-0.025,0-0.038-0.002     c-0.189-0.02-0.324-0.19-0.304-0.379c0.082-0.741,0.159-1.484,0.232-2.229c0.018-0.185,0.171-0.298,0.375-0.31     c0.19,0.02,0.327,0.188,0.309,0.377c-0.072,0.745-0.149,1.493-0.232,2.238C429.135,255.541,428.986,255.67,428.814,255.67z      M64.722,253.542c-0.175,0-0.325-0.133-0.342-0.309c-0.072-0.745-0.141-1.493-0.204-2.241c-0.017-0.19,0.124-0.357,0.313-0.373     c0.205,0,0.357,0.126,0.371,0.314c0.063,0.748,0.132,1.491,0.204,2.232c0.018,0.19-0.12,0.357-0.309,0.375     C64.743,253.542,64.732,253.542,64.722,253.542z M429.248,251.2c-0.009,0-0.019,0-0.029,0c-0.189-0.016-0.33-0.183-0.313-0.373     c0.063-0.743,0.121-1.488,0.175-2.234c0.014-0.19,0.14-0.334,0.368-0.318c0.19,0.014,0.332,0.178,0.319,0.368     c-0.054,0.75-0.114,1.495-0.177,2.243C429.576,251.064,429.426,251.2,429.248,251.2z M64.339,249.068     c-0.178,0-0.33-0.138-0.343-0.318c-0.054-0.745-0.104-1.495-0.15-2.245c-0.011-0.19,0.132-0.352,0.322-0.364     c0.207-0.025,0.352,0.131,0.365,0.323c0.046,0.745,0.096,1.491,0.15,2.236c0.014,0.19-0.129,0.355-0.318,0.368     C64.356,249.068,64.347,249.068,64.339,249.068z M429.574,246.716c-0.007,0-0.013,0-0.02,0c-0.19-0.011-0.334-0.174-0.323-0.364     c0.045-0.745,0.086-1.491,0.122-2.236c0.01-0.19,0.183-0.294,0.36-0.327c0.19,0.009,0.335,0.169,0.326,0.359     c-0.036,0.75-0.077,1.5-0.122,2.245C429.906,246.576,429.754,246.716,429.574,246.716z M64.066,244.584     c-0.183,0-0.334-0.142-0.343-0.328c-0.036-0.748-0.068-1.498-0.096-2.247c-0.008-0.19,0.141-0.35,0.331-0.357     c0.003,0,0.008,0,0.012,0c0.184,0,0.337,0.145,0.343,0.33c0.028,0.75,0.06,1.495,0.096,2.243c0.009,0.19-0.137,0.35-0.326,0.359     C64.077,244.584,64.071,244.584,64.066,244.584z M429.79,242.233c-0.004,0-0.008,0-0.012,0c-0.19-0.007-0.338-0.167-0.331-0.357     c0.027-0.745,0.05-1.491,0.068-2.241c0.006-0.187,0.152-0.337,0.351-0.334c0.19,0.005,0.34,0.163,0.335,0.352     c-0.018,0.75-0.041,1.5-0.068,2.25C430.127,242.088,429.975,242.233,429.79,242.233z M63.901,240.1     c-0.186,0-0.339-0.149-0.343-0.334c-0.018-0.748-0.032-1.495-0.042-2.245c-0.002-0.19,0.132-0.309,0.343-0.348     c0.188,0,0.341,0.151,0.343,0.339c0.01,0.745,0.024,1.493,0.042,2.236c0.005,0.19-0.146,0.348-0.335,0.352     C63.906,240.1,63.903,240.1,63.901,240.1z M429.899,237.744c-0.001,0-0.002,0-0.004,0c-0.19-0.002-0.341-0.158-0.339-0.348     c0.009-0.748,0.014-1.495,0.014-2.243v-0.239c0-0.19,0.154-0.343,0.343-0.343c0.19,0,0.343,0.154,0.343,0.343v0.239     c0,0.752-0.005,1.5-0.014,2.252C430.24,237.593,430.086,237.744,429.899,237.744z M63.844,235.61     c-0.19,0-0.343-0.154-0.343-0.343l-0.001-0.102c0-0.725,0.005-1.437,0.012-2.148c0.001-0.188,0.155-0.339,0.343-0.339     c0.001,0,0.002,0,0.003,0c0.191,0.002,0.342,0.158,0.34,0.348c-0.008,0.707-0.012,1.418-0.012,2.128l0.001,0.113     C64.188,235.456,64.034,235.61,63.844,235.61z M429.894,233.012c-0.188,0-0.341-0.151-0.343-0.339     c-0.009-0.745-0.024-1.493-0.043-2.236c-0.006-0.19,0.145-0.348,0.334-0.352c0.003,0,0.007,0,0.009,0     c0.186,0,0.339,0.147,0.343,0.334c0.019,0.748,0.034,1.495,0.043,2.245c0.002,0.19-0.149,0.346-0.339,0.348     C429.897,233.012,429.896,233.012,429.894,233.012z M63.895,231.12c-0.002,0-0.006,0-0.008,0c-0.19-0.005-0.34-0.163-0.336-0.352     c0.018-0.75,0.041-1.5,0.067-2.247c0.006-0.185,0.159-0.332,0.343-0.332c0.003,0,0.008,0,0.012,0     c0.19,0.007,0.338,0.165,0.331,0.355c-0.026,0.748-0.049,1.493-0.067,2.243C64.234,230.97,64.081,231.12,63.895,231.12z      M429.783,228.533c-0.184,0-0.336-0.145-0.343-0.332c-0.027-0.748-0.06-1.493-0.097-2.239c-0.009-0.19,0.137-0.352,0.326-0.361     c0.177,0.016,0.351,0.138,0.36,0.325c0.037,0.75,0.07,1.5,0.097,2.25c0.007,0.192-0.141,0.35-0.331,0.357     C429.79,228.533,429.786,228.533,429.783,228.533z M64.054,226.631c-0.006,0-0.011,0-0.017,0     c-0.19-0.009-0.336-0.169-0.326-0.359c0.036-0.75,0.077-1.498,0.121-2.245c0.012-0.19,0.192-0.294,0.364-0.323     c0.19,0.011,0.334,0.174,0.323,0.364c-0.044,0.743-0.085,1.491-0.121,2.236C64.389,226.489,64.237,226.631,64.054,226.631z      M429.559,224.045c-0.181,0-0.332-0.14-0.343-0.323c-0.045-0.745-0.096-1.491-0.151-2.236c-0.014-0.19,0.129-0.355,0.317-0.368     c0.009,0,0.018,0,0.026,0c0.178,0,0.33,0.138,0.343,0.319c0.055,0.745,0.106,1.495,0.151,2.245     c0.011,0.19-0.133,0.352-0.323,0.364C429.573,224.045,429.566,224.045,429.559,224.045z M64.322,222.146     c-0.008,0-0.017,0-0.025,0c-0.19-0.014-0.332-0.178-0.318-0.368c0.054-0.75,0.114-1.495,0.176-2.243     c0.016-0.188,0.191-0.312,0.37-0.314c0.19,0.016,0.33,0.183,0.314,0.373c-0.062,0.743-0.12,1.489-0.174,2.234     C64.652,222.008,64.5,222.146,64.322,222.146z M429.228,219.566c-0.177,0-0.327-0.136-0.342-0.314     c-0.064-0.745-0.133-1.491-0.207-2.232c-0.018-0.19,0.12-0.357,0.308-0.375c0.183-0.052,0.357,0.117,0.376,0.307     c0.074,0.745,0.142,1.491,0.207,2.241c0.017,0.19-0.123,0.355-0.313,0.373C429.247,219.566,429.237,219.566,429.228,219.566z      M64.699,217.671c-0.01,0-0.021,0-0.033,0c-0.19-0.02-0.327-0.188-0.309-0.377c0.072-0.745,0.149-1.493,0.23-2.238     c0.02-0.188,0.189-0.337,0.379-0.303c0.189,0.02,0.325,0.19,0.305,0.38c-0.081,0.741-0.158,1.484-0.23,2.229     C65.024,217.538,64.874,217.671,64.699,217.671z M428.788,215.096c-0.173,0-0.322-0.129-0.342-0.305     c-0.081-0.745-0.168-1.486-0.26-2.227c-0.024-0.19,0.111-0.361,0.299-0.384c0.178-0.048,0.36,0.111,0.383,0.298     c0.091,0.745,0.178,1.491,0.262,2.236c0.02,0.19-0.115,0.359-0.305,0.38C428.812,215.096,428.8,215.096,428.788,215.096z      M65.187,213.208c-0.014,0-0.027,0-0.042-0.002c-0.189-0.022-0.322-0.194-0.299-0.382c0.09-0.745,0.185-1.491,0.285-2.232     c0.026-0.19,0.203-0.307,0.386-0.296c0.189,0.025,0.321,0.199,0.296,0.386c-0.099,0.741-0.194,1.482-0.285,2.223     C65.507,213.081,65.359,213.208,65.187,213.208z M428.238,210.637c-0.169,0-0.317-0.124-0.341-0.298     c-0.1-0.741-0.204-1.479-0.314-2.22c-0.028-0.187,0.102-0.361,0.289-0.391c0.206-0.016,0.364,0.104,0.391,0.291     c0.11,0.741,0.216,1.484,0.316,2.229c0.025,0.188-0.107,0.361-0.295,0.386C428.268,210.637,428.252,210.637,428.238,210.637z      M65.783,208.753c-0.016,0-0.033,0-0.05-0.002c-0.188-0.029-0.318-0.203-0.29-0.391c0.108-0.743,0.221-1.484,0.339-2.225     c0.031-0.188,0.203-0.328,0.394-0.285c0.188,0.029,0.315,0.206,0.286,0.393c-0.117,0.736-0.23,1.477-0.339,2.216     C66.098,208.631,65.952,208.753,65.783,208.753z M427.58,206.194c-0.166,0-0.312-0.12-0.34-0.289     c-0.119-0.739-0.242-1.477-0.369-2.211c-0.033-0.188,0.093-0.366,0.28-0.398c0.2-0.052,0.365,0.095,0.398,0.28     c0.128,0.739,0.251,1.477,0.372,2.22c0.029,0.187-0.097,0.364-0.285,0.393C427.616,206.194,427.598,206.194,427.58,206.194z      M66.488,204.317c-0.019,0-0.038,0-0.058-0.005c-0.188-0.032-0.313-0.21-0.281-0.398c0.126-0.739,0.257-1.477,0.395-2.216     c0.035-0.188,0.211-0.296,0.401-0.276c0.186,0.036,0.309,0.215,0.274,0.402c-0.136,0.734-0.267,1.468-0.393,2.207     C66.799,204.2,66.653,204.317,66.488,204.317z M426.811,201.767c-0.163,0-0.307-0.115-0.338-0.28     c-0.138-0.734-0.279-1.468-0.425-2.2c-0.036-0.187,0.085-0.368,0.271-0.404c0.189-0.05,0.367,0.086,0.404,0.269     c0.146,0.736,0.287,1.471,0.425,2.209c0.035,0.188-0.088,0.366-0.274,0.402C426.853,201.765,426.832,201.767,426.811,201.767z      M67.302,199.901c-0.021,0-0.044-0.002-0.067-0.007c-0.186-0.036-0.307-0.217-0.271-0.402c0.146-0.739,0.295-1.475,0.45-2.207     c0.039-0.188,0.224-0.307,0.408-0.266c0.185,0.038,0.305,0.221,0.265,0.406c-0.155,0.732-0.304,1.464-0.447,2.198     C67.607,199.788,67.464,199.901,67.302,199.901z M425.934,197.363c-0.159,0-0.301-0.111-0.336-0.271     c-0.156-0.732-0.314-1.461-0.478-2.191c-0.042-0.185,0.074-0.368,0.26-0.411c0.186-0.034,0.369,0.077,0.411,0.262     c0.164,0.73,0.324,1.464,0.48,2.195c0.039,0.188-0.079,0.368-0.265,0.409C425.981,197.36,425.957,197.363,425.934,197.363z      M68.225,195.504c-0.025,0-0.05-0.002-0.075-0.007c-0.185-0.043-0.303-0.226-0.261-0.411c0.163-0.734,0.33-1.464,0.504-2.193     c0.044-0.185,0.233-0.3,0.413-0.255c0.185,0.043,0.299,0.228,0.255,0.413c-0.172,0.725-0.339,1.455-0.501,2.184     C68.525,195.395,68.383,195.504,68.225,195.504z M424.949,192.981c-0.156,0-0.297-0.106-0.334-0.264     c-0.174-0.727-0.351-1.455-0.532-2.177c-0.046-0.185,0.065-0.37,0.25-0.418c0.183-0.048,0.37,0.068,0.417,0.251     c0.183,0.727,0.36,1.455,0.534,2.186c0.044,0.183-0.07,0.371-0.254,0.413C425.002,192.978,424.975,192.981,424.949,192.981z      M69.256,191.131c-0.027,0-0.055-0.002-0.082-0.009c-0.185-0.048-0.297-0.233-0.251-0.418c0.181-0.727,0.366-1.455,0.558-2.182     c0.048-0.183,0.241-0.303,0.419-0.244c0.184,0.048,0.294,0.235,0.245,0.42c-0.19,0.723-0.375,1.446-0.556,2.173     C69.551,191.027,69.411,191.131,69.256,191.131z M423.856,188.621c-0.153,0-0.291-0.102-0.332-0.255     c-0.192-0.72-0.387-1.443-0.586-2.162c-0.051-0.183,0.056-0.373,0.239-0.425c0.181-0.047,0.372,0.059,0.422,0.24     c0.201,0.723,0.396,1.446,0.588,2.171c0.049,0.183-0.06,0.373-0.244,0.42C423.914,188.619,423.885,188.621,423.856,188.621z      M70.396,186.787c-0.031,0-0.061-0.005-0.091-0.011c-0.183-0.052-0.29-0.24-0.241-0.422c0.2-0.725,0.403-1.448,0.61-2.166     c0.054-0.183,0.246-0.282,0.426-0.235c0.183,0.052,0.288,0.242,0.236,0.425c-0.207,0.718-0.41,1.436-0.608,2.157     C70.685,186.688,70.547,186.787,70.396,186.787z M422.655,184.296c-0.149,0-0.287-0.097-0.33-0.246     c-0.209-0.718-0.422-1.434-0.639-2.15c-0.055-0.181,0.046-0.373,0.228-0.429c0.188-0.052,0.374,0.047,0.429,0.23     c0.219,0.716,0.432,1.437,0.641,2.155c0.053,0.183-0.052,0.375-0.234,0.427C422.719,184.291,422.687,184.296,422.655,184.296z      M71.641,182.473c-0.033,0-0.067-0.005-0.099-0.014c-0.182-0.056-0.285-0.248-0.229-0.429c0.218-0.723,0.44-1.441,0.665-2.159     c0.058-0.183,0.253-0.285,0.431-0.226c0.181,0.057,0.282,0.248,0.226,0.429c-0.225,0.718-0.447,1.437-0.665,2.155     C71.926,182.378,71.789,182.473,71.641,182.473z M421.347,180c-0.146,0-0.281-0.093-0.328-0.239     c-0.227-0.714-0.457-1.425-0.692-2.132c-0.06-0.181,0.038-0.375,0.218-0.434c0.178-0.068,0.376,0.036,0.435,0.217     c0.235,0.712,0.468,1.423,0.695,2.141c0.058,0.181-0.043,0.375-0.224,0.431C421.416,179.995,421.381,180,421.347,180z      M73,178.168c-0.036,0-0.072-0.005-0.107-0.016c-0.181-0.061-0.279-0.255-0.219-0.436c0.235-0.714,0.475-1.428,0.719-2.139     c0.061-0.183,0.256-0.276,0.437-0.215c0.179,0.061,0.274,0.258,0.213,0.436c-0.244,0.711-0.482,1.421-0.717,2.135     C73.279,178.077,73.145,178.168,73,178.168z M419.933,175.733c-0.142,0-0.276-0.088-0.325-0.23     c-0.244-0.707-0.492-1.412-0.745-2.116c-0.063-0.178,0.029-0.375,0.208-0.438c0.18-0.063,0.376,0.027,0.44,0.208     c0.253,0.705,0.501,1.414,0.748,2.121c0.062,0.181-0.033,0.375-0.212,0.438C420.009,175.728,419.971,175.733,419.933,175.733z      M74.465,173.905c-0.038,0-0.078-0.007-0.116-0.02c-0.178-0.063-0.271-0.26-0.208-0.438c0.254-0.709,0.512-1.416,0.774-2.121     c0.065-0.176,0.261-0.264,0.441-0.203c0.179,0.068,0.269,0.264,0.202,0.443c-0.26,0.7-0.517,1.407-0.769,2.112     C74.738,173.82,74.606,173.905,74.465,173.905z M418.415,171.509c-0.139,0-0.271-0.086-0.322-0.224     c-0.262-0.7-0.527-1.4-0.797-2.096c-0.069-0.178,0.019-0.377,0.197-0.445c0.175-0.07,0.375,0.02,0.445,0.196     c0.27,0.7,0.538,1.4,0.8,2.105c0.067,0.179-0.024,0.375-0.202,0.443C418.496,171.502,418.455,171.509,418.415,171.509z      M76.035,169.677c-0.041,0-0.082-0.007-0.123-0.023c-0.177-0.068-0.265-0.267-0.198-0.445c0.27-0.702,0.546-1.405,0.825-2.103     c0.071-0.176,0.274-0.264,0.447-0.19c0.176,0.07,0.262,0.271,0.192,0.447c-0.279,0.693-0.552,1.391-0.822,2.094     C76.303,169.594,76.172,169.677,76.035,169.677z M416.794,167.319c-0.137,0-0.265-0.081-0.32-0.215     c-0.277-0.693-0.559-1.38-0.844-2.069c-0.073-0.174,0.01-0.375,0.185-0.449c0.18-0.07,0.378,0.011,0.449,0.188     c0.287,0.689,0.569,1.38,0.848,2.074c0.07,0.176-0.016,0.377-0.192,0.447C416.88,167.312,416.837,167.319,416.794,167.319z      M77.707,165.494c-0.044,0-0.089-0.007-0.132-0.025c-0.175-0.074-0.259-0.276-0.185-0.449c0.288-0.696,0.58-1.387,0.876-2.08     c0.076-0.174,0.279-0.249,0.452-0.181c0.174,0.074,0.255,0.278,0.181,0.452c-0.296,0.689-0.586,1.38-0.874,2.071     C77.97,165.415,77.842,165.494,77.707,165.494z M415.075,163.188c-0.133,0-0.26-0.077-0.316-0.208     c-0.294-0.684-0.593-1.367-0.895-2.044c-0.077-0.174,0.001-0.377,0.174-0.454c0.167-0.077,0.377-0.002,0.454,0.174     c0.304,0.682,0.603,1.364,0.899,2.053c0.075,0.174-0.006,0.377-0.181,0.452C415.166,163.179,415.12,163.188,415.075,163.188z      M79.483,161.351c-0.046,0-0.094-0.009-0.14-0.029c-0.173-0.077-0.251-0.28-0.174-0.454c0.305-0.687,0.614-1.373,0.927-2.055     c0.081-0.174,0.286-0.253,0.456-0.169c0.173,0.079,0.248,0.282,0.169,0.454c-0.313,0.682-0.62,1.364-0.925,2.051     C79.74,161.277,79.614,161.351,79.483,161.351z M413.255,159.099c-0.13,0-0.255-0.075-0.313-0.201     c-0.311-0.678-0.627-1.351-0.945-2.024c-0.081-0.172-0.008-0.375,0.163-0.456c0.173-0.088,0.377-0.009,0.458,0.163     c0.321,0.673,0.637,1.351,0.95,2.033c0.079,0.172,0.003,0.375-0.169,0.454C413.352,159.09,413.304,159.099,413.255,159.099z      M81.36,157.256c-0.05,0-0.099-0.009-0.148-0.034c-0.171-0.081-0.244-0.285-0.163-0.456c0.322-0.68,0.648-1.355,0.978-2.033     c0.082-0.172,0.29-0.237,0.461-0.158c0.171,0.083,0.241,0.289,0.158,0.461c-0.33,0.673-0.654,1.348-0.976,2.024     C81.611,157.184,81.488,157.256,81.36,157.256z M411.337,155.056c-0.126,0-0.249-0.07-0.308-0.192     c-0.33-0.666-0.661-1.335-0.997-1.999c-0.086-0.169-0.017-0.377,0.152-0.463c0.168-0.088,0.375-0.018,0.462,0.151     c0.337,0.669,0.67,1.337,1,2.008c0.084,0.169,0.014,0.375-0.156,0.461C411.439,155.045,411.387,155.056,411.337,155.056z      M83.338,153.211c-0.052,0-0.105-0.011-0.155-0.036c-0.169-0.086-0.238-0.291-0.152-0.461c0.339-0.673,0.681-1.344,1.029-2.008     c0.087-0.169,0.297-0.237,0.464-0.147c0.168,0.088,0.234,0.296,0.146,0.463c-0.346,0.664-0.688,1.33-1.024,1.999     C83.585,153.143,83.464,153.211,83.338,153.211z M409.317,151.06c-0.124,0-0.244-0.068-0.305-0.185     c-0.344-0.66-0.693-1.319-1.045-1.974c-0.09-0.167-0.027-0.375,0.14-0.465c0.165-0.086,0.375-0.027,0.465,0.14     c0.354,0.66,0.703,1.319,1.049,1.983c0.088,0.167,0.023,0.375-0.146,0.463C409.426,151.049,409.371,151.06,409.317,151.06z      M85.414,149.215c-0.055,0-0.111-0.014-0.163-0.041c-0.167-0.09-0.23-0.298-0.14-0.465c0.355-0.662,0.714-1.324,1.075-1.981     c0.091-0.172,0.299-0.23,0.468-0.136c0.166,0.09,0.227,0.301,0.135,0.465c-0.361,0.657-0.718,1.315-1.073,1.977     C85.655,149.15,85.536,149.215,85.414,149.215z M407.2,147.114c-0.121,0-0.238-0.063-0.302-0.176     c-0.36-0.655-0.724-1.303-1.093-1.952c-0.094-0.165-0.036-0.375,0.129-0.468c0.168-0.097,0.376-0.036,0.47,0.129     c0.369,0.648,0.735,1.301,1.098,1.956c0.092,0.167,0.031,0.377-0.135,0.468C407.313,147.101,407.256,147.114,407.2,147.114z      M87.587,145.274c-0.058,0-0.116-0.014-0.17-0.045c-0.165-0.093-0.224-0.303-0.13-0.468c0.372-0.655,0.745-1.306,1.125-1.956     c0.097-0.165,0.307-0.226,0.47-0.122c0.165,0.095,0.22,0.305,0.124,0.47c-0.377,0.646-0.751,1.296-1.12,1.947     C87.823,145.213,87.707,145.274,87.587,145.274z M404.985,143.22c-0.117,0-0.233-0.061-0.297-0.169     c-0.376-0.646-0.756-1.285-1.141-1.922c-0.098-0.163-0.045-0.375,0.117-0.472c0.158-0.099,0.374-0.048,0.472,0.115     c0.385,0.641,0.767,1.285,1.145,1.931c0.096,0.165,0.041,0.375-0.124,0.47C405.104,143.207,405.044,143.22,404.985,143.22z      M89.857,141.389c-0.061,0-0.122-0.016-0.177-0.047c-0.163-0.099-0.216-0.309-0.118-0.472c0.387-0.646,0.777-1.288,1.172-1.927     c0.101-0.163,0.315-0.215,0.473-0.111c0.161,0.099,0.211,0.312,0.112,0.472c-0.393,0.637-0.783,1.276-1.168,1.918     C90.087,141.33,89.973,141.389,89.857,141.389z M402.674,139.378c-0.115,0-0.227-0.056-0.292-0.163     c-0.392-0.632-0.788-1.265-1.188-1.893c-0.102-0.16-0.054-0.373,0.106-0.474c0.157-0.108,0.37-0.057,0.474,0.104     c0.402,0.632,0.798,1.265,1.193,1.902c0.099,0.16,0.05,0.373-0.112,0.472C402.798,139.362,402.736,139.378,402.674,139.378z      M92.221,137.558c-0.063,0-0.128-0.016-0.184-0.054c-0.16-0.102-0.208-0.314-0.106-0.474c0.403-0.632,0.809-1.265,1.219-1.893     c0.105-0.16,0.321-0.199,0.475-0.102c0.159,0.104,0.204,0.319,0.101,0.477c-0.408,0.628-0.813,1.256-1.214,1.888     C92.446,137.501,92.334,137.558,92.221,137.558z M400.272,135.597c-0.112,0-0.221-0.054-0.288-0.156     c-0.408-0.623-0.82-1.247-1.234-1.866c-0.105-0.158-0.063-0.373,0.095-0.479c0.158-0.104,0.372-0.063,0.477,0.095     c0.417,0.623,0.829,1.247,1.239,1.875c0.104,0.158,0.059,0.37-0.099,0.474C400.402,135.579,400.336,135.597,400.272,135.597z      M94.677,133.792c-0.065,0-0.132-0.018-0.191-0.056c-0.158-0.106-0.201-0.321-0.095-0.479c0.418-0.623,0.84-1.247,1.266-1.864     c0.107-0.156,0.321-0.194,0.478-0.086c0.156,0.108,0.195,0.321,0.087,0.479c-0.424,0.612-0.844,1.231-1.259,1.854     C94.896,133.738,94.788,133.792,94.677,133.792z M397.775,131.875c-0.11,0-0.217-0.052-0.283-0.149     c-0.422-0.617-0.848-1.229-1.28-1.836c-0.109-0.156-0.072-0.37,0.082-0.479c0.156-0.109,0.369-0.075,0.48,0.081     c0.431,0.612,0.859,1.224,1.284,1.845c0.107,0.156,0.068,0.37-0.089,0.479C397.909,131.857,397.843,131.875,397.775,131.875z      M97.225,130.086c-0.069,0-0.138-0.02-0.199-0.063c-0.155-0.108-0.192-0.323-0.082-0.479c0.434-0.612,0.871-1.224,1.311-1.83     c0.111-0.151,0.327-0.19,0.48-0.077c0.154,0.111,0.188,0.325,0.076,0.479c-0.438,0.605-0.873,1.213-1.304,1.825     C97.439,130.036,97.332,130.086,97.225,130.086z M395.188,128.211c-0.106,0-0.211-0.05-0.279-0.142     c-0.436-0.603-0.878-1.206-1.322-1.805c-0.114-0.154-0.081-0.368,0.071-0.481c0.15-0.111,0.368-0.081,0.48,0.07     c0.447,0.603,0.891,1.206,1.329,1.814c0.111,0.154,0.077,0.368-0.078,0.479C395.328,128.191,395.258,128.211,395.188,128.211z      M99.862,126.445c-0.071,0-0.143-0.023-0.205-0.068c-0.153-0.113-0.184-0.328-0.07-0.481c0.447-0.601,0.899-1.202,1.354-1.798     c0.115-0.154,0.33-0.181,0.481-0.065c0.151,0.115,0.181,0.33,0.065,0.481c-0.453,0.596-0.902,1.193-1.35,1.793     C100.07,126.397,99.967,126.445,99.862,126.445z M392.513,124.611c-0.104,0-0.206-0.045-0.273-0.135     c-0.452-0.592-0.909-1.184-1.369-1.771c-0.116-0.149-0.09-0.366,0.06-0.483c0.147-0.12,0.365-0.09,0.482,0.059     c0.462,0.592,0.919,1.184,1.373,1.78c0.115,0.151,0.086,0.366-0.064,0.481C392.659,124.588,392.587,124.611,392.513,124.611z      M102.586,122.869c-0.075,0-0.149-0.023-0.212-0.072c-0.149-0.118-0.175-0.334-0.059-0.483c0.463-0.59,0.929-1.179,1.397-1.764     c0.12-0.154,0.334-0.172,0.483-0.054c0.148,0.12,0.173,0.334,0.054,0.483c-0.468,0.585-0.932,1.17-1.393,1.759     C102.789,122.824,102.688,122.869,102.586,122.869z M389.75,121.078c-0.1,0-0.2-0.043-0.268-0.129     c-0.469-0.58-0.938-1.161-1.412-1.737c-0.121-0.147-0.099-0.364,0.047-0.486c0.146-0.12,0.362-0.097,0.483,0.047     c0.475,0.58,0.948,1.161,1.416,1.746c0.12,0.147,0.096,0.364-0.052,0.483C389.902,121.053,389.825,121.078,389.75,121.078z      M105.398,119.361c-0.077,0-0.155-0.025-0.218-0.077c-0.147-0.122-0.168-0.339-0.047-0.486c0.477-0.578,0.955-1.157,1.439-1.73     c0.123-0.145,0.338-0.167,0.484-0.043c0.146,0.124,0.164,0.341,0.042,0.486c-0.481,0.574-0.96,1.147-1.434,1.726     C105.596,119.318,105.498,119.361,105.398,119.361z M386.9,117.611c-0.097,0-0.194-0.041-0.263-0.122     c-0.481-0.569-0.966-1.138-1.455-1.705c-0.123-0.142-0.107-0.359,0.036-0.483c0.145-0.124,0.36-0.111,0.486,0.036     c0.489,0.567,0.976,1.136,1.459,1.71c0.122,0.145,0.104,0.361-0.042,0.483C387.057,117.584,386.978,117.611,386.9,117.611z      M108.294,115.926c-0.08,0-0.159-0.027-0.225-0.084c-0.144-0.124-0.159-0.341-0.036-0.483c0.49-0.569,0.984-1.134,1.482-1.696     c0.125-0.142,0.342-0.158,0.486-0.029c0.142,0.127,0.155,0.343,0.029,0.486c-0.496,0.558-0.987,1.123-1.475,1.687     C108.486,115.885,108.39,115.926,108.294,115.926z M383.966,114.214c-0.095,0-0.19-0.038-0.257-0.115     c-0.495-0.56-0.993-1.116-1.494-1.669c-0.128-0.14-0.117-0.357,0.023-0.486c0.142-0.127,0.359-0.115,0.486,0.025     c0.504,0.553,1.004,1.114,1.501,1.674c0.125,0.142,0.113,0.359-0.029,0.486C384.129,114.186,384.047,114.214,383.966,114.214z      M111.271,112.56c-0.082,0-0.165-0.029-0.23-0.088c-0.141-0.129-0.152-0.346-0.025-0.486c0.504-0.558,1.011-1.109,1.522-1.66     c0.129-0.138,0.348-0.149,0.486-0.016c0.139,0.129,0.147,0.346,0.018,0.486c-0.509,0.547-1.014,1.098-1.516,1.651     C111.459,112.522,111.365,112.56,111.271,112.56z M380.948,110.891c-0.093,0-0.184-0.036-0.252-0.108     c-0.508-0.549-1.02-1.093-1.535-1.633c-0.131-0.138-0.126-0.355,0.011-0.486c0.139-0.129,0.358-0.124,0.486,0.011     c0.517,0.544,1.031,1.089,1.542,1.638c0.13,0.14,0.121,0.357-0.018,0.488C381.116,110.862,381.032,110.891,380.948,110.891z      M114.329,109.271c-0.085,0-0.171-0.032-0.237-0.095c-0.138-0.131-0.142-0.348-0.011-0.486c0.517-0.542,1.037-1.084,1.562-1.619     c0.134-0.138,0.352-0.14,0.487-0.007c0.135,0.133,0.138,0.35,0.006,0.486c-0.523,0.535-1.041,1.073-1.557,1.615     C114.511,109.235,114.42,109.271,114.329,109.271z M377.852,107.638c-0.089,0-0.178-0.034-0.246-0.104     c-0.521-0.533-1.046-1.066-1.574-1.592c-0.134-0.135-0.134-0.352-0.001-0.488c0.135-0.131,0.354-0.131,0.487,0     c0.531,0.531,1.058,1.064,1.581,1.601c0.132,0.136,0.13,0.352-0.007,0.486C378.025,107.607,377.939,107.638,377.852,107.638z      M117.467,106.055c-0.088,0-0.176-0.034-0.243-0.099c-0.134-0.135-0.134-0.352,0-0.488c0.531-0.529,1.064-1.055,1.6-1.581     c0.135-0.133,0.354-0.131,0.487,0.007c0.132,0.135,0.13,0.352-0.006,0.486c-0.534,0.522-1.067,1.048-1.596,1.577     C117.643,106.021,117.555,106.055,117.467,106.055z M374.677,104.465c-0.087,0-0.173-0.032-0.239-0.097     c-0.536-0.522-1.074-1.039-1.615-1.556c-0.138-0.131-0.142-0.348-0.011-0.486c0.133-0.136,0.35-0.14,0.486-0.011     c0.543,0.517,1.083,1.039,1.62,1.561c0.137,0.133,0.139,0.35,0.007,0.486C374.857,104.431,374.766,104.465,374.677,104.465z      M120.681,102.92c-0.09,0-0.182-0.036-0.25-0.106c-0.13-0.138-0.125-0.355,0.012-0.486c0.543-0.517,1.09-1.03,1.636-1.54     c0.141-0.131,0.359-0.122,0.486,0.016c0.13,0.14,0.123,0.357-0.016,0.486c-0.547,0.51-1.091,1.023-1.632,1.536     C120.852,102.888,120.766,102.92,120.681,102.92z M371.423,101.368c-0.084,0-0.167-0.029-0.234-0.09     c-0.549-0.508-1.099-1.014-1.653-1.516c-0.14-0.129-0.15-0.346-0.023-0.486c0.126-0.142,0.342-0.151,0.486-0.025     c0.555,0.506,1.107,1.012,1.658,1.52c0.139,0.129,0.148,0.348,0.019,0.486C371.609,101.332,371.516,101.368,371.423,101.368z      M123.969,99.866c-0.094,0-0.188-0.038-0.255-0.113c-0.128-0.14-0.116-0.359,0.025-0.486c0.556-0.501,1.112-1.003,1.674-1.5     c0.141-0.129,0.359-0.115,0.486,0.029c0.125,0.142,0.113,0.359-0.029,0.486c-0.559,0.497-1.116,0.994-1.669,1.495     C124.134,99.837,124.051,99.866,123.969,99.866z M368.093,98.353c-0.081,0-0.163-0.027-0.228-0.086     c-0.56-0.497-1.123-0.987-1.689-1.477c-0.143-0.124-0.159-0.341-0.035-0.486c0.124-0.142,0.343-0.158,0.484-0.034     c0.568,0.49,1.133,0.985,1.695,1.482c0.142,0.127,0.155,0.343,0.029,0.486C368.283,98.314,368.188,98.353,368.093,98.353z      M127.332,96.891c-0.096,0-0.192-0.041-0.261-0.12c-0.123-0.142-0.107-0.359,0.036-0.483c0.567-0.49,1.137-0.976,1.711-1.459     c0.147-0.122,0.363-0.102,0.485,0.043c0.122,0.145,0.104,0.361-0.042,0.486c-0.571,0.479-1.139,0.965-1.704,1.45     C127.491,96.864,127.412,96.891,127.332,96.891z M364.693,95.414c-0.079,0-0.157-0.027-0.221-0.081     c-0.571-0.481-1.146-0.96-1.725-1.432c-0.147-0.12-0.168-0.337-0.049-0.483c0.121-0.149,0.337-0.172,0.484-0.05     c0.581,0.477,1.158,0.955,1.731,1.441c0.146,0.122,0.164,0.339,0.042,0.483C364.888,95.373,364.791,95.414,364.693,95.414z      M130.764,94c-0.099,0-0.198-0.043-0.265-0.124c-0.121-0.147-0.099-0.364,0.048-0.486c0.579-0.474,1.161-0.949,1.746-1.414     c0.148-0.115,0.366-0.097,0.483,0.054c0.119,0.149,0.094,0.366-0.054,0.483c-0.583,0.465-1.162,0.935-1.739,1.41     C130.918,93.975,130.841,94,130.764,94z M361.218,92.563c-0.076,0-0.152-0.025-0.216-0.075c-0.583-0.47-1.168-0.933-1.757-1.394     c-0.15-0.117-0.176-0.332-0.06-0.483c0.118-0.149,0.337-0.176,0.482-0.059c0.592,0.461,1.181,0.928,1.766,1.398     c0.148,0.12,0.172,0.337,0.052,0.483C361.418,92.521,361.319,92.563,361.218,92.563z M134.265,91.195     c-0.102,0-0.203-0.045-0.271-0.131c-0.116-0.151-0.09-0.366,0.06-0.483c0.591-0.461,1.184-0.919,1.78-1.371     c0.154-0.115,0.369-0.081,0.481,0.065c0.115,0.151,0.086,0.366-0.066,0.481c-0.594,0.452-1.185,0.906-1.773,1.367     C134.414,91.172,134.34,91.195,134.265,91.195z M357.677,89.797c-0.073,0-0.147-0.023-0.209-0.07     c-0.594-0.454-1.191-0.901-1.792-1.348c-0.152-0.113-0.184-0.327-0.07-0.481c0.111-0.154,0.327-0.185,0.481-0.07     c0.603,0.447,1.203,0.899,1.799,1.353c0.15,0.115,0.18,0.33,0.064,0.481C357.882,89.751,357.779,89.797,357.677,89.797z      M137.833,88.475c-0.105,0-0.209-0.047-0.276-0.138c-0.114-0.154-0.081-0.368,0.071-0.481c0.601-0.447,1.205-0.89,1.81-1.328     c0.152-0.115,0.368-0.077,0.481,0.077c0.111,0.154,0.077,0.368-0.077,0.479c-0.605,0.438-1.207,0.881-1.806,1.324     C137.976,88.453,137.904,88.475,137.833,88.475z M354.067,87.115c-0.07,0-0.141-0.02-0.202-0.065     c-0.606-0.438-1.214-0.874-1.825-1.306c-0.156-0.108-0.193-0.323-0.084-0.479c0.109-0.156,0.326-0.19,0.479-0.081     c0.613,0.431,1.225,0.867,1.834,1.31c0.154,0.111,0.187,0.325,0.076,0.479C354.278,87.066,354.173,87.115,354.067,87.115z      M141.466,85.846c-0.107,0-0.214-0.05-0.281-0.145c-0.109-0.156-0.072-0.37,0.083-0.479c0.613-0.434,1.228-0.861,1.844-1.283     c0.156-0.111,0.37-0.068,0.478,0.088c0.107,0.156,0.068,0.37-0.089,0.479c-0.614,0.42-1.225,0.847-1.835,1.276     C141.604,85.826,141.535,85.846,141.466,85.846z M350.392,84.525c-0.068,0-0.136-0.018-0.194-0.061     c-0.617-0.422-1.236-0.843-1.858-1.26c-0.158-0.104-0.2-0.318-0.095-0.477c0.107-0.158,0.323-0.199,0.477-0.093     c0.625,0.418,1.246,0.838,1.865,1.265c0.157,0.106,0.197,0.321,0.089,0.477C350.609,84.473,350.502,84.525,350.392,84.525z      M145.16,83.305c-0.111,0-0.219-0.052-0.286-0.151c-0.106-0.158-0.063-0.373,0.095-0.479c0.622-0.416,1.247-0.827,1.873-1.236     c0.159-0.108,0.371-0.061,0.477,0.099c0.104,0.158,0.059,0.37-0.099,0.474c-0.626,0.409-1.248,0.82-1.868,1.236     C145.292,83.287,145.226,83.305,145.16,83.305z M346.654,82.022c-0.064,0-0.13-0.018-0.188-0.054     c-0.627-0.409-1.256-0.813-1.888-1.213c-0.16-0.104-0.208-0.316-0.106-0.477c0.102-0.16,0.315-0.206,0.474-0.106     c0.635,0.404,1.266,0.809,1.895,1.217c0.159,0.104,0.204,0.318,0.1,0.477C346.876,81.968,346.766,82.022,346.654,82.022z      M148.914,80.856c-0.114,0-0.225-0.056-0.29-0.158c-0.102-0.16-0.054-0.373,0.106-0.477c0.631-0.4,1.266-0.797,1.903-1.19     c0.164-0.102,0.373-0.052,0.473,0.111c0.099,0.16,0.05,0.373-0.112,0.472c-0.635,0.393-1.267,0.791-1.896,1.19     C149.042,80.841,148.977,80.856,148.914,80.856z M342.856,79.614c-0.062,0-0.124-0.016-0.181-0.05     c-0.637-0.393-1.276-0.784-1.919-1.168c-0.163-0.099-0.216-0.31-0.117-0.472c0.099-0.165,0.314-0.208,0.472-0.12     c0.645,0.389,1.286,0.779,1.926,1.172c0.161,0.099,0.211,0.312,0.112,0.474C343.084,79.558,342.971,79.614,342.856,79.614z      M152.728,78.501c-0.116,0-0.23-0.059-0.295-0.167c-0.098-0.163-0.045-0.373,0.118-0.472c0.641-0.384,1.285-0.766,1.931-1.143     c0.164-0.102,0.374-0.041,0.471,0.122c0.096,0.165,0.041,0.375-0.123,0.47c-0.644,0.377-1.285,0.759-1.924,1.143     C152.85,78.485,152.789,78.501,152.728,78.501z M338.996,77.299c-0.059,0-0.119-0.014-0.173-0.045     c-0.646-0.377-1.295-0.752-1.947-1.123c-0.165-0.093-0.224-0.303-0.13-0.467c0.095-0.167,0.305-0.226,0.469-0.129     c0.654,0.37,1.306,0.745,1.954,1.125c0.165,0.095,0.22,0.305,0.124,0.47C339.228,77.238,339.113,77.299,338.996,77.299z      M156.596,76.24c-0.12,0-0.236-0.063-0.299-0.174c-0.094-0.165-0.035-0.375,0.13-0.467c0.65-0.371,1.303-0.736,1.958-1.098     c0.16-0.095,0.375-0.034,0.466,0.133c0.093,0.167,0.032,0.377-0.134,0.468c-0.653,0.361-1.303,0.727-1.951,1.093     C156.713,76.226,156.654,76.24,156.596,76.24z M335.084,75.076c-0.056,0-0.113-0.013-0.165-0.041     c-0.656-0.359-1.316-0.718-1.976-1.073c-0.167-0.09-0.23-0.298-0.14-0.465c0.09-0.167,0.298-0.226,0.465-0.14     c0.663,0.355,1.323,0.714,1.981,1.073c0.167,0.093,0.228,0.3,0.137,0.468C335.323,75.013,335.204,75.076,335.084,75.076z      M160.516,74.076c-0.122,0-0.24-0.066-0.303-0.181c-0.09-0.167-0.027-0.375,0.14-0.465c0.658-0.352,1.319-0.702,1.983-1.048     c0.166-0.088,0.377-0.023,0.464,0.147c0.088,0.167,0.022,0.375-0.146,0.463c-0.662,0.346-1.32,0.691-1.976,1.044     C160.627,74.062,160.572,74.076,160.516,74.076z M331.114,72.955c-0.054,0-0.107-0.011-0.158-0.038     c-0.664-0.346-1.331-0.684-2.001-1.023c-0.169-0.086-0.238-0.294-0.152-0.463c0.086-0.167,0.295-0.233,0.462-0.151     c0.672,0.339,1.342,0.682,2.008,1.028c0.169,0.088,0.235,0.296,0.147,0.463C331.358,72.888,331.238,72.955,331.114,72.955z      M164.489,72.009c-0.125,0-0.246-0.068-0.307-0.187c-0.086-0.169-0.017-0.377,0.152-0.463c0.667-0.337,1.337-0.669,2.008-1.001     c0.171-0.077,0.376-0.011,0.46,0.158c0.084,0.169,0.014,0.375-0.157,0.461c-0.669,0.328-1.336,0.66-2.001,0.996     C164.594,71.998,164.541,72.009,164.489,72.009z M327.091,70.929c-0.051,0-0.103-0.011-0.151-0.034     c-0.673-0.33-1.347-0.655-2.025-0.973c-0.172-0.081-0.245-0.287-0.164-0.459c0.081-0.172,0.288-0.246,0.457-0.165     c0.68,0.323,1.359,0.648,2.034,0.978c0.171,0.084,0.241,0.289,0.157,0.461C327.341,70.859,327.217,70.929,327.091,70.929z      M168.51,70.042c-0.129,0-0.252-0.072-0.311-0.197c-0.081-0.169-0.009-0.375,0.163-0.456c0.674-0.323,1.352-0.639,2.032-0.951     c0.171-0.081,0.375-0.005,0.456,0.167c0.079,0.174,0.003,0.377-0.169,0.456c-0.678,0.312-1.351,0.628-2.023,0.946     C168.611,70.03,168.56,70.042,168.51,70.042z M323.02,69c-0.047,0-0.096-0.009-0.142-0.029c-0.681-0.309-1.364-0.619-2.051-0.924     c-0.173-0.077-0.251-0.28-0.174-0.454c0.077-0.174,0.277-0.251,0.454-0.174c0.687,0.305,1.372,0.614,2.056,0.924     c0.173,0.079,0.25,0.282,0.171,0.456C323.275,68.926,323.151,69,323.02,69z M172.576,68.171c-0.131,0-0.258-0.075-0.314-0.203     c-0.077-0.174,0.001-0.377,0.174-0.454c0.682-0.303,1.367-0.603,2.053-0.899c0.179-0.072,0.376,0.005,0.453,0.181     c0.075,0.174-0.006,0.375-0.18,0.452c-0.684,0.296-1.367,0.592-2.046,0.895C172.669,68.162,172.622,68.171,172.576,68.171z      M318.9,67.18c-0.046,0-0.093-0.009-0.137-0.027c-0.687-0.298-1.378-0.59-2.07-0.874c-0.176-0.072-0.26-0.273-0.186-0.45     c0.072-0.178,0.272-0.264,0.448-0.188c0.697,0.289,1.39,0.58,2.081,0.879c0.174,0.077,0.254,0.278,0.178,0.452     C319.159,67.103,319.033,67.18,318.9,67.18z M176.686,66.403c-0.134,0-0.262-0.079-0.317-0.21     c-0.073-0.176,0.01-0.377,0.185-0.45c0.689-0.289,1.38-0.571,2.076-0.849c0.174-0.077,0.375,0.016,0.447,0.19     c0.07,0.176-0.016,0.377-0.192,0.447c-0.691,0.278-1.38,0.56-2.067,0.845C176.775,66.394,176.73,66.403,176.686,66.403z      M314.737,65.456c-0.043,0-0.086-0.007-0.129-0.025c-0.694-0.28-1.393-0.551-2.093-0.822c-0.177-0.068-0.265-0.267-0.197-0.445     c0.069-0.176,0.272-0.264,0.445-0.197c0.702,0.271,1.403,0.547,2.102,0.827c0.176,0.07,0.261,0.271,0.19,0.447     C315.002,65.375,314.873,65.456,314.737,65.456z M180.846,64.733c-0.138,0-0.268-0.084-0.321-0.219     c-0.069-0.176,0.019-0.375,0.196-0.445c0.699-0.271,1.402-0.538,2.104-0.8c0.181-0.061,0.377,0.027,0.442,0.203     c0.067,0.179-0.025,0.377-0.202,0.443c-0.7,0.257-1.398,0.524-2.095,0.795C180.93,64.727,180.888,64.733,180.846,64.733z      M310.531,63.834c-0.04,0-0.08-0.007-0.12-0.02c-0.704-0.262-1.408-0.52-2.114-0.773c-0.18-0.063-0.272-0.26-0.209-0.438     c0.064-0.178,0.267-0.271,0.439-0.208c0.71,0.253,1.417,0.511,2.123,0.773c0.178,0.068,0.269,0.264,0.202,0.443     C310.802,63.749,310.671,63.834,310.531,63.834z M185.054,63.166c-0.141,0-0.273-0.086-0.324-0.228     c-0.063-0.178,0.029-0.375,0.208-0.438c0.706-0.253,1.414-0.504,2.123-0.748c0.181-0.063,0.375,0.034,0.437,0.212     c0.062,0.181-0.034,0.377-0.214,0.438c-0.707,0.244-1.411,0.49-2.114,0.743C185.132,63.159,185.093,63.166,185.054,63.166z      M306.284,62.319c-0.037,0-0.074-0.005-0.112-0.018c-0.709-0.244-1.42-0.483-2.133-0.716c-0.181-0.061-0.279-0.255-0.219-0.436     c0.057-0.181,0.245-0.278,0.434-0.219c0.716,0.237,1.431,0.477,2.142,0.721c0.18,0.061,0.276,0.257,0.213,0.436     C306.561,62.231,306.427,62.319,306.284,62.319z M189.301,61.7c-0.145,0-0.279-0.09-0.326-0.235     c-0.06-0.181,0.038-0.375,0.218-0.436c0.713-0.235,1.426-0.465,2.141-0.691c0.182-0.063,0.374,0.043,0.432,0.224     s-0.043,0.375-0.224,0.431c-0.713,0.226-1.424,0.456-2.132,0.691C189.373,61.695,189.337,61.7,189.301,61.7z M302,60.909     c-0.035,0-0.07-0.005-0.104-0.016c-0.716-0.228-1.432-0.447-2.152-0.664c-0.182-0.054-0.285-0.246-0.23-0.429     c0.054-0.183,0.24-0.287,0.429-0.23c0.722,0.217,1.442,0.44,2.161,0.669c0.182,0.057,0.281,0.251,0.224,0.431     C302.281,60.817,302.145,60.909,302,60.909z M193.582,60.342c-0.148,0-0.285-0.095-0.329-0.244     c-0.055-0.181,0.047-0.373,0.229-0.429c0.717-0.217,1.436-0.429,2.156-0.639c0.182-0.05,0.373,0.052,0.426,0.233     c0.053,0.183-0.051,0.375-0.234,0.427c-0.718,0.21-1.434,0.422-2.149,0.639C193.649,60.338,193.615,60.342,193.582,60.342z      M297.69,59.606c-0.032,0-0.063-0.005-0.096-0.014c-0.716-0.208-1.435-0.409-2.157-0.608c-0.183-0.052-0.29-0.239-0.24-0.422     c0.052-0.183,0.248-0.28,0.423-0.242c0.724,0.199,1.446,0.404,2.166,0.612c0.182,0.052,0.287,0.244,0.234,0.425     C297.977,59.509,297.839,59.606,297.69,59.606z M197.896,59.089c-0.151,0-0.289-0.099-0.331-0.253     c-0.051-0.183,0.057-0.37,0.24-0.422c0.722-0.199,1.447-0.395,2.173-0.585c0.187-0.059,0.373,0.061,0.42,0.244     c0.047,0.185-0.062,0.373-0.246,0.42c-0.724,0.19-1.445,0.386-2.164,0.585C197.957,59.084,197.927,59.089,197.896,59.089z      M293.359,58.416c-0.028,0-0.058-0.002-0.087-0.011c-0.723-0.19-1.447-0.373-2.172-0.553c-0.185-0.047-0.297-0.233-0.251-0.418     c0.045-0.183,0.235-0.298,0.416-0.251c0.73,0.181,1.456,0.368,2.181,0.558c0.184,0.048,0.294,0.235,0.245,0.42     C293.651,58.314,293.511,58.416,293.359,58.416z M202.239,57.944c-0.154,0-0.294-0.104-0.333-0.26     c-0.046-0.183,0.064-0.37,0.25-0.418c0.726-0.183,1.456-0.361,2.187-0.533c0.19-0.047,0.37,0.07,0.413,0.255     c0.044,0.185-0.071,0.37-0.255,0.413c-0.729,0.172-1.454,0.35-2.178,0.533C202.294,57.941,202.266,57.944,202.239,57.944z      M288.999,57.334c-0.026,0-0.052-0.002-0.079-0.009c-0.727-0.172-1.455-0.339-2.185-0.499c-0.185-0.043-0.303-0.226-0.261-0.411     c0.039-0.185,0.226-0.3,0.41-0.262c0.733,0.165,1.465,0.332,2.194,0.504c0.184,0.043,0.299,0.228,0.255,0.413     C289.296,57.228,289.155,57.334,288.999,57.334z M206.609,56.907c-0.157,0-0.299-0.109-0.335-0.267     c-0.042-0.185,0.075-0.37,0.26-0.411c0.731-0.167,1.465-0.328,2.2-0.481c0.19-0.038,0.367,0.081,0.407,0.267     c0.038,0.185-0.08,0.368-0.267,0.406c-0.731,0.154-1.46,0.314-2.189,0.477C206.66,56.905,206.634,56.907,206.609,56.907z      M284.614,56.358c-0.023,0-0.046-0.002-0.071-0.007c-0.73-0.154-1.463-0.303-2.197-0.447c-0.186-0.036-0.307-0.217-0.271-0.402     c0.036-0.188,0.204-0.309,0.404-0.271c0.736,0.145,1.472,0.294,2.206,0.447c0.185,0.038,0.304,0.221,0.265,0.407     C284.917,56.247,284.773,56.358,284.614,56.358z M211.004,55.976c-0.16,0-0.305-0.113-0.338-0.276     c-0.037-0.188,0.083-0.368,0.27-0.404c0.736-0.147,1.473-0.291,2.211-0.427c0.188-0.018,0.365,0.088,0.4,0.276     c0.035,0.188-0.089,0.366-0.276,0.402c-0.734,0.136-1.468,0.276-2.2,0.422C211.049,55.974,211.025,55.976,211.004,55.976z      M280.207,55.491c-0.02,0-0.042-0.002-0.062-0.005c-0.734-0.135-1.47-0.266-2.207-0.393c-0.188-0.032-0.313-0.21-0.281-0.398     c0.031-0.187,0.211-0.327,0.396-0.28c0.741,0.126,1.48,0.257,2.216,0.393c0.188,0.036,0.311,0.215,0.276,0.402     C280.514,55.375,280.37,55.491,280.207,55.491z M215.421,55.154c-0.165,0-0.309-0.118-0.339-0.285     c-0.033-0.188,0.093-0.364,0.28-0.398c0.739-0.129,1.48-0.253,2.22-0.37c0.195-0.045,0.365,0.097,0.394,0.285     c0.029,0.188-0.098,0.364-0.286,0.393c-0.739,0.117-1.475,0.242-2.211,0.37C215.46,55.152,215.44,55.154,215.421,55.154z      M275.779,54.732c-0.018,0-0.036,0-0.054-0.005c-0.737-0.118-1.475-0.228-2.216-0.337c-0.188-0.029-0.319-0.203-0.29-0.391     c0.027-0.187,0.199-0.316,0.39-0.291c0.743,0.108,1.485,0.224,2.225,0.341c0.187,0.029,0.315,0.206,0.286,0.393     C276.092,54.612,275.945,54.732,275.779,54.732z M219.856,54.443c-0.168,0-0.315-0.122-0.34-0.294     c-0.028-0.188,0.103-0.361,0.29-0.391c0.741-0.109,1.483-0.215,2.228-0.314c0.182-0.02,0.36,0.106,0.386,0.296     c0.025,0.188-0.107,0.361-0.296,0.386c-0.741,0.099-1.481,0.206-2.219,0.314C219.889,54.443,219.872,54.443,219.856,54.443z      M271.334,54.083c-0.015,0-0.031,0-0.046-0.002c-0.738-0.099-1.48-0.194-2.223-0.285c-0.189-0.023-0.322-0.194-0.299-0.382     c0.023-0.192,0.176-0.325,0.383-0.3c0.745,0.09,1.49,0.185,2.232,0.285c0.188,0.025,0.32,0.199,0.295,0.386     C271.651,53.959,271.504,54.083,271.334,54.083z M224.307,53.84c-0.172,0-0.32-0.126-0.341-0.303     c-0.024-0.188,0.111-0.359,0.299-0.382c0.743-0.09,1.487-0.176,2.235-0.26c0.209-0.027,0.359,0.113,0.381,0.303     c0.02,0.19-0.115,0.359-0.304,0.379c-0.745,0.083-1.487,0.169-2.228,0.26C224.334,53.84,224.32,53.84,224.307,53.84z      M266.876,53.541c-0.011,0-0.024,0-0.036-0.002c-0.743-0.079-1.486-0.156-2.232-0.226c-0.19-0.02-0.328-0.188-0.309-0.377     c0.017-0.188,0.193-0.296,0.375-0.31c0.748,0.075,1.493,0.151,2.238,0.23c0.189,0.02,0.325,0.188,0.306,0.377     C267.199,53.41,267.05,53.541,266.876,53.541z M228.771,53.347c-0.175,0-0.325-0.133-0.342-0.309     c-0.018-0.19,0.12-0.357,0.31-0.375c0.745-0.075,1.491-0.142,2.238-0.208c0.188-0.005,0.356,0.122,0.373,0.314     c0.017,0.188-0.123,0.355-0.312,0.373c-0.745,0.065-1.491,0.133-2.234,0.206C228.793,53.347,228.781,53.347,228.771,53.347z      M262.405,53.112c-0.009,0-0.018,0-0.028,0c-0.744-0.061-1.49-0.12-2.236-0.174c-0.19-0.014-0.332-0.178-0.318-0.368     c0.014-0.19,0.169-0.348,0.368-0.318c0.749,0.054,1.496,0.113,2.243,0.174c0.189,0.016,0.33,0.183,0.314,0.37     C262.732,52.977,262.582,53.112,262.405,53.112z M233.246,52.961c-0.178,0-0.33-0.138-0.343-0.319     c-0.014-0.19,0.129-0.355,0.318-0.368c0.746-0.054,1.494-0.104,2.244-0.151c0.168,0.018,0.354,0.133,0.365,0.321     c0.011,0.19-0.132,0.355-0.322,0.366c-0.748,0.047-1.493,0.097-2.237,0.151C233.263,52.961,233.254,52.961,233.246,52.961z      M257.926,52.789c-0.007,0-0.014,0-0.019,0c-0.747-0.043-1.493-0.084-2.241-0.12c-0.19-0.009-0.335-0.169-0.326-0.359     c0.01-0.19,0.189-0.336,0.36-0.327c0.75,0.036,1.499,0.077,2.245,0.12c0.19,0.011,0.335,0.174,0.324,0.364     C258.259,52.649,258.107,52.789,257.926,52.789z M237.729,52.688c-0.183,0-0.334-0.142-0.343-0.327     c-0.009-0.19,0.137-0.35,0.326-0.359c0.748-0.036,1.496-0.068,2.247-0.097c0.15,0.002,0.35,0.14,0.357,0.33     c0.008,0.19-0.14,0.35-0.33,0.357c-0.749,0.029-1.495,0.061-2.241,0.097C237.741,52.688,237.735,52.688,237.729,52.688z      M253.439,52.577c-0.003,0-0.008,0-0.011,0c-0.745-0.025-1.493-0.047-2.242-0.066c-0.19-0.004-0.34-0.163-0.335-0.352     c0.005-0.185,0.157-0.334,0.343-0.334c0.002,0,0.006,0,0.008,0c0.751,0.018,1.501,0.041,2.249,0.066     c0.19,0.007,0.339,0.165,0.332,0.355C253.777,52.43,253.624,52.577,253.439,52.577z M242.212,52.52     c-0.186,0-0.339-0.149-0.343-0.334c-0.005-0.19,0.146-0.348,0.335-0.352c0.748-0.018,1.495-0.032,2.245-0.043     c0.002,0,0.005,0,0.006,0c0.188,0,0.341,0.149,0.343,0.339c0.003,0.19-0.148,0.346-0.338,0.348     c-0.748,0.011-1.495,0.025-2.241,0.043C242.217,52.52,242.214,52.52,242.212,52.52z M248.947,52.473c-0.001,0-0.002,0-0.003,0     c-0.688-0.007-1.377-0.011-2.067-0.011h-0.176c-0.19,0-0.343-0.154-0.343-0.343c0-0.19,0.154-0.343,0.343-0.343h0.176     c0.692,0,1.383,0.004,2.074,0.011c0.19,0.002,0.342,0.156,0.34,0.346C249.29,52.322,249.136,52.473,248.947,52.473z"/>
		</g>
	</g>
</g>















</svg>
