<?xml version="1.0" encoding="UTF-8"?>
<!-- Generator: Adobe Illustrator 25.2.3, SVG Export Plug-In . SVG Version: 6.00 Build 0)  -->
<svg xmlns="http://www.w3.org/2000/svg" xmlns:xlink="http://www.w3.org/1999/xlink" version="1.1" id="Capa_1" x="0px" y="0px" viewBox="0 0 512 512" style="enable-background:new 0 0 512 512;" xml:space="preserve" width="512" height="512">
<g>
	<g>
		<path style="fill:#FFFFFF;" d="M12.3,433.325c-6.733,0-12.201-5.438-12.239-12.169c-0.03-5.323-0.05-10.615-0.055-15.892    L0,402.952l0.043-11.661c0.023-3.131,0.067-6.247,0.112-9.361c0,0,0.045-3.649,0.063-4.622c0.07-3.709,0.17-7.416,0.285-11.117    c0.104-3.46,0.247-6.922,0.398-10.38l0.076-1.864c0.039-0.998,0.078-1.996,0.127-2.994c0.005-0.394,0.019-0.789,0.048-1.183    l0.098-1.609c0.217-3.956,0.472-7.9,0.762-11.842c0.076-1.03,0.306-3.898,0.306-3.898c0.261-3.261,0.554-6.516,0.873-9.773    c0,0,0.279-2.869,0.368-3.723c0.536-5.066,1.034-9.285,1.568-13.283c0.478-3.641,1.046-7.504,1.733-11.773    c0.122-0.757,0.254-1.518,0.387-2.277l0.477-2.811c0.212-1.279,0.424-2.556,0.661-3.837c0.048-0.281,0.101-0.562,0.162-0.841    c0.227-1.305,0.472-2.619,0.737-3.92c0.591-3.016,1.24-6.12,1.911-9.201c4.586-20.703,10.832-40.244,18.576-58.131    c0.18-0.444,0.366-0.867,0.566-1.285c8.491-19.358,18.837-36.962,30.756-52.326c0,0,1.031-1.325,1.078-1.385    c2.912-3.675,5.682-6.974,8.47-10.088c38.627-43.258,96.401-69.093,154.535-69.093c13.677,0,27.236,1.442,40.3,4.287    c20.756,4.498,40.745,12.689,59.404,24.342c0.25,0.149,0.512,0.315,0.774,0.492c18.819,11.852,35.375,26.679,49.212,44.073    c0.219,0.263,0.464,0.572,0.719,0.93c3.609,4.568,7.062,9.406,10.273,14.394c0.299,0.414,0.573,0.843,0.823,1.283    c4.197,6.562,7.981,13.414,11.251,20.374c5.818,12.35,10.157,25.191,12.89,38.151c0.65,3.05,1.227,6.151,1.802,9.253    c0.501,2.699,1.001,5.398,1.562,8.079l0.069,0.337c0.212,1.002,0.445,1.99,0.678,2.978l0.247,1.074    c0.184,0.749,0.391,1.484,0.595,2.217l0.419,1.546c0.197,0.665,0.422,1.321,0.645,1.98l0.497,1.516    c0.426,1.183,0.854,2.253,1.311,3.287c0.45,1.012,0.992,2.108,1.652,3.341l0.503,0.891c0.465,0.827,0.954,1.649,1.469,2.454    l0.662,1.034c0.316,0.474,0.639,0.928,0.962,1.384c0.24,0.339,0.486,0.685,0.739,1.024c0.344,0.464,0.659,0.88,0.98,1.293    c0.306,0.392,0.621,0.781,0.939,1.171l0.256,0.313c0.221,0.273,0.442,0.546,0.669,0.811c0.435,0.514,0.871,1.004,1.308,1.494    l0.703,0.797c0.703,0.767,1.414,1.516,2.138,2.257l0.748,0.747c0.524,0.524,1.059,1.058,1.604,1.583l0.84,0.797    c0.571,0.542,1.127,1.062,1.688,1.578l0.824,0.753c0.64,0.578,1.285,1.151,1.935,1.721l0.636,0.564    c1.833,1.598,3.71,3.179,5.608,4.751c1.991,1.649,3.923,3.229,5.856,4.809l3.638,2.984c0.983,0.813,1.956,1.619,2.923,2.43    c5.631,4.727,9.831,8.544,13.629,12.38c26.796,27.185,43.257,72.208,40.049,109.507c-0.545,6.329-5.842,11.189-12.194,11.189H12.3    z"/>
	</g>
	<g>
		<g>
			<path style="fill:#7F6EEC;" d="M477.267,404.684l-411.891,3.854c-0.041-5.875-41.314-131.952-40.662-134.951     c4.243-19.154,10.118-38.042,17.91-56.013c0.122-0.306,0.245-0.592,0.388-0.877c7.792-17.808,17.461-34.677,29.312-49.955     c0.326-0.428,0.673-0.857,0.999-1.285c2.57-3.243,5.222-6.426,7.996-9.526c44.917-50.302,117.228-75.351,183.115-61.011     c19.664,4.263,38.471,12.116,55.524,22.764c0.163,0.102,0.347,0.204,0.51,0.326c17.705,11.117,33.514,25.273,46.487,41.612     c0.122,0.143,0.224,0.265,0.306,0.408c3.631,4.569,6.997,9.302,10.117,14.177c0.122,0.143,0.224,0.306,0.286,0.449     c4.018,6.242,7.608,12.708,10.75,19.398l6.888,89.68c0,0,56.941,44.132,60.96,48.191     C480.147,356.159,480.184,370.783,477.267,404.684z"/>
		</g>
		<g style="opacity:0.44;">
			<g>
				<path style="fill:#FFDFE5;" d="M104.94,154.034c-12.218,0.612-23.336,6.16-32.617,12.708c0.326-0.428,0.673-0.857,0.999-1.285      c9.057-6.222,19.807-11.362,31.597-11.933c7.853-0.367,15.747,1.265,23.376,2.856c9.138,1.897,18.583,3.855,27.844,2.285      c13.952-2.387,24.355-11.79,35.37-21.724c6.894-6.242,14.054-12.688,22.112-17.175c15.543-8.669,35.411-9.771,51.811-2.876      c2.57,1.081,5.14,2.366,7.608,3.59c6.364,3.203,12.953,6.507,20.031,6.507c0.143,0,0.285-0.021,0.428-0.021      c6.242-0.102,12.117-2.835,17.787-5.446l1.346-0.612c2.427-1.122,4.855-2.183,7.323-3.223c0.163,0.102,0.347,0.204,0.51,0.326      c-2.57,1.081-5.1,2.183-7.629,3.345l-1.326,0.612c-5.732,2.652-11.647,5.385-17.991,5.507      c-7.405,0.143-14.156-3.243-20.704-6.527c-2.468-1.244-5.038-2.529-7.568-3.59c-16.278-6.833-35.962-5.752-51.383,2.856      c-8.017,4.467-15.135,10.893-22.03,17.094c-10.566,9.567-21.52,19.44-35.615,21.847c-9.342,1.611-18.848-0.367-28.027-2.285      C120.586,155.299,112.712,153.667,104.94,154.034z"/>
			</g>
			<g>
				<path style="fill:#FFDFE5;" d="M367.26,160.031c-9.241,3.447-19.542,4.59-29.537,5.385c-22.275,1.775-45.202,2.672-67.355,3.549      c-66.498,2.631-135.24,5.365-196.72,31.841c-9.812,4.223-20.643,9.73-31.026,16.767c0.122-0.306,0.245-0.592,0.388-0.877      c10.199-6.834,20.806-12.219,30.434-16.359c61.582-26.518,130.365-29.251,196.903-31.882c22.152-0.877,45.06-1.775,67.334-3.549      c9.913-0.796,20.113-1.897,29.271-5.283C367.077,159.766,367.179,159.888,367.26,160.031z"/>
			</g>
			<g>
				<path style="fill:#FFDFE5;" d="M22.164,287.091c-0.061,0.02-0.122,0.041-0.183,0.082c0.041-0.204,0.061-0.408,0.122-0.612      c10.464-4.365,20.051-10.831,29.312-17.114c5.426-3.651,11.015-7.425,16.727-10.77c13.442-7.833,33.351-15.809,51.75-9.322      c2.264,0.796,4.508,1.836,6.691,2.815c4.284,1.958,8.73,3.998,13.442,4.304c12.096,0.796,20.357-8.527,29.149-18.419      c7.874-8.873,16.033-18.052,27.252-19.378c8.689-1.04,16.89,3.06,24.804,7.017c7.894,3.937,16.053,8.016,24.621,6.956      c13.075-1.632,21.704-14.503,27.048-24.05c0.408-0.714,0.816-1.428,1.204-2.142c5.915-10.587,12.014-21.541,22.887-26.314      c10.587-4.631,22.336-1.836,33.698,0.877c10.444,2.468,21.214,5.038,31.23,1.958c5.65-1.754,10.648-5.201,15.462-8.771      c0.122,0.143,0.224,0.306,0.286,0.449c-4.855,3.57-9.893,7.058-15.605,8.812c-10.138,3.121-20.99,0.53-31.495-1.958      c-11.28-2.693-22.927-5.467-33.371-0.898c-10.729,4.692-16.767,15.564-22.642,26.089c-0.388,0.714-0.796,1.448-1.203,2.162      c-5.406,9.628-14.136,22.622-27.436,24.274c-8.73,1.081-16.951-3.019-24.906-6.997c-7.854-3.917-15.972-7.996-24.519-6.976      c-11.015,1.305-19.113,10.424-26.946,19.236c-8.506,9.567-16.563,18.624-28.068,18.624c-0.49,0-0.979,0-1.469-0.041      c-4.834-0.326-9.302-2.366-13.646-4.345c-2.162-0.979-4.385-1.999-6.629-2.795c-18.236-6.446-37.981,1.489-51.322,9.281      c-5.711,3.325-11.301,7.098-16.706,10.75C42.379,276.178,32.731,282.705,22.164,287.091z"/>
			</g>
			<g>
				<path style="fill:#FFDFE5;" d="M400.632,230.69c-42.061,30.985-85.611,62.724-136.607,78.37      c-38.859,11.953-80.308,13.728-120.39,15.441c-19.338,0.836-39.348,1.693-58.849,3.692      c-23.621,2.407-50.139,7.078-69.884,23.111c0-0.224,0-0.449,0.02-0.673c19.807-15.89,46.263-20.541,69.823-22.948      c19.5-1.999,39.511-2.856,58.869-3.692c40.062-1.714,81.47-3.488,120.268-15.401c50.975-15.686,94.566-47.467,136.647-78.452      C400.571,230.323,400.612,230.507,400.632,230.69z"/>
			</g>
			<g>
				<path style="fill:#FFDFE5;" d="M414.135,273.526c-0.102,0.102-0.204,0.204-0.306,0.306c-1.04,1.061-2.081,2.121-3.121,3.202      c-8.751,9.077-17.787,18.461-30.006,20.133c-6.956,0.959-14.014-0.836-20.826-2.57c-7.833-1.979-15.911-4.018-23.621-1.795      c-9.485,2.774-15.87,11.219-22.03,19.378c-6.466,8.587-13.157,17.461-23.458,19.643c-6.609,1.428-13.32-0.326-19.827-1.999      c-3.1-0.816-6.344-1.652-9.505-2.121c-24.008-3.631-46.263,12.3-65.886,26.354l-0.857,0.612      c-27.374,19.582-69.272,46.671-116.759,55.585c-8.894,1.673-17.298,2.509-25.131,2.509c-15.054,0-28.108-3.08-39.001-9.22      v-0.592c16.482,9.404,38.002,11.688,64.03,6.813c47.385-8.914,89.222-35.942,116.575-55.524l0.836-0.592      c19.725-14.116,42.061-30.087,66.253-26.456c3.203,0.49,6.446,1.326,9.587,2.121c6.426,1.673,13.075,3.406,19.582,2.019      c10.118-2.162,16.747-10.954,23.152-19.46c6.221-8.22,12.647-16.747,22.295-19.562c7.833-2.264,15.992-0.204,23.886,1.795      c6.772,1.714,13.789,3.488,20.623,2.55c12.055-1.652,21.03-10.954,29.72-19.97c1.04-1.081,2.081-2.162,3.121-3.203l0.388-0.388      C413.931,273.241,414.033,273.383,414.135,273.526z"/>
			</g>
		</g>
		<g>
			<g>
				<path style="fill:#FF85CA;" d="M493.743,413.755l-149.105-1.094c0,0-13.975-21.447-13.013-26.404      c0.687-3.539,1.776-6.984,3.366-10.23c3.794-7.792,10.729-14.32,19.174-16.339c-10.383-8.2-16.971-21.01-17.624-34.208      c-0.653-13.218,4.671-26.62,14.197-35.778c6.711-6.487,16.38-10.954,25.335-8.404c-12.565-14.197-17.501-34.779-12.728-53.137      c3.162-12.178,10.566-23.152,20.419-30.964c1.55-1.224,3.101-2.264,4.651-3.141c5.324,11.301,9.404,23.193,11.994,35.473      c2.488,11.688,3.774,23.784,8.608,34.697c8.486,19.236,26.273,31.699,42.612,45.406l13.283,24.497      C464.911,334.128,496.66,379.853,493.743,413.755z"/>
			</g>
			<g>
				<path style="fill:#FF85CA;" d="M318.499,413.755l-291.608-3.402l-8.072-103.088c1.081-8.2,2.407-16.4,4.018-24.641      c0.592-3.019,1.224-6.038,1.877-9.037c3.59-3.692,7.547-7.058,11.647-10.158c20.622-15.605,46.63-25.722,72.25-22.275      c25.64,3.447,49.853,22.744,53.994,48.262c18.991-17.971,51.077-18.929,72.169-3.508c21.112,15.421,30.087,44.876,22.927,70.007      c18.664-11.831,45.773-6.997,59.868,10.036c4.673,5.641,7.796,12.362,9.395,19.466L318.499,413.755z"/>
			</g>
			<g>
				<path style="fill:#CD7CB5;" d="M500.97,421.087H13.862c-0.224-38.675-0.082-76.065,4.957-113.822      c13.667-10.648,30.597-17.134,47.936-17.91c25.783-1.142,51.832,10.484,68.232,30.414c10.444,12.728,16.89,28.17,23.193,43.387      c17.012-12.769,40.715-15.89,60.521-8.159c19.827,7.751,35.37,24.886,42.673,44.876c32.637-22.112,77.778-20.602,108.294,4.345      c3.202-34.738,37.9-63.377,72.638-59.909c1.163-11.974,4.386-23.703,9.322-34.677c4.447,3.733,8.771,7.547,12.79,11.607      C488.303,345.471,503.887,387.185,500.97,421.087z"/>
			</g>
		</g>
		<g>
			<g>
				<path style="fill:#FFBCC9;" d="M167.2,192.047c35.324-29.257,71.678-57.271,108.972-83.972      c-5.034,13.301-10.613,26.156-15.768,39.116c19.075-6.869,42.633-13.787,62.399-18.297c-0.728,0.97-4.011,6.51-5.633,8.749      c-13.205,18.224-24.505,31.89-37.71,50.114c19.791-5.555,35.762-10.069,56.247-14.582      c-11.111,13.194-23.09,22.908-35.538,35.533c20.21,2.413,39.129,5.566,59.504,9.615c-21.899,6.054-43.644,12.664-65.208,19.823      c15.483,7.418,26.398,14.938,41.137,23.016c-34.385,3.322-71.451,2.157-106.979,6.264c-7.445,0.861-15.432,2.023-22.076-1.445      c-6.175-3.223-9.791-9.75-12.873-15.997c-8.395-17.018-15.468-34.687-21.135-52.796L167.2,192.047z"/>
			</g>
			<g>
				<g>
					
						<ellipse transform="matrix(0.4626 -0.8866 0.8866 0.4626 -103.0462 292.181)" style="fill:#FFD461;" cx="189.497" cy="231.093" rx="53.363" ry="53.363"/>
				</g>
				<g>
					<g>
						<g>
							<path style="fill:#FFFFFF;" d="M115.339,278.908c-6.309,1.982-10,2.137-11.026,0.452c-1.74-2.857,4.759-10.105,19.315-21.541         c13.947-10.956,33.342-24.118,54.611-37.062c39.314-23.917,82.237-44.946,86.022-38.725         c3.784,6.219-34.616,34.681-73.927,58.603c-21.269,12.942-41.872,24.12-58.012,31.471         C125.404,275.257,119.735,277.527,115.339,278.908z M253.722,183.311c-13.862,4.355-41.198,17.698-74.988,38.259         c-21.239,12.923-40.601,26.062-54.519,36.996c-19.74,15.507-19.603,19.459-19.09,20.301         c0.514,0.842,3.963,2.781,26.804-7.626c16.107-7.336,36.673-18.495,57.911-31.419c47.353-28.814,76.291-52.89,73.609-57.297         C262.681,181.262,259.286,181.563,253.722,183.311z"/>
						</g>
					</g>
					<g>
						<g>
							<path style="fill:#FFFFFF;" d="M269.212,231.654c-4.484,1.409-10.715,2.793-18.675,4.148         c-17.486,2.974-40.811,5.288-65.676,6.514c-24.867,1.226-48.307,1.217-66-0.023c-18.466-1.293-27.912-3.644-28.076-6.987         c-0.165-3.342,9.005-6.612,27.254-9.714c17.485-2.975,40.809-5.288,65.676-6.514c24.867-1.226,48.307-1.219,65.999,0.021         c18.466,1.293,27.912,3.644,28.077,6.988C277.883,227.97,275.008,229.832,269.212,231.654z M99.624,230.659         c-7.198,2.262-7.922,3.963-7.891,4.601c0.048,0.983,2.153,4.33,27.194,6.085c17.657,1.236,41.056,1.244,65.886,0.02         c24.83-1.224,48.114-3.532,65.564-6.501c24.749-4.21,26.512-7.747,26.465-8.732l0,0c-0.049-0.984-2.154-4.331-27.195-6.087         c-17.656-1.236-41.055-1.244-65.885-0.018c-24.832,1.224-48.116,3.532-65.565,6.5         C109.444,228.017,103.563,229.422,99.624,230.659z"/>
						</g>
					</g>
				</g>
			</g>
		</g>
		<g>
			<g>
				<polygon style="fill:#FFDFE5;" points="173.514,132.842 186.351,136.237 174.257,139.844 170.544,154.684 166.088,139.844       152.84,136.98 166.725,133.267 170.544,119.276     "/>
			</g>
			<g>
				<polygon style="fill:#FFDFE5;" points="388.942,327.743 408.754,332.982 390.089,338.549 384.358,361.451 377.481,338.549       357.035,334.128 378.464,328.398 384.358,306.806     "/>
			</g>
			<g>
				<polygon style="fill:#FFDFE5;" points="210.713,391.913 223.55,395.308 211.456,398.915 207.743,413.755 203.287,398.915       190.039,396.051 203.923,392.338 207.743,378.347     "/>
			</g>
			<g>
				<polygon style="fill:#FFDFE5;" points="74.263,249.213 87.099,252.608 75.005,256.215 71.292,271.054 66.836,256.215       53.588,253.35 67.473,249.637 71.292,235.647     "/>
			</g>
		</g>
	</g>
</g>















</svg>
