<?xml version="1.0" encoding="UTF-8"?>
<!-- Generator: Adobe Illustrator 25.2.3, SVG Export Plug-In . SVG Version: 6.00 Build 0)  -->
<svg xmlns="http://www.w3.org/2000/svg" xmlns:xlink="http://www.w3.org/1999/xlink" version="1.1" id="Capa_1" x="0px" y="0px" viewBox="0 0 512 512" style="enable-background:new 0 0 512 512;" xml:space="preserve" width="512" height="512">
<g>
	<g>
		<path style="fill:#FFFFFF;" d="M13.263,460.03c-6.984,0-12.708-5.542-12.935-12.522c-0.295-9.112-0.392-18.043-0.287-26.548    c0-0.162,0.021-1.22,0.021-1.22c0-0.836,0.021-1.649,0.044-2.465c0-0.383,0.004-0.861,0.021-1.375    c0.004-0.851,0.025-1.717,0.049-2.565c0.019-1.182,0.063-2.513,0.112-3.844l0.034-1.125c0.025-0.834,0.05-1.672,0.088-2.502    c0.008-0.495,0.027-1.003,0.053-1.493c0.046-1.329,0.112-2.677,0.179-4.004c0.126-2.947,0.303-5.988,0.478-9.028    c0.143-2.553,0.308-5.108,0.508-7.661c0.011-0.407,0.04-0.811,0.088-1.211c0.253-3.355,0.529-6.707,0.843-10.039l0.183-2.026    c0.067-0.809,0.16-1.647,0.255-2.486c0.158-1.761,0.337-3.522,0.537-5.262c0.295-2.82,0.647-5.757,1.001-8.695l0.148-1.19    c0.109-0.887,0.217-1.769,0.347-2.665c1.059-8.162,2.289-16.377,3.631-24.216c5.386-31.713,13.363-63.243,23.711-93.692    c1.468-4.358,3.077-8.91,4.773-13.5c1.232-3.393,2.534-6.835,3.854-10.275c5.005-12.88,9.883-24.086,14.928-34.303    c2.007-4.112,3.92-7.806,5.82-11.246c10.658-19.707,22.435-36.071,35.947-49.929c34.061-34.885,82.172-54.889,132.002-54.889    c11.456,0,22.856,1.096,33.885,3.258c3.884,0.759,7.779,1.662,11.635,2.693c15.362-7.89,32.469-12.038,49.825-12.038    c0.248,0,0.961,0.005,1.076,0.005c0.297,0,0.59,0.007,0.876,0.022c5.259,0.089,10.428,0.543,15.366,1.35    c0,0,0.832,0.135,0.851,0.137c18.717,3.141,36.353,11.175,51.017,23.238c0.287,0.223,0.573,0.459,0.857,0.703    c4.465,3.724,8.79,7.985,12.71,12.55c0.303,0.326,0.592,0.668,0.866,1.019c6.607,7.869,12.061,16.617,16.217,26.009    c5.521,12.478,8.609,25.725,9.186,39.374c0.004,0.109,0.021,0.754,0.019,0.996c0.055,1.23,0.078,2.46,0.078,3.714    c0,4.71-0.295,9.363-0.878,13.832c-0.042,0.419-0.099,0.84-0.162,1.258c-2.494,18.118-9.573,35.329-20.564,50.068    c1.245,6.626,2.378,13.266,3.484,19.734c1.224,7.159,2.49,14.563,3.867,21.737l0.303,1.567c0.327,1.727,0.708,3.53,1.108,5.333    c0.042,0.185,0.12,0.596,0.122,0.602c0.758,3.473,1.46,6.327,2.203,8.964c3.315,11.922,7.534,20.448,13.289,26.871    c0.044,0.044,0.497,0.531,0.546,0.583c4.851,5.228,11.218,9.535,17.958,14.095c5.563,3.766,11.315,7.659,16.735,12.404    c1.46,1.279,2.686,2.427,3.812,3.57c0.331,0.299,0.647,0.613,0.95,0.937c4.362,4.398,8.394,9.39,11.987,14.841    c8.097,12.181,14.081,26.605,17.756,42.828c3.823,16.661,4.849,33.499,5.316,46.304c0.129,3.511-1.177,6.926-3.616,9.455    c-2.439,2.53-5.803,3.958-9.316,3.958H13.263z"/>
	</g>
	<g>
		<g>
			<path style="fill:#3C1C87;" d="M494.398,443.621l-194.545,3.468h-31.447l-250.4-4.868c-0.28-8.649,1.042-106.212,2.401-114.149     c5.284-31.124,13.049-61.816,23.208-91.711c1.488-4.422,3.041-8.8,4.659-13.179c1.229-3.386,2.502-6.751,3.796-10.116     c4.357-11.216,9.102-22.389,14.451-33.216c1.769-3.624,3.602-7.204,5.543-10.72c9.275-17.147,20.296-33.216,33.885-47.15     c39.169-40.118,99.109-58.753,154.131-47.969c5.285,1.035,10.504,2.329,15.659,3.882c7.053,2.157,13.955,4.767,20.663,7.808     c0.194,0.086,0.388,0.173,0.582,0.281c4.81,2.178,9.534,4.616,14.106,7.29c0.151,0.064,0.302,0.151,0.453,0.259     c13.998,8.088,26.875,18.183,38.112,29.808c0.151,0.129,0.28,0.259,0.367,0.388c5.759,5.953,11.065,12.294,15.853,19.002     c0.129,0.151,0.237,0.302,0.323,0.453c4.098,5.737,7.851,11.733,11.151,17.945c0.108,0.151,0.194,0.302,0.28,0.475     c2.588,4.875,4.939,9.879,7.032,15.012c0.798,1.963,1.574,3.947,2.286,5.953c2.071,5.673,3.861,11.432,5.457,17.234     c0.043,0.194,0.108,0.388,0.151,0.561c2.006,7.42,3.667,14.926,5.155,22.496c3.128,15.702,5.457,31.598,8.477,47.3     c0.01,0.057,0.28,1.445,0.28,1.445c-0.494,7.55-3.153,37.717-3.153,37.717s21.794,45.786,21.881,45.872     C425.302,355.324,493.859,428.824,494.398,443.621z"/>
		</g>
		<g>
			<g>
				<g>
					<path style="fill:#7F6EEC;" d="M208.438,444.69l-185.915-4.257c-0.28-8.649-9.665-45.368-9.492-48.345       c0.151-2.696,0.324-5.37,0.539-8.045c-0.022-0.022-0.022-0.043,0-0.065c0.259-3.451,0.539-6.902,0.863-10.331       c0.065-0.712,0.129-1.424,0.194-2.135c0.065-0.776,0.151-1.531,0.237-2.286c0.151-1.704,0.323-3.408,0.518-5.09       c0.302-2.89,0.647-5.759,0.992-8.628c0.151-1.186,0.28-2.351,0.453-3.537c1.035-7.981,2.222-15.961,3.58-23.898       c7.614,1.38,15.012,4.335,21.461,8.52c13.61,8.886,23.402,22.475,30.196,37.357c1.273,2.739,2.437,5.543,3.494,8.369       c15.767-9.447,35.74-12.467,52.973-6.104c17.234,6.384,30.887,22.82,31.986,41.175c0.173-0.086,0.324-0.172,0.496-0.237       c3.688-1.812,8.563-2.545,12.531-3.278c7.031-1.337,14.365-1.661,21.461-0.755c6.837,0.863,13.502,2.89,19.52,6.255       C224.987,425.196,206.044,433.086,208.438,444.69z"/>
				</g>
				<g>
					<path style="fill:#7F6EEC;" d="M498.048,447.089H299.853c2.372-5.672,5.91-10.892,10.137-15.12       c8.606-8.563,21.051-13.114,33.173-12.143c-3.99-15.961,4.551-32.698,18.161-41.973c13.588-9.275,32.289-9.922,47.02-2.567       c-1.337-4.271-2.523-8.606-3.494-12.963c-2.437-10.72,29.863-9.684,29.863-9.684s39.308,7.29,42.393,11.971       c7.7,11.582,12.855,24.955,15.939,38.565C496.345,417.561,497.509,432.293,498.048,447.089z"/>
				</g>
			</g>
			<g>
				<path style="fill:#FF85CA;" d="M268.405,447.089H152.279l-39.231-5.515l-53.429,5.515H12.254      c-0.28-8.649-0.388-17.298-0.28-25.969c0-0.453,0.021-0.906,0.021-1.38c0-0.776,0.022-1.531,0.043-2.286      c0-0.431,0-0.841,0.021-1.273c0.022-2.07,0.086-4.163,0.151-6.233c0.086-2.977,0.194-5.953,0.345-8.93      c0.13-2.977,0.302-5.953,0.475-8.93c1.488-0.712,3.02-1.294,4.573-1.79c12.122-3.839,25.818-1.575,36.559,5.241      c0.324,0.194,0.647,0.41,0.949,0.626c9.08,6.039,15.918,15.141,19.822,25.322c0.086,0.194,0.173,0.366,0.216,0.561      c0.453,1.165,0.841,2.329,1.208,3.516c0.582-0.97,1.229-1.898,1.941-2.783c0.086-0.151,0.194-0.302,0.324-0.453      c5.543-7.031,13.955-11.949,22.647-14.063c9.965-2.416,20.577-1.424,30.347,1.704c11.259,3.602,22.151,10.914,27.694,21.008      c0.82,1.488,1.531,3.041,2.092,4.659c0.086,0.194,0.151,0.388,0.194,0.582c0.345,1.014,0.647,2.049,0.863,3.128      c0.043,0.172,0.086,0.345,0.108,0.539c0.064,0.302,0.129,0.604,0.172,0.927c0.173-0.259,0.324-0.518,0.518-0.777      c0.086-0.172,0.194-0.323,0.302-0.474c0.669-1.035,1.381-2.071,2.135-3.063c0.129-0.173,0.259-0.367,0.388-0.539      c3.235-4.292,6.967-8.239,11.065-11.734c0.151-0.129,0.323-0.28,0.474-0.41c5.263-4.379,11.13-8.045,17.385-10.698      c5.392-2.308,11.065-3.861,16.888-4.529c19.994-2.265,41.477,7.225,51.312,24.783      C265.601,437.663,267.305,442.301,268.405,447.089z"/>
			</g>
		</g>
		<g>
			<g>
				<g>
					<path style="fill:#CD7CB5;" d="M420.207,161.086c0,4.184-0.259,8.325-0.798,12.38c-0.022,0.28-0.065,0.561-0.108,0.841       c-5.974,43.439-40.938,77.648-84.766,82.393c-0.431,0.065-0.841,0.108-1.273,0.129c-3.041,0.302-6.125,0.453-9.231,0.453       c-23.208,0-44.475-8.218-61.083-21.892c-0.151-0.108-0.28-0.216-0.41-0.345c-4.357-3.602-8.39-7.614-12.035-11.949       c-0.129-0.129-0.237-0.28-0.367-0.431c-1.208-1.445-2.394-2.934-3.516-4.465c-5.543-7.506-10.029-15.853-13.2-24.783       c-0.086-0.216-0.173-0.41-0.216-0.625c-2.049-5.802-3.537-11.863-4.4-18.118c-0.065-0.323-0.108-0.625-0.151-0.949       c-0.539-4.141-0.82-8.369-0.82-12.639c0-6.967,0.733-13.761,2.157-20.318c0.065-0.323,0.129-0.669,0.216-0.992       c9.706-42.857,48.034-74.865,93.824-74.865c0.237,0,0.453,0,0.69,0.022c0.259-0.022,0.518-0.022,0.755,0       c4.681,0.065,9.296,0.453,13.783,1.186c0.28,0.043,0.539,0.086,0.798,0.129c16.975,2.847,32.418,10.116,45.122,20.62       c0.151,0.108,0.302,0.237,0.453,0.367c4.163,3.473,8.023,7.29,11.539,11.41c0.129,0.129,0.259,0.28,0.367,0.432       c5.867,6.945,10.763,14.731,14.494,23.165c4.724,10.677,7.571,22.388,8.088,34.683c0,0.194,0.022,0.388,0,0.582       C420.185,158.692,420.207,159.878,420.207,161.086z"/>
				</g>
				<g style="opacity:0.2;">
					<path style="fill:#3C1C87;" d="M420.207,161.086c0,4.184-0.259,8.325-0.798,12.38c-0.022,0.28-0.065,0.561-0.108,0.841       c-5.974,43.439-40.938,77.648-84.766,82.393c-0.431,0.065-0.841,0.108-1.273,0.129c-3.041,0.302-6.125,0.453-9.231,0.453       c-23.208,0-44.475-8.218-61.083-21.892c-0.151-0.108-0.28-0.216-0.41-0.345c-4.357-3.602-8.39-7.614-12.035-11.949       c-0.129-0.129-0.237-0.28-0.367-0.431c-1.208-1.445-2.394-2.934-3.516-4.465c1.834,0.582,3.689,1.122,5.565,1.553       c0.194,0.065,0.388,0.129,0.561,0.151c2.761,0.69,5.543,1.23,8.347,1.661c5.716,0.884,11.453,1.316,17.234,1.381       c0.647,0.021,1.315,0.021,1.963,0.021c4.551,0,9.124-0.216,13.696-0.561c0.949-0.065,1.898-0.129,2.869-0.237       c4.357-0.388,8.714-0.884,13.049-1.488c9.749-1.316,19.606-3.041,29.053-5.845c0.496-0.129,0.992-0.28,1.467-0.432       c10.396-3.149,20.296-7.592,28.988-14.084c9.684-7.204,17.514-16.716,23.877-26.983c2.804-4.573,5.349-9.296,7.614-14.171       c0.086-0.173,0.151-0.324,0.216-0.496c5.306-11.561,8.994-23.855,10.914-36.43c4.724,10.677,7.571,22.388,8.088,34.683       c0,0.194,0.022,0.388,0,0.582C420.185,158.692,420.207,159.878,420.207,161.086z"/>
				</g>
			</g>
			<g>
				<g>
					<path style="fill:#FFBCC9;" d="M325.476,64.932c-2.07,2.049-4.292,3.925-6.427,5.608c-9.21,7.29-19.304,13.696-29.075,19.908       c-12.553,7.98-25.538,16.241-36.689,26.422c-5.177,4.702-10.051,9.922-14.775,14.947c-2.782,2.977-5.608,5.996-8.52,8.951       c0.065-0.323,0.129-0.669,0.216-0.992c2.696-2.761,5.328-5.565,7.916-8.326c4.723-5.047,9.598-10.267,14.796-14.99       c11.194-10.202,24.2-18.463,36.775-26.465c9.749-6.212,19.843-12.618,29.01-19.886c2.006-1.596,4.055-3.3,6.018-5.177       C324.98,64.911,325.239,64.911,325.476,64.932z"/>
				</g>
				<g>
					<path style="fill:#FFBCC9;" d="M228.805,174.674c-0.065-0.323-0.108-0.625-0.151-0.949c4.573-9.641,9.814-18.873,19.261-23.467       c3.235-1.553,6.772-2.437,10.202-3.3c3.645-0.928,7.42-1.855,10.785-3.624c4.81-2.523,8.584-6.557,12.229-10.461       c8.369-8.951,16.996-18.204,23.596-28.794c1.273-2.028,2.48-4.141,3.667-6.19c2.2-3.861,4.486-7.851,7.225-11.453       c5.543-7.247,13.028-12.941,19.628-17.579c1.337-0.927,2.674-1.834,4.012-2.739c0.28,0.043,0.539,0.086,0.798,0.129       c-1.51,0.992-2.998,2.027-4.486,3.063c-6.902,4.832-14.041,10.289-19.52,17.449c-2.718,3.559-5.004,7.549-7.204,11.389       c-1.165,2.049-2.394,4.184-3.667,6.233c-6.622,10.612-15.271,19.886-23.64,28.859c-3.688,3.926-7.484,8.024-12.402,10.569       c-3.408,1.79-7.204,2.739-10.892,3.667c-3.408,0.841-6.924,1.725-10.094,3.257C238.554,155.37,233.55,164.559,228.805,174.674z       "/>
				</g>
				<g>
					<path style="fill:#FFBCC9;" d="M385.632,87.234c-0.539,2.351-1.316,4.68-2.394,6.967       c-5.371,11.475-16.975,19.002-26.292,25.041c-28.708,18.636-58.43,37.918-91.323,50.708c-0.798,0.302-1.596,0.604-2.394,0.928       c-5.759,2.2-11.733,4.486-16.781,8.132c-5.479,3.947-9.641,9.318-13.027,14.408c-0.086-0.216-0.173-0.41-0.216-0.625       c3.365-5.047,7.506-10.31,12.92-14.214c5.112-3.688,11.108-5.996,16.91-8.218c0.798-0.302,1.596-0.604,2.394-0.927       c32.849-12.747,62.528-32.008,91.236-50.644c9.253-5.996,20.771-13.48,26.098-24.826c1.1-2.329,1.877-4.724,2.416-7.096       C385.33,86.976,385.481,87.105,385.632,87.234z"/>
				</g>
				<g>
					<path style="fill:#FFBCC9;" d="M267.888,208.43c-5.759,2.135-10.979,6.126-15.141,11.474c-0.798,1.014-1.531,2.071-2.243,3.192       c-0.129-0.129-0.237-0.28-0.367-0.431c0.647-1.014,1.337-1.984,2.049-2.912c4.249-5.522,9.598-9.641,15.508-11.82       c6.988-2.588,14.624-2.523,22-2.437c2.2,0.022,4.465,0.043,6.665,0c12.337-0.28,20.987-3.645,25.71-10.008       c4.508-6.082,4.767-13.61,5.026-21.59c0.151-4.422,0.28-8.994,1.251-13.265c0.776-3.58,2.092-6.125,3.969-7.808       c2.761-2.481,6.6-2.998,10.31-3.516l0.41-0.043c16.457-2.243,28.536-7.765,35.869-16.435       c4.551-5.349,7.376-11.971,10.094-18.377c1.445-3.386,2.955-6.902,4.681-10.181c0.992-1.898,2.178-3.796,3.494-5.63       c0.129,0.129,0.259,0.28,0.367,0.432c-1.272,1.747-2.416,3.602-3.386,5.435c-1.726,3.278-3.214,6.772-4.659,10.159       c-2.739,6.449-5.565,13.114-10.159,18.528c-7.441,8.757-19.628,14.343-36.214,16.608l-0.431,0.043       c-3.624,0.496-7.377,1.014-10.03,3.386c-1.79,1.596-3.02,4.055-3.796,7.506c-0.949,4.227-1.078,8.779-1.229,13.179       c-0.259,7.7-0.518,15.68-5.112,21.892c-4.831,6.514-13.632,9.943-26.141,10.223c-2.221,0.043-4.486,0.022-6.686,0       C282.36,205.949,274.768,205.884,267.888,208.43z"/>
				</g>
				<g>
					<path style="fill:#FFBCC9;" d="M420.12,156.923c0,0.194,0.022,0.388,0,0.582c-3.149,1.553-6.492,2.437-9.836,2.545       c-2.761,0.087-5.543-0.302-8.217-0.712c-0.388-0.065-0.776-0.108-1.165-0.172c-1.251-0.173-2.524-0.324-3.796-0.431       c-7.398-0.604-15.357,0.949-24.351,4.723c-4.12,1.704-8.671,4.033-11.324,8.088c-2.157,3.365-2.717,7.485-3.278,11.453       c-0.151,1.229-0.324,2.459-0.539,3.667c-1.941,11.022-8.39,20.879-17.19,27.737c-7.419,5.781-16.5,9.404-25.947,9.706       c-4.659,0.151-9.382-0.41-13.955-0.97c-2.157-0.259-4.335-0.539-6.535-0.733c-4.12-0.345-8.282-0.432-12.359,0.28       c-0.453,0.086-0.884,0.172-1.337,0.28c-6.622,1.531-12.769,5.716-16.694,11.41c-0.237,0.324-0.453,0.669-0.647,1.014       c-0.151-0.108-0.28-0.216-0.41-0.345c0.194-0.324,0.41-0.647,0.626-0.971c3.624-5.263,9.124-9.296,15.163-11.129       c1.057-0.345,2.113-0.583,3.192-0.777c5.069-0.884,10.245-0.561,15.335,0c1.251,0.129,2.502,0.28,3.731,0.431       c4.551,0.561,9.253,1.122,13.869,0.97c8.843-0.302,17.385-3.537,24.502-8.735c9.253-6.773,16.112-16.888,18.118-28.255       c0.216-1.186,0.388-2.437,0.561-3.645c0.539-4.033,1.121-8.218,3.365-11.691c2.717-4.184,7.355-6.535,11.539-8.282       c9.081-3.818,17.126-5.371,24.61-4.767c1.337,0.108,2.653,0.281,3.969,0.475c0.345,0.043,0.69,0.108,1.035,0.151       c2.653,0.388,5.371,0.776,8.11,0.69C413.628,159.404,416.971,158.498,420.12,156.923z"/>
				</g>
				<g>
					<path style="fill:#FFBCC9;" d="M419.409,173.467c-0.022,0.28-0.065,0.561-0.108,0.841c-3.494,3.429-6.363,7.484-8.347,11.992       c-0.302,0.647-0.583,1.337-0.884,2.027c-2.416,5.694-5.155,12.165-11.173,12.683c-1.337,0.129-2.631-0.108-3.904-0.324       c-0.777-0.129-1.574-0.259-2.351-0.324c-4.637-0.324-9.49,2.028-13.395,6.471c-2.696,3.041-4.68,6.686-6.621,10.202       c-0.561,1.014-1.1,2.006-1.661,2.998c-8.671,15.184-21.418,27.867-36.43,36.667c-0.431,0.065-0.841,0.108-1.273,0.129       c15.357-8.778,28.406-21.612,37.228-37.055c0.561-0.992,1.121-2.006,1.661-2.998c1.941-3.537,3.969-7.204,6.686-10.31       c4.034-4.573,9.102-6.988,13.847-6.643c0.798,0.065,1.618,0.194,2.394,0.324c1.229,0.216,2.502,0.453,3.774,0.323       c5.694-0.496,8.369-6.794,10.72-12.359c0.302-0.69,0.583-1.38,0.884-2.049C412.55,181.296,415.634,177.025,419.409,173.467z"/>
				</g>
			</g>
		</g>
		<g>
			<g>
				<path style="fill:#CD7CB5;" d="M161.014,417.151v0.194c0,0.388,0,0.798-0.022,1.186c0,0.194,0,0.388-0.021,0.561      c-0.108,4.098-0.69,8.067-1.661,11.884c-0.367,1.488-0.82,2.955-1.316,4.378h-0.021c-0.043,0.173-0.108,0.367-0.173,0.539      c-0.259,0.776-0.561,1.553-0.884,2.308c-0.065,0.173-0.129,0.345-0.216,0.518c-1.229,2.934-2.718,5.737-4.422,8.369h-92.66      c-5.522-8.563-8.735-18.786-8.735-29.743c0-0.539,0-1.078,0.043-1.596c-0.022-0.194,0-0.388,0-0.582      c0.216-5.436,1.208-10.655,2.89-15.551c0.043-0.194,0.108-0.367,0.194-0.561c0.323-0.97,0.69-1.941,1.1-2.89      c3.667-8.8,9.534-16.436,16.953-22.216c9.34-7.312,21.095-11.669,33.885-11.669C136.296,362.28,160.906,386.825,161.014,417.151      z"/>
			</g>
			<g>
				<g>
					<path style="fill:#FFBCC9;" d="M177.622,423.816c-2.653-0.971-5.414-1.876-8.067-2.718c-2.696-0.863-5.565-1.704-8.563-2.567       c0,0.194,0,0.388-0.021,0.561c2.955,0.841,5.78,1.682,8.433,2.523c2.934,0.927,5.5,1.79,7.743,2.61       c14.602,5.22,15.961,8.11,15.745,9.188c-0.496,2.588-10.31,3.537-26.81,2.545c-1.51-0.087-3.063-0.194-4.68-0.324       c-1.1-0.086-2.243-0.173-3.408-0.28h-0.021c-8.196-0.733-17.643-1.855-28.104-3.408c-1.596-0.237-3.235-0.474-4.896-0.733       c-6.126-0.97-12.575-2.049-19.283-3.3c-9.706-1.79-18.765-3.688-27.069-5.586c-1.251-0.28-2.48-0.561-3.688-0.841       c-9.016-2.135-17.061-4.249-24.006-6.32c-18.592-5.522-29.14-10.526-28.622-13.351c0.367-1.898,5.802-2.933,15.249-2.933       c4.529,0,9.986,0.237,16.263,0.733c0.043-0.194,0.108-0.367,0.194-0.561c-18.485-1.488-31.555-0.949-32.224,2.675       c-0.69,3.624,11.345,8.8,29.14,14.02c7.269,2.114,15.486,4.271,24.222,6.298c1.035,0.259,2.092,0.496,3.149,0.733       c8.822,2.028,18.075,3.947,27.306,5.651c8.088,1.488,16.241,2.847,24.157,4.012c1.661,0.259,3.322,0.496,4.961,0.733       c0.022,0,0.022,0,0.022,0c8.153,1.143,15.961,2.049,23.057,2.718c1.294,0.108,2.545,0.216,3.796,0.323       c1.402,0.108,2.761,0.194,4.098,0.281c4.486,0.302,8.585,0.453,12.165,0.453c4.616,0,8.412-0.259,11.086-0.82       c2.675-0.561,4.249-1.423,4.465-2.631C193.95,430.589,186.293,426.965,177.622,423.816z"/>
				</g>
			</g>
		</g>
		<g>
			<path style="fill:#FFDFE5;" d="M242.891,327.032c0,5.272-4.273,9.546-9.545,9.546c-5.272,0-9.546-4.274-9.546-9.546     c0-5.272,4.274-9.545,9.546-9.545C238.617,317.486,242.891,321.76,242.891,327.032z"/>
		</g>
		<g>
			<g>
				<path style="fill:#FFD461;" d="M477.105,364.61c-3.559,3.645-8.994,5.694-14.3,5.327c-9.835-0.712-17.428-8.886-27.241-9.835      c-10.353-1.014-21.655,6.169-30.714,2.222c-0.367-0.172-0.755-0.345-1.122-0.561c-9.534-5.306-8.347-20.836-18.916-24.179      c-5.155-1.661-12.726-0.28-14.688-4.939c-0.841-2.006-0.108-4.443-1.337-6.277c-1.876-2.782-6.406-2.006-10.008-2.049      c-5.241-0.086-10.288-2.955-12.682-7.182c-1.575-2.761-1.294-5.974-0.582-9.167c0.021-0.172,0.065-0.366,0.129-0.561      c0.129-0.669,0.302-1.337,0.475-1.984c0.043-0.173,0.086-0.345,0.129-0.496c0.172-0.669,0.345-1.316,0.496-1.963      c1.402-5.91,7.01-10.806,13.524-11.885c4.875-0.776,10.418,0.281,14.408-2.416c3.041-2.07,4.141-5.694,5.802-8.822      c2.373-4.465,6.622-8.39,11.949-9.361c4.4-0.798,8.865,0.496,13.286,1.057c0.259,0.022,0.496,0.065,0.755,0.065      c0.367,1.941,0.777,3.883,1.208,5.824c0.022,0.173,0.065,0.345,0.108,0.539c0.712,3.257,1.488,6.514,2.394,9.728      c3.278,11.798,8.067,23.057,16.177,32.073c0.086,0.086,0.173,0.194,0.259,0.28c0.108,0.129,0.237,0.259,0.367,0.388      c10.202,11,24.351,17.535,35.653,27.436c1.208,1.057,2.372,2.135,3.473,3.279c0.173,0.129,0.302,0.259,0.41,0.388      C470.505,355.529,474.021,359.929,477.105,364.61z"/>
			</g>
			<g>
				<g>
					<g>
						<path style="fill:#FFDFE5;" d="M407.783,277.968c-0.281,0.129-0.561,0.302-0.82,0.474c-2.416,1.682-3.386,4.487-4.4,7.463        c-0.69,1.984-1.402,4.033-2.588,5.759c-4.141,5.975-12.941,6.341-19.369,4.141c-0.604-0.216-1.229-0.431-1.833-0.669        c-1.639-0.625-3.343-1.251-5.09-1.467c-4.292-0.539-8.865,1.531-11.971,5.371c-0.453,0.561-0.884,1.165-1.316,1.769        c-1.1,1.531-2.243,3.149-3.926,4.141c-2.977,1.79-6.557,1.165-10.008,0.539c-0.108-0.021-0.237-0.043-0.345-0.065        c0.043-0.173,0.086-0.345,0.129-0.496c0.108,0,0.194,0.022,0.302,0.043c3.365,0.582,6.837,1.208,9.641-0.474        c1.574-0.949,2.696-2.502,3.774-4.012c0.432-0.604,0.863-1.208,1.337-1.79c3.214-3.969,7.98-6.104,12.445-5.565        c1.812,0.216,3.537,0.884,5.219,1.51c0.604,0.216,1.208,0.453,1.812,0.647c6.234,2.135,14.775,1.812,18.743-3.926        c1.143-1.661,1.855-3.688,2.524-5.651c1.014-2.912,2.049-5.91,4.616-7.7c0.324-0.216,0.647-0.41,1.014-0.582        C407.697,277.601,407.74,277.773,407.783,277.968z"/>
					</g>
				</g>
				<g>
					<g>
						<path style="fill:#FFDFE5;" d="M426.979,320.437c-0.302,0.496-0.669,0.971-1.057,1.424c-2.523,2.89-6.492,4.594-10.569,4.594        c-0.367,0-0.733-0.022-1.1-0.043c-4.12-0.324-8.239-2.373-11.345-5.608c-0.388-0.41-0.755-0.82-1.1-1.273        c-1.143-1.359-2.135-2.826-3.106-4.271c-1.402-2.092-2.847-4.249-4.68-5.996c-4.508-4.335-12.726-6.018-17.794-1.661        c-0.712,0.625-1.359,1.359-1.985,2.049c-0.992,1.1-2.006,2.243-3.3,2.998c-3.559,2.092-8.045,0.798-11.151-0.669        c-0.863-0.388-1.704-0.819-2.523-1.251c-2.502-1.294-5.112-2.61-7.894-2.934c-1.294-0.129-2.588-0.043-3.861,0.172        c0.021-0.172,0.065-0.366,0.129-0.561c1.251-0.215,2.524-0.28,3.796-0.129c2.89,0.302,5.522,1.661,8.067,2.977        c0.819,0.41,1.661,0.841,2.502,1.229c3.02,1.424,7.29,2.675,10.655,0.712c1.23-0.733,2.179-1.79,3.171-2.89        c0.647-0.733,1.294-1.467,2.049-2.114c5.284-4.551,13.847-2.804,18.506,1.682c1.877,1.79,3.343,3.969,4.767,6.083        c0.863,1.273,1.747,2.588,2.739,3.818c0.432,0.561,0.906,1.122,1.402,1.639c2.998,3.149,7.01,5.133,11,5.457        c4.271,0.345,8.585-1.359,11.216-4.357c0.41-0.475,0.776-0.949,1.1-1.467C426.72,320.178,426.85,320.307,426.979,320.437z"/>
					</g>
				</g>
				<g>
					<g>
						<path style="fill:#FFDFE5;" d="M466.515,351.539c-2.437,1.143-5.306,1.531-7.894,0.345c-2.632-1.208-4.335-3.688-5.953-6.082        c-1.596-2.308-3.235-4.702-5.716-5.867c-3.171-1.467-7.42-0.647-11.367,2.178c-1.574,1.122-3.019,2.459-4.421,3.753        c-1.618,1.467-3.279,2.998-5.112,4.227c-2.114,1.402-4.896,2.545-7.657,2.545c-1.488,0-2.976-0.345-4.335-1.143        c-3.559-2.135-4.616-6.406-5.629-10.547c-0.97-3.969-1.984-8.088-5.241-10.159c-0.626-0.388-1.273-0.669-1.941-0.884        c-2.869-0.863-6.19-0.216-9.426,0.431c-4.12,0.82-8.391,1.661-11.82-0.625c-2.071-1.381-3.257-3.624-4.422-5.78        c-0.755-1.402-1.532-2.869-2.545-4.077c-4.206-4.982-11.669-5.371-18.333-5.306l-9.469,0.065l-0.022-0.539l9.49-0.065        c6.794-0.065,14.386,0.345,18.743,5.5c1.057,1.251,1.834,2.739,2.61,4.163c1.165,2.2,2.286,4.27,4.249,5.586        c3.235,2.178,7.204,1.381,11.41,0.539c3.257-0.626,6.578-1.294,9.534-0.431c0.755,0.194,1.51,0.518,2.222,0.97        c3.451,2.178,4.486,6.406,5.5,10.482c1.014,4.227,2.006,8.196,5.37,10.202c3.645,2.157,8.283,0.712,11.41-1.38        c1.812-1.208,3.451-2.718,5.047-4.184c1.424-1.294,2.89-2.631,4.465-3.775c4.12-2.955,8.563-3.796,11.928-2.222        c2.61,1.208,4.292,3.667,5.91,6.039c1.596,2.329,3.235,4.745,5.737,5.888c2.372,1.078,4.982,0.755,7.269-0.237        C466.278,351.28,466.407,351.409,466.515,351.539z"/>
					</g>
				</g>
			</g>
		</g>
		<g>
			<g>
				<g>
					<polygon style="fill:#FF85CA;" points="361.846,283.893 361.846,332.724 341.723,319.309 333.934,309.652 322.181,306.281        331.22,306.126 334.476,299.336      "/>
				</g>
				<g>
					<path style="fill:#CD7CB5;" d="M341.723,319.309l-17.125-11.41c-0.022-1.014-0.043-2.006,0-2.977l9.878-5.586       C336.913,304.254,339.674,312.558,341.723,319.309z"/>
				</g>
			</g>
			<g>
				<g>
					<g>
						<polygon style="fill:#FF85CA;" points="247.662,239.108 225.662,265.012 218.073,268.432 218.652,273.251 118.076,273.251         121.204,272.432       "/>
					</g>
					<g>
						<polygon style="fill:#CD7CB5;" points="225.662,265.012 218.652,273.251 118.076,273.251 121.204,272.432       "/>
					</g>
				</g>
				<g>
					<g>
						<polygon style="fill:#FF85CA;" points="241.421,376.782 219.421,350.878 212.875,347.206 212.411,342.638 111.835,342.638         114.963,343.458       "/>
					</g>
					<g>
						<polygon style="fill:#CD7CB5;" points="219.421,350.878 212.099,342.272 110.436,342.272 114.963,343.458       "/>
					</g>
				</g>
				<g>
					<g>
						<g>
							<path style="fill:#FF85CA;" d="M333.031,277.198v60.759c0,2.383-1.931,4.314-4.314,4.314H109.449l-63.477-32.763         c-1.553-0.82-1.553-3.041,0.021-3.839l62.658-32.094l0.992-0.518l0.345-0.173h218.73         C331.1,272.885,333.031,274.816,333.031,277.198z"/>
						</g>
					</g>
					<g>
						<g>
							<path style="fill:#FFDFE5;" d="M110.743,342.272h-1.122c6.341-22.388,6.018-46.502-0.971-68.697l0.992-0.518         C116.696,295.424,117.084,319.711,110.743,342.272z"/>
						</g>
					</g>
					<g>
						<g>
							<g>
								<path style="fill:#FFDFE5;" d="M152.577,305.555c0,5.272-4.273,9.545-9.545,9.545c-5.272,0-9.546-4.274-9.546-9.545          c0-5.272,4.274-9.545,9.546-9.545C148.303,296.009,152.577,300.283,152.577,305.555z"/>
							</g>
						</g>
						<g>
							<g>
								<path style="fill:#FFDFE5;" d="M191.493,305.555c0,5.272-4.274,9.545-9.546,9.545c-5.271,0-9.545-4.274-9.545-9.545          c0-5.272,4.274-9.545,9.545-9.545C187.219,296.009,191.493,300.283,191.493,305.555z"/>
							</g>
						</g>
						<g>
							<g>
								<path style="fill:#FFDFE5;" d="M230.408,305.555c0,5.272-4.273,9.545-9.545,9.545c-5.272,0-9.545-4.274-9.545-9.545          c0-5.272,4.273-9.545,9.545-9.545C226.135,296.009,230.408,300.283,230.408,305.555z"/>
							</g>
						</g>
						<g>
							<g>
								<path style="fill:#FFDFE5;" d="M269.324,305.555c0,5.272-4.273,9.545-9.545,9.545c-5.272,0-9.545-4.274-9.545-9.545          c0-5.272,4.273-9.545,9.545-9.545C265.05,296.009,269.324,300.283,269.324,305.555z"/>
							</g>
						</g>
						<g>
							<g>
								<path style="fill:#FFDFE5;" d="M308.24,305.555c0,5.272-4.274,9.545-9.545,9.545c-5.272,0-9.546-4.274-9.546-9.545          c0-5.272,4.274-9.545,9.546-9.545C303.966,296.009,308.24,300.283,308.24,305.555z"/>
							</g>
						</g>
					</g>
				</g>
			</g>
		</g>
		<g>
			<g>
				<g>
					<path style="fill:#FFDFE5;" d="M147.931,192.599c0,7.943-6.439,14.381-14.381,14.381s-14.381-6.439-14.381-14.381       c0-7.942,6.439-14.381,14.381-14.381S147.931,184.657,147.931,192.599z"/>
				</g>
				<g style="opacity:0.18;">
					<path style="fill:#CD7CB5;" d="M141.753,205.324l-98.138,31.038c1.488-4.422,3.041-8.8,4.659-13.179l72.816-37.745l4.141-2.135       l16.047,21.396L141.753,205.324z"/>
				</g>
			</g>
			<g>
				<g style="opacity:0.18;">
					<path style="fill:#CD7CB5;" d="M179.197,144.176l-0.022,0.022l-10.871,3.451h-0.021L66.521,179.851       c1.769-3.624,3.602-7.204,5.543-10.72l86.513-44.842l4.098-2.114L179.197,144.176z"/>
				</g>
				<g>
					<path style="fill:#FFDFE5;" d="M184.15,133.323c0,7.943-6.439,14.381-14.381,14.381c-7.943,0-14.381-6.439-14.381-14.381       s6.439-14.381,14.381-14.381C177.711,118.942,184.15,125.38,184.15,133.323z"/>
				</g>
			</g>
			<g>
				<g style="opacity:0.18;">
					<polygon style="fill:#CD7CB5;" points="176.715,203.951 41.796,273.89 193.236,225.979      "/>
				</g>
				<g>
					<path style="fill:#FFDFE5;" d="M198.468,215.376c0,7.943-6.439,14.381-14.381,14.381s-14.381-6.439-14.381-14.381       c0-7.943,6.439-14.381,14.381-14.381S198.468,207.434,198.468,215.376z"/>
				</g>
			</g>
		</g>
		<g>
			<g>
				<polygon style="fill:#FFDFE5;" points="285.478,387.608 306.426,393.148 286.69,399.034 280.63,423.251 273.359,399.034       251.739,394.36 274.397,388.301 280.63,365.469     "/>
			</g>
			<g>
				<polygon style="fill:#FFDFE5;" points="230.262,122.536 245.819,126.65 231.162,131.021 226.662,149.006 221.262,131.021       205.207,127.55 222.033,123.05 226.662,106.095     "/>
			</g>
			<g>
				<polygon style="fill:#FFDFE5;" points="379.096,246.63 394.652,250.745 379.996,255.116 375.495,273.1 370.096,255.116       354.04,251.645 370.867,247.145 375.495,230.189     "/>
			</g>
			<g>
				<polygon style="fill:#FFDFE5;" points="47.578,344.654 63.135,348.768 48.478,353.14 43.978,371.123 38.578,353.14       22.523,349.668 39.349,345.168 43.978,328.213     "/>
			</g>
			<g>
				<polygon style="fill:#FFDFE5;" points="400.022,407.433 415.579,411.547 400.922,415.919 396.422,433.902 391.022,415.919       374.966,412.447 391.793,407.947 396.422,390.992     "/>
			</g>
		</g>
	</g>
</g>















</svg>
