<?xml version="1.0" encoding="UTF-8"?>
<!-- Generator: Adobe Illustrator 25.2.3, SVG Export Plug-In . SVG Version: 6.00 Build 0)  -->
<svg xmlns="http://www.w3.org/2000/svg" xmlns:xlink="http://www.w3.org/1999/xlink" version="1.1" id="Capa_1" x="0px" y="0px" viewBox="0 0 512 512" style="enable-background:new 0 0 512 512;" xml:space="preserve" width="512" height="512">
<g>
	<g>
		<path style="fill:#FFFFFF;" d="M65.901,512c-4.394,0-8.514-2.132-11.052-5.719c-1.773-2.504-2.619-5.501-2.47-8.492    c-0.087-0.918-0.149-2.087-0.016-3.423V358.047c0-65.821,3.341-133.487,6.95-196.805c0.897-15.813,3.608-33.342,7.656-49.556    V89.812c0-6.998,5.31-12.757,12.121-13.465c3.198-6.92,6.664-13.016,10.35-18.194c17.659-24.83,36.181-31.833,59.631-40.701    c1.919-0.725,3.893-1.471,5.925-2.249c24.84-9.511,53.202-14.609,84.297-15.152c1.819-0.033,3.643-0.05,5.471-0.05    c31.252,0,57.803,4.818,81.17,14.729c37.836,16.048,65.247,46.404,77.181,85.473c1.518,5.008,2.867,10.223,4.034,15.594    c5.94,2.101,11.876,6.213,11.876,14.715c0,5.641-2.661,9.346-6.123,11.807c4.071,2.872,6.123,6.822,6.123,11.819    c0,3.733-1.235,8.169-5.89,11.619c0.024,0.51,0.047,1.021,0.07,1.533c4.611,3.44,5.819,7.897,5.819,11.623    c0,2.98-0.861,7.452-5.194,11.082c0.006,0.297,0.01,0.595,0.014,0.892c4.323,3.618,5.179,8.093,5.179,11.064    c0,2.921-0.814,7.277-4.864,10.846c0.621,41.174-0.963,77.656-4.836,111.523c-1.258,11.116-0.459,18.857,2.514,24.346    c3.317,6.13,8.682,11.638,14.361,17.469c6.778,6.959,14.459,14.846,19.837,25.168c17.243,33.124,14.286,70.368,11.676,103.226    l-0.393,4.987c-0.55,7.048-6.429,12.486-13.497,12.486H65.901z"/>
	</g>
	<g>
		<g>
			<path style="fill:#7F6EEC;" d="M445.981,498.462h-66.067l-22.203-7.098l-33.101,7.098h-9.973l-62.866-8.189l-59.272,8.189h-7.487     l-45.862-7.507l-56.486,7.507H68.058c0.271-0.767-0.271-2.324,0-3.069V358.046c0-64.623,3.249-131.502,6.927-196.035     c1.647-29.04,10.379-71.753,27.641-96.01c16.562-23.286,33.011-28.069,59.366-38.156c25.339-9.702,52.574-13.786,79.696-14.26     c27.618-0.496,55.688,2.821,81.117,13.606c33.778,14.328,58.801,41.879,69.519,76.965c2.279,7.514,4.039,15.14,5.393,22.88     c0.068,0.316,0.113,0.632,0.158,0.948c0.293,1.647,0.564,3.294,0.812,4.942c0.045,0.316,0.09,0.632,0.135,0.925     c0.835,5.731,1.467,11.485,1.963,17.284c0.023,0.316,0.045,0.632,0.068,0.947c0.113,1.354,0.226,2.708,0.316,4.062     c0.023,0.293,0.045,0.609,0.068,0.903c0.429,6.385,0.722,12.771,0.903,19.157c0,0.316,0.022,0.609,0.045,0.903     c0.023,1.218,0.045,2.414,0.09,3.61v0.903c0.158,5.934,0.226,11.846,0.316,17.735c0,0.293,0,0.587,0.023,0.88     c0,1.15,0.023,2.279,0.045,3.43c-0.023,0.293,0,0.587,0,0.88c0.022,2.098,0.045,4.219,0.09,6.318     c0.632,37.366-0.474,74.822-4.716,111.917c-1.241,10.966-1.196,22.631,4.062,32.334c8.619,15.93,25.384,25.723,34.094,42.443     C452.434,428.762,448.621,464.593,445.981,498.462z"/>
		</g>
		<g>
			<g>
				<path style="fill:#FFDFE5;" d="M388.239,109.783H220.264c3.374-5.633,10.743-8.663,17.081-6.829      c2.031,0.573,3.947,1.605,6.043,1.867c5.355,0.688,9.941-3.521,13.838-7.255c8.958-8.581,19.39-16.671,31.689-18.244      c11.807-1.49,24.237,3.734,31.41,13.232c3.521,4.651,6.289,10.596,11.807,12.512c3.161,1.081,6.616,0.589,9.892-0.033      c8.762-1.654,17.507-4.16,26.416-3.799C375.809,101.546,383.539,104.313,388.239,109.783z"/>
			</g>
			<g>
				<path style="fill:#FFDFE5;" d="M245.113,66.489c-0.185-4.908-5.345-9-10.166-8.062c-3.066,0.596-6.114,2.855-9.015,1.695      c-2.792-1.116-3.509-4.615-4.554-7.434c-2.372-6.4-8.538-11.224-15.321-11.984c-6.61-0.741-13.126,2.112-18.667,5.792      c-5.541,3.68-10.485,8.24-16.231,11.589c-1.201,0.7-2.588,1.366-3.93,1.005c-1.392-0.375-2.257-1.716-3.351-2.656      c-3.434-2.951-8.733-1.695-12.798,0.301c-5.054,2.481-9.661,5.869-13.536,9.954c1.839-0.225,2.712-0.335,4.56-0.204      L245.113,66.489z"/>
			</g>
		</g>
		<g>
			<g>
				<path style="fill:#FFDFE5;" d="M435.009,429.715c-0.212-5.617-6.116-10.299-11.634-9.226c-3.509,0.682-6.997,3.267-10.316,1.94      c-3.195-1.277-4.016-5.281-5.211-8.507c-2.714-7.324-9.771-12.844-17.533-13.715c-7.565-0.848-15.021,2.417-21.362,6.628      c-6.341,4.211-11.999,9.429-18.575,13.262c-1.374,0.801-2.961,1.563-4.497,1.15c-1.593-0.429-2.583-1.964-3.835-3.039      c-3.93-3.377-9.994-1.94-14.645,0.344c-5.783,2.84-11.055,6.717-15.49,11.391c2.104-0.257,3.104-0.383,5.218-0.233      L435.009,429.715z"/>
			</g>
		</g>
		<g>
			<g>
				<g>
					<path style="fill:#FFDFE5;" d="M135.658,102.186c-0.312,0-0.564-0.252-0.564-0.564V66.768c0-0.312,0.252-0.564,0.564-0.564       c0.312,0,0.564,0.252,0.564,0.564v34.854C136.222,101.934,135.97,102.186,135.658,102.186z"/>
				</g>
				<g>
					<g>
						<path style="fill:#FFDFE5;" d="M135.706,76.284c-3.556,0-10.284-0.479-10.284-2.291c0-1.811,6.727-2.291,10.284-2.291        c3.557,0,10.284,0.479,10.284,2.291C145.989,75.804,139.262,76.284,135.706,76.284z M135.706,72.395        c-6.206,0-9.592,1.055-9.592,1.599c0,0.543,3.386,1.599,9.592,1.599c6.206,0,9.592-1.055,9.592-1.599        C145.297,73.45,141.912,72.395,135.706,72.395z"/>
					</g>
					<g>
						<path style="fill:#FFDFE5;" d="M135.706,83.661c-4.725,0-13.662-0.637-13.662-3.043c0-2.406,8.936-3.042,13.662-3.042        c4.726,0,13.662,0.636,13.662,3.042C149.367,83.024,140.431,83.661,135.706,83.661z M135.706,78.495        c-8.245,0-12.743,1.402-12.743,2.123c0,0.722,4.497,2.124,12.743,2.124c8.246,0,12.743-1.403,12.743-2.124        C148.448,79.897,143.951,78.495,135.706,78.495z"/>
					</g>
				</g>
			</g>
			<g>
				<g>
					<g>
						<polygon style="fill:#924CA5;" points="185.011,89.812 185.011,498.462 157.649,498.462 144.361,493.482 131.073,498.462         103.133,498.462 87.911,493.482 90.677,99.141 103.133,89.812       "/>
					</g>
					<g>
						<rect x="82.663" y="89.812" style="fill:#221309;" width="20.469" height="408.65"/>
					</g>
				</g>
				<g>
					<g>
						<rect x="117.99" y="100.83" style="fill:#FFDFE5;" width="4.724" height="349.598"/>
					</g>
					<g>
						<rect x="130.588" y="100.83" style="fill:#FFDFE5;" width="4.724" height="349.598"/>
					</g>
					<g>
						<rect x="143.186" y="100.83" style="fill:#FFDFE5;" width="4.724" height="349.598"/>
					</g>
					<g>
						<rect x="155.785" y="100.83" style="fill:#FFDFE5;" width="4.724" height="349.598"/>
					</g>
					<g>
						<rect x="168.383" y="100.83" style="fill:#FFDFE5;" width="4.724" height="349.598"/>
					</g>
				</g>
				<g>
					<path style="fill:#FFDFE5;" d="M157.649,477.599v20.863h-26.576v-20.863c0-7.355,5.967-13.299,13.299-13.299       c3.654,0,6.985,1.48,9.391,3.886C156.169,470.591,157.649,473.921,157.649,477.599z"/>
				</g>
			</g>
		</g>
		<g>
			<g>
				<polygon style="fill:#FF85CA;" points="314.636,250.349 314.636,320.252 310.968,326.017 314.636,331.782 314.636,498.462       217.07,498.462 200.913,487.761 204.784,154.52 217.07,145.111 282.37,145.111 282.37,156.063 279.022,161.094 282.37,167.585       282.37,250.349     "/>
			</g>
			<g>
				<g>
					<rect x="230.522" y="156.063" style="fill:#FFDFE5;" width="51.849" height="11.522"/>
				</g>
				<g>
					<rect x="227.065" y="288.566" style="fill:#FFDFE5;" width="76.621" height="11.522"/>
				</g>
				<g>
					<rect x="261.634" y="320.252" style="fill:#FFDFE5;" width="53.003" height="11.53"/>
				</g>
				<g>
					<rect x="205.75" y="350.208" style="fill:#FFDFE5;" width="76.621" height="11.522"/>
				</g>
				<g>
					<rect x="229.946" y="187.172" style="fill:#FFDFE5;" width="16.131" height="15.555"/>
				</g>
				<g>
					<rect x="258.175" y="218.282" style="fill:#FFDFE5;" width="16.131" height="15.555"/>
				</g>
				<g>
					<rect x="278.914" y="392.84" style="fill:#FFDFE5;" width="16.131" height="15.555"/>
				</g>
				<g>
					<rect x="234.555" y="433.167" style="fill:#FFDFE5;" width="16.131" height="15.555"/>
				</g>
				<g>
					<rect x="280.354" y="469.749" style="fill:#FFDFE5;" width="16.131" height="15.555"/>
				</g>
				<g>
					<rect x="225.913" y="250.543" style="fill:#FFDFE5;" width="16.131" height="15.555"/>
				</g>
			</g>
			<g>
				<rect x="192.498" y="145.111" style="fill:#221309;" width="24.572" height="353.351"/>
			</g>
		</g>
		<g>
			<g>
				<g>
					<g>
						<polygon style="fill:#FFBCC9;" points="379.914,110.543 379.914,498.462 329.619,498.462 327.114,493.482 327.114,116.526         329.619,110.543 333.071,110.543 336.377,100.83 339.682,96.734 369.173,96.734 369.173,110.543       "/>
					</g>
					<g>
						<g>
							<rect x="335.948" y="118.617" style="fill:#FFDFE5;" width="37.35" height="8.065"/>
						</g>
						<g>
							<rect x="335.948" y="140.508" style="fill:#FFDFE5;" width="37.35" height="8.065"/>
						</g>
						<g>
							<rect x="335.948" y="140.508" style="fill:#FFDFE5;" width="37.35" height="8.065"/>
						</g>
						<g>
							<rect x="335.948" y="162.4" style="fill:#FFDFE5;" width="37.35" height="8.066"/>
						</g>
						<g>
							<rect x="335.948" y="162.4" style="fill:#FFDFE5;" width="37.35" height="8.066"/>
						</g>
						<g>
							<rect x="335.948" y="184.292" style="fill:#FFDFE5;" width="37.35" height="8.066"/>
						</g>
						<g>
							<rect x="335.948" y="184.292" style="fill:#FFDFE5;" width="37.35" height="8.066"/>
						</g>
						<g>
							<rect x="335.948" y="206.184" style="fill:#FFDFE5;" width="37.35" height="8.065"/>
						</g>
						<g>
							<rect x="335.948" y="206.184" style="fill:#FFDFE5;" width="37.35" height="8.065"/>
						</g>
						<g>
							<rect x="335.948" y="228.076" style="fill:#FFDFE5;" width="37.35" height="8.065"/>
						</g>
						<g>
							<rect x="335.948" y="228.076" style="fill:#FFDFE5;" width="37.35" height="8.065"/>
						</g>
						<g>
							<rect x="335.948" y="249.967" style="fill:#FFDFE5;" width="37.35" height="8.066"/>
						</g>
						<g>
							<rect x="335.948" y="249.967" style="fill:#FFDFE5;" width="37.35" height="8.066"/>
						</g>
						<g>
							<rect x="335.948" y="271.859" style="fill:#FFDFE5;" width="37.35" height="8.066"/>
						</g>
						<g>
							<rect x="335.948" y="271.859" style="fill:#FFDFE5;" width="37.35" height="8.066"/>
						</g>
						<g>
							<rect x="335.948" y="293.751" style="fill:#FFDFE5;" width="37.35" height="8.065"/>
						</g>
						<g>
							<rect x="335.948" y="293.751" style="fill:#FFDFE5;" width="37.35" height="8.065"/>
						</g>
						<g>
							<rect x="335.948" y="315.643" style="fill:#FFDFE5;" width="37.35" height="8.065"/>
						</g>
						<g>
							<rect x="335.948" y="315.643" style="fill:#FFDFE5;" width="37.35" height="8.065"/>
						</g>
						<g>
							<rect x="335.948" y="337.534" style="fill:#FFDFE5;" width="37.35" height="8.065"/>
						</g>
						<g>
							<rect x="335.948" y="337.534" style="fill:#FFDFE5;" width="37.35" height="8.065"/>
						</g>
						<g>
							<rect x="335.948" y="359.426" style="fill:#FFDFE5;" width="37.35" height="8.066"/>
						</g>
						<g>
							<rect x="335.948" y="359.426" style="fill:#FFDFE5;" width="37.35" height="8.066"/>
						</g>
						<g>
							<rect x="335.948" y="381.318" style="fill:#FFDFE5;" width="37.35" height="8.065"/>
						</g>
						<g>
							<rect x="335.948" y="381.318" style="fill:#FFDFE5;" width="37.35" height="8.065"/>
						</g>
						<g>
							<rect x="335.948" y="403.21" style="fill:#FFDFE5;" width="37.35" height="8.066"/>
						</g>
						<g>
							<rect x="335.948" y="403.21" style="fill:#FFDFE5;" width="37.35" height="8.066"/>
						</g>
						<g>
							<rect x="335.948" y="425.102" style="fill:#FFDFE5;" width="37.35" height="8.065"/>
						</g>
						<g>
							<rect x="335.948" y="425.102" style="fill:#FFDFE5;" width="37.35" height="8.065"/>
						</g>
						<g>
							<rect x="335.948" y="446.993" style="fill:#FFDFE5;" width="37.35" height="8.065"/>
						</g>
					</g>
				</g>
				<g>
					<g>
						<g>
							<path style="fill:#FFFFFF;" d="M397.717,127.037c-4.851-0.722-11.056-1.241-17.69-1.602v0.903         c7.378,0.406,13.403,0.993,17.848,1.647c5.776,0.812,8.868,1.715,8.868,2.527c0,0.767-2.82,1.625-8.055,2.415         c-4.513,0.699-10.853,1.331-18.773,1.782c-7.672,0.451-16.833,0.722-27.257,0.722c-8.574,0-16.291-0.18-23.038-0.496         c-1.737-0.09-3.407-0.18-5.009-0.271c-16.562-0.993-26.039-2.753-26.039-4.152c0-1.399,9.409-3.136,25.858-4.129v-0.925         c-14.554,0.857-26.761,2.459-26.761,5.054c0,2.617,12.32,4.22,26.941,5.077c1.647,0.09,3.317,0.181,5.009,0.248         c7.83,0.361,15.975,0.519,23.038,0.519c8.326,0,18.187-0.226,27.257-0.722c7.198-0.406,13.899-0.993,18.909-1.783         c5.393-0.857,8.823-1.963,8.823-3.34C407.645,129.045,403.741,127.895,397.717,127.037z"/>
						</g>
					</g>
					<g>
						<g>
							<path style="fill:#FFFFFF;" d="M400.785,151.136c-5.122-0.948-12.613-1.625-20.759-2.076v0.88         c9.206,0.542,16.291,1.309,20.826,2.144c3.836,0.677,5.889,1.421,5.889,2.053s-1.918,1.331-5.573,2.008         c-4.535,0.835-11.778,1.647-21.255,2.189c-7.672,0.451-16.833,0.722-27.257,0.722c-8.574,0-16.291-0.18-23.038-0.497         c-1.737-0.09-3.407-0.18-5.009-0.271c-16.562-0.993-26.039-2.753-26.039-4.152s9.477-3.159,26.039-4.152h0.113v-0.903h-0.113         c-14.621,0.835-26.941,2.414-26.941,5.054c0,2.618,12.32,4.219,26.941,5.077c1.647,0.09,3.317,0.18,5.009,0.248         c7.83,0.361,15.975,0.519,23.038,0.519c8.326,0,18.187-0.225,27.257-0.722c8.439-0.474,16.178-1.196,21.323-2.211         c3.994-0.79,6.408-1.738,6.408-2.911C407.645,152.918,405.027,151.948,400.785,151.136z"/>
						</g>
					</g>
					<g>
						<g>
							<path style="fill:#FFFFFF;" d="M402.139,176.204c-5.077-1.128-13.2-1.895-22.113-2.392v0.903         c10.154,0.587,17.713,1.467,22.158,2.392c2.978,0.609,4.558,1.241,4.558,1.805s-1.534,1.173-4.468,1.805         c-4.445,0.903-12.072,1.805-22.361,2.392c-7.672,0.452-16.833,0.722-27.257,0.722c-8.574,0-16.291-0.181-23.038-0.497         c-1.737-0.09-3.407-0.18-5.009-0.271c-16.562-0.993-26.039-2.753-26.039-4.151c0-1.399,9.409-3.137,25.858-4.129v-0.947         c-14.554,0.857-26.761,2.459-26.761,5.077c0,2.617,12.32,4.219,26.941,5.077c1.647,0.09,3.317,0.18,5.009,0.248         c2.098,0.113,4.219,0.181,6.34,0.248c5.776,0.181,11.53,0.271,16.697,0.271c6.34,0,13.561-0.135,20.646-0.406         c2.234-0.09,4.445-0.203,6.611-0.316c9.026-0.519,17.261-1.286,22.361-2.414c3.362-0.745,5.37-1.647,5.37-2.708         C407.645,177.829,405.591,176.949,402.139,176.204z"/>
						</g>
					</g>
					<g>
						<g>
							<path style="fill:#FFFFFF;" d="M402.59,199.355c-5.054-1.174-13.38-1.986-22.564-2.482v0.903         c10.492,0.609,18.209,1.512,22.586,2.46c2.708,0.564,4.129,1.173,4.129,1.715c0,0.542-1.399,1.128-4.084,1.715         c-4.377,0.948-12.162,1.873-22.745,2.482c-2.098,0.113-4.287,0.225-6.611,0.316c-6.16,0.248-13.064,0.406-20.646,0.406         c-6.002,0-11.575-0.09-16.697-0.248c-2.211-0.067-4.332-0.158-6.34-0.248c-1.737-0.09-3.407-0.18-5.009-0.271         c-16.562-0.993-26.039-2.753-26.039-4.152s9.477-3.159,26.039-4.151h0.113v-0.903h-0.113         c-14.621,0.835-26.941,2.437-26.941,5.054c0,2.618,12.32,4.219,26.941,5.077c1.647,0.09,3.317,0.18,5.009,0.248         c2.098,0.113,4.219,0.18,6.34,0.248c5.776,0.18,11.53,0.271,16.697,0.271c6.34,0,13.561-0.135,20.646-0.406         c2.234-0.09,4.445-0.203,6.611-0.316c9.251-0.519,17.668-1.331,22.745-2.527c3.136-0.699,4.987-1.579,4.987-2.595         C407.645,200.934,405.749,200.077,402.59,199.355z"/>
						</g>
					</g>
				</g>
			</g>
			<g>
				<rect x="333.071" y="96.734" style="fill:#221309;" width="6.611" height="13.538"/>
			</g>
			<g>
				<rect x="324.609" y="110.543" style="fill:#221309;" width="5.009" height="387.918"/>
			</g>
		</g>
		<g>
			<g>
				<g>
					<g>
						<path style="fill:#3C1C87;" d="M393.953,283.721H223.617c1.339-2.049,2.705-4.071,4.176-6.04        c0.473-0.63,0.972-1.261,1.497-1.891l27.157-15.234l23.712-15.178c0.105-0.026,0.21-0.053,0.315-0.053        c6.04-1.234,12.186-1.891,18.357-2.022c0.447-0.026,0.867-0.026,1.313-0.026c0.92,0,1.865,0,2.784,0.026        c0.341,0,0.709,0,1.077,0.026c9.875,0.262,19.749,1.865,29.282,4.648c0.315,0.053,0.604,0.158,0.919,0.236        c2.626,0.788,5.226,1.655,7.8,2.6c8.22,3.072,16.099,6.907,23.61,11.45c0.368,0.21,0.709,0.42,1.077,0.657        c5.935,3.624,11.634,7.669,17.097,12.028c0.289,0.21,0.551,0.446,0.84,0.657C387.834,278.206,390.932,280.911,393.953,283.721        z"/>
					</g>
				</g>
				<g>
					<g>
						<path style="fill:#FFDFE5;" d="M291.016,275.788H229.3c12.553-15.705,31.147-26.288,50.87-30.412        c0.105-0.026,0.21-0.053,0.315-0.053c3.073,3.335,5.358,7.354,6.907,11.608C289.546,262.789,290.701,269.538,291.016,275.788z        "/>
					</g>
				</g>
			</g>
			<g>
				<g>
					<path style="fill:#FFFFFF;" d="M275.941,259.723c0.53,1.389,1.202,2.794,2.377,3.705c1.175,0.911,2.975,1.167,4.12,0.218       c0.743-0.616,1.074-1.595,1.25-2.544c0.643-3.468-0.638-9.717-4.518-11.085C273.583,248.048,274.925,257.059,275.941,259.723z"/>
				</g>
			</g>
			<g>
				<g>
					<path style="fill:#3C1C87;" d="M346.786,308.959c-3.099-1.786-6.355-3.572-9.717-5.357c-0.184-0.105-0.394-0.21-0.578-0.315       c-8.667-4.596-17.858-9.218-26.026-13.814c-0.21-0.132-0.42-0.236-0.63-0.368c-3.177-1.786-6.171-3.598-8.902-5.383       c-0.026-0.026-0.053-0.026-0.079-0.053c0.998-3.309,3.572-6.014,6.592-7.668c2.022-1.103,4.202-1.786,6.46-2.154       c0.237-0.053,0.447-0.079,0.656-0.105c0.946-0.158,1.917-0.263,2.863-0.315c3.992-0.262,8.194,0.237,11.975,1.602       c0.552,0.21,1.103,0.42,1.628,0.656h0.026c3.545,1.576,6.592,3.992,8.64,7.301l0.341,0.736l10.4,21.824       C351.565,307.883,349.018,310.246,346.786,308.959z"/>
				</g>
			</g>
			<g>
				<g>
					<g>
						<path style="fill:#3C1C87;" d="M299.498,248.494c-0.363,0-0.657-0.294-0.657-0.656v-28.609c0-0.363,0.294-0.656,0.657-0.656        c0.363,0,0.657,0.294,0.657,0.656v28.609C300.155,248.201,299.861,248.494,299.498,248.494z"/>
					</g>
				</g>
				<g>
					<g>
						<path style="fill:#3C1C87;" d="M302.628,216.771c0,1.605-1.301,2.906-2.906,2.906c-1.605,0-2.906-1.301-2.906-2.906        c0-1.605,1.301-2.906,2.906-2.906C301.327,213.865,302.628,215.166,302.628,216.771z"/>
					</g>
				</g>
			</g>
			<g>
				<g>
					<path style="fill:#FFDFE5;" d="M343.976,275.212c0,0.105-0.026,0.21-0.078,0.263c-0.026,0.052-0.105,0.105-0.158,0.105       c-0.026,0.026-0.052,0.026-0.079,0.026l-12.632,0.079l-16.624,0.079c-0.184,0-0.315-0.131-0.341-0.289       c-0.053-0.552-0.079-1.103-0.158-1.628c-0.683-7.117-2.206-14.129-4.517-20.878c-1.234-3.598-2.968-7.564-6.355-9.507       c-0.053-0.053-0.105-0.105-0.105-0.158c-0.079-0.079-0.079-0.184-0.026-0.289c0.105-0.157,0.315-0.21,0.473-0.131       c0.21,0.131,0.42,0.263,0.63,0.446c3.151,2.127,4.806,5.935,6.014,9.428c2.311,6.802,3.861,13.84,4.543,20.984       c0.052,0.446,0.105,0.919,0.132,1.365l14.707-0.078l13.866-0.079c-1.628-9.691-5.069-18.935-9.979-26.971       c0.315,0.053,0.604,0.158,0.919,0.236c2.626,4.412,4.806,9.165,6.513,14.129c0.079,0.21,0.131,0.394,0.184,0.578       c1.339,3.887,2.337,7.931,3.02,12.028C343.949,275.029,343.949,275.134,343.976,275.212z"/>
				</g>
			</g>
			<g>
				<g>
					<path style="fill:#FFDFE5;" d="M384.733,275.603h-40.924c-0.181,0-0.328-0.147-0.328-0.328c0-0.181,0.148-0.328,0.328-0.328       h40.924c0.181,0,0.328,0.147,0.328,0.328C385.061,275.455,384.914,275.603,384.733,275.603z"/>
				</g>
			</g>
			<g>
				<g>
					<path style="fill:#FFDFE5;" d="M366.693,262.921h-25.737c-0.026,0-0.026,0-0.053,0c-0.158-0.026-0.263-0.184-0.263-0.341       c0-0.079,0.026-0.184,0.079-0.236c0.079-0.053,0.131-0.079,0.236-0.079h24.66C365.983,262.475,366.325,262.685,366.693,262.921       z"/>
				</g>
			</g>
			<g>
				<g>
					<path style="fill:#FFDFE5;" d="M339.065,299.767c-0.394,0.656-0.735,1.339-1.051,1.996c-0.289,0.604-0.604,1.234-0.945,1.839       c-0.184-0.105-0.394-0.21-0.578-0.315c0.341-0.578,0.63-1.182,0.945-1.812c0.263-0.578,0.578-1.156,0.893-1.759       c-7.668-4.36-15.81-8.562-24.818-12.816l-3.046,2.574c-0.21-0.132-0.42-0.236-0.63-0.368l3.414-2.862       c0.105-0.079,0.236-0.105,0.341-0.053c9.218,4.36,17.517,8.64,25.343,13.131C339.091,299.4,339.144,299.61,339.065,299.767z"/>
				</g>
			</g>
		</g>
		<g>
			<g>
				<g>
					<g>
						<path style="fill:#3C1C87;" d="M230.914,467.881H401.25c-1.339-2.049-2.705-4.071-4.176-6.04        c-0.473-0.63-0.972-1.261-1.497-1.891l-29.65-16.484l-21.219-13.927c-0.105-0.026-0.21-0.052-0.315-0.052        c-6.04-1.234-12.186-1.891-18.357-2.022c-0.447-0.026-0.867-0.026-1.313-0.026c-0.919,0-1.865,0-2.784,0.026        c-0.341,0-0.709,0-1.077,0.026c-9.875,0.263-19.749,1.865-29.282,4.648c-0.315,0.053-0.604,0.158-0.919,0.237        c-2.626,0.788-5.226,1.655-7.8,2.6c-8.22,3.073-16.099,6.907-23.61,11.45c-0.368,0.21-0.709,0.42-1.077,0.656        c-5.935,3.624-11.634,7.669-17.097,12.028c-0.289,0.21-0.551,0.446-0.84,0.657        C237.033,462.366,233.934,465.071,230.914,467.881z"/>
					</g>
				</g>
				<g>
					<g>
						<path style="fill:#FFDFE5;" d="M333.85,459.948h61.716c-12.553-15.705-31.147-26.288-50.87-30.411        c-0.105-0.026-0.21-0.053-0.315-0.053c-3.073,3.335-5.357,7.353-6.907,11.608C335.321,446.948,334.165,453.698,333.85,459.948        z"/>
					</g>
				</g>
			</g>
			<g>
				<g>
					<path style="fill:#FFFFFF;" d="M348.926,443.883c-0.529,1.389-1.202,2.794-2.377,3.705c-1.175,0.911-2.976,1.167-4.12,0.218       c-0.743-0.616-1.074-1.595-1.25-2.544c-0.643-3.468,0.638-9.717,4.518-11.085C351.284,432.207,349.942,441.219,348.926,443.883       z"/>
				</g>
			</g>
			<g>
				<g>
					<path style="fill:#3C1C87;" d="M278.081,493.119c3.099-1.786,6.355-3.571,9.717-5.357c0.184-0.105,0.394-0.21,0.578-0.315       c8.667-4.596,17.858-9.218,26.026-13.814c0.21-0.131,0.42-0.236,0.63-0.367c3.178-1.786,6.172-3.598,8.903-5.384       c0.026-0.026,0.053-0.026,0.079-0.053c-0.998-3.309-3.572-6.014-6.592-7.668c-2.022-1.103-4.202-1.786-6.461-2.154       c-0.237-0.053-0.447-0.079-0.657-0.105c-0.946-0.158-1.917-0.263-2.863-0.315c-3.992-0.262-8.194,0.237-11.975,1.602       c-0.552,0.21-1.103,0.42-1.628,0.656h-0.026c-3.545,1.576-6.592,3.992-8.64,7.301l-0.341,0.735l-10.4,21.824       C273.301,492.042,275.848,494.406,278.081,493.119z"/>
				</g>
			</g>
			<g>
				<g>
					<g>
						<path style="fill:#3C1C87;" d="M325.369,432.654c0.363,0,0.656-0.294,0.656-0.656v-28.609c0-0.363-0.294-0.657-0.656-0.657        c-0.363,0-0.657,0.294-0.657,0.657v28.609C324.712,432.36,325.005,432.654,325.369,432.654z"/>
					</g>
				</g>
			</g>
			<g>
				<g>
					<path style="fill:#FFDFE5;" d="M280.891,459.372c0,0.105,0.026,0.21,0.079,0.262c0.026,0.053,0.105,0.105,0.158,0.105       c0.026,0.026,0.053,0.026,0.079,0.026l12.632,0.079l16.624,0.079c0.184,0,0.315-0.131,0.341-0.289       c0.053-0.552,0.079-1.103,0.158-1.628c0.683-7.117,2.206-14.129,4.517-20.878c1.234-3.598,2.968-7.564,6.355-9.507       c0.053-0.053,0.105-0.105,0.105-0.158c0.079-0.079,0.079-0.184,0.026-0.289c-0.105-0.158-0.315-0.21-0.473-0.131       c-0.21,0.131-0.42,0.263-0.63,0.447c-3.151,2.127-4.806,5.935-6.014,9.428c-2.311,6.802-3.861,13.84-4.543,20.984       c-0.053,0.446-0.105,0.919-0.131,1.366l-14.707-0.079l-13.867-0.079c1.628-9.691,5.069-18.935,9.98-26.971       c-0.315,0.053-0.604,0.158-0.919,0.237c-2.626,4.412-4.806,9.165-6.513,14.129c-0.079,0.21-0.131,0.394-0.184,0.578       c-1.339,3.887-2.337,7.931-3.02,12.028C280.917,459.188,280.917,459.293,280.891,459.372z"/>
				</g>
			</g>
			<g>
				<g>
					<path style="fill:#FFDFE5;" d="M240.133,459.762h40.924c0.181,0,0.328-0.147,0.328-0.328c0-0.181-0.147-0.328-0.328-0.328       h-40.924c-0.181,0-0.328,0.147-0.328,0.328C239.805,459.615,239.953,459.762,240.133,459.762z"/>
				</g>
			</g>
			<g>
				<g>
					<path style="fill:#FFDFE5;" d="M258.174,447.081h25.737c0.026,0,0.026,0,0.053,0c0.158-0.026,0.262-0.184,0.262-0.341       c0-0.079-0.026-0.184-0.078-0.236c-0.079-0.053-0.131-0.079-0.237-0.079h-24.66       C258.883,446.635,258.542,446.845,258.174,447.081z"/>
				</g>
			</g>
			<g>
				<g>
					<path style="fill:#FFDFE5;" d="M285.802,483.927c0.394,0.657,0.735,1.339,1.051,1.996c0.289,0.604,0.604,1.234,0.945,1.838       c0.184-0.105,0.394-0.21,0.578-0.315c-0.341-0.578-0.63-1.182-0.945-1.812c-0.263-0.578-0.578-1.156-0.893-1.76       c7.669-4.359,15.81-8.561,24.818-12.816l3.046,2.574c0.21-0.131,0.42-0.236,0.63-0.367l-3.414-2.863       c-0.105-0.079-0.236-0.105-0.341-0.053c-9.218,4.36-17.517,8.64-25.343,13.131C285.776,483.559,285.723,483.77,285.802,483.927       z"/>
				</g>
			</g>
		</g>
	</g>
</g>















</svg>
