<?xml version="1.0" encoding="UTF-8"?>
<!-- Generator: Adobe Illustrator 25.2.3, SVG Export Plug-In . SVG Version: 6.00 Build 0)  -->
<svg xmlns="http://www.w3.org/2000/svg" xmlns:xlink="http://www.w3.org/1999/xlink" version="1.1" id="Capa_1" x="0px" y="0px" viewBox="0 0 512 512" style="enable-background:new 0 0 512 512;" xml:space="preserve" width="512" height="512">
<g>
	<g>
		<path style="fill:#FFFFFF;" d="M34.355,512c-7.208,0-13.177-5.599-13.64-12.792c-1.388-21.585-2.211-43.906-2.445-66.343    c-0.067-6.37-0.084-13.2-0.049-20.874l0.042-5.146c0.042-5.321,0.115-10.642,0.218-15.964c0.038-1.998,0.078-3.998,0.125-6    c0.062-2.675,0.129-5.348,0.209-8.022l0.211-6.478c0.151-4.586,0.33-9.136,0.519-13.687c0.091-2.139,0.416-9.514,0.416-9.514    c0.067-1.629,0.135-3.257,0.218-4.881c0.164-3.152,0.351-6.266,0.538-9.38l0.176-3.013c0.545-9.102,1.035-16.417,1.542-23.062    c0.349-4.699,0.723-9.414,1.115-14.115c0.378-4.474,0.772-8.924,1.181-13.364c0.218-2.338,0.447-4.668,0.679-6.999    c0.049-0.576,0.12-1.33,0.196-2.106l0.102-0.929c0.309-3.01,0.623-5.968,0.957-8.916c0.029-0.491,0.082-0.98,0.153-1.467    c0.136-1.251,0.287-2.517,0.441-3.765l0.296-2.505c0.456-3.908,0.965-7.909,1.502-11.885c0.994-7.351,2.018-14.076,3.126-20.566    c3.217-18.988,7.061-36.003,11.746-52.001c6.932-23.706,15.542-44.584,26.318-63.823c3.204-5.741,6.797-11.531,10.667-17.189    C115.62,36.189,167.546,3.688,219.796,0.304C222.952,0.102,226.147,0,229.304,0c14.414,0,28.983,2.097,43.304,6.234    c20.289,5.851,39.871,15.603,58.256,29.01c31.003,2.194,55.599,27.97,55.909,59.449c0.472,0.732,0.939,1.467,1.399,2.205    c4.65,7.404,9.052,15.288,13.083,23.425c8.067,16.222,14.999,34.154,20.598,53.279c1.032,3.514,2.082,7.32,3.206,11.619    c0.839,3.232,1.637,6.46,2.403,9.7l1.484,6.573c0.245,1.081,0.489,2.163,0.719,3.248c0,0,0.545,2.667,0.563,2.758    c0.254,1.213,0.547,2.634,0.83,4.057l0.607,3.072l0.954,5.186c0.189,1.011,0.378,2.022,0.556,3.034    c0.113,0.522,0.205,1.05,0.274,1.582c0.825,4.645,1.651,9.781,2.59,16.115c0.031,0.222,0.445,3.434,0.445,3.434    c0.347,2.484,0.674,4.989,0.997,7.496c0,0,0.43,3.343,0.59,4.671l0.194,1.535c0.254,2.116,0.489,4.264,0.728,6.411l0.289,2.6    c0.127,1.131,0.254,2.261,0.369,3.393l0.389,3.854c0.32,3.082,0.621,6.226,0.901,9.391l0.245,2.775    c0.158,1.823,0.318,3.653,0.496,5.482c0.007,0.08,0.016,0.16,0.02,0.24c0.08,0.99,0.162,1.963,0.262,2.952    c0.005,0.038,0.336,3.569,0.492,5.133l0.198,1.916c0.144,1.399,0.291,2.792,0.449,4.184c0.082,0.712,0.383,3.086,0.383,3.086    c0.187,1.502,0.387,2.983,0.601,4.462c0.211,1.468,0.425,2.926,0.67,4.376c0.082,0.502,0.421,2.343,0.421,2.343    c0.231,1.274,0.478,2.574,0.745,3.868c0.151,0.725,0.316,1.478,0.485,2.231c0.301,1.347,0.63,2.685,0.977,4.02l0.543,2.078    c0.587,2.107,1.124,3.873,1.664,5.476c0.565,1.665,1.237,3.475,2.058,5.531c0.189,0.474,0.398,0.959,0.605,1.445l0.302,0.714    c0.49,1.168,0.961,2.29,1.457,3.402c0.372,0.83,0.752,1.644,1.13,2.459c0.607,1.31,1.204,2.593,1.824,3.866l0.48,0.99    c0.854,1.736,1.751,3.532,2.659,5.324l1.9,3.735c1.791,3.506,3.564,7.011,5.288,10.541l0.779,1.565    c0.087,0.184,0.923,2.001,0.923,2.001c0.42,0.889,0.843,1.779,1.25,2.675c0.954,2.088,1.884,4.195,2.765,6.326    c3.993,9.722,7.453,20.599,10.289,32.356c0.792,3.237,1.582,6.771,2.407,10.764c0.187,0.907,0.36,1.814,0.534,2.723l0.516,2.64    c0.227,1.154,0.456,2.306,0.665,3.467c0.007,0.042,0.345,2.086,0.345,2.086c0.262,1.511,0.509,3.02,0.754,4.536    c0.296,1.838,0.583,3.665,0.852,5.498c0,0,0.323,2.146,0.407,2.743l0.389,2.921c0.271,2.032,0.514,4.055,0.756,6.079l0.182,1.456    c0.1,0.764,0.198,1.529,0.283,2.289c0,0,0.209,2.062,0.211,2.077c0.26,2.484,0.5,4.953,0.721,7.41    c0.111,1.214,0.218,2.434,0.318,3.656c0.131,1.552,0.251,3.111,0.369,4.667c0,0,0.216,2.854,0.28,3.841    c0.182,2.628,0.345,5.261,0.487,7.851c0.205,3.749-1.141,7.417-3.724,10.144c-2.581,2.726-6.169,4.271-9.925,4.271H34.355z"/>
	</g>
	<g>
		<g>
			<path style="fill:#3C1C87;" d="M408.733,479.042l-355.525-1.306c-1.39-21.619,35.387-377.544,38.986-382.806     c29.752-43.739,76.088-77.591,128.484-80.986c16.425-1.048,32.599,0.934,48.136,5.422c27.496,7.928,53.011,23.624,74.334,43.898     c12.826,12.188,24.148,26.061,33.442,40.892c4.533,7.221,8.657,14.648,12.415,22.234c8.133,16.357,14.58,33.465,19.728,51.051     c1.094,3.713,2.119,7.472,3.098,11.231c3.303,12.689-0.353,106.454-0.239,107.571     C413.027,311.87,408.232,469.838,408.733,479.042z"/>
		</g>
		<g>
			<g style="opacity:0.09;">
				<path style="fill:#FFDFE5;" d="M343.147,63.264c-0.592,0.775-1.207,1.504-1.845,2.187c-5.103,5.445-13.053,8.064-20.389,6.698      c-10.844-2.028-21.004-11.937-31.278-7.951c-10.434,4.032-10.98,18.247-10.935,29.41c0.068,12.712-1.526,25.72-7.221,37.065      c-5.718,11.345-16.06,20.867-28.544,23.191c-16.448,3.03-32.212-6.356-47.498-13.122c-15.263-6.788-35.287-10.342-46.951,1.595      c-11.732,12.005-7.7,31.483-8.133,48.273c-0.365,13.965-4.511,27.838-11.914,39.707c-3.007,4.83-6.698,9.477-11.732,12.142      c-7.973,4.214-17.906,2.688-26.198-0.934c-8.269-3.599-15.628-9.09-23.783-12.985c-6.629-3.144-13.782-5.171-21.072-6.014      c2.893-17.063,6.561-33.966,11.39-50.46c14.192-0.615,28.18-2.118,37.565-12.074c8.862-9.408,10.32-23.373,15.559-35.197      c10.434-23.51,38.295-37.839,63.467-32.645c13.145,2.711,25.378,10.047,38.796,10.115c13.372,0.069,26.471-7.859,32.622-19.728      c8.338-16.129,4.009-36.837,13.281-52.419c2.597-4.351,6.242-7.996,10.479-10.753C296.31,27.293,321.825,42.989,343.147,63.264z      "/>
			</g>
			<g style="opacity:0.09;">
				<path style="fill:#FFDFE5;" d="M408.733,177.441c-0.433,0.547-0.888,1.071-1.367,1.572c-5.923,6.333-15.149,9.363-23.669,7.768      c-12.575-2.347-24.376-13.851-36.29-9.226c-12.097,4.693-12.735,21.163-12.666,34.148c0.068,14.739-1.777,29.82-8.406,42.987      c-6.629,13.167-18.635,24.216-33.123,26.904c-19.068,3.531-37.361-7.358-55.084-15.24c-17.723-7.859-40.937-11.983-54.492,1.868      c-13.623,13.942-8.93,36.54-9.431,55.995c-0.433,16.22-5.24,32.303-13.828,46.086c-3.485,5.604-7.768,10.98-13.6,14.078      c-9.272,4.92-20.776,3.121-30.39-1.071c-9.636-4.191-18.156-10.547-27.61-15.058c-17.245-8.201-37.52-9.773-55.859-4.51      c0.251-6.925,0.569-13.851,0.911-20.753c0.615-11.755,1.344-23.464,2.232-35.105c6.857-2.118,13.919-3.531,21.049-4.169      c22.416-1.982,48.569,1.367,64.014-15.013c10.297-10.912,11.983-27.109,18.065-40.823c12.097-27.269,44.4-43.898,73.627-37.884      c15.24,3.144,29.456,11.664,45.015,11.732c15.514,0.091,30.708-9.112,37.839-22.895c9.682-18.703,4.647-42.714,15.423-60.825      c8.292-13.919,25.856-21.642,41.734-18.339c10.821,2.278,21.027,9.135,31.984,7.677c1.458-0.182,2.848-0.501,4.192-0.957      C397.138,142.746,403.585,159.854,408.733,177.441z"/>
			</g>
			<g style="opacity:0.09;">
				<path style="fill:#FFDFE5;" d="M428.074,292.917c-2.802,7.017-3.03,16.083-2.984,23.874c0.068,14.739-1.777,29.82-8.406,42.987      c-6.629,13.167-18.635,24.216-33.123,26.904c-19.067,3.531-37.36-7.358-55.084-15.24c-17.724-7.859-40.96-11.983-54.492,1.868      c-13.623,13.942-8.93,36.517-9.431,55.995c-0.433,16.22-5.24,32.303-13.828,46.063c-3.485,5.627-7.768,11.003-13.6,14.101      c-9.272,4.898-20.776,3.121-30.389-1.071c-9.636-4.191-18.156-10.57-27.61-15.058c-19.819-9.454-43.648-10.092-63.946-1.731      c-5.718,2.347-11.299,5.49-15.309,10.229c-4.032,4.761-6.014,10.411-6.925,16.493H53.239c-0.068-1.139-0.023-2.256,0.114-3.303      c5.49-45.698,48.25-82.17,94.107-86.225c22.416-1.982,48.569,1.367,64.014-15.012c10.297-10.912,11.983-27.109,18.065-40.823      c12.097-27.269,44.4-43.898,73.628-37.884c15.24,3.121,29.456,11.641,45.015,11.732c15.514,0.091,30.708-9.112,37.839-22.894      c9.682-18.703,4.647-42.714,15.423-60.825c4.26-7.13,10.958-12.643,18.612-15.855c3.28,18.999,5.559,38.203,7.267,57.293      C427.573,287.313,427.801,290.115,428.074,292.917z"/>
			</g>
		</g>
		<g>
			<g>
				<path style="fill:#7F6EEC;" d="M193.182,186.804c0,50.961-41.324,92.285-92.285,92.285c-21.505,0-41.256-7.335-56.952-19.66      c-0.159-0.137-0.319-0.274-0.478-0.387c-0.888-0.729-0.866-16.425-0.866-16.425c0.911-6.72,1.914-13.418,3.053-20.093      c2.893-17.063,6.561-33.966,11.39-50.46c6.196-21.186,14.306-41.666,25.127-60.984c3.075-5.513,6.424-10.889,10.024-16.151      c2.87-0.273,5.764-0.41,8.702-0.41c37.019,0,68.957,21.801,83.651,53.284c0.091,0.182,0.182,0.364,0.251,0.547      C190.175,160.059,193.182,173.09,193.182,186.804z"/>
			</g>
			<g>
				<g>
					<path style="fill:#FFDFE5;" d="M211.042,106.866c-3.167,12.005-10.411,22.211-17.108,30.64       c-2.848,3.599-5.878,7.176-9.135,10.844c-6.287,7.13-13.463,14.534-21.892,22.644c-35.811,34.513-75.723,64.173-118.961,88.435       c-1.207,0.706-2.415,1.367-3.645,2.05c0-0.228,0.023-0.478,0.068-0.706c1.048-0.57,2.073-1.139,3.098-1.732       c43.283-24.261,83.218-53.899,119.052-88.435c8.497-8.178,15.696-15.628,22.029-22.803c3.189-3.599,6.151-7.13,8.93-10.662       c6.652-8.361,13.873-18.521,17.017-30.412c0.661-2.574,1.344-6.288-0.547-8.953c-1.868-2.62-5.627-3.531-11.208-2.734       c-14.124,2.073-29.251,8.839-41.529,18.589l-0.365-0.433c12.347-9.819,27.588-16.63,41.803-18.703       c5.809-0.866,9.773,0.137,11.755,2.938C212.454,100.305,211.748,104.201,211.042,106.866z"/>
				</g>
			</g>
		</g>
		<g>
			<g>
				<path style="fill:#924CA5;" d="M394.103,459.948L61.076,480.477c-1.39-21.619-28.203-118.567-27.226-137.487      c0.6-11.609,1.332-23.178,2.19-34.673c0.023-0.524,0.068-1.025,0.114-1.526c0.638-8.771,1.39-17.496,2.187-26.175      c0.182-2.096,0.387-4.192,0.615-6.31c0.068-0.889,0.16-1.777,0.251-2.688c0.478-4.83,1.002-9.659,1.595-14.489      c0.091-0.934,0.205-1.868,0.319-2.78c0.456-3.918,0.957-7.837,1.481-11.732c2.346-1.413,4.852-2.666,7.244-4.01      c0.433-0.228,0.843-0.479,1.253-0.729c1.595-0.934,3.144-1.959,4.579-3.144c3.28-2.711,5.764-6.128,7.814-9.91      c0.251-0.478,0.501-0.957,0.752-1.458c7.176-14.215,8.998-32.873,23.123-39.661c3.782-1.799,7.996-2.46,12.142-3.052      c2.073-0.296,4.169-0.592,6.242-0.866c0.228-0.023,0.456-0.046,0.661-0.069c7.791-0.956,15.628-1.39,23.282,0.114      c1.185,0.228,2.369,0.524,3.554,0.866c0.182,0.045,0.365,0.091,0.547,0.159c0.592,0.182,1.162,0.388,1.754,0.592      c7.7,2.757,14.58,7.951,17.883,15.354c3.668,8.269,2.392,17.792,2.46,26.859c0.023,5.445,0.866,11.299,3.235,16.083      c0.068,0.182,0.159,0.364,0.251,0.524c1.549,2.984,3.736,5.536,6.72,7.244c3.03,1.732,6.584,2.392,9.75,3.941      c3.212,1.549,5.741,3.804,7.723,6.515c0.114,0.159,0.228,0.296,0.319,0.456c5.627,8.042,6.72,19.956,6.629,30.321      c-0.023,2.278-0.023,4.693,1.207,6.629c0.889,1.389,2.21,2.278,3.736,2.848c2.369,0.888,5.24,1.071,7.791,1.458      c2.141,0.319,4.192,0.888,6.151,1.64c13.304,5.194,22.12,19.865,25.332,34.285c0.091,0.455,0.205,0.911,0.273,1.367      c0.068,0.205,0.114,0.433,0.137,0.66c2.05,10.388,2.255,21.072,3.007,31.665c0,0.205,0.023,0.387,0.046,0.569      c0.387,5.467,0.934,10.889,1.982,16.243c0.456,2.346,1.116,4.829,2.962,6.379c1.8,1.503,4.351,1.709,6.72,1.822      c4.693,0.228,9.386,0.365,14.056,0.41c13.008,0.137,26.016-0.433,38.955-1.731c0.569-0.045,1.139-0.114,1.731-0.205      c0.205-0.023,0.41-0.046,0.615-0.091c1.572-0.274,3.098-0.729,4.351-1.663c2.415-1.799,3.326-4.966,3.69-7.973      c2.141-17.154-7.632-37.474,1.936-50.847c0.182-0.25,0.342-0.478,0.547-0.706c0.41-0.524,0.843-1.048,1.321-1.549      c6.629-6.994,18.475-9.249,21.642-18.338c0.592-1.732,0.797-3.508,0.775-5.331c0-0.228-0.023-0.455-0.046-0.706      c-0.228-5.627-2.415-11.504-1.23-17.063c2.711-12.575,19.796-15.878,26.653-26.767c1.185-1.891,2.005-3.873,2.551-5.946      c0.068-0.228,0.114-0.456,0.159-0.683c2.187-9.272-0.706-20.002,0.501-29.888c0.091-0.752,0.205-1.504,0.364-2.255v-0.068      c0.888-4.579,2.87-8.839,5.581-12.643c2.369-3.326,5.285-6.311,8.566-8.862c0.934-0.774,1.936-1.481,2.939-2.141      c1.23-0.866,2.529-1.64,3.827-2.369c6.994-3.896,14.671-6.287,22.485-8.224c3.167,12.165,5.786,24.489,7.951,36.927      c0.068,0.273,0.114,0.547,0.137,0.82c0.957,5.354,1.8,10.753,2.597,16.129c0.023,0.25,0.046,0.478,0.091,0.729      c1.481,10.411,2.711,20.867,3.759,31.301c0.023,0.228,0.046,0.456,0.068,0.684c0.319,3.098,0.615,6.174,0.888,9.272      c0.344,3.898,0.678,7.806,1.038,11.71C428.524,298.022,394.103,459.948,394.103,459.948z"/>
			</g>
			<g style="opacity:0.32;">
				<g>
					<path style="fill:#FF85CA;" d="M426.366,274.578c-3.189,2.574-6.538,5.035-9.841,7.472c-1.367,1.025-2.711,2.027-4.055,3.007       c-12.37,9.294-23.897,19.865-34.24,31.392c-0.569,0.638-1.139,1.276-1.709,1.936c-4.42,4.989-8.998,10.137-14.785,13.509       c-6.47,3.782-14.397,5.171-21.756,3.759c-2.552-0.478-5.103-1.298-7.586-2.096c-3.531-1.139-7.176-2.301-10.958-2.529       c-1.914-0.114-3.827,0.045-5.695,0.478c-0.205,0.228-0.365,0.456-0.547,0.706c2.05-0.524,4.123-0.729,6.219-0.615       c3.691,0.228,7.313,1.39,10.821,2.506c2.483,0.797,5.035,1.617,7.654,2.118c7.495,1.412,15.559,0.023,22.143-3.827       c5.855-3.44,10.456-8.611,14.899-13.646c0.569-0.638,1.139-1.276,1.708-1.914c10.32-11.504,21.824-22.052,34.171-31.324       c1.344-0.98,2.688-1.982,4.055-2.984c3.212-2.369,6.447-4.761,9.568-7.267C426.411,275.034,426.388,274.806,426.366,274.578z        M352.077,289.363l0.068-0.114c0.843-1.64,1.731-3.326,3.212-4.42c1.458-1.071,3.258-1.389,5.171-1.731       c0.911-0.159,1.845-0.319,2.711-0.569c10.411-2.961,12.621-16.584,13.053-20.685l0.068-0.615       c0.296-3.03,0.615-6.151,2.62-8.292c0.182-0.182,0.365-0.364,0.57-0.547c0.797-0.16,1.572-0.296,2.346-0.433       c3.508-0.661,7.153-1.344,10.616-2.438c1.914-0.046,3.85-0.023,5.741,0c8.178,0.091,16.63,0.182,22.94-4.989       c0.478-0.387,0.957-0.82,1.412-1.253c-0.046-0.251-0.068-0.479-0.091-0.729c-0.547,0.546-1.116,1.071-1.686,1.549       c-6.151,5.035-14.124,4.944-22.576,4.852c-1.321-0.023-2.643-0.023-3.964-0.023c10.274-3.713,19.09-11.595,25.628-22.507       c-0.023-0.273-0.068-0.547-0.137-0.82c-6.629,11.254-15.673,19.341-26.198,22.963c-0.387,0.137-0.775,0.273-1.162,0.387       c-2.46,0.046-4.898,0.228-7.244,0.615c-1.709,0.296-4.055,0.843-5.877,2.301c-3.121,0.592-6.265,1.299-9.295,2.323       c-0.82,0.273-1.64,0.592-2.438,0.934c-0.046,0.228-0.091,0.456-0.159,0.683c0.911-0.387,1.845-0.752,2.779-1.071       c2.711-0.934,5.513-1.572,8.338-2.141c-2.096,2.278-2.438,5.467-2.734,8.588l-0.068,0.592       c-0.41,4.032-2.552,17.336-12.621,20.206c-0.866,0.228-1.777,0.387-2.665,0.547c-1.891,0.342-3.85,0.684-5.422,1.845       c-1.572,1.162-2.483,2.916-3.372,4.625l-0.068,0.091c-2.939,5.672-6.675,12.006-12.142,16.493       c0.023,0.251,0.046,0.479,0.046,0.706C345.198,301.71,349.048,295.194,352.077,289.363z M385.269,250.134       c1.595-0.273,3.212-0.433,4.875-0.524c-2.757,0.729-5.604,1.253-8.361,1.777c-0.342,0.068-0.706,0.137-1.048,0.205       C382.239,250.749,383.948,250.362,385.269,250.134z M455.753,383.448c-2.939,1.845-6.082,3.212-9.5,3.987       c-1.982,0.455-4.078,0.683-6.082,0.934c-3.007,0.342-6.082,0.683-8.953,1.754c-7.495,2.756-12.279,9.613-16.881,16.265       c-0.569,0.82-1.139,1.618-1.709,2.438c-6.561,9.249-13.327,13.942-20.115,13.942c-0.296,0-0.592-0.023-0.911-0.045       c-6.834-0.41-12.985-6.561-13.395-13.395c-0.547-8.406,6.515-15.582,13.737-18.954c4.761-2.21,10.001-3.44,15.081-4.602       c2.984-0.683,6.105-1.412,9.09-2.323c10.456-3.235,20.685-9.317,30.503-18.134c-0.091-0.182-0.159-0.342-0.273-0.524       c-9.773,8.816-19.979,14.899-30.412,18.111c-2.961,0.911-6.06,1.618-9.044,2.324c-5.103,1.162-10.365,2.392-15.195,4.647       c-7.381,3.44-14.603,10.821-14.056,19.5c0.433,7.108,6.834,13.486,13.942,13.919c0.319,0.023,0.638,0.045,0.957,0.045       c6.971,0,13.874-4.784,20.548-14.192c0.57-0.797,1.139-1.618,1.709-2.438c4.579-6.561,9.295-13.349,16.607-16.06       c2.825-1.025,5.877-1.39,8.816-1.731c2.05-0.228,4.146-0.456,6.174-0.934c3.44-0.798,6.606-2.164,9.591-4.009       C455.912,383.789,455.821,383.629,455.753,383.448z M392.878,357.933c4.807-6.31,3.85-14.648,2.916-22.735       c-0.228-2.027-0.478-4.123-0.615-6.151c-0.159-2.164-0.159-4.442,0.843-6.379c1.663-3.212,5.422-4.374,9.067-5.513       c0.866-0.273,1.777-0.547,2.62-0.843c5.49-1.959,10.251-5.718,14.853-9.318c2.141-1.686,4.215-3.326,6.356-4.784       c0-0.205-0.023-0.41-0.046-0.638c-2.301,1.526-4.488,3.258-6.652,4.966c-4.579,3.599-9.294,7.29-14.694,9.226       c-0.843,0.296-1.731,0.592-2.62,0.843c-3.736,1.185-7.609,2.392-9.386,5.809c-1.071,2.05-1.071,4.42-0.911,6.675       c0.137,2.028,0.387,4.146,0.615,6.174c0.911,7.973,1.868,16.197-2.802,22.325c-5.832,7.654-17.313,7.7-25.446,7.085       c-5.49-0.41-12.985-1.002-17.473,3.577c-2.005,2.051-3.03,4.829-3.782,7.29c-0.843,2.711-1.503,5.513-2.141,8.247       c-1.617,6.857-3.28,13.942-7.654,19.432c-2.939,3.713-6.743,5.9-10.388,5.991c-0.114,0.023-0.228,0.023-0.319,0.023       c-5.65,0-10.297-4.556-13.737-8.543c-2.324-2.688-4.419-5.353-6.265-7.996c-0.205,0.045-0.41,0.068-0.615,0.091       c1.891,2.734,4.055,5.49,6.447,8.269c3.508,4.077,8.292,8.748,14.17,8.748c0.114,0,0.205,0,0.319-0.023       c3.827-0.114,7.791-2.369,10.844-6.196c4.442-5.604,6.128-12.757,7.746-19.66c0.638-2.734,1.321-5.535,2.141-8.201       c0.729-2.392,1.731-5.103,3.645-7.085c4.306-4.374,11.641-3.805,17.017-3.395C375.2,365.884,386.887,365.792,392.878,357.933z        M382.581,201.406c-5.627,5.946-10.274,12.803-13.6,20.275c-0.182,0.433-0.365,0.866-0.547,1.299       c-0.159,0.752-0.273,1.504-0.364,2.255c0.068-0.137,0.114-0.273,0.182-0.41c0.41-0.98,0.843-1.959,1.253-2.893       c3.759-8.52,9.295-16.243,16.015-22.667C384.517,199.925,383.515,200.632,382.581,201.406z"/>
				</g>
			</g>
			<g style="opacity:0.36;">
				<g>
					<path style="fill:#FF85CA;" d="M41.302,286.288c0.456,7.814-1.777,15.081-5.262,22.029c0.023-0.524,0.068-1.025,0.114-1.526       c3.075-6.47,4.989-13.236,4.579-20.457c-0.159-2.62-0.615-5.24-1.093-7.768c-0.251-1.389-0.501-2.825-0.684-4.26       c0.068-0.889,0.16-1.777,0.251-2.688c0.182,2.278,0.592,4.602,1.002,6.834C40.664,281.002,41.143,283.645,41.302,286.288z"/>
				</g>
				<g>
					<path style="fill:#FF85CA;" d="M51.098,237.878c-4.101,5.285-8.11,11.869-10.297,19.25c0.091-0.934,0.205-1.868,0.319-2.78       c2.141-5.923,5.353-11.254,8.725-15.741C50.278,238.379,50.688,238.129,51.098,237.878z"/>
				</g>
				<g>
					<path style="fill:#FF85CA;" d="M106.41,179.719c-2.756,6.083-6.811,12.142-12.097,17.883       c-5.969,6.469-12.848,12.142-19.523,17.632c-3.759,3.098-7.609,6.265-11.299,9.591c0.251-0.478,0.501-0.957,0.752-1.458       c3.349-2.962,6.811-5.809,10.183-8.589c6.652-5.467,13.532-11.14,19.455-17.564c5.148-5.581,9.135-11.482,11.869-17.427       C105.977,179.765,106.205,179.742,106.41,179.719z"/>
				</g>
				<g>
					<path style="fill:#FF85CA;" d="M133.792,180.858c-0.023,0.296-0.068,0.615-0.091,0.911c-0.387,3.667-0.797,7.449-1.754,10.867       c-1.663,5.946-5.285,11.276-10.229,14.99c-4.579,3.44-10.069,5.376-15.377,7.267c-3.508,1.23-7.153,2.529-10.479,4.238       c-8.725,4.442-15.559,14.01-11.914,22.302c0.797,1.777,2.005,3.348,3.189,4.875c0.957,1.207,1.936,2.483,2.688,3.85       c4.556,8.133,0.592,18.749-5.878,24.284c-1.207,1.048-2.529,2.005-3.804,2.916c-2.506,1.8-5.08,3.645-6.811,6.196       c-3.417,4.989-2.984,11.436-2.551,17.655l0.091,1.412c1.253,19.66-2.529,39.912-10.912,58.547       c-6.789,15.081-16.357,28.567-27.975,39.57c0-0.251,0-0.524,0.023-0.797c26.107-24.877,40.595-61.121,38.294-97.274       l-0.091-1.413c-0.433-6.333-0.866-12.871,2.643-18.02c1.8-2.642,4.42-4.51,6.948-6.333c1.276-0.911,2.574-1.868,3.782-2.893       c6.287-5.399,10.16-15.696,5.741-23.578c-0.729-1.321-1.709-2.574-2.62-3.782c-1.207-1.549-2.46-3.144-3.258-4.989       c-3.782-8.588,3.212-18.475,12.142-23.031c3.372-1.732,7.039-3.03,10.57-4.283c5.262-1.868,10.707-3.804,15.217-7.176       c4.83-3.645,8.406-8.862,10.024-14.694c0.934-3.372,1.344-7.13,1.731-10.753c0.046-0.341,0.068-0.683,0.114-1.025       C133.428,180.744,133.61,180.79,133.792,180.858z"/>
				</g>
				<g>
					<path style="fill:#FF85CA;" d="M145.091,353.81c-2.187,1.458-4.511,2.802-6.743,4.1c-3.987,2.301-8.11,4.693-11.55,7.814       c-8.292,7.563-11.983,18.635-15.559,29.342c-1.185,3.554-2.392,7.221-3.782,10.707c-4.397,11.162-10.73,21.323-18.817,30.207       c-6.265,6.857-15.696,13.395-24.854,13.395c-2.802,0-5.581-0.615-8.224-2.027c-9.09-4.807-11.664-16.448-10.16-25.879       c1.936-12.142,9.089-22.576,16.038-32.667c6.31-9.181,12.826-18.68,15.423-29.478c0.888-3.645,1.321-7.495,1.754-11.231       c0.797-6.88,1.618-13.987,5.194-20.002c0.615-1.002,1.39-2.096,2.597-2.506c1.663-0.547,3.303,0.433,4.738,1.276       c0.228,0.137,0.456,0.273,0.683,0.41c3.166,1.799,7.085,2.164,11.026,1.048c4.943-1.435,9.34-4.921,11.732-9.363       c4.693-8.702,3.075-19.227,0.888-26.539c-1.23-4.146-2.893-8.269-4.488-12.233c-1.754-4.397-3.577-8.93-4.875-13.555       c-1.253-4.511-2.62-12.78,2.392-17.518c4.807-4.579,11.755-3.144,18.475-1.754c2.278,0.479,4.602,0.957,6.812,1.185       c8.497,0.934,17.404-2.255,25.332-8.793c0.068,0.182,0.159,0.364,0.251,0.524c-8.019,6.561-17.017,9.773-25.651,8.839       c-2.21-0.228-4.579-0.729-6.857-1.185c-6.584-1.367-13.372-2.779-17.974,1.595c-4.784,4.533-3.463,12.575-2.232,16.949       c1.276,4.602,3.098,9.112,4.852,13.486c1.617,3.987,3.258,8.11,4.511,12.302c2.232,7.404,3.873,18.088-0.934,26.95       c-2.46,4.579-6.994,8.201-12.074,9.659c-4.078,1.162-8.156,0.774-11.481-1.093c-0.228-0.137-0.456-0.274-0.683-0.41       c-1.39-0.843-2.848-1.709-4.26-1.23c-1.025,0.342-1.731,1.321-2.278,2.255c-3.531,5.9-4.328,12.939-5.126,19.774       c-0.433,3.736-0.889,7.609-1.777,11.299c-2.62,10.912-9.181,20.434-15.514,29.661c-6.903,10.046-14.033,20.434-15.924,32.44       c-1.435,8.93,1.071,20.639,9.864,25.286c11.003,5.832,24.33-2.415,32.394-11.254c8.042-8.816,14.329-18.931,18.703-30.025       c1.367-3.463,2.597-7.13,3.759-10.684c3.599-10.775,7.313-21.915,15.719-29.569c3.485-3.167,7.631-5.581,11.641-7.905       c2.232-1.298,4.556-2.62,6.72-4.078c12.188-8.178,21.072-21.072,24.375-35.356c1.412-6.105,2.232-14.898-1.959-22.006       c-1.435-2.461-3.417-4.602-5.331-6.675c-1.435-1.572-2.939-3.189-4.192-4.943c-2.734-3.805-4.875-9.841-1.868-14.375       c2.665-4.032,7.677-4.693,12.529-5.308c2.46-0.342,5.012-0.661,7.244-1.412c3.144-1.071,5.718-2.962,7.996-5.285       c0.114,0.159,0.228,0.296,0.319,0.456c-2.324,2.346-4.943,4.283-8.133,5.353c-2.301,0.775-4.852,1.116-7.358,1.435       c-4.943,0.638-9.591,1.253-12.119,5.08c-2.848,4.283-0.775,10.069,1.845,13.714c1.253,1.731,2.734,3.349,4.169,4.898       c1.914,2.096,3.918,4.26,5.399,6.766c4.26,7.29,3.463,16.22,2.005,22.439C166.369,332.532,157.393,345.54,145.091,353.81z"/>
				</g>
				<g>
					<path style="fill:#FF85CA;" d="M238.196,369.87c-7.313,1.777-14.215,5.376-19.591,10.593       c-5.832,5.65-9.955,12.871-13.965,19.888c-0.957,1.686-1.936,3.394-2.939,5.08c-4.579,7.745-11.071,17.199-20.799,21.619       c-8.998,4.1-22.075,2.369-27.155-6.72c-2.073-3.736-2.506-8.315-1.185-12.894c1.595-5.513,5.445-10.411,10.32-13.099       c2.369-1.299,5.035-2.278,7.632-3.258c5.877-2.187,11.413-4.26,13.76-9.568c1.709-3.85,1.002-8.292,0.296-12.575       c-0.729-4.647-1.503-9.431,0.752-13.509c3.69-6.698,12.005-6.88,20.07-7.039c2.324-0.046,4.738-0.091,6.948-0.296       c7.882-0.775,15.855-4.716,22.667-11.117c0.068,0.205,0.114,0.433,0.137,0.66c-6.857,6.333-14.83,10.251-22.758,11.026       c-2.232,0.205-4.647,0.251-6.971,0.296c-7.905,0.159-16.061,0.319-19.592,6.743c-2.164,3.919-1.435,8.384-0.683,13.145       c0.706,4.374,1.435,8.907-0.342,12.916c-2.438,5.513-8.36,7.723-14.101,9.864c-2.551,0.957-5.217,1.936-7.54,3.212       c-4.738,2.62-8.497,7.381-10.046,12.734c-1.276,4.465-0.866,8.884,1.139,12.484c4.921,8.816,17.632,10.479,26.426,6.47       c9.568-4.329,16.015-13.714,20.548-21.391c0.98-1.685,1.959-3.371,2.916-5.08c4.032-7.039,8.178-14.306,14.078-20.002       c5.49-5.308,12.484-8.976,19.933-10.752C238.151,369.505,238.174,369.688,238.196,369.87z"/>
				</g>
			</g>
			<g style="opacity:0.13;">
				<path style="fill:#221309;" d="M473.977,442.951c-14.443-3.485-28.909-6.948-43.375-10.434      c-14.329-3.463-28.704-6.925-42.463-12.211c-2.164-0.82-4.397-1.754-5.9-3.508c-1.549-1.822-2.096-4.283-2.62-6.629      c-3.372-15.673-6.743-31.369-10.115-47.043c-0.957-4.442-1.914-9.089-0.775-13.486c1.504-5.718,6.789-10.229,12.666-10.821      c0.023-7.518-3.326-14.58-4.852-21.938c-1.549-7.358-0.661-16.266,5.559-20.503c5.012-3.394,11.892-2.643,17.131-5.695      c4.055-2.346,6.675-6.971,6.607-11.664c-0.068-4.693-2.825-9.249-6.948-11.481c-2.278-1.253-5.035-1.891-6.675-3.918      c-2.574-3.189-1.048-7.905,0.843-11.55c2.164-4.214,4.67-8.315,6.014-12.848c1.344-4.556,1.344-9.773-1.298-13.714      c-5.308-7.928-18.817-7.677-23.76-15.24c3.918-5.513,9.386-10.069,15.332-13.372c6.994-3.896,14.671-6.287,22.485-8.224      c8.156,31.232,12.598,63.718,15.491,95.861c1.754,19.478,3.053,39.274,9.317,57.795c6.06,17.906,16.539,33.944,23.738,51.416      c3.873,9.431,7.062,19.683,9.636,30.344C471.517,430.285,472.838,436.595,473.977,442.951z"/>
			</g>
			<g style="opacity:0.25;">
				<path style="fill:#221309;" d="M195.46,298.225c-0.843-0.114-1.709-0.342-2.529-0.547c-3.759-1.002-7.495-2.028-11.254-3.03      c-5.399-1.458-11.39-3.349-14.01-8.315c-4.374-8.292,3.189-20.662-3.691-27.041c-4.328-3.987-11.618-2.46-16.402-5.855      c-5.217-3.713-5.24-11.322-4.716-17.723c0.57-7.039,1.139-14.102,1.709-21.141c0.638-7.632,1.207-15.514-1.435-22.69      c-1.139-3.144-5.581-6.903-7.586-10.434c7.7,2.757,14.58,7.951,17.883,15.354c3.668,8.269,2.392,17.792,2.46,26.859      c0.046,9.067,2.346,19.318,10.206,23.851c3.03,1.732,6.584,2.392,9.75,3.941c12.712,6.151,14.785,23.145,14.671,37.292      c-0.023,2.278-0.023,4.693,1.207,6.629C192.612,296.766,193.933,297.655,195.46,298.225z"/>
			</g>
		</g>
		<g style="opacity:0.25;">
			<path style="fill:#221309;" d="M263.916,394.724c-2.119,3.554-5.695,6.174-11.185,7.336c-8.155,1.754-15.536-1.094-20.184-8.042     c-5.764-8.611-4.943-19.136-5.354-28.977c-0.57-13.623-2.324-27.177-5.24-40.504c-1.185-5.467-2.62-10.98-5.513-15.764     c-1.777-2.939-4.169-5.581-7.039-7.449c13.304,5.194,22.12,19.865,25.332,34.285c3.668,16.539,2.21,33.875,5.445,50.505     c0.456,2.346,1.116,4.829,2.962,6.379c1.8,1.503,4.351,1.709,6.72,1.822C254.553,394.542,259.246,394.678,263.916,394.724z"/>
		</g>
		<g>
			<path style="fill:#7F6EEC;" d="M473.977,492.562l-201.154,5.769h-30.344l-189.271-9.276c-1.39-21.619-7.979-33.836-8.207-55.888     c18.07-8.178,23.722-15.356,42.859-20.917c44.727-12.996,91.769-19.583,138.308-23.221c47.954-3.736,96.454-4.602,143.952,3.03     c6.698,1.074,13.379,2.325,20.025,3.761c27.734,5.991,38.595,16.387,63.624,29.454     C459.737,449.694,472.724,469.235,473.977,492.562z"/>
		</g>
		<g>
			<g>
				<path style="fill:#FFDFE5;" d="M242.479,498.331H34.354c-1.39-21.619-2.669-43.251-2.897-65.303      c-0.319-29.866,0.847-60.242,2.373-90.039c4.625-0.592,9.522-0.524,14.58,0.273c17.906,2.825,31.848,17.245,38.773,33.374      c6.925,16.083,8.064,34.034,8.178,51.53c13.76-10.843,34.923-8.565,48.66,2.301c13.737,10.889,20.776,28.499,22.621,45.904      c14.762-11.482,36.335-13.372,52.874-4.647C230.132,477.327,238.288,487.1,242.479,498.331z"/>
			</g>
			<g>
				<path style="fill:#FFDFE5;" d="M480.128,498.331H272.823c6.196-16.243,35.561-22.918,49.776-17.131      c-5.285-16.448,4.67-35.037,19.569-43.807c14.899-8.771,33.306-9.34,50.368-6.538c-5.035-22.781-8.201-46.359-4.784-69.436      c3.44-23.077,14.124-45.789,32.645-59.982c2.506-1.914,5.171-3.668,7.973-5.194c1.435,15.627,3.258,31.278,8.269,46.085      c6.06,17.906,16.539,33.944,23.738,51.416c3.873,9.431,7.062,19.683,9.636,30.344c3.622,14.808,6.105,30.344,7.791,45.516      C478.875,479.445,479.627,489.127,480.128,498.331z"/>
			</g>
		</g>
		<g>
			
				<ellipse transform="matrix(0.2253 -0.9743 0.9743 0.2253 160.1678 392.0058)" style="fill:#FFD461;" cx="326.573" cy="95.291" rx="46.531" ry="46.531"/>
		</g>
		<g>
			<g>
				<g>
					<path style="fill:#FF85CA;" d="M320.503,336.496c0,4.67-0.41,9.272-1.185,13.714c-1.481,8.474-4.306,16.493-8.224,23.829       c-13.395,24.945-39.753,41.916-70.074,41.916c-23.419,0-44.491-10.138-59.025-26.243c-6.196-6.857-11.208-14.807-14.716-23.51       c-3.691-9.181-5.741-19.204-5.741-29.706c0-42.851,33.898-77.773,76.338-79.414c1.048-0.046,2.096-0.068,3.144-0.068       c35.766,0,66.019,23.624,75.997,56.132C319.273,320.527,320.503,328.363,320.503,336.496z"/>
				</g>
				<g>
					<g>
						<rect x="237.375" y="221.461" style="fill:#FF85CA;" width="1.023" height="35.903"/>
					</g>
					<g>
						<circle style="fill:#FF85CA;" cx="238.061" cy="221.287" r="5.403"/>
					</g>
				</g>
				<g>
					<path style="fill:#FFDFE5;" d="M161.549,336.491c0,0,29.477,13.489,80.521,9.063c60.304-5.229,74.944-32.418,74.944-32.418       s62.912-7.67,64.919,3.137c2.007,10.806-41.913,38.692-139.515,45.664c-97.602,6.971-153.374,6.971-143.962-3.835       C107.868,347.297,161.549,336.491,161.549,336.491z"/>
				</g>
			</g>
			<g style="opacity:0.19;">
				<path style="fill:#3C1C87;" d="M311.095,374.039c-13.395,24.945-39.753,41.916-70.074,41.916      c-23.419,0-44.491-10.138-59.025-26.243c0.934,0.455,1.868,0.865,2.802,1.276c5.809,2.483,11.892,4.26,18.065,5.422      c12.324,2.324,24.99,2.324,37.497,1.435c15.058-1.093,30.139-3.485,44.263-8.793      C294.169,385.475,303.258,380.509,311.095,374.039z"/>
			</g>
			<g>
				<g>
					<path style="fill:#FFDFE5;" d="M185.43,449.884c-0.078,0-0.156-0.016-0.231-0.049c-0.287-0.128-0.417-0.464-0.289-0.752       l21.326-48.082c0.129-0.289,0.464-0.417,0.752-0.289c0.287,0.128,0.417,0.464,0.289,0.752l-21.326,48.082       C185.856,449.758,185.648,449.884,185.43,449.884z"/>
				</g>
				<g>
					<path style="fill:#FFDFE5;" d="M318.43,444.649c-0.189,0-0.375-0.095-0.483-0.268l-32.862-52.638       c-0.167-0.267-0.086-0.618,0.181-0.784c0.266-0.164,0.617-0.087,0.784,0.181l32.862,52.638       c0.167,0.267,0.086,0.618-0.181,0.784C318.638,444.621,318.534,444.649,318.43,444.649z"/>
				</g>
			</g>
			<g>
				<path style="fill:#FFDFE5;" d="M176.373,323.644c-0.543,2.774,1.223,5.466,3.981,6.086c10.77,2.424,37.68,7.255,65.789,2.797      c27.19-4.313,44.846-13.954,52.024-18.544c2.143-1.371,3.004-4.069,2.022-6.416l-0.036-0.086      c-1.318-3.15-5.232-4.164-7.972-2.126c-7.065,5.254-22.433,13.52-52.057,17.141c-29.019,3.547-48.2-0.67-56.963-3.452      c-2.963-0.941-6.068,0.919-6.666,3.97L176.373,323.644z"/>
			</g>
		</g>
	</g>
</g>















</svg>
