<?xml version="1.0" encoding="UTF-8"?>
<!-- Generator: Adobe Illustrator 25.2.3, SVG Export Plug-In . SVG Version: 6.00 Build 0)  -->
<svg xmlns="http://www.w3.org/2000/svg" xmlns:xlink="http://www.w3.org/1999/xlink" version="1.1" id="Capa_1" x="0px" y="0px" viewBox="0 0 512 512" style="enable-background:new 0 0 512 512;" xml:space="preserve" width="512" height="512">
<g>
	<g>
		<path style="fill:#FFFFFF;" d="M37.919,512c-7.03,0-12.802-5.56-13.064-12.584l-0.129-3.418c-0.034-0.468-0.043-0.864-0.045-1.166    c-0.251-6.515-0.463-13.048-0.639-19.589c-0.069-2.539-0.117-5.088-0.165-7.632c0,0-0.203-9.531-0.226-10.941    c-0.358-19.753-0.331-39.886,0.019-59.634c0.517-28.1,1.8-56.008,3.815-82.993l-5.916-1.279    c-5.901-1.275-10.16-6.426-10.306-12.463c-0.147-6.034,3.86-11.386,9.692-12.944l8.314-2.224l1.055-3.866    c2.436-24.61,6.369-56.617,15.069-88.015c3.488-12.58,7.771-24.998,12.742-36.954c1.33-34.881,20.967-66.037,51.893-82.325    c7.945-8.624,16.445-16.603,25.35-23.8V31.277c-3.207-3.317-5.168-7.839-5.168-12.824C130.211,8.277,138.489,0,148.663,0    c10.175,0,18.453,8.277,18.453,18.452c0,4.411-1.592,8.541-4.272,11.771v0.979c30.809-17.803,66.445-27.518,101.478-27.518    c28.069,0,55.302,6.363,78.756,18.402c36.327,18.627,67.983,52.391,91.539,97.639c16.12,31.011,27.29,64.226,33.205,98.729    c2.035,11.722,3.457,23.8,4.22,35.871c0.874,13.941,0.894,28.059,0.913,41.711c0.038,27.319,0.075,53.123,6.366,77.553    c1.198,4.656,2.529,8.926,4.069,13.056c0.063,0.166,0.121,0.334,0.177,0.502c1.524,4.069,3.269,8.105,5.113,12.371    c2.836,6.562,5.77,13.35,8.021,20.621c0.994,3.222,1.77,6.599,2.381,9.933c0.947,5.27,1.479,10.752,1.624,16.75    c0.2,9.263-0.492,18.573-1.46,27.789c-0.389,3.711-0.815,7.452-1.238,11.159l-0.31,2.745c-0.174,1.551-0.637,5.909-0.637,5.909    c-0.196,1.919-0.375,3.772-0.53,5.6c-0.571,6.771-6.233,11.975-13.027,11.975H37.919z"/>
	</g>
	<g>
		<g>
			<g>
				<path style="fill:#3C1C87;" d="M46.076,492.038C44.708,458.329,35.72,397.35,35.72,397.35      c0.637-34.535,2.406-69.023,5.496-103.204c2.949-32.813,6.959-65.65,15.758-97.401      c16.489-59.469,51.213-115.353,102.945-149.039c51.708-33.662,121.25-42.178,176.167-13.989      c37.956,19.461,66.216,54.209,85.913,92.046c15.451,29.723,26.255,61.876,31.917,94.901l-11.168,249.524L46.076,492.038z"/>
			</g>
		</g>
		<g>
			
				<ellipse transform="matrix(0.2298 -0.9732 0.9732 0.2298 52.0446 282.2313)" style="fill:#FFD461;" cx="204.33" cy="108.235" rx="57.418" ry="57.418"/>
		</g>
		<g>
			<path style="fill:#7F6EEC;" d="M425.561,402.563c-51.449,0-93.155-41.706-93.155-93.155c0-51.449,41.706-93.155,93.155-93.155     c9.884,0,19.414,1.533,28.355,4.411c1.982,11.417,3.326,22.929,4.058,34.488c2.547,40.645-2.383,82.682,7.667,121.699     C466.89,381.71,441.697,402.563,425.561,402.563z"/>
		</g>
		<g>
			<g>
				<path style="fill:#FFDFE5;" d="M485.243,473.072c-0.024,0.212-0.047,0.425-0.071,0.637c-0.897,8.586-2.005,17.079-2.689,25.217      H36.9c-0.047-1.25-0.094-2.501-0.141-3.751c-0.024-0.189-0.024-0.401-0.024-0.613c-0.495-12.809-0.849-25.689-1.038-38.546      c-0.023-0.212-0.047-0.424,0-0.637c-0.141-6.016-0.189-12.007-0.212-18.023c-0.024-0.212-0.024-0.448,0-0.66      c-0.071-7.478-0.047-14.956,0.023-22.434c-0.023-0.212,0-0.425,0-0.637c0.024-3.232,0.047-6.44,0.118-9.672      c0-0.236,0-0.495,0.024-0.731c0-1.958,0.024-3.916,0.071-5.874c14.838-7.855,30.006-15.215,45.457-21.844      c1.179-0.519,2.383-1.014,3.586-1.533c41.777-17.598,85.441-29.841,129.743-32.577c0.495-0.023,0.967-0.047,1.463-0.071      c16.89-0.967,33.851-0.542,50.835,1.51c9.53,1.156,19.178,2.878,28.213,6.015c0.307,0.095,0.613,0.189,0.896,0.307      c6.464,2.288,12.597,5.308,18.164,9.342c6.935,5.025,12.738,11.441,19.39,16.772c0.307,0.283,0.613,0.519,0.92,0.755      c0.873,0.684,1.769,1.368,2.689,2.005c17.881,12.526,41.4,13.776,63.008,10.757c5.355-0.755,10.663-1.722,15.947-2.807      c0.495-0.094,0.991-0.212,1.486-0.307c15.593-3.232,31.068-7.242,46.92-8.728c0.401-0.047,0.802-0.071,1.203-0.094      c1.25,4.883,2.736,9.695,4.505,14.46c4.081,10.993,9.577,21.49,13.045,32.695c0.047,0.118,0.071,0.259,0.118,0.377      c0.047,0.189,0.118,0.377,0.165,0.566c0.637,2.217,1.179,4.459,1.58,6.747c0.071,0.189,0.094,0.377,0.118,0.566      C487.555,445.284,486.682,459.272,485.243,473.072z"/>
			</g>
			<g>
				<g>
					<path style="fill:#FFFFFF;" d="M76.766,378.95c-13.446,8.351-27.152,16.867-41.14,25.005c0-0.236,0-0.495,0.024-0.731       c13.871-8.044,27.458-16.489,40.81-24.793c1.557-0.967,3.137-1.958,4.718-2.925c1.179-0.519,2.383-1.014,3.586-1.533       C82.074,375.647,79.408,377.299,76.766,378.95z"/>
				</g>
				<g>
					<path style="fill:#FFFFFF;" d="M215.968,341.324c-50.788,25.005-102.426,44.419-147.694,60.507l-0.378,0.142       c-10.851,3.869-21.82,7.761-32.388,12.29c-0.023-0.212,0-0.425,0-0.637c10.498-4.506,21.419-8.374,32.2-12.196l0.378-0.141       c44.891-15.947,96.033-35.196,146.421-59.894C215.001,341.372,215.473,341.348,215.968,341.324z"/>
				</g>
				<g>
					<path style="fill:#FFFFFF;" d="M55.606,427.214c-6.582,3.42-13.305,6.888-20.122,10.143c-0.024-0.212-0.024-0.448,0-0.66       c6.747-3.208,13.352-6.652,19.839-10.002c16.159-8.374,32.884-17.055,50.647-22.221c15.97-4.647,32.789-6.463,49.066-8.233       c15.262-1.675,31.02-3.373,46.023-7.407c18.848-5.048,36.705-13.777,53.996-22.222c5.85-2.878,11.889-5.826,17.881-8.586       c6.723-3.114,14.154-6.322,22.08-9.177c0.307,0.095,0.613,0.189,0.896,0.307c-8.162,2.902-15.805,6.204-22.717,9.389       c-5.992,2.784-12.054,5.733-17.881,8.587c-17.315,8.469-35.219,17.22-54.091,22.269c-15.05,4.034-30.855,5.756-46.118,7.431       c-16.253,1.745-33.049,3.586-48.972,8.209C88.443,410.206,71.742,418.84,55.606,427.214z"/>
				</g>
				<g>
					<path style="fill:#FFFFFF;" d="M334.388,376.025c-9.035-1.439-18.282-2.713-27.482-2.312       c-21.183,0.896-40.763,10.497-59.705,19.792c-9.507,4.671-19.32,9.483-29.298,13.186       c-21.113,7.855-43.877,10.993-65.862,14.036c-14.814,2.052-30.124,4.175-44.844,7.714c-25.005,5.992-48.642,16.064-71.5,27.576       c-0.023-0.212-0.047-0.424,0-0.637c22.787-11.465,46.401-21.537,71.359-27.529c14.743-3.538,30.077-5.661,44.891-7.714       c21.986-3.02,44.679-6.157,65.768-13.988c9.932-3.704,19.744-8.516,29.228-13.163c18.989-9.318,38.64-18.966,59.918-19.863       c8.917-0.401,17.881,0.778,26.609,2.147C333.774,375.553,334.081,375.789,334.388,376.025z"/>
				</g>
				<g>
					<path style="fill:#FFFFFF;" d="M220.45,449.388c-52.982-0.66-104.384,17.692-154.087,35.431       c-6.652,2.383-13.54,4.836-20.287,7.218c-3.114,1.085-6.227,2.147-9.318,3.138c-0.024-0.189-0.024-0.401-0.024-0.613       c3.043-0.967,6.086-2.005,9.153-3.09c6.747-2.359,13.635-4.812,20.287-7.195c49.75-17.763,101.152-36.092,154.276-35.479       c3.727,0.047,7.525,0.189,11.205,0.307c14.555,0.543,29.628,1.085,43.381-3.869c12.715-4.577,23.566-13.611,34.087-22.339       c13.045-10.828,26.515-22.009,43.31-24.321c5.874-0.826,11.913-0.472,17.74-0.141c6.039,0.354,12.29,0.708,18.329-0.212       c10.049-1.557,19.013-6.558,27.529-12.243c0.495-0.094,0.991-0.212,1.486-0.307c-8.917,6.063-18.282,11.488-28.921,13.116       c-6.11,0.944-12.384,0.59-18.47,0.236c-5.803-0.33-11.795-0.684-17.622,0.142c-16.631,2.288-30.029,13.423-43.004,24.179       c-10.545,8.775-21.467,17.834-34.276,22.434c-13.847,5.001-28.968,4.458-43.594,3.916       C227.952,449.577,224.154,449.435,220.45,449.388z"/>
				</g>
				<g>
					<path style="fill:#FFFFFF;" d="M217.62,461.419c-13.682-0.283-27.836-0.59-41.683,0.33       c-25.76,1.698-60.955,9.082-82.398,34.582c-0.684,0.826-1.368,1.698-1.958,2.595h-0.708c0.66-1.038,1.415-2.029,2.217-2.972       c21.561-25.665,56.921-33.096,82.799-34.795c13.894-0.92,28.048-0.613,41.753-0.33c16.513,0.354,33.592,0.708,50.269-1.062       c15.404-1.628,27.222-4.812,37.201-10.002c4.27-2.217,8.351-4.907,12.314-7.502c3.468-2.288,7.077-4.647,10.781-6.676       c27.364-15.074,59.682-12.738,90.914-10.474c21.419,1.557,43.428,3.138,64.187-0.731c0.047,0.189,0.118,0.377,0.165,0.566       c-20.853,3.916-42.91,2.312-64.376,0.755c-31.185-2.265-63.385-4.6-90.608,10.38c-3.68,2.028-7.266,4.388-10.733,6.676       c-3.963,2.595-8.091,5.308-12.384,7.549c-10.049,5.214-21.938,8.398-37.389,10.049       C251.258,462.127,234.156,461.773,217.62,461.419z"/>
				</g>
				<g>
					<path style="fill:#FFFFFF;" d="M485.172,432.262c-1.203,0.26-2.406,0.543-3.609,0.802c-3.208,0.708-6.534,1.463-9.814,2.029       c-9.294,1.651-19.013,2.147-28.402,2.642c-16.984,0.873-34.559,1.769-49.75,9.577c-5.78,2.972-11.111,6.912-16.3,10.733       c-6.699,4.93-13.635,10.049-21.561,13.069c-10.45,3.987-21.938,4.057-33.049,4.152c-2.736,0.023-5.543,0.047-8.327,0.118       c-35.455,1.038-69.872,12.337-103.204,23.542h-1.793c33.851-11.417,68.881-23.094,104.997-24.132       c2.76-0.071,5.591-0.095,8.327-0.118c11.064-0.094,22.481-0.165,32.837-4.128c7.855-2.972,14.743-8.068,21.443-12.998       c5.19-3.822,10.545-7.761,16.348-10.757c15.31-7.879,32.955-8.775,49.986-9.648c9.389-0.472,19.084-0.991,28.355-2.619       c3.255-0.59,6.582-1.321,9.79-2.029c1.203-0.26,2.406-0.542,3.609-0.802C485.125,431.885,485.149,432.073,485.172,432.262z"/>
				</g>
				<g>
					<path style="fill:#FFFFFF;" d="M485.243,473.072c-0.024,0.212-0.047,0.425-0.071,0.637       c-21.396,5.85-43.145,11.016-65.107,14.295c-3.869,0.566-7.855,1.109-11.701,1.628c-15.427,2.099-31.185,4.246-45.528,9.294       h-1.722c14.791-5.473,31.162-7.69,47.179-9.861c3.845-0.542,7.832-1.085,11.677-1.651       C441.98,484.136,463.777,478.946,485.243,473.072z"/>
				</g>
			</g>
		</g>
		<g>
			<g style="opacity:0.24;">
				<ellipse style="fill:#221309;" cx="147.313" cy="459.569" rx="94.358" ry="12.046"/>
			</g>
			<g>
				<g>
					<g>
						<g>
							<path style="fill:#924CA5;" d="M104.761,433.675l-0.163,13.786l-7.347,11.376c-1.264,1.922-4.213,1.448-4.766-0.79         l-4.635-18.118l7.395-6.959L104.761,433.675z"/>
						</g>
						<g>
							<path style="fill:#221309;" d="M113.129,434.294l-8.532,13.167c-5.741-2.238-11.561-4.398-16.748-7.531l-1.606-6.294         c1.449-0.342,2.897-0.685,4.108-1.027L113.129,434.294z"/>
						</g>
					</g>
					<g>
						<g>
							<path style="fill:#924CA5;" d="M196.506,432.215l3.149,13.565l7.347,11.376c1.264,1.922,4.214,1.448,4.766-0.79l4.635-18.118         L196.506,432.215z"/>
						</g>
						<g>
							<path style="fill:#221309;" d="M191.123,432.614l8.532,13.167c5.741-2.238,11.561-4.397,16.748-7.531l1.607-6.294         c-1.449-0.342-2.897-0.685-4.108-1.027L191.123,432.614z"/>
						</g>
					</g>
				</g>
				<g>
					<g>
						<g>
							<path style="fill:#FFDFE5;" d="M148.092,76.484c-0.364,0-0.658-0.294-0.658-0.658V19.35c0-0.364,0.294-0.658,0.658-0.658         c0.364,0,0.658,0.294,0.658,0.658v56.477C148.75,76.19,148.456,76.484,148.092,76.484z"/>
						</g>
						<g>
							<circle style="fill:#FFDFE5;" cx="147.643" cy="18.453" r="5.379"/>
						</g>
					</g>
					<g>
						<g>
							<g>
								<path style="fill:#FFDFE5;" d="M238.636,160.081v213.382H70.1v-71.285l5.164-30.036l-5.164-39.88v-72.181          c0-43.451,32.917-79.238,75.183-83.768c2.976-0.342,6.004-0.5,9.085-0.5c23.279,0,44.346,9.427,59.593,24.675          C229.208,115.762,238.636,136.829,238.636,160.081z"/>
							</g>
							<g style="opacity:0.21;">
								<path style="fill:#7F6EEC;" d="M238.636,160.081v213.382h-36.262c2.318-64.728,4.319-129.641-1.87-194.106          c-2.264-23.674-5.846-47.875-17.406-68.678c-8.427-15.142-21.91-28.23-37.815-34.366c2.976-0.342,6.004-0.5,9.085-0.5          c23.279,0,44.346,9.427,59.593,24.675C229.208,115.762,238.636,136.829,238.636,160.081z"/>
							</g>
							<g>
								<g>
									<rect x="70.1" y="232.262" style="fill:#FF85CA;" width="95.012" height="69.916"/>
								</g>
								<g>
									<g>
										<path style="fill:#FFDFE5;" d="M105.34,296.463H78.783c-0.181,0-0.33-0.148-0.33-0.33v-44.935            c0-5.99,4.873-10.864,10.863-10.864h5.491c5.99,0,10.863,4.874,10.863,10.864v44.935            C105.67,296.315,105.522,296.463,105.34,296.463z M79.112,295.804h25.898v-44.606c0-5.627-4.577-10.205-10.204-10.205            h-5.491c-5.627,0-10.204,4.578-10.204,10.205V295.804z"/>
									</g>
									<g>
										<path style="fill:#FFDFE5;" d="M157.448,259.315h-40.676c-0.181,0-0.33-0.148-0.33-0.33v-16.472            c0-0.181,0.148-0.33,0.33-0.33h40.676c0.181,0,0.33,0.148,0.33,0.33v16.472            C157.777,259.167,157.629,259.315,157.448,259.315z M117.101,258.656h40.017v-15.813h-40.017V258.656z"/>
									</g>
									<g>
										<path style="fill:#FFDFE5;" d="M157.448,279.317h-40.676c-0.181,0-0.33-0.148-0.33-0.33v-16.472            c0-0.181,0.148-0.33,0.33-0.33h40.676c0.181,0,0.33,0.148,0.33,0.33v16.472            C157.777,279.169,157.629,279.317,157.448,279.317z M117.101,278.658h40.017v-15.813h-40.017V278.658z"/>
									</g>
									<g>
										<path style="fill:#FFDFE5;" d="M126.352,294.782h-10.085c-0.181,0-0.33-0.148-0.33-0.33v-10.085            c0-0.181,0.148-0.33,0.33-0.33h10.085c0.181,0,0.33,0.148,0.33,0.33v10.085            C126.681,294.634,126.533,294.782,126.352,294.782z M116.596,294.123h9.426v-9.426h-9.426V294.123z"/>
									</g>
									<g>
										<path style="fill:#FFDFE5;" d="M140.807,294.782h-10.085c-0.181,0-0.33-0.148-0.33-0.33v-10.085            c0-0.181,0.148-0.33,0.33-0.33h10.085c0.181,0,0.33,0.148,0.33,0.33v10.085            C141.137,294.634,140.989,294.782,140.807,294.782z M131.052,294.123h9.426v-9.426h-9.426V294.123z"/>
									</g>
									<g>
										<path style="fill:#FFDFE5;" d="M155.263,294.782h-10.085c-0.181,0-0.33-0.148-0.33-0.33v-10.085            c0-0.181,0.148-0.33,0.33-0.33h10.085c0.181,0,0.33,0.148,0.33,0.33v10.085            C155.592,294.634,155.444,294.782,155.263,294.782z M145.507,294.123h9.426v-9.426h-9.426V294.123z"/>
									</g>
								</g>
							</g>
						</g>
						<g>
							<g>
								<path style="fill:#924CA5;" d="M260.703,416.493c0,0-27.229,23.858-109.469,25.096c-10.27,0.158-19.724,0.026-28.388-0.316          c-0.448-0.026-0.896-0.026-1.317-0.053c-39.922-1.633-62.99-7.584-72.576-10.718c-0.447-0.132-0.843-0.263-1.238-0.395          c-2.739-0.922-4.055-1.527-4.055-1.527l25.912-66.809l0.369-0.922l169.589,0.5L260.703,416.493z"/>
							</g>
							<g>
								<g>
									<g>
										<path style="fill:#FFDFE5;" d="M125.875,377.598c-0.58,11.192-1.08,22.331-1.58,33.101            c-0.474,9.954-0.922,20.251-1.448,30.573c-0.448-0.026-0.896-0.026-1.317-0.053c0.527-10.323,0.974-20.593,1.448-30.573            c0.474-10.586,0.974-21.515,1.554-32.496c-8.611-0.869-17.275-1.633-25.675-2.37c-8.427-0.764-17.17-1.527-25.834-2.396            c-8.716,18.644-16.801,37.815-24.069,57.118c-0.447-0.132-0.843-0.263-1.238-0.395            c7.294-19.487,15.484-38.868,24.306-57.697c0.132-0.237,0.395-0.395,0.685-0.369c8.795,0.869,17.67,1.659,26.281,2.423            c8.585,0.763,17.485,1.553,26.307,2.423C125.638,376.94,125.901,377.229,125.875,377.598z"/>
									</g>
								</g>
								<g>
									<g>
										<g>
											<path style="fill:#FFDFE5;" d="M156.874,412.685c-0.634,0-1.264-0.092-1.796-0.512c-0.796-0.63-0.934-1.692-1.016-2.327             c-1.919-14.839-3.41-29.929-4.43-44.86c-0.024-0.363,0.249-0.677,0.612-0.7c0.345-0.067,0.676,0.247,0.702,0.612             c1.018,14.902,2.506,29.967,4.422,44.777c0.076,0.592,0.18,1.191,0.526,1.463c0.316,0.249,0.853,0.239,1.425,0.213             c16.428-0.815,33.048-2.181,49.413-4.056c-0.467-14.694-1.876-29.51-4.19-44.044c-0.057-0.357,0.188-0.697,0.546-0.754             c0.356-0.054,0.697,0.188,0.755,0.548c2.354,14.787,3.776,29.865,4.224,44.814c0.01,0.342-0.243,0.635-0.583,0.674             c-16.587,1.916-33.443,3.307-50.099,4.135C157.216,412.677,157.045,412.685,156.874,412.685z"/>
										</g>
									</g>
								</g>
							</g>
							<g>
								<path style="fill:#7F6EEC;" d="M239.531,361.351c0,3.713-38.079,6.724-85.052,6.724c-46.973,0-85.052-3.01-85.052-6.724          c0-3.713,38.079-6.724,85.052-6.724C201.452,354.628,239.531,357.638,239.531,361.351z"/>
							</g>
						</g>
						<g>
							<g>
								<path style="fill:#FFFFFF;" d="M139.316,108.142c0.745,5.647,4.204,10.524,7.715,15.01          c3.511,4.485,7.275,9.014,8.826,14.495c0.928,3.279,1.014,6.758,2.012,10.016c0.999,3.259,3.269,6.479,6.615,7.131          c2.842,0.553,5.8-0.95,7.624-3.199c1.824-2.249,2.683-5.129,3.184-7.981c2.49-14.176-3.071-28.87-12.046-40.122          c-3.326-4.169-9.948-10.763-16.01-9.446C141.485,95.295,138.63,102.935,139.316,108.142z"/>
								<path style="fill:#FFDFE5;" d="M165.674,155.565c-0.443,0-0.885-0.042-1.316-0.126c-3.191-0.621-5.852-3.456-7.119-7.583          c-0.532-1.741-0.813-3.549-1.085-5.296c-0.244-1.572-0.497-3.199-0.931-4.734c-1.409-4.977-4.75-9.228-7.982-13.339          l-0.729-0.93c-3.391-4.331-7.072-9.445-7.848-15.328l0,0c-0.696-5.275,2.176-13.468,8.431-14.828          c6.886-1.49,13.947,6.271,16.666,9.68c10.063,12.615,14.502,27.43,12.179,40.646c-0.639,3.646-1.694,6.277-3.321,8.282          C170.797,154.255,168.182,155.565,165.674,155.565z M139.969,108.056c0.733,5.555,4.297,10.495,7.58,14.69l0.728,0.927          c3.31,4.212,6.735,8.566,8.213,13.794c0.456,1.612,0.715,3.278,0.965,4.891c0.264,1.701,0.538,3.462,1.043,5.111          c0.865,2.822,2.925,6.058,6.111,6.678c2.403,0.472,5.146-0.698,6.988-2.969c1.479-1.824,2.447-4.264,3.046-7.68          c2.258-12.844-2.084-27.276-11.911-39.598c-2.001-2.509-9.051-10.59-15.357-9.213          C141.853,95.889,139.34,103.284,139.969,108.056L139.969,108.056z"/>
							</g>
							<g>
								<path style="fill:#FFFFFF;" d="M181.261,172.869c0,5.57-4.515,10.085-10.085,10.085c-5.57,0-10.085-4.515-10.085-10.085          s4.516-10.085,10.085-10.085C176.745,162.784,181.261,167.299,181.261,172.869z"/>
								<path style="fill:#FFDFE5;" d="M171.175,183.612c-5.924,0-10.743-4.82-10.743-10.743c0-5.924,4.82-10.743,10.743-10.743          c5.924,0,10.743,4.82,10.743,10.743C181.919,178.792,177.099,183.612,171.175,183.612z M171.175,163.442          c-5.198,0-9.427,4.229-9.427,9.427c0,5.198,4.229,9.427,9.427,9.427c5.198,0,9.427-4.229,9.427-9.427          C180.603,167.671,176.373,163.442,171.175,163.442z"/>
							</g>
						</g>
					</g>
				</g>
			</g>
		</g>
		<g>
			<g>
				<path style="fill:#FFFFFF;" d="M394.574,443.075c-0.644,0-1.17-0.518-1.18-1.164c-0.487-36.153-4.981-75.285-14.138-123.151      c-2.248-11.751-4.658-23.155-9.419-33.488c-0.272-0.592-0.013-1.292,0.579-1.565c0.595-0.273,1.291-0.011,1.565,0.579      c4.869,10.574,7.317,22.13,9.592,34.031c9.184,48.005,13.69,87.268,14.18,123.564c0.008,0.651-0.512,1.186-1.164,1.195      C394.585,443.075,394.579,443.075,394.574,443.075z"/>
			</g>
			<g>
				<path style="fill:#FFFFFF;" d="M409.574,309.074l-2.324-0.401c3.931-22.785,3.018-46.676-2.638-69.091      c-4.036-16.005-9.862-26.472-18.334-32.939l1.432-1.876c8.917,6.808,15.015,17.688,19.19,34.238      C412.635,261.738,413.56,285.967,409.574,309.074z"/>
			</g>
			<g>
				<path style="fill:#FF85CA;" d="M410.084,305.262c-6.66-1.82-12.555-0.614-18.252,3.286c-5.697,3.9-9.553,10.379-10.264,17.247      c3.597,0.785,7.095,1.16,10.762,1.496c0.589-1.979,1.253-3.93,2.148-5.789c0.896-1.86,2.667-3.512,4.73-3.443      c2.453,0.081,4.247,2.614,4.404,5.063c0.157,2.449-0.42,5.052-1.436,7.286c4.466,0.812,8.833,1.342,13.257,2.433      c1.576-4.615,2.954-9.322,2.511-14.179C417.499,313.804,416.011,310.414,410.084,305.262z"/>
			</g>
			<g>
				<g>
					<rect x="321.833" y="248.969" style="fill:#FFDFE5;" width="56.607" height="28.609"/>
				</g>
				<g>
					<rect x="319.417" y="248.969" style="fill:#221309;" width="8.131" height="28.609"/>
				</g>
			</g>
			<g>
				<g>
					<rect x="345.007" y="168.876" style="fill:#FFDFE5;" width="9.648" height="36.729"/>
				</g>
				<g>
					<g>
						<g>
							<rect x="345.007" y="181.426" style="fill:#7F6EEC;" width="9.648" height="0.59"/>
						</g>
					</g>
					<g>
						<g>
							<rect x="345.007" y="185.625" style="fill:#7F6EEC;" width="9.648" height="0.59"/>
						</g>
					</g>
					<g>
						<g>
							<rect x="345.007" y="189.847" style="fill:#7F6EEC;" width="9.648" height="0.59"/>
						</g>
					</g>
					<g>
						<g>
							<rect x="345.007" y="194.07" style="fill:#7F6EEC;" width="9.648" height="0.59"/>
						</g>
					</g>
				</g>
			</g>
			<g>
				<g>
					<rect x="290.808" y="99.602" style="fill:#FF85CA;" width="111.423" height="78.297"/>
				</g>
				<g>
					<rect x="290.808" y="99.602" style="fill:#221309;" width="16.262" height="78.297"/>
				</g>
			</g>
			<g>
				<g>
					<g>
						<g>
							<path style="fill:#FFDFE5;" d="M349.43,100.794c-0.326,0-0.589-0.263-0.589-0.589V72.198c0-0.326,0.263-0.589,0.589-0.589         c0.326,0,0.589,0.263,0.589,0.589v28.007C350.019,100.531,349.756,100.794,349.43,100.794z"/>
						</g>
						<g>
							<path style="fill:#FFDFE5;" d="M348.828,79.526c-3.215,0-5.822-2.607-5.822-5.822c0-3.215,2.607-5.822,5.822-5.822         c3.215,0,5.822,2.606,5.822,5.822C354.65,76.919,352.044,79.526,348.828,79.526z"/>
						</g>
					</g>
					<g>
						<path style="fill:#FFDFE5;" d="M349.43,89.86c-3.16,0-6.519-0.843-6.519-2.403c0-1.56,3.359-2.403,6.519-2.403        c3.161,0,6.52,0.843,6.52,2.403C355.95,89.017,352.591,89.86,349.43,89.86z M349.43,85.643c-3.494,0-5.928,0.956-5.928,1.813        c0,0.857,2.434,1.813,5.928,1.813c3.494,0,5.929-0.956,5.929-1.813C355.359,86.599,352.924,85.643,349.43,85.643z"/>
					</g>
					<g>
						<path style="fill:#FFDFE5;" d="M349.43,96.685c-3.16,0-6.519-0.843-6.519-2.403c0-1.56,3.359-2.403,6.519-2.403        c3.161,0,6.52,0.843,6.52,2.403C355.95,95.842,352.591,96.685,349.43,96.685z M349.43,92.469        c-3.494,0-5.928,0.956-5.928,1.813s2.434,1.813,5.928,1.813c3.494,0,5.929-0.956,5.929-1.813S352.924,92.469,349.43,92.469z"/>
					</g>
				</g>
				<g>
					<g>
						<g>
							<path style="fill:#FFDFE5;" d="M419.998,140.244h-28.007c-0.326,0-0.589-0.263-0.589-0.589c0-0.326,0.263-0.589,0.589-0.589         h28.007c0.326,0,0.589,0.263,0.589,0.589C420.587,139.981,420.324,140.244,419.998,140.244z"/>
						</g>
						<g>
							<path style="fill:#FFDFE5;" d="M412.671,139.052c0-3.215,2.607-5.822,5.822-5.822c3.215,0,5.822,2.607,5.822,5.822         c0,3.215-2.607,5.822-5.822,5.822C415.277,144.874,412.671,142.267,412.671,139.052z"/>
						</g>
					</g>
					<g>
						<path style="fill:#FFDFE5;" d="M404.741,146.174c-1.56,0-2.403-3.359-2.403-6.519c0-3.161,0.843-6.52,2.403-6.52        c1.56,0,2.402,3.359,2.402,6.52C407.143,142.815,406.301,146.174,404.741,146.174z M404.741,133.725        c-0.857,0-1.813,2.435-1.813,5.929c0,3.494,0.956,5.928,1.813,5.928c0.857,0,1.812-2.434,1.812-5.928        C406.553,136.161,405.598,133.725,404.741,133.725z"/>
					</g>
					<g>
						<path style="fill:#FFDFE5;" d="M397.914,146.174c-1.56,0-2.402-3.359-2.402-6.519c0-3.161,0.842-6.52,2.402-6.52        s2.403,3.359,2.403,6.52C400.317,142.815,399.474,146.174,397.914,146.174z M397.914,133.725        c-0.857,0-1.812,2.435-1.812,5.929c0,3.494,0.954,5.928,1.812,5.928c0.857,0,1.813-2.434,1.813-5.928        C399.727,136.161,398.771,133.725,397.914,133.725z"/>
					</g>
				</g>
				<g>
					<g>
						<g>
							<polygon style="fill:#FF85CA;" points="402.231,177.9 307.07,177.9 295.119,173.706 296.335,106.062 307.07,99.602          402.231,99.602        "/>
						</g>
						<g>
							<rect x="290.808" y="99.602" style="fill:#221309;" width="16.262" height="78.297"/>
						</g>
					</g>
					<g>
						<g>
							<g>
								<path style="fill:#221309;" d="M338.389,141.311c0,2.578-2.09,4.668-4.668,4.668c-2.578,0-4.668-2.09-4.668-4.668          c0-2.578,2.09-4.668,4.668-4.668C336.299,136.643,338.389,138.733,338.389,141.311z"/>
							</g>
							<g>
								<path style="fill:#221309;" d="M385.668,141.311c0,2.578-2.09,4.668-4.668,4.668c-2.578,0-4.668-2.09-4.668-4.668          c0-2.578,2.09-4.668,4.668-4.668C383.578,136.643,385.668,138.733,385.668,141.311z"/>
							</g>
						</g>
						<g>
							<path style="fill:#221309;" d="M341.4,148.388h35.535c0,0-3.814,8.03-18.068,8.03         C346.018,156.418,341.4,148.388,341.4,148.388z"/>
						</g>
					</g>
					<g>
						<g>
							<g>
								<path style="fill:#FFDFE5;" d="M300.444,139.34h-28.007c-0.326,0-0.589-0.263-0.589-0.589c0-0.326,0.263-0.589,0.589-0.589          h28.007c0.326,0,0.589,0.263,0.589,0.589C301.034,139.076,300.77,139.34,300.444,139.34z"/>
							</g>
							<g>
								<path style="fill:#FFDFE5;" d="M279.766,139.353c0,3.215-2.607,5.822-5.822,5.822c-3.215,0-5.822-2.606-5.822-5.822          c0-3.215,2.607-5.822,5.822-5.822C277.159,133.531,279.766,136.138,279.766,139.353z"/>
							</g>
						</g>
						<g>
							<path style="fill:#FFDFE5;" d="M287.696,145.27c-1.56,0-2.403-3.359-2.403-6.52c0-3.16,0.843-6.519,2.403-6.519         c1.56,0,2.403,3.359,2.403,6.519C290.1,141.911,289.257,145.27,287.696,145.27z M287.696,132.822         c-0.857,0-1.813,2.434-1.813,5.928c0,3.494,0.956,5.929,1.813,5.929c0.857,0,1.813-2.435,1.813-5.929         C289.509,135.256,288.553,132.822,287.696,132.822z"/>
						</g>
						<g>
							<path style="fill:#FFDFE5;" d="M294.522,145.27c-1.56,0-2.403-3.359-2.403-6.52c0-3.16,0.843-6.519,2.403-6.519         c1.56,0,2.403,3.359,2.403,6.519C296.925,141.911,296.082,145.27,294.522,145.27z M294.522,132.822         c-0.857,0-1.813,2.434-1.813,5.928c0,3.494,0.956,5.929,1.813,5.929c0.857,0,1.813-2.435,1.813-5.929         C296.335,135.256,295.379,132.822,294.522,132.822z"/>
						</g>
					</g>
				</g>
			</g>
			<g>
				<g>
					<path style="fill:#FF85CA;" d="M388.388,275.761c0,0-5.119,25.005-34.936,25.005c-8.681,0-15.404-1.132-20.594-2.925       c-0.731-0.259-1.439-0.519-2.099-0.802c-16.937-6.959-15.569-21.278-15.569-21.278H388.388z"/>
				</g>
				<g>
					<g>
						<path style="fill:#FFDFE5;" d="M332.858,297.84c-0.731-0.259-1.439-0.519-2.099-0.802c-1.203-0.896-2.312-1.887-3.373-2.925        c-5.142-5.119-8.374-11.7-9.059-18.353h0.59c0.684,6.487,3.845,12.903,8.893,17.928        C329.343,295.222,331.018,296.614,332.858,297.84z"/>
					</g>
				</g>
			</g>
			<g>
				<path style="fill:#FFDFE5;" d="M282.894,319.946c-24.777-33.52-6.184-89.239,25.729-113.024l1.409,1.892      c-31.058,23.148-49.243,77.256-25.24,109.731L282.894,319.946z"/>
			</g>
			<g>
				<g>
					<g>
						<path style="fill:#FF85CA;" d="M396.809,208.625c0,4.081-2.996,7.431-6.935,8.021c-0.378,0.071-1.023-1.388-1.424-1.388        c-1.934,0-3.507,0.798-4.898-0.358c-1.816-1.463-2.996-3.727-2.996-6.275s1.18-4.836,2.996-6.298        c1.392-1.18,2.92-0.549,4.854-0.549c0.401,0,1.09-1.268,1.468-1.197C393.814,201.171,396.809,204.544,396.809,208.625z"/>
					</g>
					<g>
						<path style="fill:#221309;" d="M389.874,200.581v16.064c-0.378,0.071-0.802,0.094-1.203,0.094        c-1.934,0-3.727-0.684-5.119-1.84v-12.573c1.392-1.18,3.185-1.84,5.119-1.84C389.072,200.486,389.497,200.51,389.874,200.581z        "/>
					</g>
				</g>
				<g>
					<g>
						<g>
							<polygon style="fill:#FF85CA;" points="387.776,251.379 321.42,251.379 311.925,247.351 311.925,199.139 321.42,196.782          387.776,196.782        "/>
						</g>
						<g>
							<rect x="310.081" y="196.782" style="fill:#221309;" width="11.339" height="54.597"/>
						</g>
					</g>
					<g>
						<path style="fill:#FFDFE5;" d="M353.633,247.351h-25.068v-46.752h25.068V247.351z M329.743,246.172h22.711v-44.395h-22.711        V246.172z"/>
					</g>
					<g>
						<g>
							<rect x="364.889" y="201.991" style="fill:#FFDFE5;" width="10.44" height="10.44"/>
						</g>
						<g>
							<rect x="364.889" y="217.048" style="fill:#FFDFE5;" width="10.44" height="10.44"/>
						</g>
						<g>
							<rect x="364.889" y="232.105" style="fill:#FFDFE5;" width="10.44" height="10.439"/>
						</g>
					</g>
				</g>
				<g>
					<circle style="fill:#FF85CA;" cx="310.633" cy="210.072" r="8.131"/>
				</g>
			</g>
			<g>
				<path style="fill:#FFFFFF;" d="M318.341,455.553c-0.617,0-1.136-0.479-1.176-1.104c-3.584-55.568-7.291-113.028,7.109-168.154      c0.164-0.633,0.813-1.014,1.438-0.843c0.631,0.164,1.008,0.809,0.843,1.438c-14.303,54.759-10.608,112.026-7.036,167.407      c0.042,0.65-0.452,1.211-1.102,1.253C318.392,455.552,318.367,455.553,318.341,455.553z"/>
			</g>
			<g>
				<path style="fill:#FF85CA;" d="M282.978,316.626c-5.973,3.463-9.254,8.507-10.478,15.302c-1.224,6.795,0.681,14.089,5.07,19.419      c3.085-2.01,5.808-4.237,8.622-6.612c-0.995-1.808-1.918-3.651-2.613-5.595c-0.695-1.944-0.627-4.365,0.87-5.785      c1.78-1.689,4.843-1.188,6.697,0.42c1.854,1.608,3.302,3.847,4.178,6.139c3.714-2.61,7.158-5.347,11.042-7.729      c-2.179-4.363-4.563-8.649-8.332-11.745C294.266,317.346,290.808,316.024,282.978,316.626z"/>
			</g>
			<g>
				<polygon style="fill:#FF85CA;" points="318.513,442.002 283.581,465.492 322.428,459.168     "/>
			</g>
			<g>
				<polygon style="fill:#FF85CA;" points="392.896,434.775 427.828,458.264 388.981,451.94     "/>
			</g>
		</g>
		<g>
			<g>
				<polygon style="fill:#FFDFE5;" points="276.202,56.84 290.6,60.647 277.035,64.693 272.871,81.337 267.873,64.693       253.015,61.48 268.587,57.316 272.871,41.625     "/>
			</g>
			<g>
				<polygon style="fill:#FFDFE5;" points="428.35,351.335 442.748,355.142 429.183,359.188 425.018,375.831 420.021,359.188       405.163,355.975 420.735,351.811 425.018,336.12     "/>
			</g>
			<g>
				<polygon style="fill:#FFDFE5;" points="436.411,208.616 450.808,212.424 437.243,216.469 433.079,233.113 428.081,216.469       413.223,213.257 428.796,209.092 433.079,193.401     "/>
			</g>
			<g>
				<polygon style="fill:#FFDFE5;" points="46.501,295.345 60.898,299.153 47.333,303.199 43.169,319.842 38.172,303.199       23.313,299.986 38.886,295.822 43.169,280.13     "/>
			</g>
		</g>
	</g>
</g>















</svg>
