<?xml version="1.0" encoding="UTF-8"?>
<!-- Generator: Adobe Illustrator 25.2.3, SVG Export Plug-In . SVG Version: 6.00 Build 0)  -->
<svg xmlns="http://www.w3.org/2000/svg" xmlns:xlink="http://www.w3.org/1999/xlink" version="1.1" id="Capa_1" x="0px" y="0px" viewBox="0 0 512.002 512.002" style="enable-background:new 0 0 512.002 512.002;" xml:space="preserve" width="512" height="512">
<g>
	<g>
		<path style="fill:#FFFFFF;" d="M13.822,498.494c-3.73,0-7.302-1.507-9.905-4.18c-2.601-2.675-4.011-6.285-3.912-10.013    c0.103-3.851,0.256-7.729,0.439-11.626c2.057-43.041,8.228-86.909,12.569-129.939c7.066-72.095,16.422-148.221,45.786-216.805    c10.119-23.661,20.627-41.363,33.065-55.7c22.55-25.978,55.403-44.574,92.512-52.361c13.828-2.895,28.433-4.362,43.413-4.362    c19.596,0,40.113,2.493,60.98,7.408c25.565,6.052,46.454,14.485,63.88,25.792c22.773,14.78,41.968,36.021,57.054,63.133    c8.731,15.635,15.936,33.006,21.405,51.61c9.623,32.431,13.891,67.435,17.225,101c0.434,4.337,2.389,24.257,2.389,24.257    c0.259,2.585,0.515,5.125,0.778,7.662c1.602,15.639,3.476,29.436,10.24,40.149c3.071,4.857,7.397,9.394,11.977,14.199    c2.965,3.109,6.031,6.326,8.969,9.844c13,15.587,21.412,34.455,25.715,57.686c4.144,22.664,3.966,45.866,3.1,68.957    c-0.286,7.422-6.384,13.289-13.81,13.289H13.822z"/>
	</g>
	<g>
		<g>
			<path style="fill:#7F6EEC;" d="M391.264,459.57l-352.591,1.622l-16.544-58.781c2.211-19.88,4.561-39.553,6.404-58.327     c7.095-72.402,16.102-145.84,44.736-212.713c7.97-18.636,17.53-36.788,30.799-52.084c21.677-24.971,52.545-41.096,84.91-47.892     c32.365-6.773,66.205-4.607,98.386,2.972c20.917,4.953,41.487,12.232,59.525,23.934c22.253,14.443,39.552,34.992,52.499,58.258     C407.98,131.947,391.264,459.57,391.264,459.57z"/>
		</g>
		<g>
			<g>
				<path style="fill:#FF85CA;" d="M438.526,473.073h-237.49c-20.778-17.07-47.442-26.341-60.618-49.976      c-0.184-0.346-0.369-0.668-0.553-1.014c-16.862-30.638-26.468-65.836-26.468-103.27c0-30.96,6.565-60.377,18.359-86.96      l0.553-1.244c14.559-32.204,36.834-60.193,64.477-81.547c0.599-0.484,1.175-0.922,1.797-1.359c0,0,0,0,0.023-0.023      c14.397-10.919,30.223-20.041,47.154-27.044c0.599-0.276,1.221-0.53,1.866-0.783h0.023      c24.787-10.021,51.854-15.526,80.234-15.526c2.856,0,5.69,0.046,8.5,0.184c0.415,0,0.829,0.023,1.244,0.046      c16.286,0.714,32.112,3.271,47.247,7.441c0,0,0,0,0,0.023c0.438,0.092,0.898,0.23,1.336,0.346      c4.446,1.267,8.846,2.649,13.176,4.192c8.593,15.388,15.273,31.951,20.226,48.79c1.152,3.893,2.211,7.809,3.225,11.725      c0.092,0.368,0.184,0.76,0.277,1.129c9.583,38.355,12.324,78.184,16.401,117.598c1.635,15.964,3.732,32.527,12.301,46.095      c6.013,9.514,14.812,16.885,22.022,25.524c12.508,14.996,19.258,32.573,22.736,51.347      C498.303,428.028,451.91,462.108,438.526,473.073z"/>
			</g>
			<g>
				<g>
					<g>
						<path style="fill:#FFDFE5;" d="M388.261,125.935c-0.323,7.671-3.11,15.526-8.247,23.335        c-7.026,10.643-17.323,19.304-29.002,24.418c-0.668,0.276-1.336,0.553-2.004,0.852c-3.11,1.29-6.335,2.626-8.754,4.93        c-7.325,6.934-4.837,19.396,1.198,27.62c2.857,3.87,6.404,7.325,9.836,10.643c3.916,3.801,7.947,7.74,11.034,12.347        c12.831,19.212,6.312,45.058-5.851,62.151c-11.426,16.079-27.597,26.814-44.413,29.509c-2.626,0.415-5.252,0.622-7.878,0.622        c-16.309,0-32.043-7.832-40.082-20.502c-9.099-14.305-8.27-31.997-7.464-49.113c0.184-3.916,0.392-7.993,0.438-11.91        c0.138-8.27-0.461-18.728-6.174-26.468c-4.377-5.92-11.426-10.09-22.184-13.084c-1.566-0.438-3.133-0.852-4.722-1.244        c-6.75-1.728-13.729-3.501-19.304-7.786c-7.395-5.667-11.725-15.411-11.564-26.1c0.092-5.483,1.313-11.195,3.663-17.093        c0.599-0.484,1.175-0.922,1.797-1.359c-2.787,6.404-4.216,12.578-4.308,18.475c-0.161,10.159,4.1,19.811,11.103,25.155        c5.413,4.146,12.255,5.897,18.889,7.579c1.589,0.415,3.179,0.829,4.768,1.267c11.011,3.064,18.244,7.348,22.805,13.522        c5.897,7.993,6.519,18.705,6.381,27.159c-0.046,3.939-0.253,8.016-0.438,11.956c-0.783,16.908-1.613,34.416,7.279,48.445        c9.099,14.328,28.334,22.276,46.809,19.327c16.517-2.626,32.412-13.2,43.653-29.025c11.933-16.77,18.36-42.087,5.828-60.838        c-3.018-4.515-7.003-8.408-10.873-12.163c-3.455-3.363-7.026-6.842-9.952-10.804c-6.335-8.615-8.869-21.746-1.06-29.117        c2.58-2.442,5.874-3.824,9.099-5.183c0.668-0.276,1.313-0.553,1.981-0.829c11.472-5.022,21.608-13.545,28.495-24.003        c5.045-7.625,7.74-15.273,8.063-22.736c0.184-4.63-0.576-9.306-2.234-13.868c0.438,0.092,0.898,0.23,1.336,0.346        C387.754,116.836,388.445,121.397,388.261,125.935z"/>
					</g>
				</g>
				<g>
					<g>
						<path style="fill:#FFDFE5;" d="M238.113,366.798c1.083,7.464-2.373,15.78-9.975,24.049        c-11.541,12.531-27.09,21.354-43.791,24.787c-5.621,1.175-11.449,1.751-17.07,2.304c-7.579,0.76-15.411,1.52-22.783,3.755        c-1.359,0.415-2.718,0.875-4.077,1.405c-0.184-0.346-0.369-0.668-0.553-1.014c1.428-0.576,2.856-1.06,4.285-1.497        c7.487-2.258,15.388-3.041,23.013-3.801c5.598-0.553,11.38-1.129,16.955-2.281c16.471-3.386,31.79-12.071,43.169-24.441        c5.137-5.598,10.988-14.121,9.675-23.105c-0.714-4.93-3.501-9.399-6.22-13.729c-3.064-4.884-6.22-9.952-6.45-15.78        c-0.254-6.772,3.455-12.647,7.026-18.314c1.658-2.603,3.363-5.298,4.653-8.039c4.561-9.675,4.215-21.308-0.898-30.361        c-5.252-9.307-15.365-15.411-25.754-15.595c-2.995-0.046-5.989,0.346-8.915,0.737c-5.252,0.668-10.689,1.382-15.78-0.415        c-7.118-2.534-11.311-9.03-15.365-15.342c-2.557-3.939-5.206-8.039-8.546-11.172c-6.98-6.496-17.83-9.053-28.956-7.095        l0.553-1.244c11.218-1.774,22.091,0.898,29.186,7.51c3.455,3.225,6.128,7.371,8.731,11.38        c4.146,6.427,8.039,12.485,14.789,14.881c4.815,1.705,9.883,1.037,15.227,0.346c2.995-0.392,6.104-0.76,9.076-0.737        c10.804,0.184,21.308,6.542,26.745,16.171c5.298,9.376,5.667,21.423,0.944,31.421c-1.313,2.81-3.041,5.529-4.699,8.178        c-3.663,5.782-7.118,11.241-6.865,17.645c0.207,5.529,3.156,10.228,6.289,15.227        C234.496,357.054,237.353,361.615,238.113,366.798z"/>
					</g>
				</g>
				<g>
					<g>
						<path style="fill:#FFDFE5;" d="M388.1,213.425c-0.945,11.91,4.1,23.22,8.984,34.185c4.239,9.537,8.616,19.373,9.261,29.785        c0.599,9.422-3.179,20.917-12.831,23.911c-2.327,0.737-4.769,0.875-7.118,0.991c-2.027,0.115-4.124,0.23-6.058,0.714        c-10.965,2.741-15.204,15.733-16.517,21.193c-0.668,2.741-1.175,5.575-1.659,8.316c-1.221,6.704-2.465,13.614-5.92,19.627        c-6.911,12.025-22.667,17.991-35.821,13.614c-4.515-1.497-8.661-4.077-12.647-6.565c-4.538-2.856-9.26-5.782-14.467-7.049        c-6.127-1.474-12.992-0.23-18.843,3.409c-5.874,3.663-10.021,9.284-11.403,15.434c-1.313,5.943-0.414,12.209,0.438,18.268        l0.231,1.659c0.898,6.381,1.635,13.752-0.945,20.295c-2.211,5.621-7.901,10.758-14.144,10.758        c-0.714,0-1.405-0.069-2.119-0.207l0.207-1.129c6.473,1.244,12.716-4.031,14.996-9.836c2.465-6.289,1.751-13.476,0.875-19.719        l-0.23-1.659c-0.875-6.151-1.797-12.531-0.415-18.682c1.428-6.45,5.759-12.347,11.886-16.148        c6.128-3.824,13.338-5.114,19.742-3.548c5.391,1.29,10.182,4.285,14.812,7.164c3.916,2.465,7.994,4.999,12.393,6.473        c12.67,4.216,27.804-1.543,34.462-13.107c3.34-5.828,4.584-12.67,5.759-19.258c0.507-2.764,1.013-5.621,1.681-8.362        c1.382-5.667,5.805-19.166,17.346-22.045c2.073-0.53,4.216-0.645,6.289-0.76c2.28-0.115,4.653-0.253,6.842-0.922        c9.053-2.81,12.577-13.775,12.025-22.759c-0.622-10.205-4.976-19.949-9.168-29.371c-4.93-11.103-10.044-22.575-9.076-34.761        c1.382-17.162,15.987-32.619,34.024-35.959c0.622-0.115,1.244-0.207,1.866-0.299c0.092,0.368,0.184,0.76,0.277,1.129        c-0.645,0.092-1.29,0.207-1.935,0.323C403.649,181.751,389.436,196.77,388.1,213.425z"/>
					</g>
				</g>
				<g>
					<g>
						<path style="fill:#FFDFE5;" d="M339.793,114.44c0.185,9.33-4.768,18.59-12.623,23.612c-1.935,1.244-4.054,2.257-6.105,3.225        c-3.778,1.82-7.348,3.525-9.928,6.519c-3.939,4.607-4.4,11.218-4.1,15.964c0.622,10.021,4.377,19.557,8.523,29.279        l0.691,1.613c3.801,8.869,7.717,18.014,9.053,27.712c1.612,11.656-1.106,22.391-7.464,29.417        c-4.192,4.653-10.965,7.763-17.576,7.763c-3.893,0-7.74-1.06-10.988-3.501c-8.869-6.634-9.583-19.58-9.214-30.131        c0.322-9.468,0.783-22.46-7.026-29.993c-3.778-3.64-8.685-5.344-13.891-7.141c-3.617-1.267-7.371-2.557-10.666-4.584        c-8.961-5.46-14.582-16.379-14.72-28.472c-0.092-9.675,3.156-20.202,9.675-31.306c0.737-1.267,1.52-2.534,2.327-3.778        c0.599-0.276,1.221-0.53,1.866-0.783c-1.106,1.682-2.188,3.409-3.202,5.137c-6.404,10.919-9.606,21.262-9.514,30.73        c0.115,11.702,5.551,22.23,14.167,27.482c3.202,1.958,6.888,3.248,10.458,4.492c5.091,1.751,10.343,3.594,14.282,7.395        c8.201,7.878,7.74,21.17,7.395,30.868c-0.369,10.251,0.323,22.852,8.753,29.163c8.316,6.22,20.686,2.902,27.021-4.1        c6.128-6.796,8.754-17.185,7.164-28.495c-1.313-9.537-5.206-18.636-8.961-27.413l-0.691-1.636        c-4.169-9.813-7.993-19.442-8.615-29.647c-0.461-7.118,1.06-12.9,4.377-16.77c2.741-3.202,6.588-5.045,10.32-6.819        c2.004-0.968,4.1-1.958,5.966-3.156c7.533-4.814,12.278-13.683,12.094-22.621c-0.069-3.432-0.852-6.819-2.257-9.951        c0.415,0,0.829,0.023,1.244,0.046C338.964,107.691,339.701,111.054,339.793,114.44z"/>
					</g>
				</g>
			</g>
		</g>
		<g>
			<g>
				<path style="fill:#924CA5;" d="M499.455,484.673H15.587c0.438-16.77,1.704-34.024,3.34-51.37      c0.944-10.297,2.05-20.617,3.202-30.891c13.199-3.248,26.33-4.538,34.369-4.538c34.992,0.069,70.167,15.227,104.099,6.773      c28.495-7.072,52.453-30.177,81.8-30.822c19.603-0.415,38.378,9.491,57.958,8.754c25.409-0.944,46.832-19.281,71.596-24.925      c21.884-4.976,45.957,0.806,63.187,15.181c9.56,7.97,17.507,18.59,26.215,27.597c8.016,8.293,16.701,15.204,27.896,17.507      c2.419,0.484,4.861,0.737,7.325,0.829C500.515,439.868,500.307,462.489,499.455,484.673z"/>
			</g>
			<g style="opacity:0.2;">
				<path style="fill:#3C1C87;" d="M499.455,484.673H15.587c0.438-16.77,1.704-34.024,3.34-51.37      c7.233-1.451,14.536-2.58,21.815-3.317c16.494-1.682,33.333-0.991,49.228,4.008c13.799,4.308,26.399,11.656,39.829,16.931      c17.438,6.865,36.258,10.182,54.987,9.698c19.534-0.507,41.971-7.671,48.537-26.1c1.359-3.824,1.981-8.039,4.515-11.218      c3.363-4.193,9.099-5.46,14.351-6.45c16.54-3.087,34.761-5.92,49.274,2.58c7.487,4.4,13.061,11.357,19.465,17.231      c26.929,24.787,70.859,28.634,101.681,8.915c2.949-1.889,6.082-4.469,6.173-7.993c0.092-3.386-2.672-6.082-5.206-8.293      c-3.847-3.386-5.598-7.809-5.598-12.186c0-7.763,5.552-15.342,14.605-16.378c9.422-1.083,19.189-0.875,28.772-0.299      c8.016,8.293,16.701,15.204,27.896,17.507c2.419,0.484,4.861,0.737,7.325,0.829      C500.515,439.868,500.307,462.489,499.455,484.673z"/>
			</g>
		</g>
		<g>
			<g>
				<g>
					<g>
						<polygon style="fill:#FFDFE5;" points="99.657,230.041 92.651,363.581 73.247,390.689 53.205,406.41 48.856,426.736         35.068,428.186 26.369,362.147 47.406,354.87 51.045,383.184 94.057,247.695       "/>
					</g>
					<g>
						<polygon style="fill:#3C1C87;" points="99.657,230.041 93.858,374.485 73.247,390.689 94.057,247.695       "/>
					</g>
				</g>
				<g>
					<g>
						<polygon style="fill:#FFDFE5;" points="161.067,228.636 161.007,364.339 180.939,390.224 200.327,406.744 203.849,427.23         217.566,429.238 228.936,363.606 208.212,355.481 203.428,383.625 165.946,246.503       "/>
					</g>
					<g>
						<polygon style="fill:#3C1C87;" points="161.067,228.636 161.003,373.197 180.939,390.224 165.946,246.503       "/>
					</g>
				</g>
				<g>
					<g>
						<g>
							<path style="fill:#FFDFE5;" d="M165.724,425.286H83.709c0,0,6.197-175.772,23.141-284.368         c0.085-0.484,0.171-0.967,0.228-1.422c7.619-48.101,17.341-82.669,29.622-82.215c11.798,0.426,19.132,32.721,23.681,78.007         c0.028,0.483,0.085,0.967,0.142,1.479C171.069,244.966,165.724,425.286,165.724,425.286z"/>
						</g>
					</g>
					<g>
						<g>
							<g>
								<path style="fill:#FFBCC9;" d="M145.491,183.762c-0.241,7.147-6.231,12.746-13.379,12.505          c-7.147-0.241-12.746-6.231-12.505-13.379c0.241-7.148,6.231-12.746,13.379-12.505          C140.134,170.624,145.732,176.614,145.491,183.762z"/>
							</g>
						</g>
						<g>
							<g>
								<path style="fill:#FFBCC9;" d="M143.93,229.983c-0.241,7.148-6.231,12.746-13.379,12.505          c-7.148-0.241-12.746-6.231-12.505-13.379c0.241-7.148,6.231-12.746,13.379-12.505          C138.573,216.845,144.172,222.835,143.93,229.983z"/>
							</g>
						</g>
						<g>
							<g>
								<path style="fill:#FFBCC9;" d="M142.37,276.203c-0.241,7.148-6.231,12.746-13.379,12.505          c-7.148-0.241-12.746-6.231-12.505-13.379c0.241-7.148,6.231-12.746,13.379-12.505          C137.012,263.066,142.611,269.056,142.37,276.203z"/>
							</g>
						</g>
						<g>
							<g>
								<path style="fill:#FFBCC9;" d="M140.809,322.424c-0.241,7.148-6.231,12.746-13.379,12.505          c-7.148-0.241-12.746-6.231-12.505-13.379c0.241-7.147,6.231-12.746,13.379-12.505          C135.452,309.287,141.05,315.277,140.809,322.424z"/>
							</g>
						</g>
						<g>
							<g>
								<path style="fill:#FFBCC9;" d="M139.248,368.645c-0.241,7.148-6.231,12.746-13.379,12.505          c-7.148-0.241-12.746-6.231-12.505-13.379c0.241-7.148,6.231-12.746,13.379-12.505          C133.891,355.508,139.49,361.498,139.248,368.645z"/>
							</g>
						</g>
					</g>
					<g>
						<g>
							<path style="fill:#924CA5;" d="M160.522,136.768c-12.736,3.383-26.097,4.577-39.259,4.577c-4.833,0-9.666-0.17-14.413-0.426         c0.085-0.484,0.171-0.967,0.228-1.422c17.597,0.967,36.047,0.483,53.303-4.208         C160.408,135.773,160.465,136.256,160.522,136.768z"/>
						</g>
					</g>
				</g>
			</g>
			<g>
				<path style="fill:#FFDFE5;" d="M77.726,467.586c-0.152,0-0.307-0.03-0.455-0.093c-0.584-0.252-0.854-0.929-0.603-1.514      l25.29-58.815c0.253-0.584,0.931-0.849,1.514-0.603c0.584,0.252,0.854,0.929,0.603,1.514l-25.29,58.815      C78.597,467.325,78.172,467.586,77.726,467.586z"/>
			</g>
			<g>
				<path style="fill:#FFDFE5;" d="M125.196,470.189c-0.634,0-1.149-0.513-1.152-1.147l-0.247-64.021      c-0.002-0.637,0.512-1.154,1.147-1.156c0.001,0,0.003,0,0.005,0c0.634,0,1.15,0.513,1.152,1.147l0.248,64.021      c0.002,0.637-0.512,1.154-1.147,1.156C125.199,470.189,125.197,470.189,125.196,470.189z"/>
			</g>
			<g>
				<path style="fill:#FFDFE5;" d="M170.311,466.001c-0.46,0-0.894-0.277-1.072-0.731l-20.83-53.113      c-0.233-0.593,0.06-1.261,0.651-1.493c0.588-0.233,1.261,0.057,1.493,0.651l20.83,53.113c0.233,0.593-0.06,1.261-0.651,1.493      C170.593,465.975,170.451,466.001,170.311,466.001z"/>
			</g>
		</g>
		<g>
			<g>
				<path style="fill:#221309;" d="M76.55,448.717c0,2.963-9.128,5.366-20.389,5.366c-11.261,0-20.389-2.402-20.389-5.366      c0-2.963,9.129-5.366,20.389-5.366C67.421,443.352,76.55,445.754,76.55,448.717z"/>
			</g>
			<g>
				<path style="fill:#221309;" d="M331.415,410.168c0,3.419-10.533,6.191-23.526,6.191c-12.993,0-23.526-2.772-23.526-6.191      c0-3.419,10.533-6.191,23.526-6.191C320.882,403.977,331.415,406.749,331.415,410.168z"/>
			</g>
			<g>
				<path style="fill:#221309;" d="M445.908,454.991c0,2.963-9.129,5.366-20.389,5.366c-11.261,0-20.389-2.402-20.389-5.366      c0-2.963,9.129-5.366,20.389-5.366C436.779,449.625,445.908,452.028,445.908,454.991z"/>
			</g>
			<g>
				<path style="fill:#221309;" d="M227.9,454.991c0,2.963-9.129,5.366-20.389,5.366s-20.389-2.402-20.389-5.366      c0-2.963,9.129-5.366,20.389-5.366S227.9,452.028,227.9,454.991z"/>
			</g>
		</g>
		<g>
			<polygon style="fill:#FFDFE5;" points="218.001,64.659 233.223,68.685 218.882,72.962 214.479,90.558 209.196,72.962      193.487,69.566 209.95,65.163 214.479,48.573    "/>
		</g>
		<g>
			<polygon style="fill:#FFDFE5;" points="348.609,98.64 363.83,102.665 349.489,106.942 345.086,124.538 339.803,106.942      324.094,103.546 340.557,99.143 345.086,82.553    "/>
		</g>
		<g>
			<polygon style="fill:#FFDFE5;" points="75.765,196.866 90.987,200.891 76.646,205.168 72.243,222.764 66.96,205.168      51.251,201.772 67.714,197.369 72.243,180.779    "/>
		</g>
	</g>
</g>















</svg>
