<?xml version="1.0" encoding="UTF-8"?>
<!-- Generator: Adobe Illustrator 25.2.3, SVG Export Plug-In . SVG Version: 6.00 Build 0)  -->
<svg xmlns="http://www.w3.org/2000/svg" xmlns:xlink="http://www.w3.org/1999/xlink" version="1.1" id="Capa_1" x="0px" y="0px" viewBox="0 0 512 512" style="enable-background:new 0 0 512 512;" xml:space="preserve" width="512" height="512">
<g>
	<g>
		<path style="fill:#FFFFFF;" d="M247.508,506.475c-43.742,0-86.76-11.581-124.402-33.492c-7.882-4.602-15.453-9.581-22.522-14.808    c-33.572-24.796-60.528-57.892-77.948-95.704C9.813,334.7,2.363,305.061,0.498,274.389C0.168,269.374,0,264.164,0,258.967    c0-33.74,6.672-66.443,19.831-97.202c8.25-19.314,18.95-37.519,31.802-54.105c31.303-40.486,74.738-70.464,123.343-85.375    l-0.114-0.559c-1.231-6.033,1.776-12.135,7.31-14.833c1.89-0.921,3.911-1.367,5.912-1.367c3.86,0,7.646,1.656,10.277,4.74    l4.466,5.236c14.712-2.684,29.705-4.042,44.681-4.042c14.555,0,29.158,1.281,43.4,3.808c4.931,0.87,10.102,1.961,15.358,3.239    l1.398,0.343c3.204,0.799,6.381,1.658,9.448,2.554c0.384,0.101,0.747,0.209,1.124,0.335c1.635,0.486,3.263,0.984,4.882,1.503    c0.895,0.286,1.786,0.582,2.677,0.88c1.413,0.47,2.843,0.962,4.268,1.465c0,0,0.624,0.221,0.747,0.268    c1.791,0.639,3.531,1.282,5.261,1.946l1.068,0.413c1.414,0.549,2.803,1.101,4.185,1.667l1.663,0.693    c1.393,0.583,2.69,1.134,3.978,1.701l1.3,0.58c1.469,0.656,2.951,1.331,4.426,2.025c0.301,0.132,0.601,0.272,0.902,0.422    l0.375,0.183c1.645,0.789,3.161,1.529,4.668,2.287l1.728,0.88c1.411,0.724,2.81,1.46,4.204,2.209l1.51,0.819    c1.588,0.868,3.177,1.762,4.756,2.671l0.714,0.411c1.969,1.141,3.93,2.312,5.87,3.511c0.141,0.083,0.28,0.17,0.42,0.259v-0.001    c1.917,1.188,3.949,2.477,5.954,3.801c1.945,1.29,3.84,2.597,5.726,3.93c0.633,0.444,1.295,0.913,1.956,1.385    c0.304,0.205,0.6,0.418,0.897,0.649c0.055,0.042,0.109,0.083,0.164,0.125c2.415,1.749,4.855,3.588,7.3,5.502    c0.676,0.528,1.36,1.065,2.039,1.607c2.328,1.859,4.617,3.756,6.802,5.639c0.345,0.279,0.603,0.492,0.856,0.712    c0,0,0.768,0.665,0.814,0.705c16.069,14.04,30.267,30.085,42.202,47.692c3.918,5.778,7.699,11.952,11.285,18.419    c13.172,2.523,23.824,4.875,30.794,6.494c7.289,1.679,13.252,6.878,15.928,13.9c2.852,7.605,1.413,16.161-3.73,22.398    c-5.326,6.418-11.626,12.758-18.8,18.927c4.524,18.642,6.864,37.793,6.965,57.053c0.02,0.499,0.024,0.998,0.024,1.496    c0,36.62-7.81,71.856-23.214,104.732c-3.47,7.421-7.28,14.623-11.318,21.393C416.107,459.952,334.492,506.475,247.508,506.475z"/>
	</g>
	<g>
		<g>
			<g>
				<path style="fill:#3C1C87;" d="M480.988,258.967c0,35.393-7.853,68.942-21.938,99.003c-3.24,6.93-6.795,13.68-10.688,20.206      c-40.749,68.74-115.676,114.799-201.381,114.799c-42.864,0-83.05-11.543-117.611-31.659      c-7.358-4.298-14.468-8.955-21.286-13.996c-31.591-23.333-57.107-54.452-73.712-90.498      c-11.813-25.583-19.126-53.664-20.925-83.253c-0.315-4.815-0.473-9.698-0.473-14.603c0-32.626,6.683-63.7,18.743-91.893      c7.853-18.383,17.978-35.551,30.061-51.144c42.796-55.352,109.826-90.97,185.203-90.97c13.995,0,27.721,1.237,41.041,3.6      l78.808,37.997l33.988,16.094c15.188,13.253,28.666,28.441,40.029,45.204c7.583,11.183,14.221,23.086,19.801,35.551      c12.915,28.846,20.183,60.797,20.318,94.413C480.988,258.202,480.988,258.584,480.988,258.967z"/>
			</g>
			<g style="opacity:0.08;">
				<path style="fill:#FFDFE5;" d="M440.847,127.855c-26.168,14.401-57.624,19.396-86.538,11.588      c-17.866-4.815-34.314-13.838-51.864-19.778c-17.528-5.918-37.419-8.573-54.137-0.63c-32.491,15.39-36.856,60.099-60.729,86.965      c-20.498,23.041-56.634,30.421-84.513,17.236c-21.241-10.013-36.114-29.566-54.114-44.619      c-5.198-4.343-11.048-8.325-17.236-11.543c7.853-18.383,17.978-35.551,30.061-51.144c23.693,10.845,46.959,23.468,72.475,22.006      c17.663-1.012,34.786-9.248,46.622-22.41c10.463-11.611,16.65-26.506,26.686-38.499c15.796-18.833,41.176-29.206,65.635-26.798      c3.69,0.36,7.335,0.99,10.935,1.822c23.513,5.288,45.722,18.428,69.775,17.146c7.56-0.428,15.053-2.34,21.915-5.603      c8.753,5.805,17.123,12.151,24.998,19.058C416.006,95.904,429.484,111.092,440.847,127.855z"/>
			</g>
			<g style="opacity:0.07;">
				<path style="fill:#FFDFE5;" d="M480.966,257.819c-13.185,1.553-25.786,7.875-33.481,18.586      c-8.258,11.475-10.103,26.146-14.018,39.736c-5.535,19.261-15.683,37.171-29.319,51.864      c-11.025,11.88-25.651,22.073-41.851,21.691c-18.563-0.428-33.931-14.468-45.024-29.364      c-11.093-14.895-20.183-31.861-35.034-42.999c-5.603-4.208-12.555-7.56-19.418-6.21c-10.17,2.025-15.593,13.118-18.18,23.153      c-4.298,16.651-5.04,34.044-9.18,50.739c-4.163,16.673-12.6,33.459-27.608,41.852c-23.513,13.118-53.462,0.878-73.982-16.56      c-20.521-17.438-37.013-40.186-60.819-52.787c-9.9-5.22-21.826-8.483-32.243-4.343c-2.385,0.945-4.523,2.182-6.435,3.645      c-11.813-25.583-19.126-53.664-20.925-83.253c6.098,0.135,12.173,0.968,18.068,2.475c22.726,5.828,41.626,21.038,61.067,34.201      c19.418,13.14,41.829,24.908,65.14,22.321c14.018-1.553,27.383-8.483,36.653-19.103c14.761-16.853,18.181-40.434,26.123-61.359      c7.92-20.948,25.336-42.324,47.656-40.366c19.441,1.688,32.401,19.891,45.744,34.134c19.441,20.746,48.602,36.316,75.85,28.238      c19.216-5.693,33.548-22.051,42.999-39.714c11.813-22.096,18.225-47.859,27.901-70.99      C473.563,192.252,480.831,224.203,480.966,257.819z"/>
			</g>
			<g style="opacity:0.08;">
				<path style="fill:#FFDFE5;" d="M459.05,357.97c-3.24,6.93-6.795,13.68-10.688,20.206      c-40.749,68.74-115.676,114.799-201.381,114.799c-42.864,0-83.05-11.543-117.611-31.659      c-7.358-4.298-14.468-8.955-21.286-13.996c8.213,1.035,16.426,2.925,24.391,5.4c3.758,1.147,7.47,2.43,11.093,3.803      c25.876,9.765,50.402,23.716,77.515,29.138c17.033,3.42,37.621,1.935,47.634-12.263c9.495-13.433,5.243-31.861,8.64-47.971      c1.485-6.998,4.973-14.198,11.43-17.326c7.2-3.488,16.066-0.855,22.456,3.983c6.39,4.838,11.025,11.543,16.358,17.506      c14.13,15.75,37.486,26.528,56.499,17.258c14.31-6.975,21.713-22.973,26.146-38.251c4.455-15.3,7.268-31.613,16.695-44.439      c1.373-1.868,2.925-3.667,4.635-5.243c3.667-3.42,8.078-5.94,13.028-6.3C450.117,352.21,454.932,354.415,459.05,357.97z"/>
			</g>
		</g>
		<g>
			<g>
				<path style="fill:#FFDFE5;" d="M168.42,171.454c0,0,2.298-61.279,56.683-72.002c54.385-10.724,83.492,40.597,83.492,40.597      L168.42,171.454z"/>
			</g>
			<g>
				<path style="fill:#924CA5;" d="M271.827,258.967c-144.634,31.883-246.479,5.175-245.691,1.125      c0.338-1.868,1.283-3.645,2.903-5.063c27.563-24.233,109.128-89.778,205.251-109.623      c97.968-20.228,217.829,3.893,256.755,12.938c3.128,0.72,5.355,2.903,6.368,5.558      C498.494,166.781,417.407,241.934,271.827,258.967z"/>
			</g>
			<g>
				<g>
					<path style="fill:#FFDFE5;" d="M33.446,256.921c-0.086,0-0.171-0.04-0.226-0.114c-0.092-0.125-0.066-0.301,0.06-0.393       c31.332-23.077,63.98-45.191,97.038-65.728c0.02-0.012,0.042-0.023,0.063-0.029l50.976-16.024       c0.121-0.04,0.254,0.011,0.323,0.118c0.068,0.108,0.055,0.248-0.032,0.342l-50.938,55.15c-0.103,0.113-0.283,0.123-0.397,0.015       c-0.113-0.105-0.121-0.283-0.015-0.397l50.221-54.374l-49.936,15.697c-33.034,20.523-65.66,42.622-96.971,65.684       C33.562,256.904,33.503,256.921,33.446,256.921z"/>
				</g>
				<g>
					<path style="fill:#FFDFE5;" d="M178.76,218.076c-0.041,0-0.081-0.008-0.121-0.027c-0.14-0.067-0.199-0.234-0.132-0.375       l22.213-46.725c0.035-0.074,0.1-0.128,0.179-0.149l49.789-13.788c0.121-0.04,0.252,0.017,0.317,0.127l25.661,43.279       c0.079,0.134,0.035,0.307-0.099,0.386c-0.135,0.078-0.307,0.036-0.386-0.099l-25.551-43.094l-49.457,13.697l-22.159,46.609       C178.967,218.018,178.866,218.076,178.76,218.076z"/>
				</g>
				<g>
					<path style="fill:#FFDFE5;" d="M296.338,200.458c-0.11,0-0.214-0.063-0.259-0.171l-20.298-47.873       c-0.034-0.08-0.028-0.172,0.015-0.248c0.043-0.076,0.119-0.128,0.205-0.14l37.916-5.363c0.068-0.014,0.14,0.006,0.197,0.045       l59.363,40.214c0.129,0.087,0.163,0.263,0.076,0.391c-0.087,0.129-0.264,0.162-0.391,0.076l-59.273-40.154l-37.446,5.297       l20.155,47.536c0.06,0.143-0.007,0.308-0.15,0.369C296.412,200.451,296.375,200.458,296.338,200.458z"/>
				</g>
				<g>
					<path style="fill:#FFDFE5;" d="M407.789,179.394c-0.042,0-0.083-0.009-0.122-0.027l-74.3-36.001       c-0.121-0.059-0.183-0.195-0.149-0.325c0.032-0.125,0.144-0.209,0.272-0.209c0.006,0,0.011,0,0.016,0l52.469,3.064       l93.109,19.538c0.152,0.032,0.249,0.181,0.217,0.333c-0.032,0.152-0.187,0.251-0.333,0.217l-93.067-19.533l-51.017-2.975       l73.028,35.383c0.14,0.068,0.198,0.237,0.131,0.376C407.994,179.336,407.893,179.394,407.789,179.394z"/>
				</g>
			</g>
			<g>
				<path style="fill:#7F6EEC;" d="M495.884,172.902c-19.081,22.996-76.952,74.207-222.532,91.24      C128.717,296.026,58.2,280.23,31.829,270.217c-4.365-1.642-6.48-6.075-5.693-10.125c21.533-12.915,82.847-41.176,234.21-65.657      c155.165-25.088,216.591-29.746,237.067-30.534C498.494,166.781,498.111,170.202,495.884,172.902z"/>
			</g>
			<g>
				<g>
					<path style="fill:#221309;" d="M264.404,251.81c-30.557,5.82-56.458,4.57-57.866-2.817c-0.185-0.94,0.034-1.914,0.657-2.945       c0,0,28.128-2.509,54.789-7.607c28.117-5.366,54.372-12.206,54.372-12.206c0.42,0.506,0.684,1.061,0.791,1.643       C318.555,235.264,294.938,245.969,264.404,251.81z"/>
				</g>
				<g>
					<path style="fill:#3C1C87;" d="M316.356,226.234c-4.027,7.05-25.424,15.89-52.085,20.988       c-28.117,5.366-52.289,4.719-57.075-1.174c4.027-7.051,25.425-15.867,52.086-20.966       C287.398,219.716,311.57,220.341,316.356,226.234z"/>
				</g>
			</g>
			<g style="opacity:0.2;">
				<path style="fill:#FFDFE5;" d="M448.362,378.176c-40.749,68.74-115.676,114.799-201.381,114.799      c-42.864,0-83.05-11.543-117.611-31.659l3.105-8.595l12.375-34.224l33.324-92.253l28.981-80.26c0,0,3.398-7.155,24.188-13.995      c5.513-1.822,13.553-4.195,21.766-5.815c16.831-3.33,27.938-4.265,37.029-4.76c20.453-1.08,24.233,2.97,24.233,2.97      l43.044,49.411l63.047,72.362l11.115,12.758L448.362,378.176z"/>
			</g>
			<g>
				<path style="fill:#FFFFFF;" d="M246.994,108.605c-0.927,2.285-0.296,4.958,1.155,6.979c1.451,2.02,3.624,3.469,5.893,4.608      c2.134,1.071,4.397,1.908,6.729,2.49c1.926,0.48,3.95,0.786,5.905,0.43c1.955-0.357,3.843-1.471,4.671-3.202      c0.821-1.718,0.492-3.758-0.271-5.501c-1.363-3.113-4.023-5.612-7.11-7.247C259.288,104.683,249.706,101.922,246.994,108.605z"/>
			</g>
		</g>
		<g>
			<g>
				<path style="fill:#FF85CA;" d="M400.818,82.652c-6.345,10.62-15.773,19.216-27.023,24.548c-0.247,0.112-0.495,0.225-0.743,0.338      c-7.965,3.668-16.808,5.693-26.168,5.693c-2.16,0-4.32-0.112-6.435-0.338c-0.202,0-0.383-0.022-0.585-0.067      c-9.09-0.99-17.618-3.96-25.111-8.415c-0.18-0.113-0.338-0.225-0.495-0.338c-5.468-3.308-10.395-7.448-14.558-12.241      c-0.158-0.135-0.27-0.27-0.383-0.427c-2.903-3.353-5.445-7.02-7.583-10.958c-0.09-0.158-0.18-0.315-0.27-0.495      c-2.025-3.803-3.668-7.83-4.883-12.038c-0.068-0.202-0.113-0.405-0.18-0.585c-1.35-4.883-2.138-9.99-2.273-15.278      c-0.022-0.18-0.022-0.382-0.022-0.562c-0.022-0.18-0.022-0.382,0-0.562c-0.022-0.157-0.022-0.337-0.022-0.495      c0-7.695,1.395-15.053,3.938-21.87c1.598,0.292,3.173,0.585,4.748,0.922c0.18,0,0.36,0.045,0.54,0.09      c6.683,1.328,13.275,2.948,19.733,4.86c0.18,0.045,0.338,0.09,0.518,0.158c3.982,1.147,7.898,2.43,11.768,3.825      c0.18,0.045,0.36,0.112,0.54,0.203c7.043,2.498,13.951,5.355,20.656,8.528c0.18,0.067,0.36,0.157,0.54,0.247      c7.718,3.645,15.188,7.718,22.411,12.173c0.18,0.09,0.382,0.202,0.562,0.337c1.935,1.192,3.87,2.43,5.783,3.69      c2.475,1.642,4.905,3.308,7.313,5.063c0.158,0.09,0.315,0.203,0.472,0.338c5.715,4.095,11.228,8.46,16.538,13.073      c0.157,0.135,0.292,0.248,0.45,0.383C400.66,82.516,400.751,82.584,400.818,82.652z"/>
			</g>
			<g>
				<g>
					<path style="fill:#FFDFE5;" d="M286.695,50.656c-0.832,0.427-1.688,0.675-2.587,0.832c-0.022-0.18-0.022-0.382,0-0.562       c0.81-0.157,1.598-0.405,2.34-0.765c4.86-2.453,5.288-8.933,5.67-14.648c0.045-0.63,0.09-1.283,0.135-1.913       c0.112-1.373,0.27-2.745,0.518-4.118c0.18,0,0.36,0.045,0.54,0.09c-0.225,1.35-0.405,2.723-0.495,4.073       c-0.067,0.63-0.09,1.26-0.135,1.912C292.297,41.43,291.847,48.068,286.695,50.656z"/>
				</g>
				<g>
					<path style="fill:#FFDFE5;" d="M313.561,34.59c-2.745,5.445-5.805,10.778-9.518,15.638c-5.04,6.593-11.228,12.285-17.46,17.686       c-0.068-0.202-0.113-0.405-0.18-0.585c6.143-5.355,12.24-10.958,17.19-17.438c3.69-4.815,6.705-10.058,9.45-15.458       C313.223,34.477,313.38,34.523,313.561,34.59z"/>
				</g>
				<g>
					<path style="fill:#FFDFE5;" d="M299.655,74.326c-2.677,1.912-5.422,3.892-7.92,6.12c-0.09-0.158-0.18-0.315-0.27-0.495       c2.475-2.228,5.197-4.185,7.875-6.075c3.24-2.34,6.615-4.747,9.473-7.605c6.165-6.12,9.99-14.198,13.703-22.028       c0.878-1.845,1.8-3.78,2.723-5.648c0.022-0.068,0.067-0.113,0.09-0.18c0.18,0.045,0.36,0.112,0.54,0.203       c-0.045,0.067-0.067,0.157-0.112,0.225c-0.945,1.868-1.845,3.78-2.745,5.648c-3.713,7.853-7.583,15.976-13.793,22.186       C306.315,69.556,302.94,71.986,299.655,74.326z"/>
				</g>
				<g>
					<path style="fill:#FFDFE5;" d="M347.064,47.393c-2.093,2.34-4.253,4.5-6.255,6.548c-7.785,7.853-15.818,15.953-24.503,23.086       c-1.215,0.99-2.43,1.958-3.645,2.925c-4.545,3.623-9.225,7.358-12.96,11.88c-0.158-0.135-0.27-0.27-0.383-0.427       c3.758-4.523,8.438-8.258,13.005-11.903c1.215-0.968,2.43-1.935,3.623-2.903c8.663-7.11,16.695-15.21,24.458-23.063       c1.98-1.98,4.095-4.118,6.12-6.39C346.704,47.213,346.884,47.303,347.064,47.393z"/>
				</g>
				<g>
					<path style="fill:#FFDFE5;" d="M343.441,75.001c-3.578,9.203-12.173,16.336-21.893,18.181l-0.405,0.067       c-1.62,0.293-3.285,0.608-4.275,1.8c-0.787,0.967-0.923,2.318-1.08,3.6l-0.022,0.202c-0.203,1.868-0.54,3.735-1.013,5.558       c-0.18-0.113-0.338-0.225-0.495-0.338c0.427-1.755,0.742-3.51,0.945-5.288l0.022-0.202c0.158-1.373,0.315-2.79,1.215-3.87       c1.103-1.372,2.97-1.71,4.613-2.003l0.383-0.09c9.54-1.8,17.978-8.798,21.488-17.821c0.405-1.057,0.787-2.16,1.192-3.308       c1.89-5.445,4.05-11.61,9.675-12.555c2.16-0.383,4.298,0.225,6.39,0.81c1.665,0.473,3.398,0.968,5.085,0.923       c1.508-0.023,2.925-0.428,4.208-1.102c0.18,0.09,0.382,0.202,0.562,0.337c-1.44,0.81-3.038,1.305-4.77,1.328h-0.135       c-1.733,0-3.443-0.472-5.108-0.945c-2.115-0.585-4.095-1.147-6.143-0.81c-5.288,0.9-7.29,6.638-9.226,12.196       C344.251,72.841,343.869,73.944,343.441,75.001z"/>
				</g>
				<g>
					<path style="fill:#FFDFE5;" d="M383.605,68.993c-4.23,3.645-8.73,6.998-13.163,10.305c-7.92,5.918-16.133,12.038-22.613,19.531       c-4.028,4.635-6.3,8.708-7.178,12.826c-0.09,0.405-0.157,0.832-0.202,1.237c-0.202,0-0.383-0.022-0.585-0.067       c0.068-0.428,0.135-0.855,0.225-1.283c0.9-4.208,3.218-8.37,7.313-13.073c6.525-7.56,14.76-13.703,22.726-19.621       c4.388-3.285,8.82-6.593,13.005-10.193C383.29,68.746,383.448,68.859,383.605,68.993z"/>
				</g>
				<g>
					<path style="fill:#FFDFE5;" d="M400.593,82.449c-2.025,1.328-4.32,2.25-6.75,2.632c-0.72,0.135-1.485,0.203-2.228,0.27       c-1.395,0.135-2.88,0.293-4.208,0.765c-2.295,0.81-4.387,2.61-6.413,5.513c-2.88,4.163-4.725,9.023-6.503,13.725       c-0.225,0.608-0.472,1.238-0.697,1.845c-0.247,0.112-0.495,0.225-0.743,0.338c0.315-0.788,0.63-1.575,0.923-2.385       c1.777-4.725,3.645-9.63,6.57-13.838c2.07-2.993,4.253-4.883,6.66-5.738c1.418-0.495,2.925-0.63,4.365-0.788       c0.72-0.067,1.462-0.135,2.182-0.247c2.295-0.382,4.455-1.237,6.39-2.475C400.301,82.202,400.436,82.314,400.593,82.449z"/>
				</g>
			</g>
		</g>
		<g>
			<circle style="fill:#FFD461;" cx="94.311" cy="337.48" r="34.278"/>
		</g>
		<g>
			
				<ellipse transform="matrix(0.2309 -0.973 0.973 0.2309 -3.4863 662.8898)" style="fill:#7F6EEC;" cx="417.555" cy="333.65" rx="34.278" ry="34.278"/>
		</g>
		<g>
			<polygon style="fill:#FFDFE5;" points="88.066,133.609 95.687,114.669 98.252,135.511 118.287,141.215 100.031,144.331      101.122,163.463 91.739,146.023 76.524,160.355 85.658,141.383 66.844,132.548    "/>
		</g>
		<g>
			<polygon style="fill:#FFDFE5;" points="191.642,39.03 187.563,19.027 201.19,35.003 221.051,28.722 207.536,41.383      218.99,56.746 201.548,47.365 196.752,67.709 193.918,46.844 173.35,49.841    "/>
		</g>
		<g>
			<polygon style="fill:#FFDFE5;" points="362.265,102.224 358.185,82.22 371.813,98.197 391.673,91.915 378.158,104.576      389.612,119.94 372.171,110.558 367.374,130.902 364.54,110.038 343.972,113.035    "/>
		</g>
		<g>
			<polygon style="fill:#FFDFE5;" points="416.277,267.406 422.391,247.928 426.581,268.505 447.001,272.623 429.045,277.159      431.63,296.147 420.911,279.495 406.865,294.974 414.486,275.345 395.037,268.011    "/>
		</g>
		<g>
			<polygon style="fill:#FFDFE5;" points="299.635,386.462 288.906,369.093 307.208,379.39 323.684,366.644 315.364,383.19      331.414,393.66 311.807,390.869 314.322,411.619 304.465,393.012 286.193,402.919    "/>
		</g>
		<g>
			<polygon style="fill:#FFDFE5;" points="36.795,268.305 37.965,247.923 47.055,266.853 67.862,265.857 51.559,274.643      58.705,292.423 44.242,278.895 34.403,297.337 36.997,276.441 16.347,274.081    "/>
		</g>
	</g>
</g>















</svg>
